<svg width="26" height="26" viewBox="0 0 26 26" fill="none" xmlns="http://www.w3.org/2000/svg">
<g clip-path="url(#clip0_548_4095)">
<path d="M12.7319 25.4647C19.7637 25.4647 25.4641 19.7643 25.4641 12.7325C25.4641 5.70065 19.7637 0.000244141 12.7319 0.000244141C5.70004 0.000244141 -0.000366211 5.70065 -0.000366211 12.7325C-0.000366211 19.7643 5.70004 25.4647 12.7319 25.4647Z" fill="#F0F0F0"/>
<path d="M21.6412 3.63832C19.3448 1.3883 16.2006 0.000488281 12.7318 0.000488281C11.6246 0.000488281 8.38519 1.3883 6.08887 3.63832H21.6412Z" fill="#6DA544"/>
<path d="M12.7317 10.9137H25.334C25.1502 9.62925 24.7751 8.40676 24.2379 7.27588H12.1781L12.7317 10.9137Z" fill="#6DA544"/>
<path d="M1.22551 18.1893H24.2379C24.7751 17.0585 25.1503 15.8359 25.334 14.5515H0.129395C0.313166 15.836 0.688219 17.0586 1.22551 18.1893V18.1893Z" fill="#6DA544"/>
<path d="M3.82214 21.8271C6.11857 24.0772 9.26273 25.465 12.7316 25.465C16.2005 25.465 19.3447 24.0772 21.6411 21.8271H3.82214Z" fill="#6DA544"/>
<path d="M12.7319 0.000244141C6.31779 0.000244141 1.01234 4.74354 0.129639 10.9136H12.7319V0.000244141Z" fill="#D80027"/>
<path d="M6.36618 9.76183L5.81262 8.65472V6.44041L7.19655 5.33325L8.58049 6.44041V8.10112L9.13404 7.54756V8.65472L8.02688 9.76183H6.36618Z" fill="#F0F0F0"/>
<path d="M3.38891 6.36646L3.53548 6.81755H4.00976L3.62605 7.09642L3.77267 7.54747L3.38891 7.26865L3.00515 7.54747L3.15177 7.09642L2.76807 6.81755H3.24234L3.38891 6.36646Z" fill="#F0F0F0"/>
<path d="M4.49597 5.25928L4.64254 5.71038H5.11686L4.7331 5.98924L4.87967 6.44029L4.49597 6.16152L4.11226 6.44029L4.25888 5.98924L3.87512 5.71038H4.34935L4.49597 5.25928Z" fill="#F0F0F0"/>
<path d="M5.60314 4.1521L5.74971 4.6032H6.22394L5.84028 4.88206L5.9868 5.33311L5.60314 5.05435L5.21939 5.33311L5.36596 4.88206L4.9823 4.6032H5.45652L5.60314 4.1521Z" fill="#F0F0F0"/>
<path d="M11.0045 6.36646L10.8579 6.81755H10.3837L10.7673 7.09642L10.6208 7.54747L11.0045 7.26865L11.3882 7.54747L11.2416 7.09642L11.6253 6.81755H11.1511L11.0045 6.36646Z" fill="#F0F0F0"/>
<path d="M9.89704 5.25928L9.75047 5.71038H9.27625L9.6599 5.98924L9.51333 6.44029L9.89704 6.16152L10.2808 6.44029L10.1342 5.98924L10.5179 5.71038H10.0437L9.89704 5.25928Z" fill="#F0F0F0"/>
<path d="M8.78991 4.1521L8.64329 4.6032H8.16907L8.55273 4.88206L8.40616 5.33311L8.78991 5.05435L9.17362 5.33311L9.02705 4.88206L9.41071 4.6032H8.93648L8.78991 4.1521Z" fill="#F0F0F0"/>
<path d="M7.19665 3.59863L7.05003 4.04973H6.57581L6.95946 4.32855L6.81289 4.7796L7.19665 4.50083L7.58036 4.7796L7.43379 4.32855L7.81745 4.04973H7.34322L7.19665 3.59863Z" fill="#F0F0F0"/>
</g>
<defs>
<clipPath id="clip0_548_4095">
<rect width="25.4644" height="25.4644" fill="white"/>
</clipPath>
</defs>
</svg>
