<svg width="27" height="26" viewBox="0 0 27 26" fill="none" xmlns="http://www.w3.org/2000/svg">
<g clip-path="url(#clip0_548_4112)">
<path d="M19.1397 1.26362C17.4658 0.454227 15.5879 0.000244141 13.6039 0.000244141C11.62 0.000244141 9.7421 0.454227 8.06822 1.26362L6.96106 12.7325L8.06822 24.2013C9.7421 25.0107 11.62 25.4647 13.6039 25.4647C15.5879 25.4647 17.4658 25.0107 19.1397 24.2013L20.2468 12.7325L19.1397 1.26362Z" fill="#D80027"/>
<path d="M8.06807 1.26392C3.80924 3.3233 0.871582 7.68454 0.871582 12.7323C0.871582 17.7801 3.80924 22.1413 8.06807 24.2007V1.26392Z" fill="black"/>
<path d="M19.1398 1.26392V24.2007C23.3986 22.1413 26.3363 17.7801 26.3363 12.7323C26.3363 7.68454 23.3986 3.3233 19.1398 1.26392Z" fill="#496E2D"/>
<path d="M13.6039 8.30371C11.158 8.30371 9.17529 10.2865 9.17529 12.7323C9.17529 15.1781 11.158 17.1609 13.6039 17.1609C16.0497 17.1609 18.0324 15.1781 18.0324 12.7323C18.0324 10.2865 16.0497 8.30371 13.6039 8.30371ZM13.6039 15.5001C12.0752 15.5001 10.836 14.2609 10.836 12.7323C10.836 11.2037 12.0753 9.96442 13.6039 9.96442C15.1325 9.96442 16.3717 11.2037 16.3717 12.7323C16.3717 14.2609 15.1325 15.5001 13.6039 15.5001Z" fill="#FFDA44"/>
<path d="M13.6039 11.0715C12.9924 11.0715 12.4967 11.5672 12.4967 12.1787V13.8394H14.711V12.1787C14.711 11.5672 14.2154 11.0715 13.6039 11.0715V11.0715Z" fill="#FFDA44"/>
</g>
<defs>
<clipPath id="clip0_548_4112">
<rect width="25.4644" height="25.4644" fill="white" transform="translate(0.871582)"/>
</clipPath>
</defs>
</svg>
