<svg width="27" height="26" viewBox="0 0 27 26" fill="none" xmlns="http://www.w3.org/2000/svg">
<g clip-path="url(#clip0_548_4119)">
<path d="M25.7696 16.0538C26.055 14.9948 26.2082 13.8816 26.2082 12.7324C26.2082 11.5831 26.055 10.47 25.7696 9.41089L12.3688 0.048584C9.88103 0.262943 7.59804 1.19249 5.72595 2.63089L1.18239 9.41089C0.896959 10.47 0.743774 11.5831 0.743774 12.7324C0.743774 13.8749 0.895119 14.9819 1.17737 16.0354L5.7259 22.8338C7.59799 24.2722 9.88098 25.2018 12.3688 25.4161L25.7696 16.0538Z" fill="#FFDA44"/>
<path d="M1.18213 16.054C1.91881 18.7874 3.54241 21.1564 5.72569 22.834V16.054H1.18213Z" fill="#0052B4"/>
<path d="M12.3683 25.4163C12.7332 25.4477 13.1023 25.4647 13.4754 25.4647C19.3581 25.4647 24.308 21.4749 25.769 16.054H12.3683V25.4163Z" fill="#0052B4"/>
<path d="M25.769 9.41124C24.308 3.9903 19.3581 0.000488281 13.4754 0.000488281C13.1023 0.000488281 12.7332 0.0174977 12.3683 0.0489304V9.41124H25.769Z" fill="#0052B4"/>
<path d="M5.72569 2.63135C3.54241 4.30892 1.91881 6.67795 1.18213 9.41135H5.72569V2.63135Z" fill="#0052B4"/>
<path d="M26.1002 11.0716H10.7079H10.7079V0.302734C9.53125 0.563645 8.41574 0.986544 7.38642 1.5482V11.0716H0.851307C0.780434 11.6152 0.74353 12.1695 0.74353 12.7323C0.74353 13.2952 0.780434 13.8494 0.851307 14.393H7.38637H7.38642V23.9164C8.41574 24.478 9.53125 24.901 10.7079 25.1618V14.3932V14.3931H26.1002C26.171 13.8494 26.208 13.2952 26.208 12.7323C26.208 12.1695 26.171 11.6152 26.1002 11.0716V11.0716Z" fill="#D80027"/>
</g>
<defs>
<clipPath id="clip0_548_4119">
<rect width="25.4644" height="25.4644" fill="white" transform="translate(0.743164)"/>
</clipPath>
</defs>
</svg>
