<svg width="27" height="26" viewBox="0 0 27 26" fill="none" xmlns="http://www.w3.org/2000/svg">
<g clip-path="url(#clip0_548_4127)">
<path d="M13.3473 25.4647C20.3791 25.4647 26.0795 19.7643 26.0795 12.7325C26.0795 5.70065 20.3791 0.000244141 13.3473 0.000244141C6.31552 0.000244141 0.615112 5.70065 0.615112 12.7325C0.615112 19.7643 6.31552 25.4647 13.3473 25.4647Z" fill="#D80027"/>
<path d="M20.544 9.45027H15.9323C16.217 9.15216 16.3922 8.74856 16.3922 8.30378C16.3922 7.38661 15.6487 6.64307 14.7315 6.64307C14.1537 6.64307 13.645 6.9383 13.3476 7.38596C13.0501 6.9383 12.5414 6.64307 11.9636 6.64307C11.0465 6.64307 10.3029 7.38661 10.3029 8.30378C10.3029 8.74856 10.4781 9.15221 10.7628 9.45027H6.15112C6.15112 10.6732 7.2163 11.6645 8.43914 11.6645H8.36533C8.36533 12.8875 9.35671 13.8789 10.5797 13.8789C10.5797 14.275 10.6841 14.6463 10.8663 14.9678L9.0296 16.8046L10.4388 18.2137L12.4378 16.2148C12.516 16.2435 12.5971 16.2665 12.6807 16.2822L11.4728 19.0094L13.3476 21.036L15.2223 19.0093L14.0144 16.2821C14.0981 16.2664 14.1791 16.2434 14.2574 16.2147L16.2563 18.2136L17.6655 16.8044L15.8288 14.9676C16.011 14.6462 16.1154 14.2748 16.1154 13.8787C17.3384 13.8787 18.3297 12.8874 18.3297 11.6644H18.256C19.4788 11.6645 20.544 10.6732 20.544 9.45027V9.45027Z" fill="black"/>
</g>
<defs>
<clipPath id="clip0_548_4127">
<rect width="25.4644" height="25.4644" fill="white" transform="translate(0.615234)"/>
</clipPath>
</defs>
</svg>
