<svg width="26" height="26" viewBox="0 0 26 26" fill="none" xmlns="http://www.w3.org/2000/svg">
<g clip-path="url(#clip0_548_4130)">
<path d="M13.2193 0.000244141C20.2511 0.000244141 25.9515 5.7007 25.9515 12.7325C25.9515 19.7642 20.2511 25.4647 13.2193 25.4647C13.2193 24.9111 11.5586 12.7325 11.5586 12.7325L13.2193 0.000244141Z" fill="#F0F0F0"/>
<path d="M13.219 25.4647C6.18727 25.4647 0.486816 19.7642 0.486816 12.7325C0.486816 5.7007 6.18727 0.000244141 13.219 0.000244141" fill="#496E2D"/>
<path d="M15.9547 10.2903L14.9101 11.7299L13.2183 11.1812L14.2646 12.6195L13.2201 14.0591L14.9112 13.5085L15.9576 14.9468L15.9565 13.1682L17.6477 12.6175L15.9559 12.069L15.9547 10.2903Z" fill="#D80027"/>
<path d="M14.2753 16.3306C12.2881 16.3306 10.677 14.7196 10.677 12.7323C10.677 10.7451 12.2881 9.13409 14.2753 9.13409C14.8949 9.13409 15.4779 9.29076 15.9869 9.56659C15.1884 8.7857 14.0964 8.30371 12.8913 8.30371C10.4455 8.30371 8.46277 10.2865 8.46277 12.7323C8.46277 15.1781 10.4455 17.1609 12.8913 17.1609C14.0964 17.1609 15.1884 16.6789 15.9869 15.898C15.4779 16.1739 14.8949 16.3306 14.2753 16.3306Z" fill="#D80027"/>
</g>
<defs>
<clipPath id="clip0_548_4130">
<rect width="25.4644" height="25.4644" fill="white" transform="translate(0.487305)"/>
</clipPath>
</defs>
</svg>
