<svg width="26" height="26" viewBox="0 0 26 26" fill="none" xmlns="http://www.w3.org/2000/svg">
<g clip-path="url(#clip0_548_4136)">
<path d="M13.091 25.4647C20.1228 25.4647 25.8232 19.7643 25.8232 12.7325C25.8232 5.70065 20.1228 0.000244141 13.091 0.000244141C6.05917 0.000244141 0.358765 5.70065 0.358765 12.7325C0.358765 19.7643 6.05917 25.4647 13.091 25.4647Z" fill="#F0F0F0"/>
<path d="M19.268 1.59759C17.4386 0.5806 15.3327 0.000488281 13.0911 0.000488281C6.05984 0.000488281 0.359782 5.70005 0.358887 12.7312L9.21608 8.30413L19.268 1.59759Z" fill="#0052B4"/>
<path d="M0.358887 12.7339C0.359782 19.7651 6.05984 25.4646 13.0911 25.4646C15.3327 25.4646 17.4386 24.8846 19.268 23.8675L9.21608 17.161L0.358887 12.7339Z" fill="#0052B4"/>
<path d="M20.3289 2.2572C19.987 2.02051 19.6326 1.80038 19.2675 1.59741L0.358765 12.7308V12.7323C0.358765 12.7323 0.358765 12.7334 0.358765 12.7338L19.2675 23.8672C19.6327 23.6642 19.987 23.4441 20.329 23.2074L2.53826 12.7323L20.3289 2.2572Z" fill="#D80027"/>
<path d="M22.5018 12.2574H20.9851C21.3795 11.7839 21.3552 11.0795 20.9109 10.6353C21.3815 10.1648 21.3815 9.40177 20.9109 8.93113L20.8825 8.95958C21.3531 8.48903 21.3815 7.6976 20.9109 7.22705L14.0944 14.0436C14.565 14.5142 15.3146 14.5086 15.7851 14.038L15.9163 13.9181L19.1803 13.6214V15.0252H20.2875V13.5207L21.9482 13.3697L22.5018 12.2574Z" fill="#A2001D"/>
<path d="M14.1985 15.5002L13.0909 14.9467L14.1985 14.3931H21.3949V15.5002H14.1985Z" fill="#FFDA44"/>
</g>
<defs>
<clipPath id="clip0_548_4136">
<rect width="25.4644" height="25.4644" fill="white" transform="translate(0.358398)"/>
</clipPath>
</defs>
</svg>
