<svg width="26" height="26" viewBox="0 0 26 26" fill="none" xmlns="http://www.w3.org/2000/svg">
<g clip-path="url(#clip0_548_4144)">
<path d="M7.42698 24.2013C9.10087 25.0107 10.9787 25.4647 12.9627 25.4647C14.9467 25.4647 16.8245 25.0107 18.4984 24.2013L19.6056 12.7325L18.4984 1.26362C16.8245 0.454227 14.9467 0.000244141 12.9627 0.000244141C10.9787 0.000244141 9.10087 0.454227 7.42698 1.26362L6.31982 12.7325L7.42698 24.2013Z" fill="#FFDA44"/>
<path d="M18.4985 24.2007C22.7574 22.1414 25.695 17.7801 25.695 12.7323C25.695 7.68454 22.7574 3.32325 18.4985 1.26392V24.2007Z" fill="#D80027"/>
<path d="M7.42683 24.2007V1.26392C3.16796 3.32325 0.230347 7.68449 0.230347 12.7323C0.230347 17.7801 3.16796 22.1414 7.42683 24.2007Z" fill="#0052B4"/>
<path d="M12.9626 17.161C12.9626 15.1293 12.9626 12.7324 12.9626 12.7324H16.2841V14.3931C16.2841 14.6816 15.7306 15.7388 14.3642 16.6074C13.8467 16.9365 13.311 17.0423 12.9626 17.161Z" fill="#D80027"/>
<path d="M9.64124 9.41064H12.9627V12.7321H9.64124V9.41064Z" fill="#D80027"/>
<path d="M14.6233 8.30369C14.6233 7.69219 14.1276 7.19653 13.5162 7.19653C13.3143 7.19653 13.1256 7.25144 12.9626 7.34584C12.7996 7.25144 12.611 7.19653 12.4091 7.19653C11.7976 7.19653 11.3019 7.69219 11.3019 8.30369H8.53406V13.8394C8.53406 15.9002 10.1706 17.092 11.4541 17.7098C11.358 17.8738 11.3019 18.0642 11.3019 18.268C11.3019 18.8795 11.7976 19.3752 12.4091 19.3752C12.611 19.3752 12.7997 19.3203 12.9626 19.2259C13.1256 19.3203 13.3143 19.3752 13.5162 19.3752C14.1276 19.3752 14.6233 18.8795 14.6233 18.268C14.6233 18.0642 14.5672 17.8738 14.4712 17.7098C15.7546 17.092 17.3912 15.9002 17.3912 13.8394V8.30369H14.6233ZM15.7305 13.8394C15.7305 14.1279 15.7305 15.0058 14.3642 15.8744C13.8466 16.2035 13.311 16.4168 12.9626 16.5355C12.6143 16.4168 12.0786 16.2035 11.5611 15.8744C10.1948 15.0058 10.1948 14.1279 10.1948 13.8394V9.9644H15.7305V13.8394Z" fill="#FF9811"/>
</g>
<defs>
<clipPath id="clip0_548_4144">
<rect width="25.4644" height="25.4644" fill="white" transform="translate(0.230469)"/>
</clipPath>
</defs>
</svg>
