<svg width="26" height="26" viewBox="0 0 26 26" fill="none" xmlns="http://www.w3.org/2000/svg">
<g clip-path="url(#clip0_548_4152)">
<path d="M0.102051 12.7325C0.102051 5.7007 5.8025 0.000244141 12.8343 0.000244141C19.866 0.000244141 25.5665 5.7007 25.5665 12.7325C25.0129 12.7325 12.8343 14.3932 12.8343 14.3932L0.102051 12.7325Z" fill="#D80027"/>
<path d="M25.5667 12.7324C25.5667 19.7642 19.8663 25.4646 12.8345 25.4646C5.80275 25.4646 0.102295 19.7642 0.102295 12.7324" fill="black"/>
<path d="M11.0889 10.1269L12.1682 10.9102L11.7569 12.1789L12.8355 11.3943L13.9149 12.1776L13.502 10.9093L14.5805 10.1248L13.2468 10.1256L12.8339 8.85742L12.4225 10.1261L11.0889 10.1269Z" fill="#FFDA44"/>
<path d="M16.0174 7.21919C15.0141 6.63992 13.917 6.36653 12.8343 6.36842V8.02878C13.6346 8.02734 14.4454 8.22926 15.187 8.65748C17.4339 9.95478 18.2066 12.8382 16.9092 15.0852C15.612 17.3321 12.7286 18.1047 10.4816 16.8074C9.82697 16.4295 9.29853 15.9163 8.909 15.3241L7.52258 16.2395C8.04963 17.0407 8.76562 17.7343 9.65125 18.2456C12.6913 20.0007 16.5923 18.9555 18.3475 15.9154C20.1026 12.8754 19.0574 8.97435 16.0174 7.21919V7.21919Z" fill="#FFDA44"/>
<path d="M9.16351 11.6252C8.72335 12.4299 9.01888 13.4391 9.8235 13.8792L15.2172 16.8266C14.8504 17.497 15.0452 18.3131 15.7157 18.6799L17.1727 19.4769C17.8432 19.8438 18.6843 19.5975 19.0511 18.927L19.8481 17.47L9.16351 11.6252Z" fill="#FFDA44"/>
</g>
<defs>
<clipPath id="clip0_548_4152">
<rect width="25.4644" height="25.4644" fill="white" transform="translate(0.102539)"/>
</clipPath>
</defs>
</svg>
