<svg width="27" height="26" viewBox="0 0 27 26" fill="none" xmlns="http://www.w3.org/2000/svg">
<g clip-path="url(#clip0_548_4159)">
<path d="M26.4387 12.7322C26.4387 19.764 20.7382 25.4644 13.7065 25.4644C6.6747 25.4644 0.974243 19.764 0.974243 12.7322C0.974243 12.7353 13.7065 0.00139259 13.7065 0C20.7382 0 26.4387 5.70045 26.4387 12.7322Z" fill="#0052B4"/>
<path d="M13.672 12.7338H13.7075C13.7075 12.7218 13.7075 12.7102 13.7075 12.6982C13.6957 12.7101 13.6839 12.7219 13.672 12.7338Z" fill="#F0F0F0"/>
<path d="M13.7061 6.64289C13.7061 4.40256 13.7061 2.93463 13.7061 0H13.704C6.67309 0.00119365 0.973877 5.7011 0.973877 12.7322H7.61676V8.99158L11.3574 12.7322H13.6721C13.6834 12.7209 13.6948 12.7095 13.7061 12.6982C13.7061 11.8404 13.7061 11.075 13.7061 10.3836L9.96541 6.64289H13.7061Z" fill="#F0F0F0"/>
<path d="M7.41539 1.66064C5.42404 2.79456 3.76851 4.45004 2.63464 6.44139V12.7322H5.95611V4.98221V4.98211H13.7062C13.7062 3.93454 13.7062 2.93655 13.7062 1.66064H7.41539Z" fill="#D80027"/>
<path d="M13.7059 11.1666L9.18224 6.64307H7.61658V6.64317L13.7058 12.7323H13.7059C13.7059 12.7323 13.7059 11.6527 13.7059 11.1666V11.1666Z" fill="#D80027"/>
<path d="M22.5062 14.5961C22.8723 14.0924 23.1169 13.4772 23.1169 12.7323V7.19657C22.6542 7.54412 22.0793 7.75012 21.4562 7.75012C20.5507 7.75012 19.7468 7.31529 19.2418 6.64307C18.7368 7.31529 17.933 7.75012 17.0275 7.75012C16.4043 7.75012 15.8294 7.54407 15.3668 7.19667V12.7323C15.3668 13.4772 15.6114 14.0924 15.9775 14.5961H22.5062Z" fill="#F3F3F3"/>
<path d="M21.3549 11.7053C21.5312 11.2753 21.6682 10.6468 21.6682 10.334C21.6682 9.83145 21.013 9.42407 21.013 9.42407C21.013 9.42407 20.3578 9.83145 20.3578 10.334C20.3578 10.6469 20.4949 11.2754 20.6711 11.7053L20.2928 12.5593C20.5152 12.6497 20.7582 12.7 21.0131 12.7C21.268 12.7 21.5109 12.6497 21.7333 12.5593L21.3549 11.7053Z" fill="#FF9811"/>
<path d="M18.7937 8.94008C18.3334 9.00245 17.7205 9.19816 17.4496 9.35452C17.0144 9.60584 16.9891 10.3769 16.9891 10.3769C16.9891 10.3769 17.6696 10.7406 18.1048 10.4893C18.3758 10.3329 18.8514 9.90002 19.1356 9.53238L20.0644 9.43291C20.0315 9.19527 19.9534 8.95968 19.8261 8.739C19.6986 8.51833 19.5337 8.33291 19.3442 8.18555L18.7937 8.94008Z" fill="#FF9811"/>
<path d="M17.68 12.5407C17.9642 12.9082 18.44 13.341 18.7109 13.4975C19.1462 13.7487 19.8266 13.3851 19.8266 13.3851C19.8266 13.3851 19.8012 12.614 19.3661 12.3627C19.0951 12.2063 18.4823 12.0107 18.0219 11.9485L17.4714 11.1938C17.282 11.3412 17.1171 11.5267 16.9896 11.7472C16.8622 11.9679 16.7842 12.2034 16.7512 12.4412L17.68 12.5407Z" fill="#FF9811"/>
<path d="M15.8407 14.3931C16.8746 16.052 19.242 16.6073 19.242 16.6073C19.242 16.6073 21.6094 16.052 22.6434 14.3931H15.8407Z" fill="#338AF3"/>
</g>
<defs>
<clipPath id="clip0_548_4159">
<rect width="25.4644" height="25.4644" fill="white" transform="translate(0.973633)"/>
</clipPath>
</defs>
</svg>
