<svg width="27" height="26" viewBox="0 0 27 26" fill="none" xmlns="http://www.w3.org/2000/svg">
<g clip-path="url(#clip0_548_4174)">
<path d="M0.845947 12.7321C0.845947 13.6042 0.933879 14.4558 1.10094 15.2786L13.5782 16.0536L26.0554 15.2786C26.2226 14.4558 26.3104 13.6042 26.3104 12.7321C26.3104 11.86 26.2225 11.0084 26.0554 10.1857L13.5782 9.41064L1.10094 10.1857C0.933879 11.0084 0.845947 11.86 0.845947 12.7321H0.845947Z" fill="#0052B4"/>
<path d="M26.0552 15.2786H1.10071C2.28038 21.0901 7.41827 25.4643 13.5779 25.4643C19.7376 25.4643 24.8755 21.0901 26.0552 15.2786Z" fill="#F0F0F0"/>
<path d="M1.10071 10.186H26.0553C24.8755 4.37446 19.7377 0.000244141 13.5779 0.000244141C7.41818 0.000244141 2.28038 4.37446 1.10071 10.186V10.186Z" fill="black"/>
<path d="M19.1137 10.1858H8.04224L10.3042 9.12176L9.09966 6.93117L11.5558 7.40092L11.8672 4.91968L13.578 6.74466L15.2889 4.91968L15.6 7.40092L18.0563 6.93117L16.8518 9.12186L19.1137 10.1858Z" fill="#FFDA44"/>
<path d="M0.845947 12.7326C0.845947 19.7643 6.5464 25.4648 13.5782 25.4648L3.39219 5.09277C1.7935 7.22089 0.845947 9.86596 0.845947 12.7326Z" fill="#A2001D"/>
<path d="M13.578 25.4648C20.6098 25.4648 26.3102 19.7643 26.3102 12.7326C26.3102 9.86596 25.3627 7.22089 23.764 5.09277L13.578 25.4648Z" fill="#A2001D"/>
</g>
<defs>
<clipPath id="clip0_548_4174">
<rect width="25.4644" height="25.4644" fill="white" transform="translate(0.845703)"/>
</clipPath>
</defs>
</svg>
