<svg width="26" height="27" viewBox="0 0 26 27" fill="none" xmlns="http://www.w3.org/2000/svg">
<g clip-path="url(#clip0_548_4182)">
<path d="M12.7322 26.3363C19.764 26.3363 25.4644 20.6359 25.4644 13.604C25.4644 6.57223 19.764 0.871826 12.7322 0.871826C5.70041 0.871826 0 6.57223 0 13.604C0 20.6359 5.70041 26.3363 12.7322 26.3363Z" fill="#F0F0F0"/>
<path d="M12.7321 0.871826C7.68432 0.871826 3.32274 3.80944 1.26331 8.06831H24.2009C22.1416 3.80944 17.7799 0.871826 12.7321 0.871826V0.871826Z" fill="#338AF3"/>
<path d="M12.7323 26.3361C17.78 26.3361 22.1417 23.3985 24.2011 19.1396H1.26343C3.32286 23.3985 7.68444 26.3361 12.7323 26.3361Z" fill="#338AF3"/>
<path d="M16.5375 13.604L14.9825 14.3354L15.8106 15.8414L14.1221 15.5183L13.9081 17.224L12.732 15.9695L11.5559 17.224L11.342 15.5183L9.65344 15.8413L10.4814 14.3354L8.92651 13.604L10.4815 12.8725L9.65344 11.3666L11.3419 11.6896L11.5559 9.98389L12.732 11.2384L13.9081 9.98389L14.1221 11.6896L15.8106 11.3666L14.9826 12.8726L16.5375 13.604Z" fill="#FFDA44"/>
</g>
<defs>
<clipPath id="clip0_548_4182">
<rect width="25.4644" height="25.4644" fill="white" transform="translate(0 0.87207)"/>
</clipPath>
</defs>
</svg>
