<svg width="27" height="27" viewBox="0 0 27 27" fill="none" xmlns="http://www.w3.org/2000/svg">
<g clip-path="url(#clip0_548_4188)">
<path d="M26.336 13.6042C26.336 12.0468 26.0559 10.5549 25.5441 9.17567L13.6038 8.62207L1.66352 9.17562C1.15174 10.5549 0.871582 12.0468 0.871582 13.6042C0.871582 15.1617 1.15174 16.6536 1.66352 18.0328L13.6038 18.5864L25.5441 18.0329C26.0559 16.6536 26.336 15.1617 26.336 13.6042Z" fill="#0052B4"/>
<path d="M13.6039 26.3361C19.0783 26.3361 23.7452 22.8809 25.5441 18.0325H1.66357C3.46255 22.8809 8.12945 26.3361 13.6039 26.3361Z" fill="#FF9811"/>
<path d="M1.66357 9.17547H25.5442C23.7452 4.32703 19.0783 0.871826 13.6039 0.871826C8.12945 0.871826 3.46255 4.32703 1.66357 9.17547V9.17547Z" fill="#D80027"/>
</g>
<defs>
<clipPath id="clip0_548_4188">
<rect width="25.4644" height="25.4644" fill="white" transform="translate(0.871582 0.87207)"/>
</clipPath>
</defs>
</svg>
