<svg width="27" height="27" viewBox="0 0 27 27" fill="none" xmlns="http://www.w3.org/2000/svg">
<g clip-path="url(#clip0_548_4192)">
<path d="M13.4757 26.3363C20.5076 26.3363 26.208 20.6359 26.208 13.604C26.208 6.57223 20.5076 0.871826 13.4757 0.871826C6.44394 0.871826 0.74353 6.57223 0.74353 13.604C0.74353 20.6359 6.44394 26.3363 13.4757 26.3363Z" fill="#FFDA44"/>
<path d="M13.4755 26.3363C17.3345 26.3363 20.7923 24.6192 23.1272 21.9077H3.82385C6.15877 24.6192 9.61651 26.3363 13.4755 26.3363Z" fill="#338AF3"/>
<path d="M26.2081 13.6043C26.2081 6.57252 20.5076 0.87207 13.4759 0.87207C6.44411 0.87207 0.743652 6.57252 0.743652 13.6043C0.743652 14.7535 0.896837 15.8667 1.18227 16.9258H25.7695C26.0549 15.8667 26.2081 14.7535 26.2081 13.6043Z" fill="#338AF3"/>
<path d="M1.75549 18.5862C2.00094 19.1629 2.28786 19.7176 2.61218 20.2469H24.3391C24.6634 19.7175 24.9504 19.1629 25.1959 18.5862H1.75549Z" fill="#338AF3"/>
<path d="M6.57813 8.90197L4.09058 7.80411L6.57813 6.70626L7.67594 4.21875L8.77374 6.70626L11.2613 7.80411L8.77374 8.90197L7.67594 11.3895L6.57813 8.90197Z" fill="#F0F0F0"/>
<path d="M7.67598 5.59033L8.35392 7.1266L9.89024 7.80464L8.35392 8.48263L7.67598 10.0189L6.99794 8.48263L5.46167 7.80464L6.99794 7.1266L7.67598 5.59033Z" fill="#D80027"/>
</g>
<defs>
<clipPath id="clip0_548_4192">
<rect width="25.4644" height="25.4644" fill="white" transform="translate(0.743164 0.87207)"/>
</clipPath>
</defs>
</svg>
