<svg width="26" height="27" viewBox="0 0 26 27" fill="none" xmlns="http://www.w3.org/2000/svg">
<g clip-path="url(#clip0_548_4216)">
<path d="M25.1593 18.0327C25.6711 16.6534 25.9513 15.1615 25.9513 13.6041C25.9513 12.0467 25.6711 10.5549 25.1593 9.17552L13.219 8.06836L1.27875 9.17552C0.766975 10.5549 0.486816 12.0467 0.486816 13.6041C0.486816 15.1615 0.766975 16.6534 1.27875 18.0327L13.219 19.1398L25.1593 18.0327Z" fill="#F0F0F0"/>
<path d="M13.2189 26.3359C18.6933 26.3359 23.3602 22.8807 25.1591 18.0322H1.27856C3.07759 22.8807 7.74444 26.3359 13.2189 26.3359Z" fill="#D80027"/>
<path d="M13.219 0.871826C7.74456 0.871826 3.07771 4.32703 1.27869 9.17547H25.1593C23.3603 4.32703 18.6934 0.871826 13.219 0.871826Z" fill="#D80027"/>
</g>
<defs>
<clipPath id="clip0_548_4216">
<rect width="25.4644" height="25.4644" fill="white" transform="translate(0.487305 0.87207)"/>
</clipPath>
</defs>
</svg>
