<svg width="27" height="27" viewBox="0 0 27 27" fill="none" xmlns="http://www.w3.org/2000/svg">
<g clip-path="url(#clip0_548_4200)">
<path d="M26.0797 13.604C26.0797 20.6358 20.3792 26.3363 13.3475 26.3363C6.31569 26.3363 0.615234 20.6358 0.615234 13.604C0.615234 13.607 13.3475 0.873268 13.3475 0.871826C20.3792 0.871826 26.0797 6.57228 26.0797 13.604Z" fill="#0052B4"/>
<path d="M13.3132 13.6051H13.3487C13.3487 13.5931 13.3487 13.5816 13.3487 13.5696C13.3369 13.5815 13.3251 13.5933 13.3132 13.6051Z" fill="#F0F0F0"/>
<path d="M13.3475 7.51471C13.3475 5.27439 13.3475 3.80635 13.3475 0.871826H13.3453C6.31449 0.87297 0.615234 6.57287 0.615234 13.604H7.25812V9.86331L10.9988 13.604H13.3134C13.3248 13.5927 13.3362 13.5813 13.3475 13.5699C13.3475 12.7121 13.3475 11.9468 13.3475 11.2554L9.60677 7.51471H13.3475Z" fill="#F0F0F0"/>
<path d="M7.05663 2.53247C5.06528 3.66638 3.40979 5.32187 2.27588 7.31322V13.604H5.59735V5.85399V5.85394H13.3474C13.3474 4.80637 13.3474 3.80838 13.3474 2.53247H7.05663Z" fill="#D80027"/>
<path d="M13.3472 12.0382L8.82365 7.51467H7.25793C7.25793 7.51462 7.25793 7.51467 7.25793 7.51467L13.3472 13.6039H13.3472C13.3472 13.6039 13.3472 12.5244 13.3472 12.0382Z" fill="#D80027"/>
<path d="M8.29411 15.8188L8.99289 17.28L10.5708 16.9153L9.86421 18.3726L11.1331 19.3789L9.55321 19.735L9.55764 21.3546L8.29411 20.3413L7.03064 21.3546L7.03507 19.735L5.45508 19.3789L6.72407 18.3726L6.01733 16.9153L7.59538 17.28L8.29411 15.8188Z" fill="#F0F0F0"/>
<path d="M19.6778 18.5864L20.0272 19.317L20.8162 19.1346L20.4628 19.8633L21.0973 20.3664L20.3073 20.5445L20.3095 21.3543L19.6778 20.8476L19.0461 21.3543L19.0482 20.5445L18.2583 20.3664L18.8928 19.8633L18.5395 19.1346L19.3284 19.317L19.6778 18.5864Z" fill="#F0F0F0"/>
<path d="M16.4276 10.8364L16.7769 11.567L17.5659 11.3846L17.2126 12.1133L17.8471 12.6164L17.0571 12.7945L17.0593 13.6043L16.4276 13.0976L15.7959 13.6043L15.798 12.7945L15.0081 12.6164L15.6425 12.1133L15.2892 11.3846L16.0782 11.567L16.4276 10.8364Z" fill="#F0F0F0"/>
<path d="M19.6778 6.40771L20.0272 7.13833L20.8162 6.95595L20.4629 7.68462L21.0973 8.18774L20.3073 8.36584L20.3095 9.17563L19.6778 8.66898L19.0461 9.17563L19.0482 8.36584L18.2583 8.18774L18.8927 7.68462L18.5395 6.95595L19.3284 7.13833L19.6778 6.40771Z" fill="#F0F0F0"/>
<path d="M22.5168 9.72949L22.8662 10.4601L23.6552 10.2777L23.3019 11.0063L23.9363 11.5095L23.1463 11.6876L23.1485 12.4974L22.5168 11.9908L21.8851 12.4974L21.8872 11.6876L21.0973 11.5095L21.7318 11.0063L21.3784 10.2777L22.1674 10.4601L22.5168 9.72949Z" fill="#F0F0F0"/>
<path d="M20.4869 13.6042L20.7617 14.45H21.6511L20.9315 14.9728L21.2064 15.8186L20.4869 15.2958L19.7674 15.8186L20.0422 14.9728L19.3228 14.45H20.2121L20.4869 13.6042Z" fill="#F0F0F0"/>
</g>
<defs>
<clipPath id="clip0_548_4200">
<rect width="25.4644" height="25.4644" fill="white" transform="translate(0.615234 0.87207)"/>
</clipPath>
</defs>
</svg>
