<svg width="26" height="27" viewBox="0 0 26 27" fill="none" xmlns="http://www.w3.org/2000/svg">
<g clip-path="url(#clip0_548_4221)">
<path d="M25.8232 13.6042C25.8232 12.0468 25.5431 10.5549 25.0313 9.17567L13.091 8.62207L1.1507 9.17562C0.638923 10.5549 0.358765 12.0468 0.358765 13.6042C0.358765 15.1617 0.638923 16.6536 1.1507 18.0328L13.091 18.5864L25.0313 18.0329C25.5431 16.6536 25.8232 15.1617 25.8232 13.6042Z" fill="#D80027"/>
<path d="M13.0909 26.3361C18.5653 26.3361 23.2322 22.8809 25.0312 18.0325H1.15063C2.94961 22.8809 7.61651 26.3361 13.0909 26.3361Z" fill="#6DA544"/>
<path d="M1.15063 9.17547H25.0313C23.2322 4.32703 18.5653 0.871826 13.0909 0.871826C7.61651 0.871826 2.94961 4.32703 1.15063 9.17547V9.17547Z" fill="#338AF3"/>
<path d="M13.3676 17.2022C11.3803 17.2022 9.76932 15.5911 9.76932 13.6039C9.76932 11.6167 11.3803 10.0057 13.3676 10.0057C13.9872 10.0057 14.5702 10.1623 15.0792 10.4382C14.2806 9.65728 13.1887 9.17529 11.9836 9.17529C9.53775 9.17529 7.55505 11.158 7.55505 13.6039C7.55505 16.0497 9.5378 18.0324 11.9836 18.0324C13.1887 18.0324 14.2807 17.5505 15.0792 16.7696C14.5702 17.0455 13.9872 17.2022 13.3676 17.2022Z" fill="#F0F0F0"/>
<path d="M16.1351 11.113L16.6117 12.4535L17.8966 11.8426L17.2858 13.1275L18.6262 13.6041L17.2858 14.0808L17.8966 15.3656L16.6117 14.7548L16.1351 16.0952L15.6586 14.7548L14.3737 15.3656L14.9845 14.0808L13.644 13.6041L14.9845 13.1275L14.3737 11.8426L15.6586 12.4535L16.1351 11.113Z" fill="#F0F0F0"/>
</g>
<defs>
<clipPath id="clip0_548_4221">
<rect width="25.4644" height="25.4644" fill="white" transform="translate(0.358398 0.87207)"/>
</clipPath>
</defs>
</svg>
