<svg width="26" height="27" viewBox="0 0 26 27" fill="none" xmlns="http://www.w3.org/2000/svg">
<g clip-path="url(#clip0_548_4228)">
<path d="M12.7322 26.2083C19.764 26.2083 25.4644 20.5079 25.4644 13.4761C25.4644 6.4443 19.764 0.743896 12.7322 0.743896C5.70041 0.743896 0 6.4443 0 13.4761C0 20.5079 5.70041 26.2083 12.7322 26.2083Z" fill="#F0F0F0"/>
<path d="M-0.000244141 13.4756C-0.000244141 18.3017 2.68496 22.5003 6.64264 24.6597V2.2915C2.68496 4.45091 -0.000244141 8.64956 -0.000244141 13.4756Z" fill="#D80027"/>
<path d="M-0.000244141 13.4755C-0.000244141 19.3581 3.98956 24.3081 9.41051 25.7691V1.18188C3.98956 2.64291 -0.000244141 7.59285 -0.000244141 13.4755Z" fill="#0052B4"/>
<path d="M4.56677 5.17188V7.24777C4.56677 8.27963 5.40322 9.11608 6.43508 9.11608C7.46693 9.11608 8.30338 8.27963 8.30338 7.24777V5.17188H4.56677Z" fill="#D80027"/>
<path d="M6.43498 8.00919C6.01526 8.00919 5.67383 7.66776 5.67383 7.24804V6.2793H7.19617V7.24804C7.19617 7.66776 6.85469 8.00919 6.43498 8.00919Z" fill="#F0F0F0"/>
<path d="M13.8391 14.0293H10.5176C10.5176 13.4178 10.0219 12.9221 9.41044 12.9221C8.79899 12.9221 8.30328 13.4178 8.30328 14.0293H4.98181C4.98181 14.6408 5.51443 15.1364 6.12582 15.1364H6.08897C6.08897 15.7479 6.58458 16.2436 7.19612 16.2436C7.19612 16.8551 7.69173 17.3507 8.30328 17.3507H10.5176C11.129 17.3507 11.6247 16.8551 11.6247 16.2436C12.2362 16.2436 12.7319 15.7479 12.7319 15.1364H12.695C13.3064 15.1364 13.8391 14.6408 13.8391 14.0293V14.0293Z" fill="#FFDA44"/>
<path d="M14.2939 12.2577L14.0032 12.7231L14.3558 13.1433L13.8235 13.0107L13.5327 13.4759L13.4944 12.9286L12.962 12.7958L13.4709 12.5903L13.4326 12.043L13.7853 12.4633L14.2939 12.2577Z" fill="#FFDA44"/>
<path d="M12.5979 10.8345L12.484 11.3712L12.9591 11.6455L12.4134 11.703L12.2994 12.2396L12.0762 11.7384L11.5305 11.7957L11.9383 11.4285L11.7152 10.9274L12.1903 11.2017L12.5979 10.8345Z" fill="#FFDA44"/>
<path d="M10.5173 10.0771L10.5936 10.6205L11.1339 10.7157L10.6408 10.9563L10.7171 11.4996L10.3361 11.1049L9.8429 11.3454L10.1005 10.861L9.71936 10.4664L10.2597 10.5616L10.5173 10.0771Z" fill="#FFDA44"/>
<path d="M8.30338 10.0771L8.56101 10.5616L9.10129 10.4663L8.72017 10.8611L8.97774 11.3455L8.48467 11.1049L8.1035 11.4995L8.17989 10.9563L7.68677 10.7158L8.22704 10.6205L8.30338 10.0771Z" fill="#FFDA44"/>
<path d="M6.22297 10.8345L6.6307 11.2017L7.10577 10.9274L6.88275 11.4287L7.29033 11.7957L6.74479 11.7384L6.52153 12.2396L6.40763 11.7029L5.86194 11.6457L6.33701 11.3712L6.22297 10.8345Z" fill="#FFDA44"/>
<path d="M4.52666 12.2577L5.03551 12.4633L5.38798 12.043L5.34988 12.5904L5.85852 12.796L5.32611 12.9286L5.28771 13.4758L4.99721 13.0107L4.46484 13.1433L4.81752 12.723L4.52666 12.2577Z" fill="#FFDA44"/>
</g>
<defs>
<clipPath id="clip0_548_4228">
<rect width="25.4644" height="25.4644" fill="white" transform="translate(0 0.744141)"/>
</clipPath>
</defs>
</svg>
