<svg width="27" height="27" viewBox="0 0 27 27" fill="none" xmlns="http://www.w3.org/2000/svg">
<g clip-path="url(#clip0_548_4242)">
<path d="M13.6039 26.2083C20.6357 26.2083 26.3361 20.5079 26.3361 13.4761C26.3361 6.4443 20.6357 0.743896 13.6039 0.743896C6.57211 0.743896 0.871704 6.4443 0.871704 13.4761C0.871704 20.5079 6.57211 26.2083 13.6039 26.2083Z" fill="#FFDA44"/>
<path d="M8.62177 9.04754H25.5442C23.7453 4.1991 19.0783 0.743896 13.6039 0.743896C10.088 0.743896 6.90525 2.16926 4.60132 4.47349L8.62177 9.04754Z" fill="#338AF3"/>
<path d="M8.62201 17.9048H25.5444C23.7455 22.7532 19.0785 26.2084 13.6042 26.2084C10.0882 26.2084 6.9055 24.7831 4.60156 22.4788L8.62201 17.9048Z" fill="#338AF3"/>
<path d="M4.60075 4.4729C-0.371475 9.44513 -0.371475 17.5068 4.60075 22.479C6.65547 20.4243 8.63159 18.4482 13.6038 13.476L4.60075 4.4729Z" fill="black"/>
</g>
<defs>
<clipPath id="clip0_548_4242">
<rect width="25.4644" height="25.4644" fill="white" transform="translate(0.871582 0.744141)"/>
</clipPath>
</defs>
</svg>
