<svg width="27" height="27" viewBox="0 0 27 27" fill="none" xmlns="http://www.w3.org/2000/svg">
<g clip-path="url(#clip0_548_4248)">
<path d="M13.476 26.2083C20.5078 26.2083 26.2082 20.5079 26.2082 13.4761C26.2082 6.4443 20.5078 0.743896 13.476 0.743896C6.44418 0.743896 0.743774 6.4443 0.743774 13.4761C0.743774 20.5079 6.44418 26.2083 13.476 26.2083Z" fill="#F0F0F0"/>
<path d="M13.4756 0.743896C10.9204 0.743896 8.54149 1.49714 6.54751 2.79289L9.82203 4.98765L5.72559 7.10966L9.82203 9.23166L5.72559 11.3537L9.82203 13.4754L5.72559 15.5974L9.82203 17.7193L5.72559 19.8415L9.82203 21.9635L6.54711 24.159C8.5412 25.455 10.9203 26.2083 13.4756 26.2083C20.5074 26.2083 26.2078 20.5079 26.2078 13.4761C26.2078 6.44435 20.5074 0.743896 13.4756 0.743896V0.743896Z" fill="#D80027"/>
</g>
<defs>
<clipPath id="clip0_548_4248">
<rect width="25.4644" height="25.4644" fill="white" transform="translate(0.743164 0.744141)"/>
</clipPath>
</defs>
</svg>
