<svg width="27" height="27" viewBox="0 0 27 27" fill="none" xmlns="http://www.w3.org/2000/svg">
<g clip-path="url(#clip0_548_4251)">
<path d="M13.347 0.743896C20.3787 0.743896 26.0792 6.44435 26.0792 13.4761C26.0792 20.5079 20.3787 26.2083 13.347 26.2083C6.3152 26.2083 0.614746 20.5079 0.614746 13.4761" fill="#FFDA44"/>
<path d="M13.0707 6.40263H23.935C23.2196 5.33397 22.3466 4.38005 21.3495 3.57324H13.0707V6.40263Z" fill="#D80027"/>
<path d="M13.0707 12.0615H26.0011C25.8926 11.0804 25.6727 10.1331 25.3542 9.23218H13.0707V12.0615Z" fill="#D80027"/>
<path d="M1.34095 17.7203H25.3544C25.6728 16.8194 25.8927 15.8719 26.0013 14.8909H0.694092C0.802515 15.872 1.02244 16.8194 1.34095 17.7203V17.7203Z" fill="#D80027"/>
<path d="M5.3455 23.3789H21.3495C22.3466 22.5722 23.2197 21.6182 23.9351 20.5496H2.76001C3.4754 21.6182 4.34835 22.5721 5.3455 23.3789V23.3789Z" fill="#D80027"/>
<path d="M13.347 0.743896C6.3152 0.743896 0.614696 6.44435 0.614746 13.4762C3.52058 13.4761 6.3152 13.4762 13.347 13.4762L13.347 0.743896Z" fill="#4A1F63"/>
<path d="M11.1331 7.38645V8.49361H10.5796V7.38645H9.47244V8.49361H8.91889V6.2793H6.70457V8.49361H6.15097V7.38645H5.04386V8.49361H4.49026V7.38645H3.38306V10.7079H12.2403V7.38645H11.1331Z" fill="#F0F0F0"/>
</g>
<defs>
<clipPath id="clip0_548_4251">
<rect width="25.4645" height="25.4645" fill="white" transform="translate(0.615234 0.744141)"/>
</clipPath>
</defs>
</svg>
