<svg width="27" height="27" viewBox="0 0 27 27" fill="none" xmlns="http://www.w3.org/2000/svg">
<g clip-path="url(#clip0_548_4263)">
<path d="M19.1397 1.87885C17.4658 1.06946 15.5879 0.615479 13.6039 0.615479C11.62 0.615479 9.7421 1.06946 8.06822 1.87885L6.96106 13.3477L8.06822 24.8165C9.7421 25.6259 11.62 26.0799 13.6039 26.0799C15.5879 26.0799 17.4658 25.6259 19.1397 24.8165L20.2468 13.3477L19.1397 1.87885Z" fill="#FFDA44"/>
<path d="M8.06807 1.87915C3.80924 3.93849 0.871582 8.29972 0.871582 13.3475C0.871582 18.3954 3.80924 22.7566 8.06807 24.8159V1.87915Z" fill="#0052B4"/>
<path d="M19.1398 1.87939V24.8162C23.3986 22.7569 26.3363 18.3956 26.3363 13.3478C26.3363 8.30001 23.3986 3.93873 19.1398 1.87939Z" fill="#0052B4"/>
<path d="M17.4788 8.36521L18.2215 8.73654L17.4788 8.36521L16.7361 7.99389C16.6913 8.08346 15.7215 10.0566 15.5631 13.0706H14.4342V8.36521L13.6038 7.25806L12.7734 8.36521V13.0706H11.6445C11.486 10.0566 10.5163 8.08346 10.4715 7.99389L8.98608 8.73659C8.99633 8.75698 10.0056 10.8113 10.0056 13.901V14.7314H12.7735V19.4368H14.4342V14.7314H17.202V13.9009C17.202 12.3035 17.4784 10.9864 17.7103 10.1626C17.9631 9.26443 18.2199 8.73987 18.2225 8.73465L17.4788 8.36521Z" fill="black"/>
</g>
<defs>
<clipPath id="clip0_548_4263">
<rect width="25.4644" height="25.4644" fill="white" transform="translate(0.871582 0.615723)"/>
</clipPath>
</defs>
</svg>
