<svg width="27" height="27" viewBox="0 0 27 27" fill="none" xmlns="http://www.w3.org/2000/svg">
<g clip-path="url(#clip0_548_4269)">
<path d="M13.476 26.0802C20.5078 26.0802 26.2082 20.3798 26.2082 13.3479C26.2082 6.31613 20.5078 0.615723 13.476 0.615723C6.44418 0.615723 0.743774 6.31613 0.743774 13.3479C0.743774 20.3798 6.44418 26.0802 13.476 26.0802Z" fill="#F0F0F0"/>
<path d="M0.851562 15.0083C1.14779 17.2818 2.04411 19.3665 3.37587 21.0991L10.1545 15.0083H0.851562Z" fill="#D80027"/>
<path d="M11.8151 25.9719V16.6689L5.72437 23.4476C7.45699 24.7794 9.54159 25.6757 11.8151 25.9719V25.9719Z" fill="#D80027"/>
<path d="M11.8151 0.723145C9.54159 1.01937 7.45699 1.9157 5.72437 3.24746L11.8151 10.0262V0.723145Z" fill="#D80027"/>
<path d="M0.851562 11.687H10.1545L3.37582 5.59619C2.04406 7.32877 1.14774 9.41342 0.851562 11.687V11.687Z" fill="#D80027"/>
<path d="M15.1367 0.723145V10.0261L21.2276 3.24746C19.495 1.9158 17.4103 1.01932 15.1367 0.723145V0.723145Z" fill="#D80027"/>
<path d="M26.1003 11.687C25.8041 9.41347 24.9078 7.32882 23.576 5.59619L16.7974 11.687H26.1003Z" fill="#D80027"/>
<path d="M16.7974 15.0083L23.5761 21.0991C24.9078 19.3665 25.8042 17.2818 26.1004 15.0083H16.7974Z" fill="#D80027"/>
<path d="M15.1367 25.9719C17.4103 25.6757 19.495 24.7794 21.2275 23.4476L15.1367 16.6689V25.9719Z" fill="#D80027"/>
<path d="M23.5766 21.1002L15.8242 13.3478L15.8242 13.3477L23.5766 5.59518C23.2423 5.16069 22.8766 4.74272 22.4786 4.34464C22.0806 3.94666 21.6626 3.58085 21.228 3.24658L13.4756 10.9991H13.4755L5.72304 3.24658C5.28855 3.5809 4.87052 3.94661 4.47244 4.34464C4.07446 4.74272 3.70866 5.16069 3.37439 5.59523L11.1269 13.3477L11.1269 13.3477L3.37444 21.1002C3.70876 21.5347 4.07451 21.9527 4.47249 22.3508C4.87052 22.7488 5.28855 23.1146 5.72309 23.4488L13.4755 15.6964L21.228 23.4488C21.6625 23.1145 22.0805 22.7488 22.4786 22.3508C22.8766 21.9527 23.2423 21.5347 23.5766 21.1002V21.1002Z" fill="#496E2D"/>
<path d="M15.1367 25.9724V15.0088V15.0087H26.1004C26.1713 14.465 26.2082 13.9108 26.2082 13.3479C26.2082 12.7851 26.1713 12.2309 26.1004 11.6873H15.1368L15.1368 11.6872V0.723549C14.5931 0.652775 14.0389 0.615723 13.476 0.615723C12.9131 0.615772 12.3589 0.652775 11.8153 0.723549L11.8153 11.6871V11.6872H0.8516C0.780777 12.2308 0.743774 12.7851 0.743774 13.3479C0.743824 13.9109 0.780777 14.465 0.8516 15.0087H11.8152L11.8153 25.9724C12.3589 26.0432 12.913 26.0802 13.476 26.0802C14.0389 26.0802 14.5931 26.0432 15.1367 25.9724V25.9724Z" fill="#F0F0F0"/>
</g>
<defs>
<clipPath id="clip0_548_4269">
<rect width="25.4644" height="25.4644" fill="white" transform="translate(0.743164 0.615723)"/>
</clipPath>
</defs>
</svg>
