<svg width="27" height="27" viewBox="0 0 27 27" fill="none" xmlns="http://www.w3.org/2000/svg">
<g clip-path="url(#clip0_548_4282)">
<path d="M13.3473 26.0802C20.3791 26.0802 26.0795 20.3798 26.0795 13.3479C26.0795 6.31613 20.3791 0.615723 13.3473 0.615723C6.31552 0.615723 0.615112 6.31613 0.615112 13.3479C0.615112 20.3798 6.31552 26.0802 13.3473 26.0802Z" fill="#FCFCFC"/>
<path d="M5.87417 12.425L4.49023 9.91426L5.87417 7.44287L7.2581 9.91426L5.87417 12.425Z" fill="#A2001D"/>
<path d="M3.10634 12.425L1.72241 9.91426L3.10634 7.44287L4.49028 9.91426L3.10634 12.425Z" fill="#A2001D"/>
<path d="M5.87417 19.2527L4.49023 16.7419L5.87417 14.2705L7.2581 16.7419L5.87417 19.2527Z" fill="#A2001D"/>
<path d="M3.10634 19.2527L1.72241 16.7419L3.10634 14.2705L4.49028 16.7419L3.10634 19.2527Z" fill="#A2001D"/>
<path d="M7.258 3.08688L6.86619 2.38721C6.16343 2.80359 5.50429 3.28567 4.89697 3.825L5.87407 5.59762L7.258 3.08688Z" fill="#A2001D"/>
<path d="M5.87441 21.0977L4.88696 22.8611C5.49373 23.4011 6.15243 23.8839 6.85489 24.3012L7.25839 23.5691L5.87441 21.0977Z" fill="#A2001D"/>
<path d="M8.36499 16.6689V25.0674C9.89529 25.7188 11.579 26.0797 13.3472 26.0797C18.8216 26.0797 23.4885 22.6245 25.2874 17.7761L8.36499 16.6689Z" fill="#6DA544"/>
<path d="M25.2874 17.7763C25.7993 16.397 26.0794 14.9051 26.0794 13.3477C26.0794 6.31593 20.3789 0.615479 13.3472 0.615479C11.5791 0.615479 9.89529 0.976208 8.36499 1.62749V17.7763H25.2874V17.7763Z" fill="#A2001D"/>
</g>
<defs>
<clipPath id="clip0_548_4282">
<rect width="25.4644" height="25.4644" fill="white" transform="translate(0.615234 0.615723)"/>
</clipPath>
</defs>
</svg>
