<svg width="26" height="27" viewBox="0 0 26 27" fill="none" xmlns="http://www.w3.org/2000/svg">
<g clip-path="url(#clip0_548_4293)">
<path d="M17.6478 1.40741C16.2685 0.895637 14.7766 0.615479 13.2192 0.615479C11.6618 0.615479 10.1699 0.895637 8.79063 1.40741L7.68347 13.3477L8.79063 25.288C10.1699 25.7998 11.6618 26.0799 13.2192 26.0799C14.7766 26.0799 16.2685 25.7998 17.6478 25.288L18.7549 13.3477L17.6478 1.40741Z" fill="#FFDA44"/>
<path d="M25.9515 13.3475C25.9515 7.87311 22.4963 3.20615 17.6478 1.40723V25.2878C22.4963 23.4888 25.9515 18.8219 25.9515 13.3475V13.3475Z" fill="#D80027"/>
<path d="M0.486816 13.3475C0.486816 18.8219 3.94202 23.4888 8.79046 25.2878V1.40723C3.94202 3.20615 0.486816 7.8731 0.486816 13.3475V13.3475Z" fill="black"/>
</g>
<defs>
<clipPath id="clip0_548_4293">
<rect width="25.4644" height="25.4644" fill="white" transform="translate(0.487305 0.615723)"/>
</clipPath>
</defs>
</svg>
