<svg width="26" height="27" viewBox="0 0 26 27" fill="none" xmlns="http://www.w3.org/2000/svg">
<g clip-path="url(#clip0_548_4297)">
<path d="M25.8232 13.3476C25.8232 8.97785 23.6215 5.12272 20.2671 2.82973L13.091 2.27612L5.91484 2.82968C2.56054 5.12272 0.358765 8.9779 0.358765 13.3476C0.358765 17.7175 2.56054 21.5725 5.91484 23.8655L13.091 24.4191L20.2671 23.8656C23.6215 21.5725 25.8232 17.7175 25.8232 13.3476Z" fill="#0052B4"/>
<path d="M20.2671 2.82979C18.2237 1.43293 15.753 0.615479 13.0909 0.615479C10.429 0.615479 7.95817 1.43293 5.91479 2.82979H20.2671Z" fill="#A2001D"/>
<path d="M5.91455 23.8657C7.95787 25.2626 10.4287 26.08 13.0907 26.08C15.7527 26.08 18.2235 25.2626 20.2668 23.8657H5.91455Z" fill="#A2001D"/>
<path d="M13.0908 19.4367C16.4538 19.4367 19.1801 16.7104 19.1801 13.3474C19.1801 9.98434 16.4538 7.25806 13.0908 7.25806C9.72775 7.25806 7.00146 9.98434 7.00146 13.3474C7.00146 16.7104 9.72775 19.4367 13.0908 19.4367Z" fill="#F0F0F0"/>
<path d="M13.0911 18.3296C15.8426 18.3296 18.0732 16.099 18.0732 13.3474C18.0732 10.5958 15.8426 8.36523 13.0911 8.36523C10.3395 8.36523 8.10889 10.5958 8.10889 13.3474C8.10889 16.099 10.3395 18.3296 13.0911 18.3296Z" fill="#6DA544"/>
<path d="M13.0911 16.6693C14.9255 16.6693 16.4126 15.1822 16.4126 13.3478C16.4126 11.5134 14.9255 10.0264 13.0911 10.0264C11.2567 10.0264 9.76965 11.5134 9.76965 13.3478C9.76965 15.1822 11.2567 16.6693 13.0911 16.6693Z" fill="#F0F0F0"/>
<path d="M13.0909 12.5173L11.2917 13.3477V14.7316L13.0909 15.8388L14.89 14.7316V13.3477L13.0909 12.5173Z" fill="#0052B4"/>
<path d="M11.2917 11.687H14.89V13.3477H11.2917V11.687Z" fill="#FFDA44"/>
</g>
<defs>
<clipPath id="clip0_548_4297">
<rect width="25.4644" height="25.4644" fill="white" transform="translate(0.358398 0.615723)"/>
</clipPath>
</defs>
</svg>
