<svg width="26" height="27" viewBox="0 0 26 27" fill="none" xmlns="http://www.w3.org/2000/svg">
<g clip-path="url(#clip0_548_4311)">
<path d="M25.5667 13.3477C25.5667 20.3795 19.8663 26.0799 12.8345 26.0799C5.80275 26.0799 0.102295 20.3795 0.102295 13.3477C0.102295 13.3507 12.8345 0.616871 12.8345 0.615479C19.8663 0.615479 25.5667 6.31593 25.5667 13.3477Z" fill="#D80027"/>
<path d="M12.8347 6.70459V10.9989L8.40613 6.70459H12.8347Z" fill="#0052B4"/>
<path d="M6.7452 13.3474H10.4858L6.7452 8.36523L6.19165 12.2403L6.7452 13.3474Z" fill="#0052B4"/>
<path d="M12.8004 13.3492H12.8359C12.8359 13.3373 12.8359 13.3257 12.8359 13.3137C12.8241 13.3256 12.8123 13.3374 12.8004 13.3492Z" fill="#F0F0F0"/>
<path d="M12.8345 7.25836C12.8345 5.01804 12.8345 3.55011 12.8345 0.615479H12.8324C5.8015 0.616672 0.102295 6.31658 0.102295 13.3477H6.74518V9.60706L10.4858 13.3477H12.8005C12.8118 13.3364 12.8232 13.325 12.8346 13.3136C12.8346 12.4558 12.8346 11.6905 12.8346 10.9991L9.09383 7.25836H12.8345Z" fill="#F0F0F0"/>
<path d="M6.54381 2.27612C4.55246 3.41004 2.89693 5.06552 1.76306 7.05687V13.9012H5.08453V5.59769V5.59759H13.3881C13.3881 4.55002 13.3881 3.55203 13.3881 2.27612H6.54381Z" fill="#D80027"/>
<path d="M13.3404 12.288L8.31054 7.2583H6.74487V7.2584L13.3402 13.8537H13.3403C13.3404 13.8538 13.3404 12.7742 13.3404 12.288V12.288Z" fill="#D80027"/>
<path d="M14.4952 7.25806V13.3473C14.4952 16.3135 22.2453 16.3135 22.2453 13.3473V7.25806H14.4952Z" fill="#F3F3F3"/>
<path d="M14.4952 13.3477V13.3477C14.4952 16.3139 18.3703 17.2227 18.3703 17.2227C18.3703 17.2227 22.2453 16.3139 22.2453 13.3477V13.3477H14.4952Z" fill="#6DA544"/>
<path d="M18.37 10.9119L16.5709 11.6869V13.3476L18.37 14.4548L20.1692 13.3476V11.6869L18.37 10.9119Z" fill="#A2001D"/>
<path d="M16.5709 10.0264H20.1692V11.6871H16.5709V10.0264Z" fill="#338AF3"/>
</g>
<defs>
<clipPath id="clip0_548_4311">
<rect width="25.4644" height="25.4644" fill="white" transform="translate(0.102539 0.615723)"/>
</clipPath>
</defs>
</svg>
