<svg width="27" height="27" viewBox="0 0 27 27" fill="none" xmlns="http://www.w3.org/2000/svg">
<g clip-path="url(#clip0_548_4327)">
<path d="M22.7093 22.3509C17.737 27.3231 9.67545 27.3231 4.70317 22.3509C-0.269058 17.3787 -0.269058 9.31705 4.70317 4.34477C4.70496 4.34477 16.1452 0.96442 21.1174 5.93665C26.0897 10.9089 22.7127 22.3474 22.7093 22.3509Z" fill="#FFDA44"/>
<path d="M22.7095 22.3508C27.6817 17.3786 27.6817 9.31695 22.7095 4.34467C17.7372 -0.62761 9.67565 -0.62756 4.70337 4.34467L22.7095 22.3508Z" fill="#D80027"/>
<path d="M17.0345 16.6768C16.5115 16.8822 15.9038 16.8605 15.3765 16.5646C14.445 16.0418 14.1124 14.8584 14.6354 13.9267L14.4767 13.8377C16.0717 13.4531 17.2518 12.0053 17.2311 10.2968C17.2183 9.23456 16.7436 8.28427 16.0012 7.63403L14.8388 8.82499C15.2782 9.17523 15.5632 9.71247 15.5705 10.3169C15.5834 11.3852 14.7249 12.2649 13.6566 12.2778L13.6589 12.4596C12.5282 11.2707 10.6844 10.9726 9.21522 11.8448C8.30178 12.3871 7.7162 13.2732 7.52417 14.2413L9.13678 14.6526C9.22039 14.0968 9.54312 13.5815 10.0629 13.2729C10.9816 12.7275 12.1726 13.0313 12.718 13.9499L12.8745 13.8571C12.4101 15.4306 13.0738 17.1764 14.5638 18.0128C15.4902 18.5327 16.5504 18.5968 17.4848 18.2791L17.0345 16.6768ZM13.67 13.3847L13.6699 13.3847L13.67 13.3847Z" fill="#FF9811"/>
<path d="M18.4204 9.23847L17.5205 12.4499L14.8203 11.9513L13.0823 8.36865L8.38695 10.0348L8.01667 8.99139L6.78821 8.84004L7.71383 11.4486L10.9451 10.6222L11.8633 13.2099L9.62963 16.5064L13.4203 19.7395L12.7018 20.5818L13.185 21.7215L14.9813 19.6155L12.65 17.2304L14.4319 15.1413L18.4036 15.4275L19.3083 10.5281L20.397 10.7292L21.1425 9.74095L18.4204 9.23847ZM13.7052 13.4342V13.4343V13.4342Z" fill="#FFEACF"/>
</g>
<defs>
<clipPath id="clip0_548_4327">
<rect width="25.4644" height="25.4644" fill="white" transform="translate(0.973633 0.615723)"/>
</clipPath>
</defs>
</svg>
