<svg width="26" height="26" viewBox="0 0 26 26" fill="none" xmlns="http://www.w3.org/2000/svg">
<g clip-path="url(#clip0_548_4332)">
<path d="M25.8232 13.2195C25.8232 11.6621 25.5431 10.1702 25.0313 8.79091L13.091 8.2373L1.1507 8.79086C0.638873 10.1702 0.358765 11.6621 0.358765 13.2195C0.358765 14.7769 0.638873 16.2688 1.1507 17.6481L13.091 18.2017L25.0313 17.6481C25.5431 16.2688 25.8232 14.7769 25.8232 13.2195Z" fill="#FFDA44"/>
<path d="M13.0909 25.9516C18.5653 25.9516 23.2322 22.4964 25.0312 17.6479H1.15063C2.94961 22.4964 7.61651 25.9516 13.0909 25.9516Z" fill="#6DA544"/>
<path d="M1.15063 8.7907H25.0313C23.2322 3.94227 18.5653 0.487061 13.0909 0.487061C7.61651 0.487061 2.94961 3.94227 1.15063 8.7907V8.7907Z" fill="#D80027"/>
</g>
<defs>
<clipPath id="clip0_548_4332">
<rect width="25.4644" height="25.4644" fill="white" transform="translate(0.358398 0.487305)"/>
</clipPath>
</defs>
</svg>
