<svg width="26" height="26" viewBox="0 0 26 26" fill="none" xmlns="http://www.w3.org/2000/svg">
<g clip-path="url(#clip0_548_4336)">
<path d="M12.732 25.9515C19.7638 25.9515 25.4642 20.2511 25.4642 13.2193C25.4642 6.18747 19.7638 0.487061 12.732 0.487061C5.70016 0.487061 -0.000244141 6.18747 -0.000244141 13.2193C-0.000244141 20.2511 5.70016 25.9515 12.732 25.9515Z" fill="#F0F0F0"/>
<path d="M3.72904 4.21631C1.00032 6.94503 -0.230479 10.6043 0.0357537 14.1726L13.6852 0.523071C10.1169 0.256788 6.45777 1.48759 3.72904 4.21631V4.21631Z" fill="#FFDA44"/>
<path d="M4.54626 22.971C9.54868 27.1797 17.0268 26.9308 21.7353 22.2224C26.4437 17.514 26.6926 10.0358 22.4839 5.03345L4.54626 22.971Z" fill="#0052B4"/>
<path d="M12.6867 12.7065L13.7839 12.1122L12.6867 11.5178C12.4305 9.85365 11.1156 8.5387 9.45143 8.28256L8.85705 7.1853L8.26271 8.28251C6.59857 8.53865 5.28367 9.8536 5.02743 11.5178L3.93018 12.1122L5.02738 12.7065C5.28357 14.3707 6.59847 15.6857 8.26266 15.9418L8.85705 17.039L9.45138 15.9418C11.1156 15.6856 12.4305 14.3707 12.6867 12.7065V12.7065ZM8.8571 14.3265C7.63416 14.3265 6.64278 13.3352 6.64278 12.1122C6.64278 10.8892 7.63411 9.89786 8.8571 9.89786C10.0801 9.89786 11.0714 10.8892 11.0714 12.1122C11.0714 13.3352 10.08 14.3265 8.8571 14.3265Z" fill="black"/>
<path d="M8.85726 10.4514L9.33666 11.2817H10.2955L9.81606 12.1121L10.2955 12.9425H9.33666L8.85726 13.7728L8.37786 12.9425H7.41907L7.89847 12.1121L7.41907 11.2817H8.37786L8.85726 10.4514Z" fill="#D80027"/>
</g>
<defs>
<clipPath id="clip0_548_4336">
<rect width="25.4644" height="25.4644" fill="white" transform="translate(0 0.487305)"/>
</clipPath>
</defs>
</svg>
