<svg width="27" height="26" viewBox="0 0 27 26" fill="none" xmlns="http://www.w3.org/2000/svg">
<g clip-path="url(#clip0_548_4342)">
<path d="M13.6038 25.9515C20.6356 25.9515 26.336 20.2511 26.336 13.2193C26.336 6.18747 20.6356 0.487061 13.6038 0.487061C6.57199 0.487061 0.871582 6.18747 0.871582 13.2193C0.871582 20.2511 6.57199 25.9515 13.6038 25.9515Z" fill="#F0F0F0"/>
<path d="M13.6038 0.487061C9.08931 0.487061 5.12392 2.8367 2.86316 6.37964L20.1292 24.1535C23.8466 21.9303 26.336 17.8657 26.336 13.2193C26.336 6.18751 20.6355 0.487061 13.6038 0.487061Z" fill="#FFDA44"/>
<path d="M26.3361 13.2193C26.3361 9.91579 25.0779 6.90641 23.0146 4.64355V21.7951C25.0779 19.5322 26.3361 16.5228 26.3361 13.2193Z" fill="#0052B4"/>
<path d="M16.7764 24.4533L18.11 24.4524L18.5214 23.1837L18.9343 24.4519L19.6033 24.4515C20.0134 24.232 20.4102 23.9906 20.7919 23.7289L3.0942 6.03125C2.80255 6.45678 2.53657 6.90112 2.29739 7.36167L2.45465 7.8447L3.7883 7.84385L2.70985 8.62842L3.12275 9.89662L2.04329 9.11339L1.39947 9.5817C1.05625 10.7344 0.871582 11.9553 0.871582 13.2194C0.871582 20.2512 6.57203 25.9517 13.6038 25.9517C15.0905 25.9517 16.5174 25.6964 17.8437 25.2279L16.7764 24.4533ZM3.71141 12.6659L4.12272 11.3972L3.04337 10.6139L4.37702 10.6131L4.78838 9.34436L5.20128 10.6126L6.53493 10.6117L5.45642 11.3963L5.86933 12.6645L4.78987 11.8813L3.71141 12.6659ZM6.45804 15.4337L6.86935 14.1651L5.79 13.3818L7.12365 13.3809L7.53501 12.1122L7.94791 13.3804L9.28156 13.3796L8.2031 14.1642L8.616 15.4324L7.53655 14.6491L6.45804 15.4337ZM9.20462 18.2016L9.61593 16.933L8.53658 16.1496L9.87023 16.1488L10.2816 14.8801L10.6945 16.1483L12.0281 16.1474L10.9497 16.932L11.3626 18.2002L10.2831 17.4169L9.20462 18.2016ZM13.0297 20.1849L11.9512 20.9695L12.3625 19.7008L11.2832 18.9175L12.6168 18.9167L13.0282 17.648L13.4411 18.9162L14.7748 18.9153L13.6963 19.6999L14.1092 20.9681L13.0297 20.1849ZM14.6978 23.7373L15.1091 22.4687L14.0298 21.6854L15.3634 21.6845L15.7748 20.4158L16.1877 21.684L17.5213 21.6832L16.4429 22.4677L16.8558 23.7359L15.7763 22.9526L14.6978 23.7373Z" fill="#0052B4"/>
</g>
<defs>
<clipPath id="clip0_548_4342">
<rect width="25.4644" height="25.4644" fill="white" transform="translate(0.871582 0.487305)"/>
</clipPath>
</defs>
</svg>
