<svg width="27" height="26" viewBox="0 0 27 26" fill="none" xmlns="http://www.w3.org/2000/svg">
<g clip-path="url(#clip0_548_4348)">
<path d="M1.34473 9.34432C0.954706 10.5663 0.743481 11.868 0.74353 13.2193C0.743481 14.5706 0.954706 15.8724 1.34478 17.0944L13.4757 17.648L25.6067 17.0944C25.9966 15.8724 26.2079 14.5706 26.2079 13.2194C26.2079 11.8681 25.9967 10.5663 25.6067 9.34432L13.4757 8.79077L1.34473 9.34432Z" fill="#F0F0F0"/>
<path d="M26.208 13.2195C26.208 12.4642 26.1418 11.7243 26.0156 11.0051H0.935906C0.809678 11.7243 0.74353 12.4641 0.74353 13.2194C0.74353 13.9748 0.809728 14.7146 0.935906 15.4338H26.0156C26.1418 14.7145 26.208 13.9748 26.208 13.2195Z" fill="black"/>
<path d="M13.4757 25.9517C19.1563 25.9517 23.9671 22.2314 25.6066 17.0945H1.34473C2.98425 22.2313 7.79519 25.9516 13.4757 25.9517V25.9517Z" fill="#338AF3"/>
<path d="M13.4757 0.487061C7.79524 0.487061 2.98435 4.2074 1.34473 9.34416L25.6066 9.34421C23.9671 4.2074 19.1562 0.486961 13.4757 0.487061V0.487061Z" fill="#338AF3"/>
</g>
<defs>
<clipPath id="clip0_548_4348">
<rect width="25.4644" height="25.4644" fill="white" transform="translate(0.743164 0.487305)"/>
</clipPath>
</defs>
</svg>
