<svg width="27" height="26" viewBox="0 0 27 26" fill="none" xmlns="http://www.w3.org/2000/svg">
<g clip-path="url(#clip0_548_4354)">
<path d="M13.3471 25.9515C20.3789 25.9515 26.0793 20.2511 26.0793 13.2193C26.0793 6.18747 20.3789 0.487061 13.3471 0.487061C6.31528 0.487061 0.614868 6.18747 0.614868 13.2193C0.614868 20.2511 6.31528 25.9515 13.3471 25.9515Z" fill="#6DA544"/>
<path d="M13.3474 5.46948L23.8653 13.2195L13.3474 20.9696L2.82947 13.2195L13.3474 5.46948Z" fill="#FFDA44"/>
<path d="M13.3475 17.6479C15.7934 17.6479 17.7761 15.6652 17.7761 13.2193C17.7761 10.7735 15.7934 8.79077 13.3475 8.79077C10.9017 8.79077 8.91895 10.7735 8.91895 13.2193C8.91895 15.6652 10.9017 17.6479 13.3475 17.6479Z" fill="#F0F0F0"/>
<path d="M11.1333 12.9426C10.3632 12.9426 9.61999 13.0598 8.92041 13.2771C8.9514 15.6962 10.9211 17.648 13.3476 17.648C14.848 17.648 16.1731 16.9012 16.9742 15.7597C15.6037 14.044 13.4949 12.9426 11.1333 12.9426V12.9426Z" fill="#0052B4"/>
<path d="M17.6942 14.0681C17.7475 13.7933 17.7763 13.5099 17.7763 13.2196C17.7763 10.7737 15.7935 8.79102 13.3477 8.79102C11.5227 8.79102 9.95607 9.89519 9.27808 11.4717C9.87739 11.3475 10.4979 11.2821 11.1334 11.2821C13.7056 11.2821 16.0325 12.3513 17.6942 14.0681V14.0681Z" fill="#0052B4"/>
</g>
<defs>
<clipPath id="clip0_548_4354">
<rect width="25.4644" height="25.4644" fill="white" transform="translate(0.615234 0.487305)"/>
</clipPath>
</defs>
</svg>
