<svg width="26" height="26" viewBox="0 0 26 26" fill="none" xmlns="http://www.w3.org/2000/svg">
<g clip-path="url(#clip0_548_4390)">
<path d="M12.7319 25.8236C19.7637 25.8236 25.4641 20.1232 25.4641 13.0913C25.4641 6.05954 19.7637 0.359131 12.7319 0.359131C5.70004 0.359131 -0.000366211 6.05954 -0.000366211 13.0913C-0.000366211 20.1232 5.70004 25.8236 12.7319 25.8236Z" fill="#F0F0F0"/>
<path d="M23.342 14.6149C22.281 14.6149 22.281 13.6448 21.22 13.6448C20.159 13.6448 20.159 14.6149 19.098 14.6149C18.0371 14.6149 18.037 13.6448 16.9761 13.6448C15.9151 13.6448 15.9151 14.6149 14.854 14.6149C13.793 14.6149 13.7929 13.6448 12.7318 13.6448C11.6708 13.6448 11.6708 14.6149 10.6099 14.6149C9.54901 14.6149 9.54901 13.6448 8.48801 13.6448C7.42691 13.6448 7.42691 14.6149 6.36581 14.6149C5.3047 14.6149 5.3047 13.6448 4.2436 13.6448C3.18275 13.6448 3.18275 14.6149 2.12175 14.6149C1.06647 14.6149 1.06035 13.6555 0.0163574 13.6452C0.0457509 14.2276 0.115281 14.7994 0.220421 15.3586C1.06612 15.4827 1.14017 16.3125 2.12185 16.3125C3.18285 16.3125 3.18285 15.3424 4.2437 15.3424C5.3048 15.3424 5.3048 16.3125 6.3659 16.3125C7.42701 16.3125 7.42701 15.3424 8.48811 15.3424C9.54911 15.3424 9.54911 16.3125 10.61 16.3125C11.671 16.3125 11.671 15.3424 12.7319 15.3424C13.793 15.3424 13.793 16.3125 14.8541 16.3125C15.9152 16.3125 15.9152 15.3424 16.9762 15.3424C18.0372 15.3424 18.0372 16.3125 19.0981 16.3125C20.1591 16.3125 20.1591 15.3424 21.2201 15.3424C22.2812 15.3424 22.2812 16.3125 23.3421 16.3125C24.3239 16.3125 24.3979 15.4828 25.2437 15.3586C25.3488 14.7993 25.4183 14.2276 25.4478 13.6452C24.4036 13.6555 24.3974 14.6149 23.342 14.6149V14.6149Z" fill="#0052B4"/>
<path d="M21.2202 16.9661C20.1592 16.9661 20.1592 17.9362 19.0982 17.9362C18.0373 17.9362 18.0372 16.9661 16.9763 16.9661C15.9153 16.9661 15.9153 17.9362 14.8542 17.9362C13.7931 17.9362 13.7931 16.9661 12.732 16.9661C11.671 16.9661 11.671 17.9362 10.6101 17.9362C9.5492 17.9362 9.5492 16.9661 8.4882 16.9661C7.4271 16.9661 7.4271 17.9362 6.36599 17.9362C5.30489 17.9362 5.30489 16.9661 4.24379 16.9661C3.18294 16.9661 3.18294 17.9362 2.12194 17.9362C1.34035 17.9362 1.134 17.4101 0.655396 17.133C0.945252 17.9993 1.32598 18.8239 1.78578 19.596C1.88535 19.62 1.99606 19.6338 2.12189 19.6338C3.18289 19.6338 3.18289 18.6638 4.24374 18.6638C5.30484 18.6638 5.30484 19.6338 6.36594 19.6338C7.42705 19.6338 7.42705 18.6638 8.48815 18.6638C9.54915 18.6638 9.54915 19.6338 10.61 19.6338C11.671 19.6338 11.671 18.6638 12.732 18.6638C13.7931 18.6638 13.7931 19.6338 14.8542 19.6338C15.9153 19.6338 15.9153 18.6638 16.9762 18.6638C18.0372 18.6638 18.0372 19.6338 19.0982 19.6338C20.1591 19.6338 20.1592 18.6638 21.2201 18.6638C22.2812 18.6638 22.2812 19.6338 23.3422 19.6338C23.4681 19.6338 23.5789 19.62 23.6785 19.5959C24.1384 18.8239 24.5191 17.9993 24.8089 17.133C24.3303 17.4102 24.1239 17.9363 23.3422 17.9363C22.2813 17.9362 22.2813 16.9661 21.2202 16.9661V16.9661Z" fill="#0052B4"/>
<path d="M25.1679 10.3525C24.3924 10.5135 24.2935 11.2931 23.3419 11.2931C22.2809 11.2931 22.2809 10.323 21.2199 10.323C20.1589 10.323 20.1589 11.2931 19.0979 11.2931C18.037 11.2931 18.0369 10.323 16.976 10.323C15.915 10.323 15.915 11.2931 14.8539 11.2931C13.7929 11.2931 13.7928 10.323 12.7317 10.323C12.1584 10.323 11.8948 10.6062 11.6063 10.8666V12.5642C11.8948 12.3039 12.1584 12.0207 12.7317 12.0207C13.7928 12.0207 13.7928 12.9907 14.8539 12.9907C15.915 12.9907 15.915 12.0207 16.976 12.0207C18.037 12.0207 18.037 12.9907 19.0979 12.9907C20.1589 12.9907 20.1589 12.0207 21.2199 12.0207C22.281 12.0207 22.281 12.9907 23.3419 12.9907C24.3237 12.9907 24.3977 12.1611 25.2435 12.0368C25.2977 12.0368 25.3583 12.0363 25.4203 12.0355C25.3733 11.4629 25.2882 10.9011 25.1679 10.3525V10.3525Z" fill="#0052B4"/>
<path d="M24.2378 7.63379C24.0179 7.81846 23.7638 7.97184 23.3419 7.97184C22.2809 7.97184 22.2809 7.00171 21.2199 7.00171C20.1589 7.00171 20.1589 7.97184 19.0979 7.97184C18.037 7.97184 18.0369 7.00171 16.976 7.00171C15.915 7.00171 15.915 7.97184 14.8539 7.97184C13.7929 7.97184 13.7928 7.00171 12.7317 7.00171C12.1584 7.00171 11.8948 7.2849 11.6063 7.54531V9.24293C11.8948 8.98256 12.1584 8.69942 12.7317 8.69942C13.7928 8.69942 13.7928 9.66946 14.8539 9.66946C15.9149 9.66946 15.9149 8.69942 16.9759 8.69942C18.0369 8.69942 18.0369 9.66946 19.0979 9.66946C20.1588 9.66946 20.1588 8.69942 21.2198 8.69942C22.2809 8.69942 22.2809 9.66946 23.3419 9.66946C24.0947 9.66946 24.314 9.1818 24.7567 8.89821C24.6058 8.46567 24.4326 8.04366 24.2378 7.63379V7.63379Z" fill="#0052B4"/>
<path d="M21.3106 3.68301C21.2811 3.68141 21.2511 3.68042 21.2199 3.68042C20.1589 3.68042 20.1589 4.65056 19.098 4.65056C18.037 4.65056 18.037 3.68042 16.976 3.68042C15.915 3.68042 15.915 4.65056 14.8539 4.65056C13.7928 4.65056 13.7928 3.68042 12.7317 3.68042C12.1584 3.68042 11.8948 3.96361 11.6063 4.22403V5.92164C11.8948 5.66127 12.1584 5.37813 12.7317 5.37813C13.7928 5.37813 13.7928 6.34817 14.8539 6.34817C15.915 6.34817 15.915 5.37813 16.976 5.37813C18.037 5.37813 18.037 6.34817 19.0979 6.34817C20.1589 6.34817 20.1589 5.37813 21.2199 5.37813C22.281 5.37813 22.281 6.34817 23.3419 6.34817C23.4073 6.34817 23.4683 6.34429 23.5261 6.33738C22.9098 5.35441 22.1636 4.46131 21.3106 3.68301V3.68301Z" fill="#0052B4"/>
<path d="M15.9863 0.779249C15.695 1.04125 15.4318 1.32902 14.854 1.32902C13.7929 1.32902 13.7929 0.358986 12.7318 0.358887H12.7316C12.1829 0.358936 11.918 0.618405 11.6433 0.869021V2.56668C11.918 2.31607 12.183 2.05655 12.7318 2.05655C13.7929 2.05655 13.7929 3.02658 14.854 3.02658C15.9151 3.02658 15.9151 2.05655 16.9761 2.05655C18.0371 2.05655 18.0371 3.02658 19.098 3.02658C19.5432 3.02658 19.8014 2.85569 20.0298 2.65745C18.8195 1.80922 17.4548 1.16634 15.9863 0.779249V0.779249Z" fill="#0052B4"/>
<path d="M14.854 24.5791C13.7929 24.5791 13.7929 23.6089 12.7318 23.6089C11.6708 23.6089 11.6708 24.5791 10.6098 24.5791C9.54896 24.5791 9.54896 23.6089 8.48796 23.6089C7.67524 23.6089 7.4846 24.1776 6.96338 24.4441C8.40073 25.1759 9.99559 25.6424 11.6836 25.78C11.9447 25.5414 12.2098 25.3066 12.7318 25.3066C13.2538 25.3066 13.519 25.5414 13.7801 25.78C15.4682 25.6425 17.0632 25.1759 18.5006 24.4441C17.9792 24.1777 17.7886 23.6089 16.976 23.6089C15.9151 23.6089 15.9151 24.5791 14.854 24.5791V24.5791Z" fill="#0052B4"/>
<path d="M19.0981 21.258C18.0371 21.258 18.0371 20.2878 16.9762 20.2878C15.9152 20.2878 15.9152 21.258 14.8541 21.258C13.793 21.258 13.793 20.2878 12.7319 20.2878C11.6709 20.2878 11.6709 21.258 10.61 21.258C9.54913 21.258 9.54913 20.2878 8.48813 20.2878C7.42702 20.2878 7.42702 21.258 6.36592 21.258C5.30482 21.258 5.30482 20.2878 4.24372 20.2878C3.48073 20.2878 3.26647 20.7897 2.81165 21.0714C3.09673 21.4254 3.39981 21.7643 3.72056 22.0856C3.86424 22.0242 4.03284 21.9855 4.24367 21.9855C5.30477 21.9855 5.30477 22.9555 6.36587 22.9555C7.42697 22.9555 7.42698 21.9855 8.48808 21.9855C9.54908 21.9855 9.54908 22.9555 10.6099 22.9555C11.6709 22.9555 11.6709 21.9855 12.7319 21.9855C13.793 21.9855 13.793 22.9555 14.8541 22.9555C15.9152 22.9555 15.9152 21.9855 16.9761 21.9855C18.0371 21.9855 18.0371 22.9555 19.0981 22.9555C20.159 22.9555 20.1591 21.9855 21.22 21.9855C21.4311 21.9855 21.5997 22.0242 21.7435 22.0857C22.0643 21.7644 22.3674 21.4255 22.6525 21.0715C22.1976 20.7898 21.9833 20.2879 21.2201 20.2879C20.1591 20.2878 20.1591 21.258 19.0981 21.258V21.258Z" fill="#0052B4"/>
<path d="M12.6978 13.0924H12.7333C12.7333 13.0805 12.7333 13.0689 12.7333 13.0569C12.7214 13.0688 12.7096 13.0806 12.6978 13.0924Z" fill="#F0F0F0"/>
<path d="M12.7317 7.0018V10.7425L8.3031 6.44824L12.7317 7.0018Z" fill="#0052B4"/>
<path d="M6.64247 13.0911H10.3831L6.64242 8.10889L6.08887 11.9839L6.64247 13.0911Z" fill="#0052B4"/>
<path d="M12.7319 7.00202C12.7319 4.76169 12.7319 3.29376 12.7319 0.359131H12.7297C5.69889 0.360325 -0.000366211 6.06023 -0.000366211 13.0913H6.64257V9.35071L10.3832 13.0913H12.6978C12.7092 13.08 12.7205 13.0687 12.7319 13.0573C12.7319 12.1995 12.7319 11.4341 12.7319 10.7428L8.99117 7.00202H12.7319Z" fill="#F0F0F0"/>
<path d="M6.44139 2.01978C4.45004 3.15369 2.79456 4.80918 1.66064 6.80052V13.0913H4.98211V5.34134V5.34124H12.7322C12.7322 4.29367 12.7322 3.29568 12.7322 2.01978H6.44139Z" fill="#D80027"/>
<path d="M12.732 11.5255L8.20837 7.00195H6.6427V7.00205L12.7319 13.0912H12.732C12.732 13.0912 12.732 12.0116 12.732 11.5255V11.5255Z" fill="#D80027"/>
<path d="M16.6071 7.00171H21.5892L19.0981 9.4928L16.6071 7.00171Z" fill="#6DA544"/>
<path d="M18.5449 8.93945H19.6521V11.9841H18.5449V8.93945Z" fill="#A2001D"/>
<path d="M18.5449 16.9663H19.6521V20.011H18.5449V16.9663Z" fill="#A2001D"/>
<path d="M22.4196 15.3054C22.4196 14.3883 21.6761 13.6447 20.7589 13.6447C20.3335 13.6447 19.9456 13.8049 19.6518 14.0679V13.0911H20.2053V11.984H19.6518V11.4304H18.5446V11.984H17.991V13.0911H18.5446V14.0679C18.2507 13.8049 17.8629 13.6447 17.4374 13.6447C16.5203 13.6447 15.7767 14.3883 15.7767 15.3054C15.7767 15.7972 15.9906 16.2388 16.3303 16.543V17.5198H21.866V16.543C22.2057 16.2388 22.4196 15.7972 22.4196 15.3054V15.3054Z" fill="#FFDA44"/>
<path d="M20.7589 14.752C20.5843 14.752 20.462 14.8286 20.3901 14.8929L19.6517 15.5539H18.5446L17.8062 14.8929C17.7343 14.8286 17.6121 14.752 17.4375 14.752C17.1322 14.752 16.8839 15.0003 16.8839 15.3055C16.8839 15.5205 16.9998 15.6563 17.0689 15.7183L17.4375 16.0483V16.4127H20.759V16.0483L21.1276 15.7183C21.1967 15.6564 21.3126 15.5205 21.3126 15.3055C21.3125 15.0003 21.0642 14.752 20.7589 14.752V14.752Z" fill="#D80027"/>
</g>
<defs>
<clipPath id="clip0_548_4390">
<rect width="25.4644" height="25.4644" fill="white" transform="translate(0 0.358887)"/>
</clipPath>
</defs>
</svg>
