<svg width="27" height="26" viewBox="0 0 27 26" fill="none" xmlns="http://www.w3.org/2000/svg">
<g clip-path="url(#clip0_548_4419)">
<path d="M26.3363 13.0913C26.3363 20.1231 20.6358 25.8236 13.604 25.8236C6.57228 25.8236 0.871826 20.1231 0.871826 13.0913C0.871826 13.0944 13.604 0.360523 13.604 0.359131C20.6358 0.359131 26.3363 6.05958 26.3363 13.0913Z" fill="#0052B4"/>
<path d="M13.5698 13.0926H13.6053C13.6053 13.0807 13.6053 13.0691 13.6053 13.0571C13.5935 13.069 13.5817 13.0808 13.5698 13.0926Z" fill="#F0F0F0"/>
<path d="M13.6037 7.00202C13.6037 4.76169 13.6037 3.29376 13.6037 0.359131H13.6015C6.57067 0.360325 0.87146 6.06023 0.87146 13.0913H7.51435V9.35071L11.255 13.0913H13.5697C13.581 13.08 13.5923 13.0687 13.6037 13.0573C13.6037 12.1995 13.6037 11.4341 13.6037 10.7428L9.86299 7.00202H13.6037Z" fill="#F0F0F0"/>
<path d="M7.3131 2.01978C5.32175 3.15369 3.66621 4.80918 2.53235 6.80052V13.0913H5.85382V5.34134V5.34124H13.6039C13.6039 4.29367 13.6039 3.29568 13.6039 2.01978H7.3131Z" fill="#D80027"/>
<path d="M19.1394 13.0911L15.6981 16.5324C16.3431 17.7763 17.6416 18.6268 19.1394 18.6268C20.6373 18.6268 21.9358 17.7763 22.5808 16.5324L19.1394 13.0911Z" fill="#FFDA44"/>
<path d="M13.604 11.5253L9.08031 7.00171H7.51465V7.00181L13.6039 13.091H13.604C13.604 13.091 13.604 12.0114 13.604 11.5253V11.5253Z" fill="#D80027"/>
<path d="M15.2645 7.00171V13.091V13.091C15.2646 16.0572 19.1395 16.9661 19.1395 16.9661C19.1395 16.9661 23.0145 16.0572 23.0146 13.091V13.091V7.00171H15.2645Z" fill="#6DA544"/>
<path d="M18.3094 9.76953H19.9702V14.1981H18.3094V9.76953Z" fill="#F0F0F0"/>
<path d="M19.1395 10.6002C19.5981 10.6002 19.9698 10.2284 19.9698 9.76983C19.9698 9.31123 19.5981 8.93945 19.1395 8.93945C18.6809 8.93945 18.3091 9.31123 18.3091 9.76983C18.3091 10.2284 18.6809 10.6002 19.1395 10.6002Z" fill="#A2001D"/>
<path d="M16.3719 8.10913H17.4791V9.21629H16.3719V8.10913Z" fill="#FFDA44"/>
<path d="M16.3718 10.5996H17.479V11.7068H16.3718V10.5996Z" fill="#FFDA44"/>
<path d="M16.3718 13.0908H17.479V14.198H16.3718V13.0908Z" fill="#FFDA44"/>
<path d="M20.8003 8.10889H21.9074V9.21604H20.8003V8.10889Z" fill="#FFDA44"/>
<path d="M20.8003 10.5996H21.9074V11.7068H20.8003V10.5996Z" fill="#FFDA44"/>
<path d="M20.8003 13.0908H21.9074V14.198H20.8003V13.0908Z" fill="#FFDA44"/>
</g>
<defs>
<clipPath id="clip0_548_4419">
<rect width="25.4644" height="25.4644" fill="white" transform="translate(0.871582 0.358887)"/>
</clipPath>
</defs>
</svg>
