<svg width="26" height="26" viewBox="0 0 26 26" fill="none" xmlns="http://www.w3.org/2000/svg">
<g clip-path="url(#clip0_548_4361)">
<path d="M0.486816 13.2193C0.486816 6.18751 6.18727 0.487061 13.219 0.487061C20.2508 0.487061 25.9513 6.18751 25.9513 13.2193H0.486816Z" fill="#F0F0F0"/>
<path d="M9.89758 12.5237L9.20154 13.2197H9.89758V12.5237Z" fill="#0052B4"/>
<path d="M16.5406 12.5237V13.2197H17.2366L16.5406 12.5237Z" fill="#0052B4"/>
<path d="M0.854161 10.175C0.614686 11.1507 0.486816 12.1702 0.486816 13.2196H4.50428L7.54887 10.175H0.854161Z" fill="#0052B4"/>
<path d="M18.8892 10.1753L21.9338 13.2199H25.9513C25.9513 12.1704 25.8234 11.1509 25.584 10.1753H18.8892Z" fill="#0052B4"/>
<path d="M18.1066 10.1753H16.5409L19.5855 13.2199H21.1512L18.1066 10.1753Z" fill="#D80027"/>
<path d="M9.89747 11.7407V10.175H9.89737L6.85278 13.2196H8.41855L9.89747 11.7407Z" fill="#D80027"/>
<path d="M6.45136 2.43359C5.92655 2.76364 5.42756 3.13078 4.95801 3.5315H7.54921L6.45136 2.43359Z" fill="#0052B4"/>
<path d="M21.4803 3.5315C21.0107 3.13073 20.5118 2.76359 19.987 2.43359L18.8892 3.5315H21.4803Z" fill="#0052B4"/>
<path d="M14.8796 8.51388H25.053C24.5716 7.30437 23.9101 6.18642 23.1017 5.19241H14.8797H14.8796V0.594837C14.336 0.524064 13.7818 0.487061 13.2189 0.487061C12.656 0.487061 12.1018 0.524064 11.5582 0.594837V5.19236V5.19241H3.33615C2.5278 6.18642 1.86623 7.30437 1.38489 8.51388H11.5581H11.5582V13.2193H14.8796V8.51393V8.51388Z" fill="#D80027"/>
<path d="M9.89775 3.53179V3.53174L7.97832 1.6123C7.62346 1.7728 7.2776 1.94961 6.94104 2.14074L8.33208 3.53179H9.89775Z" fill="#D80027"/>
<path d="M16.5405 3.53197L18.46 1.61254C18.0949 1.44747 17.7205 1.29946 17.3381 1.1687L16.5405 1.9663V3.53197Z" fill="#D80027"/>
<path d="M25.9513 13.2192C25.9513 20.251 20.2508 25.9515 13.219 25.9515C6.18727 25.9515 0.486816 20.251 0.486816 13.2192H25.9513Z" fill="#F0F0F0"/>
<path d="M23.8293 14.8429C22.7683 14.8429 22.7683 13.8728 21.7073 13.8728C20.6463 13.8728 20.6463 14.8429 19.5853 14.8429C18.5244 14.8429 18.5243 13.8728 17.4634 13.8728C16.4024 13.8728 16.4024 14.8429 15.3413 14.8429C14.2803 14.8429 14.2802 13.8728 13.2191 13.8728C12.1581 13.8728 12.1581 14.8429 11.0972 14.8429C10.0363 14.8429 10.0363 13.8728 8.97531 13.8728C7.91421 13.8728 7.91421 14.8429 6.85311 14.8429C5.79201 14.8429 5.79201 13.8728 4.73091 13.8728C3.67006 13.8728 3.67006 14.8429 2.60905 14.8429C1.55377 14.8429 1.54765 13.8835 0.503662 13.8733C0.533056 14.4557 0.602585 15.0274 0.707726 15.5865C1.55342 15.7108 1.62748 16.5405 2.6091 16.5405C3.6701 16.5405 3.6701 15.5705 4.73096 15.5705C5.79206 15.5705 5.79206 16.5405 6.85316 16.5405C7.91426 16.5405 7.91426 15.5705 8.97536 15.5705C10.0364 15.5705 10.0364 16.5405 11.0972 16.5405C12.1582 16.5405 12.1582 15.5705 13.2192 15.5705C14.2803 15.5705 14.2803 16.5405 15.3414 16.5405C16.4025 16.5405 16.4025 15.5705 17.4634 15.5705C18.5244 15.5705 18.5244 16.5405 19.5854 16.5405C20.6463 16.5405 20.6464 15.5705 21.7073 15.5705C22.7684 15.5705 22.7684 16.5405 23.8294 16.5405C24.8111 16.5405 24.8852 15.7109 25.7309 15.5866C25.8361 15.0274 25.9055 14.4557 25.9351 13.8733C24.8909 13.8836 24.8847 14.8429 23.8293 14.8429V14.8429Z" fill="#0052B4"/>
<path d="M21.7073 17.1943C20.6463 17.1943 20.6463 18.1645 19.5853 18.1645C18.5244 18.1645 18.5243 17.1943 17.4634 17.1943C16.4024 17.1943 16.4024 18.1645 15.3413 18.1645C14.2802 18.1645 14.2802 17.1943 13.2191 17.1943C12.1581 17.1943 12.1581 18.1645 11.0972 18.1645C10.0363 18.1645 10.0363 17.1943 8.97533 17.1943C7.91423 17.1943 7.91423 18.1645 6.85312 18.1645C5.79202 18.1645 5.79202 17.1943 4.73092 17.1943C3.67007 17.1943 3.67007 18.1645 2.60907 18.1645C1.85095 18.1645 1.63441 17.6693 1.18555 17.3864C1.48436 18.2498 1.87309 19.071 2.34124 19.8388C2.42266 19.8538 2.51129 19.8621 2.60907 19.8621C3.67007 19.8621 3.67007 18.892 4.73092 18.892C5.79202 18.892 5.79202 19.8621 6.85312 19.8621C7.91423 19.8621 7.91423 18.892 8.97533 18.892C10.0363 18.892 10.0363 19.8621 11.0972 19.8621C12.1582 19.8621 12.1582 18.892 13.2191 18.892C14.2802 18.892 14.2802 19.8621 15.3413 19.8621C16.4024 19.8621 16.4024 18.892 17.4634 18.892C18.5244 18.892 18.5244 19.8621 19.5853 19.8621C20.6463 19.8621 20.6463 18.892 21.7073 18.892C22.7684 18.892 22.7684 19.8621 23.8293 19.8621C23.9272 19.8621 24.0159 19.8538 24.0973 19.8387C24.5654 19.071 24.9542 18.2498 25.2531 17.3865C24.8042 17.6692 24.5876 18.1645 23.8293 18.1645C22.7684 18.1645 22.7684 17.1943 21.7073 17.1943Z" fill="#0052B4"/>
<path d="M25.9445 12.8193C25.9456 12.8548 25.9468 12.8904 25.9476 12.926C25.9468 12.8904 25.9455 12.8548 25.9445 12.8193Z" fill="#F0F0F0"/>
<path d="M0.490356 12.9255C0.491205 12.8899 0.492404 12.8544 0.493503 12.8188C0.492454 12.8544 0.491156 12.89 0.490356 12.9255V12.9255Z" fill="#F0F0F0"/>
<path d="M0.486816 13.219C0.486816 13.1207 0.488309 13.0229 0.490548 12.925C0.488259 13.0229 0.486816 13.1207 0.486816 13.219Z" fill="#F0F0F0"/>
<path d="M0.486816 13.219C0.486816 13.4509 0.493381 13.6813 0.505766 13.9102C1.54737 13.9219 1.55428 14.8797 2.60882 14.8797C3.66982 14.8797 3.66982 13.9097 4.73067 13.9097C5.79177 13.9097 5.79177 14.8797 6.85288 14.8797C7.91398 14.8797 7.91398 13.9097 8.97508 13.9097C10.0361 13.9097 10.0361 14.8797 11.0969 14.8797C12.1579 14.8797 12.1579 13.9097 13.2189 13.9097C14.28 13.9097 14.28 14.8797 15.3411 14.8797C16.4022 14.8797 16.4022 13.9097 17.4631 13.9097C18.5241 13.9097 18.5241 14.8797 19.5851 14.8797C20.646 14.8797 20.6461 13.9097 21.707 13.9097C22.7681 13.9097 22.7681 14.8797 23.8291 14.8797C24.8837 14.8797 24.8907 13.9219 25.9325 13.9102C25.9447 13.6813 25.9513 13.4509 25.9513 13.219H0.486816Z" fill="#F0F0F0"/>
<path d="M25.9475 12.925C25.9497 13.0228 25.9512 13.1207 25.9512 13.219C25.9512 13.1207 25.9498 13.0229 25.9475 12.925Z" fill="#F0F0F0"/>
<path d="M21.707 20.5159C20.646 20.5159 20.646 21.486 19.585 21.486C18.5241 21.486 18.524 20.5159 17.4631 20.5159C16.4021 20.5159 16.4021 21.486 15.341 21.486C14.2799 21.486 14.2799 20.5159 13.2188 20.5159C12.1578 20.5159 12.1578 21.486 11.0969 21.486C10.036 21.486 10.036 20.5159 8.97503 20.5159C7.91393 20.5159 7.91393 21.486 6.85283 21.486C5.79173 21.486 5.79173 20.5159 4.73063 20.5159C3.99783 20.5159 3.77108 20.9786 3.35132 21.2649C4.46484 22.629 5.85593 23.7572 7.43776 24.565L13.219 24.2737L19.0003 24.5649C20.582 23.7571 21.9731 22.629 23.0867 21.265C22.6667 20.9787 22.4399 20.5159 21.707 20.5159V20.5159Z" fill="#0052B4"/>
<path d="M20.2806 20.8196L16.4075 21.5604L15.9168 17.648L13.219 20.5254L10.5214 17.6479L10.0305 21.5604L6.15759 20.8196L8.05693 24.2738L7.43663 24.5655C9.1718 25.4517 11.137 25.9516 13.219 25.9516C15.3011 25.9516 17.2663 25.4517 19.0015 24.5656L18.3814 24.2739L20.2806 20.8196Z" fill="#FFDA44"/>
</g>
<defs>
<clipPath id="clip0_548_4361">
<rect width="25.4644" height="25.4644" fill="white" transform="translate(0.487305 0.487305)"/>
</clipPath>
</defs>
</svg>
