<svg width="27" height="26" viewBox="0 0 27 26" fill="none" xmlns="http://www.w3.org/2000/svg">
<g clip-path="url(#clip0_548_4441)">
<path d="M13.476 25.8215C20.5067 25.8215 26.2063 20.122 26.2063 13.0912C26.2063 6.06041 20.5067 0.36084 13.476 0.36084C6.44518 0.36084 0.745605 6.06041 0.745605 13.0912C0.745605 20.122 6.44518 25.8215 13.476 25.8215Z" fill="#F0F0F0"/>
<path d="M2.45088 6.72583C1.87627 7.72095 1.45242 8.76134 1.17017 9.82107L22.4602 22.1129C23.2368 21.3386 23.926 20.4513 24.5004 19.4562L2.45088 6.72583Z" fill="black"/>
<path d="M19.8407 2.06653C14.7469 -0.874332 8.46624 0.105822 4.49097 4.06941L25.781 16.3612C27.226 10.9368 24.9344 5.00743 19.8407 2.06653V2.06653Z" fill="#FFDA44"/>
<path d="M7.11033 24.116C12.204 27.0569 18.4849 26.0768 22.46 22.1132L1.16997 9.82129C-0.274916 15.2458 2.01653 21.1752 7.11033 24.116Z" fill="#FFDA44"/>
<path d="M17.0738 11.7073C17.0738 13.6942 15.463 15.305 13.4761 15.305C11.4891 15.305 9.87834 13.6942 9.87834 11.7073C9.87834 11.0878 10.035 10.5048 10.3108 9.99585C9.53009 10.7943 9.0481 11.8861 9.0481 13.091C9.0481 15.5365 11.0305 17.519 13.4761 17.519C15.9216 17.519 17.904 15.5365 17.904 13.091C17.904 11.8861 17.4221 10.7943 16.6413 9.99585C16.9172 10.5049 17.0738 11.0878 17.0738 11.7073V11.7073Z" fill="#D80027"/>
<path d="M12.6456 7.55615H14.3061V15.8586H12.6456V7.55615Z" fill="#D80027"/>
<path d="M16.2434 9.21655H10.7085C10.7085 9.59868 11.0414 9.90843 11.4235 9.90843H11.4004C11.4004 10.2906 11.7102 10.6003 12.0923 10.6003C12.0923 10.9824 12.4021 11.2922 12.7841 11.2922H14.1679C14.55 11.2922 14.8597 10.9824 14.8597 10.6003C15.2419 10.6003 15.5516 10.2906 15.5516 9.90843H15.5286C15.9106 9.90838 16.2434 9.59873 16.2434 9.21655Z" fill="#D80027"/>
<path d="M9.60168 16.4119H17.3506V18.0724H9.60168V16.4119Z" fill="#D80027"/>
<path d="M15.1364 16.9656H18.4573V18.6261H15.1364V16.9656Z" fill="#D80027"/>
<path d="M8.49463 16.9656H11.8156V18.6261H8.49463V16.9656Z" fill="#D80027"/>
</g>
<defs>
<clipPath id="clip0_548_4441">
<rect width="25.4644" height="25.4644" fill="white" transform="translate(0.743164 0.358887)"/>
</clipPath>
</defs>
</svg>
