<svg width="27" height="26" viewBox="0 0 27 26" fill="none" xmlns="http://www.w3.org/2000/svg">
<g clip-path="url(#clip0_548_4454)">
<path d="M26.0797 13.0913C26.0797 11.5339 25.7996 10.042 25.2877 8.66273L13.3475 8.10913L1.40717 8.66268C0.895393 10.042 0.615234 11.5339 0.615234 13.0913C0.615234 14.6487 0.895393 16.1406 1.40717 17.5199L13.3475 18.0735L25.2877 17.5199C25.7996 16.1406 26.0797 14.6487 26.0797 13.0913Z" fill="#496E2D"/>
<path d="M13.3474 25.8234C18.8218 25.8234 23.4887 22.3682 25.2877 17.5198H1.4071C3.20608 22.3682 7.87298 25.8234 13.3474 25.8234Z" fill="#D80027"/>
<path d="M1.4071 8.66253H25.2877C23.4887 3.81409 18.8218 0.358887 13.3474 0.358887C7.87298 0.358887 3.20608 3.81409 1.4071 8.66253V8.66253Z" fill="#F0F0F0"/>
</g>
<defs>
<clipPath id="clip0_548_4454">
<rect width="25.4644" height="25.4644" fill="white" transform="translate(0.615234 0.358887)"/>
</clipPath>
</defs>
</svg>
