<svg width="27" height="26" viewBox="0 0 27 26" fill="none" xmlns="http://www.w3.org/2000/svg">
<g clip-path="url(#clip0_548_4458)">
<path d="M0.845703 12.9632C0.845703 5.93141 6.54616 0.230957 13.5779 0.230957C20.6097 0.230957 26.3101 5.93141 26.3101 12.9632C25.7566 12.9632 13.5779 14.6239 13.5779 14.6239L0.845703 12.9632Z" fill="#D80027"/>
<path d="M26.3104 12.9629C26.3104 19.9947 20.6099 25.6951 13.5782 25.6951C6.5464 25.6951 0.845947 19.9947 0.845947 12.9629" fill="#6DA544"/>
<path d="M13.578 8.53442L14.5397 11.4946H17.6525L15.1343 13.3241L16.0961 16.2845L13.578 14.455L11.0599 16.2845L12.0218 13.3241L9.50354 11.4946H12.6162L13.578 8.53442Z" fill="#FFDA44"/>
</g>
<defs>
<clipPath id="clip0_548_4458">
<rect width="25.4644" height="25.4644" fill="white" transform="translate(0.845703 0.230957)"/>
</clipPath>
</defs>
</svg>
