<svg width="26" height="26" viewBox="0 0 26 26" fill="none" xmlns="http://www.w3.org/2000/svg">
<g clip-path="url(#clip0_548_4462)">
<path d="M12.7322 25.6954C19.764 25.6954 25.4644 19.995 25.4644 12.9632C25.4644 5.93137 19.764 0.230957 12.7322 0.230957C5.70041 0.230957 0 5.93137 0 12.9632C0 19.995 5.70041 25.6954 12.7322 25.6954Z" fill="#F0F0F0"/>
<path d="M20.4847 2.86193C15.9263 -0.645699 9.53795 -0.645699 4.97961 2.86188L12.7321 10.6144L20.4847 2.86193Z" fill="#D80027"/>
<path d="M12.7322 15.3111L4.97974 23.0636C9.53807 26.5712 15.9265 26.5712 20.4848 23.0636L12.7323 15.311L12.7322 15.3111Z" fill="#D80027"/>
<path d="M10.3834 12.963L2.63096 5.21045C-0.876663 9.76878 -0.876663 16.1572 2.63096 20.7155L10.3834 12.963Z" fill="#6DA544"/>
<path d="M15.0804 12.963L22.8329 20.7155C26.3405 16.1572 26.3405 9.76878 22.8329 5.21045L15.0804 12.963Z" fill="#6DA544"/>
<path d="M12.732 18.4987C15.7893 18.4987 18.2677 16.0203 18.2677 12.963C18.2677 9.90568 15.7893 7.42725 12.732 7.42725C9.67472 7.42725 7.19629 9.90568 7.19629 12.963C7.19629 16.0203 9.67472 18.4987 12.732 18.4987Z" fill="#F0F0F0"/>
<path d="M12.7321 9.08789L13.2115 9.91827H14.1704L13.6909 10.7486L14.1704 11.579H13.2115L12.7321 12.4094L12.2527 11.579H11.2939L11.7733 10.7486L11.2939 9.91827H12.2527L12.7321 9.08789Z" fill="#D80027"/>
<path d="M10.2952 12.9629L10.7746 13.7933H11.7334L11.254 14.6236L11.7334 15.454H10.7746L10.2952 16.2844L9.81573 15.454H8.85693L9.33633 14.6236L8.85693 13.7933H9.81573L10.2952 12.9629Z" fill="#D80027"/>
<path d="M15.169 12.9629L15.6484 13.7933H16.6071L16.1278 14.6236L16.6071 15.454H15.6484L15.169 16.2844L14.6895 15.454H13.7307L14.2101 14.6236L13.7307 13.7933H14.6895L15.169 12.9629Z" fill="#D80027"/>
</g>
<defs>
<clipPath id="clip0_548_4462">
<rect width="25.4644" height="25.4644" fill="white" transform="translate(0 0.230957)"/>
</clipPath>
</defs>
</svg>
