<svg width="27" height="26" viewBox="0 0 27 26" fill="none" xmlns="http://www.w3.org/2000/svg">
<g clip-path="url(#clip0_548_4475)">
<path d="M0.871582 12.9631C0.871582 15.1688 1.43274 17.2435 2.41969 19.0524L13.6038 20.1596L24.7879 19.0524C25.7749 17.2435 26.336 15.1688 26.336 12.9631C26.336 10.7573 25.7749 8.68268 24.7879 6.87376L13.6038 5.7666L2.41969 6.87376C1.43274 8.68268 0.871582 10.7573 0.871582 12.9631H0.871582Z" fill="#D80027"/>
<path d="M2.41968 6.87384H24.7878C22.6284 2.91611 18.4298 0.230957 13.6038 0.230957C8.77773 0.230957 4.57913 2.91611 2.41968 6.87384V6.87384Z" fill="#0052B4"/>
<path d="M13.6035 25.6951C18.4296 25.6951 22.6282 23.01 24.7877 19.0522H2.41943C4.57889 23.01 8.77749 25.6951 13.6035 25.6951Z" fill="#0052B4"/>
<path d="M18.0325 15.4541V13.7933H16.9254V11.579L15.8183 10.4719L14.7111 11.579V9.36472L13.604 8.25757L12.4968 9.36472V11.579L11.3897 10.4719L10.2825 11.579V13.7933H9.17539V15.4541H8.06824V17.1148H19.1397V15.4541H18.0325Z" fill="#F0F0F0"/>
</g>
<defs>
<clipPath id="clip0_548_4475">
<rect width="25.4644" height="25.4644" fill="white" transform="translate(0.871582 0.230957)"/>
</clipPath>
</defs>
</svg>
