<svg width="27" height="26" viewBox="0 0 27 26" fill="none" xmlns="http://www.w3.org/2000/svg">
<g clip-path="url(#clip0_548_4481)">
<path d="M19.0114 1.49433C17.3375 0.68494 15.4596 0.230957 13.4756 0.230957C11.4917 0.230957 9.61381 0.68494 7.93992 1.49433L6.83276 12.9632L7.93992 24.432C9.61381 25.2414 11.4917 25.6954 13.4756 25.6954C15.4596 25.6954 17.3375 25.2414 19.0114 24.432L20.1185 12.9632L19.0114 1.49433Z" fill="#D80027"/>
<path d="M13.4757 8.53442L14.5749 11.9174H18.1324L15.2545 14.0084L16.3537 17.3916L13.4757 15.3007L10.5978 17.3916L11.6972 14.0084L8.81934 11.9174H12.3765L13.4757 8.53442Z" fill="#FFDA44"/>
<path d="M7.94002 1.49463C3.68119 3.55397 0.74353 7.9152 0.74353 12.963C0.74353 18.0109 3.68119 22.3721 7.94002 24.4314V1.49463Z" fill="#496E2D"/>
<path d="M19.0114 1.49463V24.4314C23.2702 22.3721 26.2078 18.0108 26.2078 12.963C26.2078 7.91525 23.2702 3.55397 19.0114 1.49463Z" fill="#FFDA44"/>
</g>
<defs>
<clipPath id="clip0_548_4481">
<rect width="25.4644" height="25.4644" fill="white" transform="translate(0.743164 0.230957)"/>
</clipPath>
</defs>
</svg>
