<svg width="27" height="26" viewBox="0 0 27 26" fill="none" xmlns="http://www.w3.org/2000/svg">
<g clip-path="url(#clip0_548_4486)">
<path d="M13.347 25.6954C20.3788 25.6954 26.0792 19.995 26.0792 12.9632C26.0792 5.93137 20.3788 0.230957 13.347 0.230957C6.31515 0.230957 0.614746 5.93137 0.614746 12.9632C0.614746 19.995 6.31515 25.6954 13.347 25.6954Z" fill="#F0F0F0"/>
<path d="M26.0798 12.9625C26.0798 7.91467 23.1422 3.55309 18.8833 1.49365V24.4313C23.1422 22.3719 26.0798 18.0103 26.0798 12.9625V12.9625Z" fill="#D80027"/>
<path d="M0.615234 12.9627C0.615234 18.0106 3.55285 22.3721 7.81172 24.4316V1.4939C3.55285 3.55333 0.615234 7.91491 0.615234 12.9627Z" fill="#D80027"/>
<path d="M15.5618 14.6234L17.7761 13.5162L16.669 12.9627V11.8555L14.4547 12.9627L15.5618 10.7484H14.4547L13.3475 9.08765L12.2404 10.7484H11.1332L12.2404 12.9627L10.0261 11.8555V12.9627L8.91895 13.5162L11.1332 14.6234L10.5797 15.7305H12.794V17.3912H13.9011V15.7305H16.1154L15.5618 14.6234Z" fill="#D80027"/>
</g>
<defs>
<clipPath id="clip0_548_4486">
<rect width="25.4644" height="25.4644" fill="white" transform="translate(0.615234 0.230957)"/>
</clipPath>
</defs>
</svg>
