<svg width="26" height="26" viewBox="0 0 26 26" fill="none" xmlns="http://www.w3.org/2000/svg">
<g clip-path="url(#clip0_548_4492)">
<path d="M13.2191 0.230957C11.6617 0.230957 10.1698 0.511116 8.79054 1.02289L8.23694 12.9632L8.79049 24.9035C10.1698 25.4153 11.6617 25.6954 13.2191 25.6954C14.7765 25.6954 16.2684 25.4153 17.6477 24.9035L18.2013 12.9632L17.6477 1.02289C16.2684 0.511116 14.7765 0.230957 13.2191 0.230957V0.230957Z" fill="#338AF3"/>
<path d="M25.9515 12.9627C25.9515 7.48834 22.4963 2.82143 17.6478 1.02246V24.9031C22.4963 23.1041 25.9515 18.4372 25.9515 12.9627V12.9627Z" fill="#FFDA44"/>
<path d="M8.79046 24.903V1.02246C3.94202 2.82143 0.486816 7.48834 0.486816 12.9627C0.486816 18.4372 3.94202 23.1041 8.79046 24.903Z" fill="#F0F0F0"/>
</g>
<defs>
<clipPath id="clip0_548_4492">
<rect width="25.4644" height="25.4644" fill="white" transform="translate(0.487305 0.230957)"/>
</clipPath>
</defs>
</svg>
