<svg width="26" height="26" viewBox="0 0 26 26" fill="none" xmlns="http://www.w3.org/2000/svg">
<g clip-path="url(#clip0_548_4496)">
<path d="M13.091 25.6952C20.1228 25.6952 25.8232 19.9947 25.8232 12.9629C25.8232 5.93112 20.1228 0.230713 13.091 0.230713C6.05917 0.230713 0.358765 5.93112 0.358765 12.9629C0.358765 19.9947 6.05917 25.6952 13.091 25.6952Z" fill="#F0F0F0"/>
<path d="M13.0909 25.6952C16.9499 25.6952 20.4076 23.9781 22.7425 21.2666H3.43921C5.77413 23.9781 9.23187 25.6952 13.0909 25.6952Z" fill="#0052B4"/>
<path d="M25.8232 12.9632C25.8232 5.93141 20.1227 0.230957 13.091 0.230957C6.05922 0.230957 0.358765 5.93141 0.358765 12.9632C0.358765 14.1124 0.511949 15.2256 0.79738 16.2846H25.3846C25.67 15.2256 25.8232 14.1124 25.8232 12.9632Z" fill="#0052B4"/>
<path d="M1.37073 17.9451C1.61617 18.5218 1.90309 19.0764 2.22752 19.6058H23.9545C24.2788 19.0764 24.5657 18.5217 24.8112 17.9451H1.37073Z" fill="#D80027"/>
<path d="M9.45984 13.7935L9.66595 14.4278H10.3329L9.79337 14.8198L9.99947 15.4542L9.45984 15.0621L8.92022 15.4542L9.12637 14.8198L8.58679 14.4278H9.25379L9.45984 13.7935Z" fill="#FFDA44"/>
<path d="M9.45984 22.0972L9.66595 22.7315H10.3329L9.79337 23.1236L9.99947 23.7579L9.45984 23.3659L8.92022 23.7579L9.12637 23.1236L8.58679 22.7315H9.25379L9.45984 22.0972Z" fill="#FFDA44"/>
<path d="M5.59473 19.2891L5.80083 19.9233H6.46783L5.92826 20.3153L6.13436 20.9498L5.59473 20.5577L5.0551 20.9498L5.26131 20.3153L4.72168 19.9233H5.38863L5.59473 19.2891Z" fill="#FFDA44"/>
<path d="M7.07086 14.624L7.27696 15.2584H7.94391L7.40438 15.6504L7.61048 16.2848L7.07086 15.8927L6.53123 16.2848L6.73743 15.6504L6.19775 15.2584H6.86475L7.07086 14.624Z" fill="#FFDA44"/>
<path d="M4.72168 17.236L5.38853 17.236L5.59468 16.6016L5.80083 17.236L6.46783 17.2359L5.92821 17.628L6.13436 18.2624L5.59468 17.8703L5.0551 18.2622L5.26121 17.6279L4.72168 17.236Z" fill="#FFDA44"/>
<path d="M6.53133 22.8061L6.73743 22.1719L6.19775 21.7799H6.86475L7.07091 21.1455L7.27706 21.7798H7.94401L7.40438 22.1718L7.61048 22.8063L7.07086 22.4142L6.53133 22.8061Z" fill="#FFDA44"/>
<path d="M13.3235 19.2891L13.1174 19.9233H12.4504L12.99 20.3153L12.7839 20.9498L13.3235 20.5577L13.8631 20.9498L13.657 20.3153L14.1966 19.9233H13.5296L13.3235 19.2891Z" fill="#FFDA44"/>
<path d="M11.8471 14.624L11.641 15.2584H10.974L11.5135 15.6504L11.3074 16.2848L11.8471 15.8927L12.3867 16.2848L12.1805 15.6504L12.7202 15.2584H12.0532L11.8471 14.624Z" fill="#FFDA44"/>
<path d="M14.1966 17.236L13.5297 17.236L13.3235 16.6016L13.1174 17.236L12.4504 17.2359L12.99 17.628L12.7839 18.2624L13.3235 17.8703L13.8631 18.2622L13.657 17.6279L14.1966 17.236Z" fill="#FFDA44"/>
<path d="M12.3867 22.8061L12.1806 22.1719L12.7203 21.7799H12.0533L11.8471 21.1455L11.641 21.7798H10.974L11.5136 22.1718L11.3075 22.8063L11.8472 22.4142L12.3867 22.8061Z" fill="#FFDA44"/>
</g>
<defs>
<clipPath id="clip0_548_4496">
<rect width="25.4644" height="25.4644" fill="white" transform="translate(0.358398 0.230957)"/>
</clipPath>
</defs>
</svg>
