<svg width="26" height="26" viewBox="0 0 26 26" fill="none" xmlns="http://www.w3.org/2000/svg">
<g clip-path="url(#clip0_548_4513)">
<path d="M25.6948 12.9632C25.6948 19.9949 19.9943 25.6954 12.9626 25.6954C5.9308 25.6954 0.230347 19.9949 0.230347 12.9632C0.230347 12.9662 12.9626 0.23235 12.9626 0.230957C19.9943 0.230957 25.6948 5.93141 25.6948 12.9632Z" fill="#0052B4"/>
<path d="M12.9286 12.9642H12.9641C12.9641 12.9523 12.9641 12.9407 12.9641 12.9287C12.9523 12.9406 12.9405 12.9524 12.9286 12.9642Z" fill="#F0F0F0"/>
<path d="M12.9626 6.87384C12.9626 4.63352 12.9626 3.16558 12.9626 0.230957H12.9604C5.92956 0.232151 0.230347 5.93206 0.230347 12.9632H6.87323V9.22254L10.6139 12.9632H12.9285C12.9399 12.9518 12.9512 12.9405 12.9626 12.9291C12.9626 12.0713 12.9626 11.3059 12.9626 10.6146L9.22188 6.87384H12.9626Z" fill="#F0F0F0"/>
<path d="M18.4982 9.64151C19.7212 9.64151 20.7126 8.65013 20.7126 7.4272C20.7126 6.20427 19.7212 5.21289 18.4982 5.21289C17.2753 5.21289 16.2839 6.20427 16.2839 7.4272C16.2839 8.65013 17.2753 9.64151 18.4982 9.64151Z" fill="#6DA544"/>
<path d="M6.67186 1.89136C4.68051 3.02527 3.02498 4.68076 1.89111 6.67211V12.9629H5.21258V5.21292V5.21283H12.9626C12.9626 4.16525 12.9626 3.16726 12.9626 1.89136H6.67186Z" fill="#D80027"/>
<path d="M12.9625 11.3973L8.43883 6.87378H6.87317V6.87388L12.9624 12.9631H12.9625C12.9625 12.9631 12.9625 11.8835 12.9625 11.3973V11.3973Z" fill="#D80027"/>
<path d="M14.6233 6.87378H22.3733V10.1952H14.6233V6.87378Z" fill="#D80027"/>
<path d="M14.6233 15.177V17.3913H15.7883C16.4868 18.0759 17.443 18.4985 18.4983 18.4985C19.5536 18.4985 20.5098 18.0759 21.2083 17.3913H21.2662H22.3733V15.177H14.6233Z" fill="#FFDA44"/>
<path d="M14.6233 9.64136V12.9628C14.6233 15.929 18.4983 16.8378 18.4983 16.8378C18.4983 16.8378 22.3733 15.929 22.3733 12.9628V9.64136H14.6233Z" fill="#338AF3"/>
<path d="M18.4983 11.415C17.5296 11.415 17.5296 12.3008 16.5609 12.3008C15.5922 12.3008 15.5922 11.415 14.6235 11.415V12.965C15.5922 12.965 15.5922 13.8508 16.5609 13.8508C17.5296 13.8508 17.5296 12.965 18.4983 12.965C19.4671 12.965 19.4671 13.8508 20.4359 13.8508C21.4048 13.8508 21.4047 12.965 22.3736 12.965V11.415C21.4048 11.415 21.4048 12.3008 20.4359 12.3008C19.4671 12.3008 19.4671 11.415 18.4983 11.415V11.415Z" fill="#F3F3F3"/>
<path d="M18.4981 8.31274C17.5294 8.31274 17.5294 9.19848 16.5607 9.19848C15.592 9.19848 15.592 8.31274 14.6233 8.31274V9.86274C15.592 9.86274 15.592 10.7485 16.5607 10.7485C17.5294 10.7485 17.5294 9.86274 18.4981 9.86274C19.4669 9.86274 19.4669 10.7485 20.4357 10.7485C21.4045 10.7485 21.4045 9.86274 22.3733 9.86274V8.31274C21.4045 8.31274 21.4045 9.19848 20.4357 9.19848C19.4669 9.19848 19.4669 8.31274 18.4981 8.31274Z" fill="#F3F3F3"/>
</g>
<defs>
<clipPath id="clip0_548_4513">
<rect width="25.4644" height="25.4644" fill="white" transform="translate(0.230469 0.230957)"/>
</clipPath>
</defs>
</svg>
