<svg width="26" height="26" viewBox="0 0 26 26" fill="none" xmlns="http://www.w3.org/2000/svg">
<g clip-path="url(#clip0_548_4532)">
<path d="M12.8345 25.6952C19.8663 25.6952 25.5667 19.9947 25.5667 12.9629C25.5667 5.93112 19.8663 0.230713 12.8345 0.230713C5.8027 0.230713 0.102295 5.93112 0.102295 12.9629C0.102295 19.9947 5.8027 25.6952 12.8345 25.6952Z" fill="#F0F0F0"/>
<path d="M24.0189 6.87342C22.3736 3.85803 19.5445 1.5817 16.1562 0.668457L15.6027 6.87342H24.0189Z" fill="#0052B4"/>
<path d="M1.65039 6.87342H10.0666L9.51303 0.668457C6.12472 1.5817 3.29568 3.85808 1.65039 6.87342V6.87342Z" fill="#0052B4"/>
<path d="M15.6021 12.9629V19.0522H24.0182C25.0052 17.2433 25.5664 15.1686 25.5664 12.9629H15.6021Z" fill="#6DA544"/>
<path d="M10.0666 12.9629H0.102295C0.102295 15.1686 0.663458 17.2433 1.6504 19.0522H10.0666V12.9629H10.0666Z" fill="#6DA544"/>
<path d="M1.65039 19.0522C3.29568 22.0676 6.12472 24.344 9.51303 25.2572L10.0666 19.8307L1.65039 19.0522Z" fill="#FFDA44"/>
<path d="M16.1562 25.2572C19.5445 24.344 22.3736 22.0676 24.0189 19.0522L15.6027 19.8306L16.1562 25.2572Z" fill="#FFDA44"/>
<path d="M15.6023 19.8306L24.0185 19.0522H15.6023V19.8306Z" fill="#FFDA44"/>
<path d="M10.0666 19.0522H1.65039L10.0666 19.8306V19.0522Z" fill="#FFDA44"/>
<path d="M12.8347 0.230957C11.6854 0.230957 10.5722 0.384142 9.51318 0.669572V25.2568C10.5722 25.5422 11.6854 25.6954 12.8347 25.6954C13.9839 25.6954 15.0971 25.5422 16.1561 25.2568V0.669572C15.0971 0.384142 13.9839 0.230957 12.8347 0.230957V0.230957Z" fill="#D80027"/>
<path d="M6.95078 2.99854L7.29425 4.05576H8.40598L7.50667 4.70918L7.85019 5.7664L6.95078 5.11303L6.05142 5.7664L6.39504 4.70918L5.49573 4.05576H6.60736L6.95078 2.99854Z" fill="#FFDA44"/>
</g>
<defs>
<clipPath id="clip0_548_4532">
<rect width="25.4644" height="25.4644" fill="white" transform="translate(0.102539 0.230957)"/>
</clipPath>
</defs>
</svg>
