<svg width="27" height="26" viewBox="0 0 27 26" fill="none" xmlns="http://www.w3.org/2000/svg">
<g clip-path="url(#clip0_548_4547)">
<path d="M13.7061 25.6954C20.7379 25.6954 26.4383 19.995 26.4383 12.9632C26.4383 5.93137 20.7379 0.230957 13.7061 0.230957C6.67428 0.230957 0.973877 5.93137 0.973877 12.9632C0.973877 19.995 6.67428 25.6954 13.7061 25.6954Z" fill="#F0F0F0"/>
<path d="M13.7064 0.230957C10.1905 0.230957 7.00745 1.65607 4.70337 3.9601L13.7064 12.9632V0.230957Z" fill="black"/>
<path d="M0.973999 12.9629C0.973999 16.4788 2.39911 19.6619 4.70315 21.966L13.7062 12.9629H0.973999Z" fill="black"/>
<path d="M13.7062 25.6951C17.2221 25.6951 20.4052 24.27 22.7092 21.966L13.7062 12.9629V25.6951Z" fill="black"/>
<path d="M26.4384 12.9628C26.4384 9.44685 25.0133 6.2638 22.7092 3.95972L13.7062 12.9628H26.4384Z" fill="black"/>
<path d="M9.27771 9.08805L13.7063 9.64175L18.1349 9.08805V6.43089L16.3634 7.31663L13.7063 4.65942L11.0491 7.31663L9.27771 6.43089V9.08805Z" fill="#FFDA44"/>
<path d="M13.7063 19.6057C11.2643 19.6057 9.27771 17.619 9.27771 15.1771V10.7487L10.9384 9.08789H16.4741L18.1349 10.7487V15.1771C18.1349 17.619 16.1482 19.6057 13.7063 19.6057Z" fill="#D80027"/>
<path d="M13.7062 17.9449C12.18 17.9449 10.9384 16.7032 10.9384 15.1771V10.7485H16.4741V15.177C16.4741 16.7032 15.2324 17.9449 13.7062 17.9449V17.9449Z" fill="#F0F0F0"/>
<path d="M9.27771 9.08789H10.9384V10.7486H9.27771V9.08789Z" fill="#FFDA44"/>
<path d="M16.4741 9.08789H18.1348V10.7486H16.4741V9.08789Z" fill="#FFDA44"/>
<path d="M16.4741 12.686H18.1348V14.3467H16.4741V12.686Z" fill="#FFDA44"/>
<path d="M9.27759 12.686H10.9383V14.3467H9.27759V12.686Z" fill="#FFDA44"/>
<path d="M13.7061 17.945C13.4169 17.945 13.138 17.9003 12.8757 17.8176V19.5266C13.1449 19.5779 13.4222 19.6058 13.7061 19.6058C13.99 19.6058 14.2673 19.5779 14.5365 19.5266V17.8176C14.2742 17.9002 13.9954 17.945 13.7061 17.945Z" fill="#FFDA44"/>
<path d="M10.9755 15.6265L9.65015 16.9518C9.87992 17.475 10.2078 17.9454 10.6107 18.3398L11.7845 17.1661C11.3656 16.7614 11.0738 16.2262 10.9755 15.6265Z" fill="#FFDA44"/>
<path d="M17.7622 16.9518L16.4369 15.6265C16.3385 16.2262 16.0467 16.7613 15.6279 17.1661L16.8017 18.3399C17.2045 17.9454 17.5324 17.475 17.7622 16.9518Z" fill="#FFDA44"/>
<path d="M13.1528 11.6714V12.594C13.1528 12.8996 13.4007 13.1475 13.7064 13.1475C14.0121 13.1475 14.2599 12.8996 14.2599 12.594V11.6714H13.1528Z" fill="#0052B4"/>
<path d="M13.1528 15.3618V16.2844C13.1528 16.5901 13.4007 16.838 13.7064 16.838C14.0121 16.838 14.2599 16.5901 14.2599 16.2844V15.3618H13.1528Z" fill="#0052B4"/>
<path d="M14.8135 13.5168V14.4395C14.8135 14.7452 15.0613 14.9931 15.367 14.9931C15.6728 14.9931 15.9206 14.7452 15.9206 14.4395V13.5168H14.8135Z" fill="#0052B4"/>
<path d="M13.1528 13.5168V14.4395C13.1528 14.7452 13.4007 14.9931 13.7064 14.9931C14.0121 14.9931 14.2599 14.7452 14.2599 14.4395V13.5168H13.1528Z" fill="#0052B4"/>
<path d="M11.4922 13.5168V14.4395C11.4922 14.7452 11.74 14.9931 12.0457 14.9931C12.3515 14.9931 12.5993 14.7452 12.5993 14.4395V13.5168H11.4922Z" fill="#0052B4"/>
</g>
<defs>
<clipPath id="clip0_548_4547">
<rect width="25.4644" height="25.4644" fill="white" transform="translate(0.973633 0.230957)"/>
</clipPath>
</defs>
</svg>
