<svg width="26" height="26" viewBox="0 0 26 26" fill="none" xmlns="http://www.w3.org/2000/svg">
<g clip-path="url(#clip0_548_4570)">
<path d="M13.2191 0.102539C11.6617 0.102539 10.1698 0.382698 8.79054 0.894473L8.23694 12.8348L8.79049 24.775C10.1698 25.2869 11.6617 25.567 13.2191 25.567C14.7765 25.567 16.2684 25.2869 17.6477 24.775L18.2013 12.8348L17.6477 0.894473C16.2684 0.382698 14.7765 0.102539 13.2191 0.102539V0.102539Z" fill="#FFDA44"/>
<path d="M25.9515 12.8348C25.9515 7.36041 22.4963 2.6935 17.6478 0.894531V24.7752C22.4963 22.9761 25.9515 18.3092 25.9515 12.8348V12.8348Z" fill="#D80027"/>
<path d="M8.79046 24.7751V0.894531C3.94202 2.6935 0.486816 7.36041 0.486816 12.8348C0.486816 18.3092 3.94202 22.9761 8.79046 24.7751Z" fill="#0052B4"/>
</g>
<defs>
<clipPath id="clip0_548_4570">
<rect width="25.4644" height="25.4644" fill="white" transform="translate(0.487305 0.102539)"/>
</clipPath>
</defs>
</svg>
