<svg width="26" height="26" viewBox="0 0 26 26" fill="none" xmlns="http://www.w3.org/2000/svg">
<g clip-path="url(#clip0_548_4574)">
<path d="M12.7319 25.5672C19.7637 25.5672 25.4641 19.8668 25.4641 12.835C25.4641 5.80319 19.7637 0.102783 12.7319 0.102783C5.70004 0.102783 -0.000366211 5.80319 -0.000366211 12.835C-0.000366211 19.8668 5.70004 25.5672 12.7319 25.5672Z" fill="#F0F0F0"/>
<path d="M25.4642 12.8349C25.4642 19.8667 19.7637 25.5672 12.732 25.5672C5.70021 25.5672 -0.000244141 19.8667 -0.000244141 12.8349C-0.000244141 5.80318 12.732 12.8349 12.732 12.8349C12.732 12.8349 22.3687 12.8349 25.4642 12.8349Z" fill="#D80027"/>
<path d="M-0.000366211 12.835C-0.000366211 5.80324 5.70009 0.102783 12.7319 0.102783V12.835C12.7319 12.835 4.42821 12.835 -0.000366211 12.835Z" fill="#0052B4"/>
<path d="M7.57883 4.53101L8.4033 7.0684H11.0712L8.91283 8.63655L9.73724 11.1739L7.57883 9.60574L5.42042 11.1739L6.24484 8.63655L4.08643 7.0684H6.75437L7.57883 4.53101Z" fill="#F0F0F0"/>
</g>
<defs>
<clipPath id="clip0_548_4574">
<rect width="25.4644" height="25.4644" fill="white" transform="translate(0 0.102539)"/>
</clipPath>
</defs>
</svg>
