<svg width="27" height="26" viewBox="0 0 27 26" fill="none" xmlns="http://www.w3.org/2000/svg">
<g clip-path="url(#clip0_548_4579)">
<path d="M13.604 25.567C20.6359 25.567 26.3363 19.8666 26.3363 12.8348C26.3363 5.80295 20.6359 0.102539 13.604 0.102539C6.57223 0.102539 0.871826 5.80295 0.871826 12.8348C0.871826 19.8666 6.57223 25.567 13.604 25.567Z" fill="#D80027"/>
<path d="M7.8393 7.85107L8.93845 11.2331H12.4945L9.61982 13.3269L10.719 16.7089L7.8393 14.62L4.95963 16.7089L6.06375 13.3269L3.18408 11.2331H6.74015L7.8393 7.85107Z" fill="#FFDA44"/>
<path d="M15.9663 19.8226L15.1258 18.7881L13.8824 19.2706L14.6036 18.1515L13.7631 17.1121L15.0512 17.4552L15.7773 16.3362L15.847 17.6691L17.1401 18.0123L15.8917 18.4897L15.9663 19.8226Z" fill="#FFDA44"/>
<path d="M17.6372 16.7886L18.0351 15.5154L16.9459 14.7445L18.2788 14.7246L18.6717 13.4514L19.1044 14.7147L20.4373 14.6998L19.368 15.4955L19.7958 16.7588L18.7065 15.9879L17.6372 16.7886Z" fill="#FFDA44"/>
<path d="M19.8904 9.44801L19.3036 10.6466L20.2585 11.5767L18.9405 11.3877L18.3536 12.5813L18.1248 11.2683L16.8019 11.0793L17.9856 10.4576L17.7568 9.13965L18.7117 10.0697L19.8904 9.44801Z" fill="#FFDA44"/>
<path d="M16.0012 5.81689L15.9017 7.14483L17.1401 7.64715L15.842 7.96546L15.7475 9.29836L15.0463 8.1644L13.7482 8.4827L14.6086 7.46313L13.9023 6.33414L15.1408 6.83647L16.0012 5.81689Z" fill="#FFDA44"/>
</g>
<defs>
<clipPath id="clip0_548_4579">
<rect width="25.4644" height="25.4644" fill="white" transform="translate(0.871582 0.102539)"/>
</clipPath>
</defs>
</svg>
