<svg width="27" height="26" viewBox="0 0 27 26" fill="none" xmlns="http://www.w3.org/2000/svg">
<g clip-path="url(#clip0_548_4587)">
<path d="M13.476 25.5672C20.5078 25.5672 26.2082 19.8668 26.2082 12.835C26.2082 5.80319 20.5078 0.102783 13.476 0.102783C6.44418 0.102783 0.743774 5.80319 0.743774 12.835C0.743774 19.8668 6.44418 25.5672 13.476 25.5672Z" fill="#6DA544"/>
<path d="M20.2885 18.3704L20.6379 19.1009L21.4269 18.9186L21.0736 19.6473L21.7081 20.1504L20.9181 20.3284L20.9203 21.1383L20.2885 20.6316L19.6568 21.1383L19.659 20.3284L18.869 20.1504L19.5035 19.6473L19.1502 18.9186L19.9391 19.1009L20.2885 18.3704Z" fill="#FFDA44"/>
<path d="M17.0383 10.6206L17.3877 11.3512L18.1767 11.1688L17.8233 11.8975L18.4578 12.4006L17.6679 12.5787L17.6701 13.3885L17.0383 12.8819L16.4065 13.3885L16.4087 12.5787L15.6188 12.4006L16.2532 11.8975L15.8999 11.1688L16.6889 11.3512L17.0383 10.6206Z" fill="#FFDA44"/>
<path d="M20.2885 6.19214L20.6379 6.9227L21.4269 6.74027L21.0736 7.46899L21.708 7.97216L20.918 8.15017L20.9201 8.96L20.2885 8.45335L19.6567 8.96L19.6589 8.15017L18.869 7.97216L19.5034 7.46899L19.1501 6.74027L19.9391 6.9227L20.2885 6.19214Z" fill="#FFDA44"/>
<path d="M23.1274 9.51343L23.4768 10.244L24.2658 10.0616L23.9124 10.7903L24.5469 11.2935L23.757 11.4715L23.7592 12.2813L23.1274 11.7747L22.4956 12.2813L22.4978 11.4715L21.7079 11.2935L22.3424 10.7903L21.989 10.0616L22.778 10.244L23.1274 9.51343Z" fill="#FFDA44"/>
<path d="M21.0976 13.3884L21.3725 14.2343H22.2618L21.5423 14.757L21.8171 15.6027L21.0976 15.0801L20.3782 15.6027L20.6529 14.757L19.9335 14.2343H20.8228L21.0976 13.3884Z" fill="#FFDA44"/>
<path d="M14.8594 16.4329C12.8722 16.4329 11.2611 14.8219 11.2611 12.8346C11.2611 10.8474 12.8721 9.23639 14.8594 9.23639C15.479 9.23639 16.0621 9.3931 16.5711 9.66888C15.7726 8.88794 14.6806 8.40601 13.4754 8.40601C11.0296 8.40601 9.04688 10.3888 9.04688 12.8346C9.04688 15.2804 11.0296 17.2632 13.4754 17.2632C14.6806 17.2632 15.7726 16.7812 16.571 16.0003C16.0621 16.2762 15.479 16.4329 14.8594 16.4329V16.4329Z" fill="#FFDA44"/>
<path d="M8.74997 5.0847C8.36701 4.42302 7.65206 3.97754 6.83263 3.97754C6.01319 3.97754 5.29824 4.42302 4.91528 5.0847H8.74997Z" fill="#FFDA44"/>
<path d="M8.75737 5.09741L6.83267 7.02212L4.90797 5.09741C4.724 5.42024 4.61841 5.79361 4.61841 6.19179C4.61841 7.41473 5.60978 8.4061 6.83272 8.4061C8.05566 8.4061 9.04703 7.41478 9.04703 6.19179C9.04698 5.79361 8.94134 5.42024 8.75737 5.09741V5.09741Z" fill="#FFDA44"/>
<path d="M6.27917 6.46851V8.33626C6.45608 8.38177 6.6416 8.40599 6.83273 8.40599C7.02386 8.40599 7.20937 8.38172 7.38628 8.33626V6.46851H6.27917Z" fill="#A2001D"/>
</g>
<defs>
<clipPath id="clip0_548_4587">
<rect width="25.4644" height="25.4644" fill="white" transform="translate(0.743164 0.102539)"/>
</clipPath>
</defs>
</svg>
