<svg width="27" height="27" viewBox="0 0 27 27" fill="none" xmlns="http://www.w3.org/2000/svg">
<g clip-path="url(#clip0_548_4603)">
<path d="M13.6044 26.4388C20.6362 26.4388 26.3366 20.7384 26.3366 13.7066C26.3366 6.67477 20.6362 0.974365 13.6044 0.974365C6.5726 0.974365 0.872192 6.67477 0.872192 13.7066C0.872192 20.7384 6.5726 26.4388 13.6044 26.4388Z" fill="#F0F0F0"/>
<path d="M26.3358 13.6694H12.5338C9.79353 16.4097 8.13645 18.5253 6.44446 20.2173L13.6409 20.8659L24.8082 19.7587C25.7828 17.9585 26.3363 15.8971 26.3363 13.7063C26.3363 13.694 26.3358 13.6818 26.3358 13.6694V13.6694Z" fill="#D80027"/>
<path d="M6.44431 7.58015H24.7674C22.602 3.64271 18.4148 0.974121 13.6038 0.974121C10.0973 0.974121 6.92237 2.39212 4.61987 4.68556L6.44431 7.58015Z" fill="#FFDA44"/>
<path d="M6.99773 19.759C5.85313 20.9036 5.41078 21.8626 4.58264 22.6907C6.88812 25.0058 10.0784 26.4388 13.6037 26.4388C18.4447 26.4388 22.6545 23.737 24.8079 19.759H6.99773Z" fill="#0052B4"/>
<path d="M4.60075 4.6665C-0.371475 9.63873 -0.371475 17.7004 4.60075 22.6726C6.65547 20.6179 8.63159 18.6418 13.6038 13.6696L4.60075 4.6665Z" fill="#6DA544"/>
<path d="M4.22997 13.6695C4.22997 11.8144 5.53368 10.2647 7.27461 9.88455C7.00704 9.82612 6.72942 9.79443 6.44423 9.79443C4.30408 9.79443 2.56921 11.5293 2.56921 13.6695C2.56921 15.8096 4.30408 17.5445 6.44423 17.5445C6.72937 17.5445 7.00699 17.5128 7.27461 17.4544C5.53368 17.0741 4.22997 15.5245 4.22997 13.6695V13.6695Z" fill="#F0F0F0"/>
<path d="M7.23199 10.3481L7.43814 10.9825H8.10509L7.56546 11.3745L7.77162 12.0089L7.23199 11.6168L6.69236 12.0089L6.89851 11.3745L6.35889 10.9825H7.02584L7.23199 10.3481Z" fill="#F0F0F0"/>
<path d="M7.23199 12.0088L7.43814 12.6432H8.10509L7.56546 13.0352L7.77162 13.6695L7.23199 13.2775L6.69236 13.6695L6.89851 13.0352L6.35889 12.6432H7.02584L7.23199 12.0088Z" fill="#F0F0F0"/>
<path d="M7.23199 13.6694L7.43814 14.3038H8.10509L7.56546 14.6958L7.77162 15.3301L7.23199 14.9381L6.69236 15.3301L6.89851 14.6958L6.35889 14.3038H7.02584L7.23199 13.6694Z" fill="#F0F0F0"/>
<path d="M7.23199 15.3301L7.43814 15.9644H8.10509L7.56546 16.3565L7.77162 16.9908L7.23199 16.5988L6.69236 16.9908L6.89851 16.3565L6.35889 15.9644H7.02584L7.23199 15.3301Z" fill="#F0F0F0"/>
</g>
<defs>
<clipPath id="clip0_548_4603">
<rect width="25.4644" height="25.4644" fill="white" transform="translate(0.871582 0.974121)"/>
</clipPath>
</defs>
</svg>
