<svg width="27" height="27" viewBox="0 0 27 27" fill="none" xmlns="http://www.w3.org/2000/svg">
<g clip-path="url(#clip0_548_4615)">
<path d="M26.2077 13.7063C26.2077 20.7381 20.5073 26.4386 13.4755 26.4386C6.44374 26.4386 0.743286 20.7381 0.743286 13.7063C0.743286 13.7094 13.4755 0.975514 13.4755 0.974121C20.5073 0.974121 26.2077 6.67457 26.2077 13.7063Z" fill="#0052B4"/>
<path d="M13.4418 13.7081H13.4773C13.4773 13.6962 13.4773 13.6846 13.4773 13.6726C13.4655 13.6845 13.4536 13.6963 13.4418 13.7081Z" fill="#F0F0F0"/>
<path d="M13.4757 7.61701C13.4757 5.37668 13.4757 3.90875 13.4757 0.974121H13.4736C6.44274 0.975315 0.74353 6.67522 0.74353 13.7063H7.38642V9.9657L11.1271 13.7063H13.4417C13.4531 13.695 13.4644 13.6837 13.4758 13.6723C13.4758 12.8145 13.4758 12.0491 13.4758 11.3577L9.73506 7.61701H13.4757Z" fill="#F0F0F0"/>
<path d="M7.18505 2.63477C5.1937 3.76868 3.53816 5.42417 2.4043 7.41551V13.7063H5.72576V5.95633V5.95623H13.4758C13.4758 4.90866 13.4758 3.91067 13.4758 2.63477H7.18505Z" fill="#D80027"/>
<path d="M13.4756 12.1408L8.9519 7.61719H7.38623V7.61729L13.4755 13.7065H13.4756C13.4756 13.7065 13.4756 12.6269 13.4756 12.1408V12.1408Z" fill="#D80027"/>
<path d="M17.9042 13.7061L18.1399 14.431H18.9021L18.2855 14.879L18.521 15.604L17.9042 15.1559L17.2876 15.604L17.5231 14.879L16.9065 14.431H17.6687L17.9042 13.7061Z" fill="#F0F0F0"/>
<path d="M14.7729 15.0035L15.4521 15.3495L15.9911 14.8105L15.8718 15.5634L16.551 15.9095L15.7981 16.0287L15.6789 16.7817L15.3328 16.1024L14.58 16.2217L15.119 15.6827L14.7729 15.0035Z" fill="#F0F0F0"/>
<path d="M13.4758 18.1347L14.2008 17.8991L14.2009 17.137L14.6488 17.7535L15.3738 17.5179L14.9257 18.1347L15.3738 18.7514L14.6488 18.5159L14.2009 19.1325V18.3703L13.4758 18.1347Z" fill="#F0F0F0"/>
<path d="M14.7729 21.2664L15.1189 20.5872L14.58 20.0483L15.3328 20.1675L15.6789 19.4883L15.7981 20.2412L16.551 20.3603L15.8718 20.7064L15.9911 21.4594L15.4521 20.9203L14.7729 21.2664Z" fill="#F0F0F0"/>
<path d="M17.9043 22.5632L17.6687 21.8382H16.9065L17.5232 21.3902L17.2876 20.6653L17.9043 21.1133L18.521 20.6653L18.2855 21.3902L18.9021 21.8382H18.1399L17.9043 22.5632Z" fill="#F0F0F0"/>
<path d="M21.0358 21.2664L20.3566 20.9204L19.8177 21.4594L19.9369 20.7064L19.2577 20.3604L20.0106 20.2412L20.1298 19.4883L20.4759 20.1675L21.2287 20.0483L20.6897 20.5872L21.0358 21.2664Z" fill="#F0F0F0"/>
<path d="M22.3326 18.1347L21.6076 18.3703V19.1325L21.1596 18.5158L20.4347 18.7514L20.8828 18.1347L20.4347 17.5179L21.1596 17.7535L21.6076 17.137V17.8991L22.3326 18.1347Z" fill="#F0F0F0"/>
<path d="M21.0358 15.0035L20.6898 15.6827L21.2287 16.2216L20.4759 16.1024L20.1298 16.7816L20.0106 16.0286L19.2577 15.9094L19.9369 15.5634L19.8177 14.8105L20.3566 15.3495L21.0358 15.0035Z" fill="#F0F0F0"/>
</g>
<defs>
<clipPath id="clip0_548_4615">
<rect width="25.4644" height="25.4644" fill="white" transform="translate(0.743164 0.974121)"/>
</clipPath>
</defs>
</svg>
