<svg width="27" height="26" viewBox="0 0 27 26" fill="none" xmlns="http://www.w3.org/2000/svg">
<g clip-path="url(#clip0_548_4633)">
<path d="M13.3473 25.5672C20.3791 25.5672 26.0795 19.8668 26.0795 12.835C26.0795 5.80319 20.3791 0.102783 13.3473 0.102783C6.31552 0.102783 0.615112 5.80319 0.615112 12.835C0.615112 19.8668 6.31552 25.5672 13.3473 25.5672Z" fill="#FCFCFC"/>
<path d="M17.7805 10.8868C17.7805 8.19391 15.5975 6.01099 12.9047 6.01099C10.9176 6.01099 9.20931 7.20016 8.44975 8.90528L7.8484 11.0854L8.40196 11.639L7.2948 13.8533L8.40196 14.4068L7.8484 14.9604V15.5139L8.40196 16.0675V17.1747L8.95551 17.7282L10.6162 17.1747C10.6162 17.1747 10.6162 17.7282 11.1698 18.2818C11.7233 18.8354 12.277 19.9426 12.277 19.9426C12.277 19.9426 13.9377 20.4961 15.0448 18.8354C16.152 17.1747 17.2592 16.6211 17.2592 16.6211L16.192 14.4868C17.1679 13.5954 17.7805 12.3128 17.7805 10.8868V10.8868Z" fill="black"/>
<path d="M18.1779 12.7511C20.4274 12.3716 20.8021 7.9668 20.8021 7.9668H17.7021C19.3074 11.8418 17.6271 12.1025 17.6271 12.1025C17.3995 11.9331 9.25294 8.07388 8.99472 7.97575C8.9325 8.05901 8.70347 8.27769 8.42505 8.95857C8.14658 9.63944 8.07825 10.252 8.07825 10.252C8.20865 10.337 16.8602 13.3579 17.0889 13.3831C17.5428 13.6798 18.1012 14.5672 17.7891 17.1981L20.7729 16.3571C20.773 16.3571 19.7604 13.6633 18.1779 12.7511V12.7511Z" fill="#ACABB1"/>
</g>
<defs>
<clipPath id="clip0_548_4633">
<rect width="25.4644" height="25.4644" fill="white" transform="translate(0.615234 0.102539)"/>
</clipPath>
</defs>
</svg>
