<svg width="27" height="27" viewBox="0 0 27 27" fill="none" xmlns="http://www.w3.org/2000/svg">
<g clip-path="url(#clip0_548_4637)">
<path d="M13.3471 26.4386C20.3789 26.4386 26.0793 20.7381 26.0793 13.7063C26.0793 6.67453 20.3789 0.974121 13.3471 0.974121C6.31528 0.974121 0.614868 6.67453 0.614868 13.7063C0.614868 20.7381 6.31528 26.4386 13.3471 26.4386Z" fill="#F0F0F0"/>
<path d="M25.2877 9.27783H1.40717C0.895393 10.6571 0.615234 12.149 0.615234 13.7064C0.615234 15.2638 0.895393 16.7557 1.40717 18.135H25.2878C25.7996 16.7557 26.0797 15.2638 26.0797 13.7064C26.0797 12.149 25.7996 10.6571 25.2877 9.27783Z" fill="#D80027"/>
<path d="M13.3475 0.974121C9.48846 0.974121 6.03072 2.69118 3.6958 5.40269H22.9991C20.6642 2.69118 17.2065 0.974121 13.3475 0.974121V0.974121Z" fill="#0052B4"/>
<path d="M22.9991 22.01H3.6958C6.03072 24.7215 9.48846 26.4386 13.3475 26.4386C17.2065 26.4386 20.6642 24.7215 22.9991 22.01Z" fill="#0052B4"/>
</g>
<defs>
<clipPath id="clip0_548_4637">
<rect width="25.4644" height="25.4644" fill="white" transform="translate(0.615234 0.974121)"/>
</clipPath>
</defs>
</svg>
