<svg width="27" height="27" viewBox="0 0 27 27" fill="none" xmlns="http://www.w3.org/2000/svg">
<g clip-path="url(#clip0_548_4643)">
<path d="M26.182 13.5781C26.182 12.0207 25.9018 10.5288 25.39 9.14955L13.4497 8.59595L1.50946 9.1495C0.997688 10.5288 0.717529 12.0207 0.717529 13.5781C0.717529 15.1355 0.997688 16.6274 1.50946 18.0067L13.4497 18.5603L25.39 18.0067C25.9018 16.6274 26.182 15.1355 26.182 13.5781Z" fill="#F0F0F0"/>
<path d="M13.4497 26.3105C18.9241 26.3105 23.591 22.8553 25.39 18.0068H1.5094C3.30837 22.8553 7.97528 26.3105 13.4497 26.3105Z" fill="#0052B4"/>
<path d="M1.5094 9.14984H25.39C23.591 4.3014 18.9241 0.846191 13.4497 0.846191C7.97528 0.846191 3.30837 4.3014 1.5094 9.14984V9.14984Z" fill="#D80027"/>
<path d="M16.7714 9.7032H14.5571L14.9262 6.93528L16.4024 5.82812L17.8785 6.93528V9.14959L16.7714 9.7032Z" fill="#338AF3"/>
<path d="M10.1283 9.70295H12.3427L11.9736 6.93504L10.4974 5.82788L9.02124 6.93504V9.14935L10.1283 9.70295Z" fill="#338AF3"/>
<path d="M14.9259 9.7032H11.9734V6.93528L13.4496 5.82812L14.9259 6.93528V9.7032Z" fill="#0052B4"/>
<path d="M9.02124 9.1499V15.2392C9.02124 16.6891 9.72161 17.9786 10.8019 18.7869L11.5769 18.593L12.5549 19.5768C12.8441 19.6364 13.1433 19.6678 13.4499 19.6678C13.7547 19.6678 14.0525 19.6368 14.3402 19.5778L15.4566 18.6483L16.0978 18.7851C17.1776 17.9768 17.8784 16.6887 17.8784 15.2392V9.1499H9.02124Z" fill="#F0F0F0"/>
<path d="M9.02124 9.1499H10.7927V10.9213H9.02124V9.1499Z" fill="#D80027"/>
<path d="M12.5643 9.1499H14.3358V10.9213H12.5643V9.1499Z" fill="#D80027"/>
<path d="M16.1073 9.1499H17.8787V10.9213H16.1073V9.1499Z" fill="#D80027"/>
<path d="M10.793 10.9209H12.5644V12.6923H10.793V10.9209Z" fill="#D80027"/>
<path d="M14.3356 10.9209H16.107V12.6923H14.3356V10.9209Z" fill="#D80027"/>
<path d="M9.02148 12.6921H10.7929V14.4636H9.02148V12.6921Z" fill="#D80027"/>
<path d="M10.793 14.4634H12.5644V16.2348H10.793V14.4634Z" fill="#D80027"/>
<path d="M12.5643 12.6921H14.3358V14.4636H12.5643V12.6921Z" fill="#D80027"/>
<path d="M16.1073 12.6921H17.8787V14.4636H16.1073V12.6921Z" fill="#D80027"/>
<path d="M14.3356 14.4634H16.107V16.2348H14.3356V14.4634Z" fill="#D80027"/>
<path d="M12.5643 16.2346H14.3358V18.006H12.5643V16.2346Z" fill="#D80027"/>
<path d="M10.793 16.2351H9.13586C9.28786 16.8936 9.58666 17.4961 9.99638 18.0065H10.793V16.2351Z" fill="#D80027"/>
<path d="M16.1073 18.0065H16.9039C17.3137 17.4961 17.6124 16.8936 17.7644 16.2351H16.1073V18.0065Z" fill="#D80027"/>
<path d="M10.793 18.0066V18.7795C11.3082 19.1672 11.9103 19.4452 12.5644 19.5786V18.0066H10.793Z" fill="#D80027"/>
<path d="M14.3356 18.0066V19.5786C14.9897 19.4453 15.5918 19.1672 16.107 18.7795V18.0066H14.3356Z" fill="#D80027"/>
</g>
<defs>
<clipPath id="clip0_548_4643">
<rect width="25.4644" height="25.4644" fill="white" transform="translate(0.717773 0.846191)"/>
</clipPath>
</defs>
</svg>
