<svg width="26" height="27" viewBox="0 0 26 27" fill="none" xmlns="http://www.w3.org/2000/svg">
<g clip-path="url(#clip0_548_4668)">
<path d="M12.7318 26.3103C19.7636 26.3103 25.464 20.6099 25.464 13.5781C25.464 6.54633 19.7636 0.845947 12.7318 0.845947C5.70002 0.845947 -0.000366211 6.54633 -0.000366211 13.5781C-0.000366211 20.6099 5.70002 26.3103 12.7318 26.3103Z" fill="#F0F0F0"/>
<path d="M12.7322 0.845947C8.5668 0.845947 4.86878 2.84645 2.5459 5.93883H22.9185C20.5957 2.8464 16.8976 0.845947 12.7322 0.845947V0.845947Z" fill="#0052B4"/>
<path d="M12.7322 26.3099C16.8976 26.3099 20.5957 24.3094 22.9185 21.217H2.5459C4.86873 24.3095 8.5668 26.3099 12.7322 26.3099Z" fill="#0052B4"/>
<path d="M0 13.5779C0 14.45 0.0879319 15.3016 0.254992 16.1244H25.2095C25.3766 15.3016 25.4644 14.45 25.4644 13.5779C25.4644 12.7058 25.3765 11.8543 25.2095 11.0315H0.254992C0.0879319 11.8543 0 12.7058 0 13.5779V13.5779Z" fill="#0052B4"/>
<path d="M3.72913 4.5752C-1.24304 9.54737 -1.24304 17.609 3.72913 22.5813C5.78385 20.5266 7.75993 18.5504 12.7322 13.5783L3.72913 4.5752Z" fill="#D80027"/>
<path d="M5.153 10.2568L5.97731 12.7941H8.64541L6.48705 14.3623L7.31136 16.8996L5.153 15.3315L2.99454 16.8996L3.81905 14.3623L1.66064 12.7941H4.32854L5.153 10.2568Z" fill="#F0F0F0"/>
</g>
<defs>
<clipPath id="clip0_548_4668">
<rect width="25.4644" height="25.4644" fill="white" transform="translate(0 0.846191)"/>
</clipPath>
</defs>
</svg>
