<svg width="27" height="27" viewBox="0 0 27 27" fill="none" xmlns="http://www.w3.org/2000/svg">
<g clip-path="url(#clip0_548_4677)">
<path d="M13.604 26.3104C20.6359 26.3104 26.3363 20.61 26.3363 13.5782C26.3363 6.54636 20.6359 0.845947 13.604 0.845947C6.57223 0.845947 0.871826 6.54636 0.871826 13.5782C0.871826 20.61 6.57223 26.3104 13.604 26.3104Z" fill="#FFDA44"/>
<path d="M13.604 26.3104C17.7817 26.3104 21.4894 24.2982 23.8111 21.1902H3.39685C5.71849 24.2982 9.4262 26.3104 13.604 26.3104Z" fill="#0052B4"/>
<path d="M26.336 13.5784C26.336 6.54664 20.6356 0.846191 13.6038 0.846191C6.57203 0.846191 0.871582 6.54664 0.871582 13.5784C0.871582 15.084 1.13364 16.5283 1.61343 17.869H25.5941C26.074 16.5283 26.336 15.084 26.336 13.5784V13.5784Z" fill="#0052B4"/>
<path d="M9.5864 9.01147L10.2734 11.1258H12.4968L10.6981 12.4328L11.3851 14.5472L9.5864 13.2404L7.78773 14.5472L8.47482 12.4328L6.67615 11.1258H8.89941L9.5864 9.01147Z" fill="#F0F0F0"/>
<path d="M5.7682 6.79736L6.1804 8.06601H7.51445L6.43525 8.85013L6.84745 10.1188L5.7682 9.33471L4.68899 10.1188L5.10125 8.85013L4.02209 8.06601H5.35609L5.7682 6.79736Z" fill="#F0F0F0"/>
</g>
<defs>
<clipPath id="clip0_548_4677">
<rect width="25.4644" height="25.4644" fill="white" transform="translate(0.871582 0.846191)"/>
</clipPath>
</defs>
</svg>
