<svg width="27" height="27" viewBox="0 0 27 27" fill="none" xmlns="http://www.w3.org/2000/svg">
<g clip-path="url(#clip0_548_4685)">
<path d="M13.3473 26.3104C20.3791 26.3104 26.0795 20.61 26.0795 13.5782C26.0795 6.54636 20.3791 0.845947 13.3473 0.845947C6.31552 0.845947 0.615112 6.54636 0.615112 13.5782C0.615112 20.61 6.31552 26.3104 13.3473 26.3104Z" fill="#FCFCFC"/>
<path d="M20.544 11.9177C20.1565 11.9177 19.6767 11.9177 18.8833 11.9177C18.8833 14.975 16.4048 17.4535 13.3476 17.4535C10.2902 17.4535 7.81183 14.975 7.81183 11.9177C7.27668 11.9177 6.68617 11.9177 6.15112 11.9177C6.15112 15.2109 8.36315 17.9875 11.3826 18.8426C11.0515 19.4715 11.102 20.2632 11.5748 20.8533C12.1959 20.3555 12.839 19.8402 13.3845 19.4031C13.93 19.8402 14.573 20.3556 15.1941 20.8533C15.6716 20.2573 15.7186 19.4555 15.3766 18.8237C18.363 17.9476 20.544 15.1875 20.544 11.9177V11.9177Z" fill="#6DA544"/>
<path d="M8.91895 11.3638C8.91895 11.3638 8.91894 14.1317 11.6868 14.1317L12.2404 14.6852H13.3475C13.3475 14.6852 13.9011 13.0245 15.0082 13.0245C15.0082 13.0245 15.0082 11.9173 16.1154 11.9173C17.2225 11.9173 17.7761 11.9173 17.7761 11.9173C17.7761 11.9173 17.2225 9.70303 19.9904 8.04232L18.8832 7.48877C18.8832 7.48877 15.0082 10.2566 12.2404 9.70308V10.8102H11.1332L10.5797 10.2567L8.91895 11.3638Z" fill="#FFDA44"/>
</g>
<defs>
<clipPath id="clip0_548_4685">
<rect width="25.4644" height="25.4644" fill="white" transform="translate(0.615234 0.846191)"/>
</clipPath>
</defs>
</svg>
