<svg width="26" height="27" viewBox="0 0 26 27" fill="none" xmlns="http://www.w3.org/2000/svg">
<g clip-path="url(#clip0_548_4689)">
<path d="M13.219 26.3106C20.2508 26.3106 25.9513 20.6102 25.9513 13.5784C25.9513 6.5466 20.2508 0.846191 13.219 0.846191C6.18722 0.846191 0.486816 6.5466 0.486816 13.5784C0.486816 20.6102 6.18722 26.3106 13.219 26.3106Z" fill="#F0F0F0"/>
<path d="M12.1121 13.5781C12.1121 13.5781 4.22365 22.5829 4.21619 22.5811C6.52022 24.8852 9.70332 26.3103 13.2193 26.3103C20.251 26.3103 25.9515 20.6099 25.9515 13.5781H12.1121Z" fill="#D80027"/>
<path d="M4.21599 4.5752C-0.756241 9.54742 -0.756241 17.6091 4.21599 22.5813C6.2707 20.5266 8.24683 18.5505 13.2191 13.5783L4.21599 4.5752Z" fill="#0052B4"/>
</g>
<defs>
<clipPath id="clip0_548_4689">
<rect width="25.4644" height="25.4644" fill="white" transform="translate(0.487305 0.846191)"/>
</clipPath>
</defs>
</svg>
