<svg width="26" height="27" viewBox="0 0 26 27" fill="none" xmlns="http://www.w3.org/2000/svg">
<g clip-path="url(#clip0_548_4693)">
<path d="M24.4094 7.7398C23.8211 6.59992 23.0499 5.53001 22.0944 4.5745C21.1388 3.61893 20.0689 2.84779 18.929 2.25952L9.95935 10.4462L1.77258 19.4159C2.3609 20.5558 3.13205 21.6258 4.08756 22.5813C5.04307 23.5368 6.11303 24.3079 7.25286 24.8963L16.2226 16.7095L24.4094 7.7398Z" fill="#FFDA44"/>
<path d="M4.08763 22.5818C4.62173 23.1159 5.19165 23.5923 5.78942 24.0117L23.5242 6.27684C23.1049 5.67907 22.6285 5.10916 22.0944 4.57505C21.5603 4.04095 20.9904 3.56463 20.3926 3.14526L2.65784 20.88C3.07715 21.4777 3.55347 22.0477 4.08763 22.5818V22.5818Z" fill="#D80027"/>
<path d="M4.08762 4.57494C0.0706542 8.5919 -0.700491 14.6247 1.77264 19.4164L18.9291 2.26001C14.1373 -0.213073 8.10453 0.558171 4.08762 4.57494V4.57494Z" fill="#338AF3"/>
<path d="M22.0942 22.5817C26.1112 18.5648 26.8823 12.532 24.4093 7.74023L7.25281 24.8967C12.0445 27.3697 18.0774 26.5986 22.0942 22.5817V22.5817Z" fill="#338AF3"/>
<path d="M7.1439 4.7207L7.83095 6.8353H10.0543L8.25559 8.14214L8.94263 10.2567L7.1439 8.94979L5.34508 10.2567L6.03222 8.14214L4.2334 6.8353H6.45676L7.1439 4.7207Z" fill="#FFDA44"/>
</g>
<defs>
<clipPath id="clip0_548_4693">
<rect width="25.4644" height="25.4644" fill="white" transform="translate(0.358398 0.846191)"/>
</clipPath>
</defs>
</svg>
