<svg width="26" height="27" viewBox="0 0 26 27" fill="none" xmlns="http://www.w3.org/2000/svg">
<g clip-path="url(#clip0_548_4700)">
<path d="M12.9626 26.3106C19.9944 26.3106 25.6948 20.6102 25.6948 13.5784C25.6948 6.5466 19.9944 0.846191 12.9626 0.846191C5.93075 0.846191 0.230347 6.5466 0.230347 13.5784C0.230347 20.6102 5.93075 26.3106 12.9626 26.3106Z" fill="#F0F0F0"/>
<path d="M10.195 11.9175H25.5873C24.7734 5.67036 19.4317 0.845947 12.9628 0.845947C12.0121 0.845947 11.0862 0.951038 10.1949 1.14859V11.9175H10.195Z" fill="#D80027"/>
<path d="M6.87312 11.9174V2.39404C3.37708 4.30159 0.874308 7.80051 0.338013 11.9174H6.87312V11.9174Z" fill="#D80027"/>
<path d="M6.87307 15.2388H0.338013C0.874308 19.3557 3.37708 22.8546 6.87312 24.7621L6.87307 15.2388Z" fill="#D80027"/>
<path d="M10.1949 15.2388V26.0076C11.0862 26.2052 12.0121 26.3103 12.9628 26.3103C19.4317 26.3103 24.7734 21.4859 25.5873 15.2388H10.1949V15.2388Z" fill="#D80027"/>
</g>
<defs>
<clipPath id="clip0_548_4700">
<rect width="25.4644" height="25.4644" fill="white" transform="translate(0.230469 0.846191)"/>
</clipPath>
</defs>
</svg>
