<svg width="26" height="27" viewBox="0 0 26 27" fill="none" xmlns="http://www.w3.org/2000/svg">
<g clip-path="url(#clip0_548_4707)">
<path d="M11.7273 14.6856C11.7273 14.6856 3.83888 4.5736 3.83142 4.57539C6.13545 2.2713 9.31856 0.846191 12.8345 0.846191C19.8663 0.846191 25.5667 6.54664 25.5667 13.5784L11.7273 14.6856Z" fill="#338AF3"/>
<path d="M11.7273 13.5781C11.7273 13.5781 3.83888 22.5829 3.83142 22.5811C6.13545 24.8852 9.31856 26.3103 12.8345 26.3103C19.8663 26.3103 25.5667 20.6099 25.5667 13.5781H11.7273Z" fill="#6DA544"/>
<path d="M3.83147 4.5752C-1.14076 9.54742 -1.14076 17.6091 3.83147 22.5813C5.88618 20.5266 7.86231 18.5505 12.8345 13.5783L3.83147 4.5752Z" fill="#F0F0F0"/>
<path d="M5.25542 10.2566L6.07978 12.7939H8.74788L6.58947 14.3621L7.41378 16.8995L5.25542 15.3313L3.09696 16.8995L3.92147 14.3621L1.76306 12.7939H4.43096L5.25542 10.2566Z" fill="#D80027"/>
</g>
<defs>
<clipPath id="clip0_548_4707">
<rect width="25.4644" height="25.4644" fill="white" transform="translate(0.102539 0.846191)"/>
</clipPath>
</defs>
</svg>
