<svg width="27" height="27" viewBox="0 0 27 27" fill="none" xmlns="http://www.w3.org/2000/svg">
<g clip-path="url(#clip0_548_4712)">
<path d="M13.7061 26.3104C20.7379 26.3104 26.4383 20.61 26.4383 13.5782C26.4383 6.54636 20.7379 0.845947 13.7061 0.845947C6.67428 0.845947 0.973877 6.54636 0.973877 13.5782C0.973877 20.61 6.67428 26.3104 13.7061 26.3104Z" fill="#F0F0F0"/>
<path d="M16.1976 26.0661C21.231 25.0676 25.1959 21.1026 26.1944 16.0693H16.1976V26.0661Z" fill="#496E2D"/>
<path d="M1.21851 16.0693C2.21694 21.1026 6.18193 25.0676 11.2153 26.0661V16.0693H1.21851Z" fill="#496E2D"/>
<path d="M26.1944 11.0871C25.1959 6.05381 21.231 2.08882 16.1976 1.09033V11.0871H26.1944Z" fill="#496E2D"/>
<path d="M11.2152 1.09033C6.18181 2.08882 2.21682 6.05381 1.21838 11.0871H11.2152V1.09033Z" fill="#496E2D"/>
<path d="M12.8756 16.0691H11.2148V26.0659C11.7568 26.1733 12.3112 26.2462 12.8756 26.2825V16.0691Z" fill="#FFDA44"/>
<path d="M12.8758 11.0872V0.873779C12.3115 0.910086 11.757 0.982948 11.2151 1.09043V11.0872H12.8758Z" fill="#FFDA44"/>
<path d="M14.5366 0.873894C14.262 0.856138 13.9853 0.846191 13.7062 0.846191C13.4272 0.846191 13.1505 0.856138 12.8759 0.873894V11.0874H14.5366V0.873894H14.5366Z" fill="black"/>
<path d="M12.8759 26.2828C13.1505 26.3005 13.4272 26.3105 13.7062 26.3105C13.9853 26.3105 14.262 26.3005 14.5366 26.2828V16.0693H12.8759V26.2828H12.8759Z" fill="black"/>
<path d="M11.2151 12.7476V11.0869H1.21836C1.11083 11.6289 1.03802 12.1833 1.00171 12.7476H11.2151Z" fill="#FFDA44"/>
<path d="M16.1973 12.7476H26.4107C26.3744 12.1833 26.3016 11.6289 26.1941 11.0869H16.1973V12.7476H16.1973Z" fill="#FFDA44"/>
<path d="M16.1975 14.4083H26.411C26.4287 14.1337 26.4386 13.857 26.4386 13.5779C26.4386 13.2989 26.4287 13.0221 26.4109 12.7476H16.1975V14.4083Z" fill="black"/>
<path d="M1.0017 12.7476C0.983996 13.0221 0.973999 13.2989 0.973999 13.5779C0.973999 13.857 0.983996 14.1337 1.0017 14.4083H11.2152V12.7476H1.0017V12.7476Z" fill="black"/>
<path d="M13.7063 19.6674C17.0693 19.6674 19.7956 16.9411 19.7956 13.5781C19.7956 10.2151 17.0693 7.48877 13.7063 7.48877C10.3432 7.48877 7.61694 10.2151 7.61694 13.5781C7.61694 16.9411 10.3432 19.6674 13.7063 19.6674Z" fill="#D80027"/>
<path d="M15.0933 14.2576C14.6404 13.3518 14.0517 12.4336 14.0517 12.4336C14.0517 12.4336 14.0663 12.0156 14.0663 11.7665C14.0663 11.3913 13.7621 11.0872 13.3869 11.0872C13.0315 11.0872 12.7402 11.3603 12.7105 11.708C12.431 11.7262 12.2098 11.9581 12.2098 12.2422C12.2098 12.4487 12.3269 12.6277 12.4982 12.7172C12.5833 12.518 12.75 12.3626 12.9562 12.2917C12.9898 12.3192 13.0259 12.3438 13.0645 12.3646L13.1515 12.4063C13.1515 12.4063 12.8288 13.316 12.8288 13.8047C12.8288 15.1786 13.7347 15.6023 13.7347 15.6023V15.6164L13.2817 16.0693H14.1876V15.1635L14.6405 15.6164C14.6445 15.6079 15.4984 15.0678 15.0933 14.2576V14.2576Z" fill="#496E2D"/>
<path d="M13.7061 8.5957L13.9122 9.23003H14.5791L14.0395 9.62209L14.2457 10.2564L13.7061 9.8644L13.1664 10.2564L13.3726 9.62209L12.833 9.23003H13.5L13.7061 8.5957Z" fill="#496E2D"/>
<path d="M10.7774 9.54717L11.3169 9.93923L11.8565 9.54712L11.6504 10.1815L12.1901 10.5735L11.5231 10.5736L11.3169 11.2079L11.1108 10.5736L10.4438 10.5735L10.9834 10.1814L10.7774 9.54717Z" fill="#496E2D"/>
<path d="M8.96753 12.0384H9.63443L9.84058 11.4041L10.0467 12.0384L10.7137 12.0383L10.1741 12.4304L10.3803 13.0648L9.84058 12.6727L9.301 13.0647L9.50706 12.4304L8.96753 12.0384Z" fill="#496E2D"/>
<path d="M8.96753 15.1174L9.50706 14.7254L9.30095 14.0911L9.84058 14.4831L10.3802 14.0911L10.1741 14.7254L10.7137 15.1174L10.0467 15.1175L9.84058 15.7518L9.63443 15.1174H8.96753Z" fill="#496E2D"/>
<path d="M10.7774 17.6087L10.9835 16.9744L10.4438 16.5824H11.1108L11.317 15.948L11.5231 16.5823H12.1901L11.6505 16.9744L11.8566 17.6087L11.317 17.2166L10.7774 17.6087Z" fill="#496E2D"/>
<path d="M13.7061 18.5601L13.5 17.9259H12.833L13.3726 17.5338L13.1664 16.8995L13.7061 17.2914L14.2456 16.8994L14.0395 17.5338L14.5791 17.9258L13.9122 17.9259L13.7061 18.5601Z" fill="#496E2D"/>
<path d="M16.6341 17.6087L16.0946 17.2166L15.555 17.6088L15.7611 16.9744L15.2214 16.5824L15.8884 16.5823L16.0945 15.948L16.3007 16.5824H16.9676L16.4281 16.9744L16.6341 17.6087Z" fill="#496E2D"/>
<path d="M18.4443 15.1176H17.7774L17.5713 15.752L17.3652 15.1177H16.6981L17.2377 14.7256L17.0316 14.0913L17.5713 14.4833L18.1108 14.0913L17.9048 14.7256L18.4443 15.1176Z" fill="#496E2D"/>
<path d="M18.4443 12.0383L17.9048 12.4303L18.1108 13.0647L17.5713 12.6726L17.0316 13.0648L17.2377 12.4304L16.6981 12.0384L17.3652 12.0383L17.5712 11.4041L17.7774 12.0383H18.4443Z" fill="#496E2D"/>
<path d="M16.6341 9.54712L16.4281 10.1814L16.9676 10.5735H16.3007L16.0946 11.2078L15.8884 10.5735L15.2214 10.5736L15.7611 10.1814L15.555 9.54717L16.0946 9.93913L16.6341 9.54712Z" fill="#496E2D"/>
</g>
<defs>
<clipPath id="clip0_548_4712">
<rect width="25.4644" height="25.4644" fill="white" transform="translate(0.973633 0.846191)"/>
</clipPath>
</defs>
</svg>
