<svg width="27" height="27" viewBox="0 0 27 27" fill="none" xmlns="http://www.w3.org/2000/svg">
<g clip-path="url(#clip0_548_4742)">
<path d="M13.5782 26.3104C20.61 26.3104 26.3104 20.61 26.3104 13.5782C26.3104 6.54636 20.61 0.845947 13.5782 0.845947C6.54636 0.845947 0.845947 6.54636 0.845947 13.5782C0.845947 20.61 6.54636 26.3104 13.5782 26.3104Z" fill="#F0F0F0"/>
<path d="M1.28442 16.8997C2.46007 21.2616 5.89463 24.6962 10.2566 25.8718V16.8997H1.28442Z" fill="#D80027"/>
<path d="M10.2566 1.28467C5.89463 2.46026 2.46002 5.89487 1.28442 10.2568H10.2566V1.28467H10.2566Z" fill="#0052B4"/>
<path d="M25.8716 10.2568C24.696 5.89487 21.2613 2.46026 16.8994 1.28467V10.2569H25.8716V10.2568Z" fill="#D80027"/>
<path d="M16.8994 25.8718C21.2613 24.6962 24.696 21.2616 25.8716 16.8997H16.8994V25.8718Z" fill="#0052B4"/>
<path d="M16.8994 13.5781C16.8994 15.4125 15.4124 16.8995 13.5779 16.8995C11.7436 16.8995 10.2565 15.4125 10.2565 13.5781C10.2565 11.7436 13.5779 10.2566 13.5779 10.2566C13.5779 10.2566 16.8994 11.7436 16.8994 13.5781Z" fill="#496E2D"/>
<path d="M10.2565 13.5781C10.2565 11.7436 11.7436 10.2566 13.5779 10.2566C15.4124 10.2566 16.8994 11.7436 16.8994 13.5781" fill="#0052B4"/>
<path d="M11.7096 11.9177V13.9936C11.7096 15.0255 12.546 15.8619 13.5779 15.8619C14.6098 15.8619 15.4462 15.0255 15.4462 13.9936V11.9177H11.7096Z" fill="#D80027"/>
</g>
<defs>
<clipPath id="clip0_548_4742">
<rect width="25.4644" height="25.4644" fill="white" transform="translate(0.845703 0.846191)"/>
</clipPath>
</defs>
</svg>
