<svg width="27" height="27" viewBox="0 0 27 27" fill="none" xmlns="http://www.w3.org/2000/svg">
<g clip-path="url(#clip0_548_4751)">
<path d="M13.476 26.1822C20.5078 26.1822 26.2082 20.4818 26.2082 13.45C26.2082 6.41818 20.5078 0.717773 13.476 0.717773C6.44418 0.717773 0.743774 6.41818 0.743774 13.45C0.743774 20.4818 6.44418 26.1822 13.476 26.1822Z" fill="#FFDA44"/>
<path d="M13.4755 0.717773C10.3582 0.717773 7.50311 1.83866 5.28979 3.6986L19.0112 13.45L5.28979 23.2014C7.50311 25.0613 10.3582 26.1822 13.4755 26.1822C20.5072 26.1822 26.2077 20.4818 26.2077 13.45C26.2077 6.41823 20.5072 0.717773 13.4755 0.717773Z" fill="#D80027"/>
<path d="M4.47246 4.44678C-0.499771 9.41901 -0.499771 17.4806 4.47246 22.4529C6.52717 20.3982 8.5033 18.4221 13.4755 13.4498L4.47246 4.44678Z" fill="black"/>
<path d="M4.27349 10.5332L6.21118 12.367L8.55411 11.0906L7.40895 13.5003L9.34669 15.3342L6.70107 14.9896L5.55577 17.3993L5.06603 14.7766L2.42041 14.4319L4.76324 13.1557L4.27349 10.5332Z" fill="#F0F0F0"/>
</g>
<defs>
<clipPath id="clip0_548_4751">
<rect width="25.4644" height="25.4644" fill="white" transform="translate(0.743164 0.717773)"/>
</clipPath>
</defs>
</svg>
