<svg width="26" height="27" viewBox="0 0 26 27" fill="none" xmlns="http://www.w3.org/2000/svg">
<g clip-path="url(#clip0_548_4756)">
<path d="M-0.000366211 13.45C-0.000366211 6.41823 5.70009 0.717773 12.7319 0.717773C19.7636 0.717773 25.4641 6.41823 25.4641 13.45L12.7319 14.5571L-0.000366211 13.45Z" fill="#FFDA44"/>
<path d="M1.70374 19.816C3.90527 23.6215 8.01956 26.1821 12.7322 26.1821C17.4449 26.1821 21.5592 23.6215 23.7607 19.816L12.7322 18.9856L1.70374 19.816Z" fill="#D80027"/>
<path d="M23.7605 19.8161C24.8438 17.9433 25.4642 15.7692 25.4642 13.45H-0.000244141C-0.000244141 15.7692 0.620153 17.9433 1.70349 19.8161H23.7605Z" fill="#0052B4"/>
<path d="M12.7319 17.8786C15.1778 17.8786 17.1605 15.8959 17.1605 13.4501C17.1605 11.0042 15.1778 9.02148 12.7319 9.02148C10.2861 9.02148 8.30334 11.0042 8.30334 13.4501C8.30334 15.8959 10.2861 17.8786 12.7319 17.8786Z" fill="#FFDA44"/>
<path d="M12.7322 16.2179C11.206 16.2179 9.96436 14.9762 9.96436 13.4501V11.7893C9.96436 10.2631 11.206 9.02148 12.7322 9.02148C14.2584 9.02148 15.5001 10.2632 15.5001 11.7893V13.4501C15.5001 14.9763 14.2584 16.2179 12.7322 16.2179Z" fill="#338AF3"/>
<path d="M17.1606 6.80735H13.8391C13.8391 6.19591 13.3434 5.7002 12.732 5.7002C12.1205 5.7002 11.6248 6.19591 11.6248 6.80735H8.30334C8.30334 7.41885 8.83596 7.91451 9.44735 7.91451H9.4105C9.4105 8.526 9.90616 9.02166 10.5177 9.02166C10.5177 9.63316 11.0133 10.1288 11.6248 10.1288H13.8391C14.4506 10.1288 14.9463 9.63316 14.9463 9.02166C15.5578 9.02166 16.0534 8.526 16.0534 7.91451H16.0166C16.628 7.91451 17.1606 7.4188 17.1606 6.80735V6.80735Z" fill="black"/>
</g>
<defs>
<clipPath id="clip0_548_4756">
<rect width="25.4644" height="25.4644" fill="white" transform="translate(0 0.717773)"/>
</clipPath>
</defs>
</svg>
