<svg width="26" height="27" viewBox="0 0 26 27" fill="none" xmlns="http://www.w3.org/2000/svg">
<g clip-path="url(#clip0_548_4763)">
<path d="M12.7322 26.054C19.764 26.054 25.4644 20.3536 25.4644 13.3218C25.4644 6.29001 19.764 0.5896 12.7322 0.5896C5.70041 0.5896 0 6.29001 0 13.3218C0 20.3536 5.70041 26.054 12.7322 26.054Z" fill="#F0F0F0"/>
<path d="M12.7322 0.5896C7.25775 0.5896 2.59084 4.04481 0.79187 8.89324H24.6725C22.8735 4.04481 18.2066 0.5896 12.7322 0.5896V0.5896Z" fill="#D80027"/>
<path d="M12.7322 26.0536C18.2066 26.0536 22.8735 22.5984 24.6724 17.75H0.79187C2.59084 22.5984 7.25775 26.0536 12.7322 26.0536Z" fill="black"/>
<path d="M17.1606 11.9377H13.8391C13.8391 11.3263 13.3434 10.8306 12.732 10.8306C12.1205 10.8306 11.6248 11.3263 11.6248 11.9377H8.30334C8.30334 12.5492 8.83596 13.0449 9.4474 13.0449H9.4105C9.4105 13.6564 9.90616 14.152 10.5177 14.152C10.5177 14.7635 11.0133 15.2592 11.6248 15.2592H13.8391C14.4506 15.2592 14.9463 14.7635 14.9463 14.152C15.5578 14.152 16.0534 13.6564 16.0534 13.0449H16.0166C16.628 13.0449 17.1606 12.5492 17.1606 11.9377V11.9377Z" fill="#FF9811"/>
</g>
<defs>
<clipPath id="clip0_548_4763">
<rect width="25.4644" height="25.4644" fill="white" transform="translate(0 0.589355)"/>
</clipPath>
</defs>
</svg>
