<svg width="27" height="27" viewBox="0 0 27 27" fill="none" xmlns="http://www.w3.org/2000/svg">
<g clip-path="url(#clip0_548_4768)">
<path d="M13.604 26.0538C20.6359 26.0538 26.3363 20.3534 26.3363 13.3216C26.3363 6.28976 20.6359 0.589355 13.604 0.589355C6.57223 0.589355 0.871826 6.28976 0.871826 13.3216C0.871826 20.3534 6.57223 26.0538 13.604 26.0538Z" fill="#F0F0F0"/>
<path d="M13.6039 0.5896C8.55602 0.5896 4.19445 3.52721 2.13501 7.78609H25.0726C23.0133 3.52721 18.6516 0.5896 13.6039 0.5896V0.5896Z" fill="#0052B4"/>
<path d="M13.6041 26.0537C18.6519 26.0537 23.0135 23.1161 25.0729 18.8572H2.13525C4.19469 23.1161 8.55627 26.0537 13.6041 26.0537Z" fill="#0052B4"/>
<path d="M11.0472 13.8751L13.6041 9.44653L16.161 13.8751H11.0472Z" fill="#FFDA44"/>
<path d="M16.9254 15.3376L13.6039 16.9983L10.2825 15.3376V13.1233H16.9254V15.3376Z" fill="#6DA544"/>
<path d="M16.7353 9.63672L15.561 10.811C16.0619 11.3119 16.3717 12.0039 16.3717 12.7682C16.3717 14.2969 15.1325 15.5361 13.6039 15.5361C12.0753 15.5361 10.836 14.2968 10.836 12.7682C10.836 12.0039 11.1459 11.3119 11.6467 10.811L10.4724 9.63672C9.67095 10.4381 9.17529 11.5452 9.17529 12.7682C9.17529 15.2141 11.158 17.1968 13.6039 17.1968C16.0497 17.1968 18.0324 15.214 18.0324 12.7682C18.0324 11.5452 17.5367 10.4381 16.7353 9.63672V9.63672Z" fill="#FFDA44"/>
</g>
<defs>
<clipPath id="clip0_548_4768">
<rect width="25.4644" height="25.4644" fill="white" transform="translate(0.871582 0.589355)"/>
</clipPath>
</defs>
</svg>
