<svg width="27" height="27" viewBox="0 0 27 27" fill="none" xmlns="http://www.w3.org/2000/svg">
<g clip-path="url(#clip0_548_4776)">
<path d="M13.476 26.054C20.5078 26.054 26.2082 20.3536 26.2082 13.3218C26.2082 6.29001 20.5078 0.5896 13.476 0.5896C6.44418 0.5896 0.743774 6.29001 0.743774 13.3218C0.743774 20.3536 6.44418 26.054 13.476 26.054Z" fill="#F0F0F0"/>
<path d="M26.1004 11.6611H15.1368H15.1368V0.697376C14.5931 0.626603 14.0388 0.5896 13.476 0.5896C12.9131 0.5896 12.3589 0.626603 11.8153 0.697376V11.661V11.6611H0.851551C0.780777 12.2047 0.743774 12.7589 0.743774 13.3218C0.743774 13.8848 0.780777 14.4389 0.851551 14.9825H11.8152H11.8152V25.9463C12.3589 26.017 12.9131 26.054 13.476 26.054C14.0388 26.054 14.5931 26.0171 15.1367 25.9463V14.9826V14.9826H26.1004C26.1712 14.4389 26.2082 13.8848 26.2082 13.3218C26.2082 12.7589 26.1712 12.2047 26.1004 11.6611V11.6611Z" fill="#D80027"/>
</g>
<defs>
<clipPath id="clip0_548_4776">
<rect width="25.4644" height="25.4644" fill="white" transform="translate(0.743164 0.589355)"/>
</clipPath>
</defs>
</svg>
