<svg width="27" height="27" viewBox="0 0 27 27" fill="none" xmlns="http://www.w3.org/2000/svg">
<g clip-path="url(#clip0_548_4779)">
<path d="M13.3473 26.0543C20.3791 26.0543 26.0795 20.3539 26.0795 13.3221C26.0795 6.29025 20.3791 0.589844 13.3473 0.589844C6.31552 0.589844 0.615112 6.29025 0.615112 13.3221C0.615112 20.3539 6.31552 26.0543 13.3473 26.0543Z" fill="#F0F0F0"/>
<path d="M8.3653 8.89324H25.2877C23.4888 4.04481 18.8218 0.5896 13.3475 0.5896C9.83149 0.5896 6.64878 2.01496 4.34485 4.31919L8.3653 8.89324Z" fill="#6DA544"/>
<path d="M8.3653 17.75H25.2877C23.4888 22.5984 18.8218 26.0536 13.3475 26.0536C9.83149 26.0536 6.64878 24.6283 4.34485 22.324L8.3653 17.75Z" fill="#D80027"/>
<path d="M4.34441 4.31885C-0.627823 9.29108 -0.627823 17.3527 4.34441 22.325C6.39912 20.2703 8.37525 18.2941 13.3475 13.3219L4.34441 4.31885Z" fill="#0052B4"/>
<path d="M15.5619 11.1077V13.8755C15.5619 15.5705 17.7762 16.0899 17.7762 16.0899C17.7762 16.0899 19.9905 15.5705 19.9905 13.8755V11.1077H15.5619Z" fill="#DEDDE0"/>
<path d="M17.2223 13.3772H18.3294V14.9826H17.2223V13.3772Z" fill="#786145"/>
<path d="M18.8831 12.7683C18.8831 12.1568 18.3874 11.6611 17.7759 11.6611C17.1644 11.6611 16.6688 12.1568 16.6688 12.7683C16.3631 12.7683 16.1152 13.0161 16.1152 13.3218C16.1152 13.6276 16.3631 13.8754 16.6688 13.8754H18.8831C19.1888 13.8754 19.4367 13.6276 19.4367 13.3218C19.4367 13.0161 19.1889 12.7683 18.8831 12.7683V12.7683Z" fill="#6DA544"/>
</g>
<defs>
<clipPath id="clip0_548_4779">
<rect width="25.4644" height="25.4644" fill="white" transform="translate(0.615234 0.589355)"/>
</clipPath>
</defs>
</svg>
