<svg width="26" height="27" viewBox="0 0 26 27" fill="none" xmlns="http://www.w3.org/2000/svg">
<g clip-path="url(#clip0_548_4787)">
<path d="M12.1121 12.2148C12.1121 12.2148 4.22365 22.3269 4.21619 22.325C6.52022 24.6291 9.70332 26.0542 13.2193 26.0542C20.251 26.0542 25.9515 20.3538 25.9515 13.322L12.1121 12.2148Z" fill="#338AF3"/>
<path d="M12.1121 13.3218C12.1121 13.3218 4.22365 4.31701 4.21619 4.3188C6.52022 2.01471 9.70332 0.5896 13.2193 0.5896C20.251 0.5896 25.9515 6.29005 25.9515 13.3218H12.1121Z" fill="#6DA544"/>
<path d="M4.21599 4.31885C-0.756241 9.29108 -0.756241 17.3527 4.21599 22.325C4.21564 22.327 25.9513 13.3219 25.9513 13.3219L4.21599 4.31885Z" fill="#D80027"/>
<path d="M7.12999 8.06274C4.68804 8.06274 2.70142 10.0494 2.70142 12.4913V14.152C2.70142 16.594 4.68809 18.5806 7.12999 18.5806C9.57189 18.5806 11.5586 16.5939 11.5586 14.152V12.4913C11.5586 10.0494 9.57194 8.06274 7.12999 8.06274ZM9.89785 14.1521C9.89785 15.3891 9.0821 16.439 7.96032 16.7925V14.9825L9.13526 13.8075L7.96097 12.6332L7.96032 12.2153V11.661H6.29966V13.3217L5.12551 14.4958L6.29966 15.6699V16.7926C5.17788 16.439 4.36213 15.3891 4.36213 14.1521V12.4914C4.36213 10.9652 5.60381 9.72355 7.12999 9.72355C8.65616 9.72355 9.89785 10.9652 9.89785 12.4914V14.1521Z" fill="#FFDA44"/>
</g>
<defs>
<clipPath id="clip0_548_4787">
<rect width="25.4644" height="25.4644" fill="white" transform="translate(0.487305 0.589355)"/>
</clipPath>
</defs>
</svg>
