<svg width="26" height="27" viewBox="0 0 26 27" fill="none" xmlns="http://www.w3.org/2000/svg">
<g clip-path="url(#clip0_548_4792)">
<path d="M0.358765 13.3218C0.358765 14.8792 0.638923 16.371 1.1507 17.7503L13.091 18.304L25.0313 17.7504C25.5431 16.371 25.8232 14.8792 25.8232 13.3218C25.8232 11.7644 25.5431 10.2725 25.0313 8.8932L13.091 8.3396L1.1507 8.89315C0.638923 10.2725 0.358765 11.7644 0.358765 13.3218H0.358765Z" fill="black"/>
<path d="M13.0909 0.5896C7.61651 0.5896 2.94961 4.04481 1.15063 8.89324H25.0313C23.2322 4.04481 18.5653 0.5896 13.0909 0.5896V0.5896Z" fill="#0052B4"/>
<path d="M25.0312 17.75H1.15063C2.94961 22.5984 7.61651 26.0536 13.0909 26.0536C18.5653 26.0536 23.2322 22.5984 25.0312 17.75Z" fill="#F0F0F0"/>
</g>
<defs>
<clipPath id="clip0_548_4792">
<rect width="25.4644" height="25.4644" fill="white" transform="translate(0.358398 0.589355)"/>
</clipPath>
</defs>
</svg>
