<svg width="27" height="27" viewBox="0 0 27 27" fill="none" xmlns="http://www.w3.org/2000/svg">
<g clip-path="url(#clip0_548_4796)">
<path d="M0.871582 13.4498C0.871582 15.0073 1.15174 16.4992 1.66357 17.8785L13.6038 18.9855L25.544 17.8785C26.0559 16.4992 26.336 15.0073 26.336 13.4498C26.336 11.9137 26.0639 10.4412 25.5654 9.07782L13.6038 7.91406L1.64218 9.07787C1.14368 10.4412 0.871582 11.9137 0.871582 13.4498H0.871582Z" fill="#FFDA44"/>
<path d="M13.6039 26.1821C19.0783 26.1821 23.7452 22.7269 25.5441 17.8784H1.66357C3.46255 22.7269 8.12945 26.1821 13.6039 26.1821Z" fill="#D80027"/>
<path d="M13.6039 0.717773C8.12945 0.717773 3.46255 4.17298 1.66357 9.02142H25.5442C23.7452 4.17298 19.0783 0.717773 13.6039 0.717773V0.717773Z" fill="#6DA544"/>
<path d="M13.604 19.5395C16.967 19.5395 19.6933 16.8132 19.6933 13.4502C19.6933 10.0871 16.967 7.36084 13.604 7.36084C10.2409 7.36084 7.51465 10.0871 7.51465 13.4502C7.51465 16.8132 10.2409 19.5395 13.604 19.5395Z" fill="#0052B4"/>
<path d="M13.6027 8.73462L14.7019 12.1177H18.2648L15.3812 14.2086L16.4891 17.6018L13.6027 15.5009L10.7206 17.5979L11.824 14.2086L8.94312 12.1177H12.5034L13.6027 8.73462Z" fill="#FFDA44"/>
<path d="M17.9868 14.2922L14.4996 13.159L16.6547 10.1928L15.7591 9.54199L13.6038 12.5084L11.4488 9.54204L10.553 10.1928L12.7082 13.1592L9.22107 14.2922L9.56315 15.3452L13.0504 14.2122V17.8788H14.1575V14.2121L17.6446 15.3452L17.9868 14.2922Z" fill="#FFDA44"/>
</g>
<defs>
<clipPath id="clip0_548_4796">
<rect width="25.4644" height="25.4644" fill="white" transform="translate(0.871582 0.717773)"/>
</clipPath>
</defs>
</svg>
