<svg width="26" height="27" viewBox="0 0 26 27" fill="none" xmlns="http://www.w3.org/2000/svg">
<g clip-path="url(#clip0_548_4804)">
<path d="M12.9626 26.0538C19.9944 26.0538 25.6948 20.3534 25.6948 13.3216C25.6948 6.28976 19.9944 0.589355 12.9626 0.589355C5.93075 0.589355 0.230347 6.28976 0.230347 13.3216C0.230347 20.3534 5.93075 26.0538 12.9626 26.0538Z" fill="#0052B4"/>
<path d="M12.9623 5.57178L13.3745 6.84047H14.7084L13.6292 7.62455L14.0415 8.89324L12.9623 8.10912L11.883 8.89324L12.2953 7.62455L11.2161 6.84047H12.55L12.9623 5.57178Z" fill="#FFDA44"/>
<path d="M7.48245 7.842L8.67112 8.44757L9.61435 7.50439L9.40561 8.82188L10.5942 9.42751L9.2767 9.6362L9.06801 10.9538L8.46238 9.76516L7.1449 9.9739L8.08813 9.03067L7.48245 7.842Z" fill="#FFDA44"/>
<path d="M5.21265 13.3219L6.48134 12.9096V11.5757L7.26537 12.6549L8.53411 12.2427L7.74994 13.3219L8.53411 14.4011L7.26537 13.9889L6.48134 15.0681V13.7341L5.21265 13.3219Z" fill="#FFDA44"/>
<path d="M7.48245 18.8022L8.08808 17.6135L7.1449 16.6703L8.46243 16.8791L9.06796 15.6904L9.2767 17.008L10.5942 17.2167L9.40571 17.8223L9.61435 19.1398L8.67112 18.1965L7.48245 18.8022Z" fill="#FFDA44"/>
<path d="M12.9623 21.0716L12.55 19.8029H11.2161L12.2953 19.0188L11.883 17.7502L12.9623 18.5343L14.0415 17.7502L13.6292 19.0188L14.7084 19.8029H13.3745L12.9623 21.0716Z" fill="#FFDA44"/>
<path d="M18.4427 18.8022L17.2541 18.1966L16.3108 19.1398L16.5196 17.8222L15.3311 17.2167L16.6485 17.008L16.8572 15.6904L17.4628 16.8791L18.7803 16.6703L17.8371 17.6136L18.4427 18.8022Z" fill="#FFDA44"/>
<path d="M20.7126 13.3219L19.4439 13.7341V15.0681L18.6598 13.9888L17.3912 14.4011L18.1753 13.3219L17.3912 12.2427L18.6599 12.6549L19.4439 11.5757V12.9097L20.7126 13.3219Z" fill="#FFDA44"/>
<path d="M18.4427 7.84195L17.8371 9.03062L18.7803 9.97385L17.4628 9.76506L16.8572 10.9537L16.6485 9.63615L15.3311 9.42741L16.5196 8.82183L16.3108 7.50439L17.2542 8.44757L18.4427 7.84195Z" fill="#FFDA44"/>
</g>
<defs>
<clipPath id="clip0_548_4804">
<rect width="25.4644" height="25.4644" fill="white" transform="translate(0.230469 0.589355)"/>
</clipPath>
</defs>
</svg>
