<svg width="27" height="26" viewBox="0 0 27 26" fill="none" xmlns="http://www.w3.org/2000/svg">
<g clip-path="url(#clip0_548_4815)">
<path d="M26.4383 13.1934C26.4383 20.2252 20.7379 25.9256 13.7061 25.9256C6.67433 25.9256 0.973877 20.2252 0.973877 13.1934C0.973877 13.1964 13.7061 0.462574 13.7061 0.461182C20.7379 0.461182 26.4383 6.16163 26.4383 13.1934Z" fill="#0052B4"/>
<path d="M13.6721 13.1942H13.7076C13.7076 13.1823 13.7076 13.1707 13.7076 13.1587C13.6958 13.1706 13.684 13.1824 13.6721 13.1942Z" fill="#F0F0F0"/>
<path d="M13.7062 7.10358C13.7062 4.86326 13.7062 3.39532 13.7062 0.460693H13.7041C6.67326 0.461887 0.973999 6.16179 0.973999 13.1929H7.61688V9.45228L11.3576 13.1929H13.6722L13.7063 13.1588C13.7063 12.3011 13.7063 11.5357 13.7063 10.8443L9.96553 7.10358H13.7062Z" fill="#F0F0F0"/>
<path d="M7.41539 2.12158C5.42404 3.2555 3.76856 4.91098 2.63464 6.90233V13.1931H5.95611V5.44315V5.44305H13.7062C13.7062 4.39548 13.7062 3.39749 13.7062 2.12158H7.41539Z" fill="#D80027"/>
<path d="M13.7061 11.6271L9.18254 7.10352H7.61682V7.10362L13.706 13.1928H13.7061C13.7061 13.1928 13.7061 12.1132 13.7061 11.6271Z" fill="#D80027"/>
<path d="M21.4562 15.4077V15.9613H17.0276V15.4077H15.3668V17.622H16.474V18.1756H22.0098V17.622H23.1169V15.4077H21.4562Z" fill="#FFDA44"/>
<path d="M15.3668 7.104V13.1933C15.3668 16.1595 19.2418 17.0684 19.2418 17.0684C19.2418 17.0684 23.1169 16.1595 23.1169 13.1933V7.104H15.3668Z" fill="#338AF3"/>
<path d="M19.2417 11.646C18.273 11.646 18.273 12.5317 17.3043 12.5317C16.3356 12.5317 16.3356 11.646 15.3669 11.646V13.196C16.3356 13.196 16.3356 14.0817 17.3043 14.0817C18.273 14.0817 18.273 13.196 19.2417 13.196C20.2105 13.196 20.2105 14.0817 21.1794 14.0817C22.1482 14.0817 22.1481 13.196 23.117 13.196V11.646C22.1482 11.646 22.1482 12.5317 21.1794 12.5317C20.2105 12.5317 20.2105 11.646 19.2417 11.646V11.646Z" fill="#F3F3F3"/>
<path d="M19.2416 8.54346C18.2729 8.54346 18.2729 9.42919 17.3042 9.42919C16.3355 9.42919 16.3355 8.54346 15.3668 8.54346V10.0935C16.3355 10.0935 16.3355 10.9792 17.3042 10.9792C18.2729 10.9792 18.2729 10.0935 19.2416 10.0935C20.2104 10.0935 20.2104 10.9792 21.1792 10.9792C22.1481 10.9792 22.148 10.0935 23.1169 10.0935V8.54346C22.1481 8.54346 22.1481 9.42919 21.1792 9.42919C20.2104 9.42919 20.2104 8.54346 19.2416 8.54346Z" fill="#F3F3F3"/>
</g>
<defs>
<clipPath id="clip0_548_4815">
<rect width="25.4644" height="25.4644" fill="white" transform="translate(0.973633 0.461426)"/>
</clipPath>
</defs>
</svg>
