<svg width="26" height="26" viewBox="0 0 26 26" fill="none" xmlns="http://www.w3.org/2000/svg">
<g clip-path="url(#clip0_548_4829)">
<path d="M12.7319 25.9256C19.7637 25.9256 25.4641 20.2252 25.4641 13.1934C25.4641 6.16159 19.7637 0.461182 12.7319 0.461182C5.70004 0.461182 -0.000366211 6.16159 -0.000366211 13.1934C-0.000366211 20.2252 5.70004 25.9256 12.7319 25.9256Z" fill="#F0F0F0"/>
<path d="M24.9109 13.1933L25.3565 11.5326C25.2825 10.9666 25.1715 10.4121 25.0259 9.87188H11.6251V0.509521C11.0601 0.558163 10.5058 0.644155 9.96441 0.764216L7.7501 2.12179L6.64294 2.01003C6.06029 2.32794 5.5052 2.69001 4.98223 3.09182V9.87183H0.438672C0.293097 10.4121 0.182088 10.9665 0.108082 11.5325L0.55361 13.1933L0.108032 14.854C0.182038 15.42 0.293047 15.9745 0.438622 16.5147H4.98218V23.2947C5.50515 23.6966 6.06029 24.0586 6.64289 24.3765L8.3036 24.2648L9.96431 25.6223C10.5058 25.7423 11.0601 25.8283 11.625 25.877V16.5148H25.0258C25.1714 15.9745 25.2824 15.4201 25.3564 14.8541L24.9109 13.1933Z" fill="#0052B4"/>
<path d="M25.3564 11.5328H9.96416H9.96411V0.763916C8.78747 1.02483 7.67196 1.44773 6.64264 2.00939V11.5327H0.107532C0.0367589 12.0764 -0.000244141 12.6306 -0.000244141 13.1935C-0.000244141 13.7563 0.0367589 14.3106 0.107532 14.8542H6.64259H6.64264V24.3776C7.67196 24.9392 8.78747 25.3622 9.96411 25.623V14.8544V14.8543H25.3564C25.4272 14.3106 25.4642 13.7563 25.4642 13.1935C25.4642 12.6306 25.4272 12.0764 25.3564 11.5328V11.5328Z" fill="#D80027"/>
</g>
<defs>
<clipPath id="clip0_548_4829">
<rect width="25.4644" height="25.4644" fill="white" transform="translate(0 0.461426)"/>
</clipPath>
</defs>
</svg>
