<svg width="27" height="26" viewBox="0 0 27 26" fill="none" xmlns="http://www.w3.org/2000/svg">
<g clip-path="url(#clip0_548_4833)">
<path d="M26.3361 13.1934C26.3361 20.2252 20.6357 25.9256 13.6039 25.9256C6.57216 25.9256 0.871704 20.2252 0.871704 13.1934C0.871704 13.1964 13.6039 0.462574 13.6039 0.461182C20.6357 0.461182 26.3361 6.16163 26.3361 13.1934Z" fill="#338AF3"/>
<path d="M13.604 6.55078V10.8451L9.17542 6.55078H13.604Z" fill="#0052B4"/>
<path d="M7.51473 13.1936H11.2554L7.51473 8.21143L6.96118 12.0864L7.51473 13.1936Z" fill="#0052B4"/>
<path d="M13.5698 13.1942H13.6053C13.6053 13.1823 13.6053 13.1707 13.6053 13.1587C13.5935 13.1706 13.5817 13.1824 13.5698 13.1942Z" fill="#F0F0F0"/>
<path d="M13.6042 7.10358C13.6042 4.86326 13.6042 3.39532 13.6042 0.460693H13.602C6.57121 0.461887 0.871948 6.16179 0.871948 13.1929H7.51483V9.45228L11.2555 13.1929H13.5702C13.5815 13.1816 13.5929 13.1702 13.6043 13.1588C13.6043 12.3011 13.6043 11.5357 13.6043 10.8443L9.86348 7.10358H13.6042Z" fill="#F0F0F0"/>
<path d="M7.3131 2.12158C5.32175 3.2555 3.66626 4.91098 2.53235 6.90233V13.1931H5.85382V5.44315V5.44305H13.6039C13.6039 4.39548 13.6039 3.39749 13.6039 2.12158H7.3131Z" fill="#D80027"/>
<path d="M13.6041 11.6271L9.08049 7.10352H7.51477V7.10362L13.604 13.1928H13.6041C13.6041 13.1928 13.6041 12.1132 13.6041 11.6271Z" fill="#D80027"/>
<path d="M15.2645 8.76487V13.1934C15.2645 16.1596 19.1395 17.0685 19.1395 17.0685C19.1395 17.0685 23.0146 16.1596 23.0146 13.1934V8.76487L19.1395 7.65771L15.2645 8.76487Z" fill="#F3F3F3"/>
<path d="M23.0146 8.76471V7.104H15.2645V8.76471H18.5859V12.0862H15.2645V13.1933V13.1934L18.5859 13.1934V16.8986C18.92 17.0167 19.1395 17.0684 19.1395 17.0684C19.1395 17.0684 19.359 17.0168 19.6931 16.8986V13.1934H23.0146V13.1933V12.0862H19.6931V8.76466H23.0146V8.76471Z" fill="#D80027"/>
</g>
<defs>
<clipPath id="clip0_548_4833">
<rect width="25.4644" height="25.4644" fill="white" transform="translate(0.871582 0.461426)"/>
</clipPath>
</defs>
</svg>
