<svg width="27" height="26" viewBox="0 0 27 26" fill="none" xmlns="http://www.w3.org/2000/svg">
<g clip-path="url(#clip0_548_4847)">
<path d="M13.476 25.9256C20.5078 25.9256 26.2082 20.2252 26.2082 13.1934C26.2082 6.16159 20.5078 0.461182 13.476 0.461182C6.44418 0.461182 0.743774 6.16159 0.743774 13.1934C0.743774 20.2252 6.44418 25.9256 13.476 25.9256Z" fill="#F0F0F0"/>
<path d="M26.1002 11.5328H10.7079H10.7079V0.763916C9.53125 1.02483 8.41574 1.44773 7.38642 2.00939V11.5327V11.5327H0.851307C0.780434 12.0764 0.74353 12.6306 0.74353 13.1935C0.74353 13.7563 0.780434 14.3106 0.851307 14.8542H7.38637H7.38642V24.3776C8.41574 24.9392 9.53125 25.3622 10.7079 25.623V14.8544V14.8543H26.1002C26.171 14.3106 26.208 13.7563 26.208 13.1935C26.208 12.6306 26.171 12.0764 26.1002 11.5328V11.5328Z" fill="#0052B4"/>
</g>
<defs>
<clipPath id="clip0_548_4847">
<rect width="25.4644" height="25.4644" fill="white" transform="translate(0.743164 0.461426)"/>
</clipPath>
</defs>
</svg>
