<svg width="27" height="26" viewBox="0 0 27 26" fill="none" xmlns="http://www.w3.org/2000/svg">
<g clip-path="url(#clip0_548_4850)">
<path d="M13.3473 25.9256C20.3791 25.9256 26.0795 20.2252 26.0795 13.1934C26.0795 6.16159 20.3791 0.461182 13.3473 0.461182C6.31552 0.461182 0.615112 6.16159 0.615112 13.1934C0.615112 20.2252 6.31552 25.9256 13.3473 25.9256Z" fill="#F0F0F0"/>
<path d="M26.0795 13.1935C26.0795 7.71905 22.6243 3.05215 17.7759 1.25317V25.1338C22.6243 23.3348 26.0795 18.6679 26.0795 13.1935V13.1935Z" fill="#D80027"/>
<path d="M0.615234 13.1935C0.615234 18.6679 4.07049 23.3348 8.91888 25.1337V1.25317C4.07049 3.05215 0.615234 7.71905 0.615234 13.1935Z" fill="#0052B4"/>
</g>
<defs>
<clipPath id="clip0_548_4850">
<rect width="25.4644" height="25.4644" fill="white" transform="translate(0.615234 0.461426)"/>
</clipPath>
</defs>
</svg>
