<svg width="26" height="26" viewBox="0 0 26 26" fill="none" xmlns="http://www.w3.org/2000/svg">
<g clip-path="url(#clip0_548_4854)">
<path d="M13.219 25.9259C20.2508 25.9259 25.9513 20.2255 25.9513 13.1936C25.9513 6.16183 20.2508 0.461426 13.219 0.461426C6.18722 0.461426 0.486816 6.16183 0.486816 13.1936C0.486816 20.2255 6.18722 25.9259 13.219 25.9259Z" fill="#F0F0F0"/>
<path d="M2.03516 7.10358H24.4033C22.2439 3.14585 18.0453 0.460693 13.2193 0.460693C8.39321 0.460693 4.19461 3.14585 2.03516 7.10358V7.10358Z" fill="#D80027"/>
<path d="M13.2193 25.9251C18.0453 25.9251 22.2439 23.24 24.4034 19.2822H2.03516C4.19461 23.24 8.39321 25.9251 13.2193 25.9251Z" fill="#D80027"/>
<path d="M17.6477 13.1932C17.6477 15.6391 15.6649 17.0682 13.2191 17.0682C10.7733 17.0682 8.79053 15.6391 8.79053 13.1932C8.79053 10.7473 10.7733 8.76465 13.2191 8.76465C15.6649 8.76465 17.6477 10.7473 17.6477 13.1932Z" fill="#FFDA44"/>
<path d="M17.6477 13.1934C17.6477 15.6392 15.6649 17.6219 13.2191 17.6219C10.7733 17.6219 8.79053 15.6392 8.79053 13.1934" fill="#0052B4"/>
<path d="M10.4512 12.0859H11.5583V14.3002H10.4512V12.0859Z" fill="#D80027"/>
<path d="M14.8798 12.0859H15.9869V14.3002H14.8798V12.0859Z" fill="#D80027"/>
<path d="M12.6654 10.4253H13.7726V14.3003H12.6654V10.4253Z" fill="#D80027"/>
</g>
<defs>
<clipPath id="clip0_548_4854">
<rect width="25.4644" height="25.4644" fill="white" transform="translate(0.487305 0.461426)"/>
</clipPath>
</defs>
</svg>
