<svg width="26" height="26" viewBox="0 0 26 26" fill="none" xmlns="http://www.w3.org/2000/svg">
<g clip-path="url(#clip0_548_4865)">
<path d="M25.0313 17.622C25.5431 16.2428 25.8232 14.7509 25.8232 13.1934C25.8232 11.636 25.5431 10.1442 25.0313 8.76487L13.091 7.65771L1.1507 8.76487C0.638923 10.1442 0.358765 11.636 0.358765 13.1934C0.358765 14.7509 0.638923 16.2428 1.1507 17.622L13.091 18.7292L25.0313 17.622Z" fill="#FFDA44"/>
<path d="M13.091 25.9257C18.5653 25.9257 23.2323 22.4705 25.0312 17.6221H1.15063C2.94966 22.4705 7.61651 25.9257 13.091 25.9257Z" fill="#0052B4"/>
<path d="M13.091 0.461426C7.61651 0.461426 2.94966 3.91663 1.15063 8.76507H25.0313C23.2323 3.91663 18.5653 0.461426 13.091 0.461426Z" fill="#6DA544"/>
</g>
<defs>
<clipPath id="clip0_548_4865">
<rect width="25.4644" height="25.4644" fill="white" transform="translate(0.358398 0.461426)"/>
</clipPath>
</defs>
</svg>
