<svg width="26" height="26" viewBox="0 0 26 26" fill="none" xmlns="http://www.w3.org/2000/svg">
<g clip-path="url(#clip0_548_4869)">
<path d="M25.6948 13.1936C25.6948 11.6362 25.4147 10.1443 24.9028 8.76503L12.9626 8.21143L1.02228 8.76498C0.510505 10.1443 0.230347 11.6362 0.230347 13.1936C0.230347 14.751 0.510505 16.2429 1.02228 17.6222L12.9626 18.1758L24.9028 17.6222C25.4147 16.2429 25.6948 14.751 25.6948 13.1936Z" fill="#F0F0F0"/>
<path d="M12.9626 25.9257C18.437 25.9257 23.1039 22.4705 24.9029 17.6221H1.02234C2.82131 22.4705 7.48822 25.9257 12.9626 25.9257Z" fill="#0052B4"/>
<path d="M1.02234 8.76507H24.903C23.1039 3.91663 18.437 0.461426 12.9626 0.461426C7.48822 0.461426 2.82131 3.91663 1.02234 8.76507V8.76507Z" fill="#6DA544"/>
</g>
<defs>
<clipPath id="clip0_548_4869">
<rect width="25.4644" height="25.4644" fill="white" transform="translate(0.230469 0.461426)"/>
</clipPath>
</defs>
</svg>
