<svg width="26" height="26" viewBox="0 0 26 26" fill="none" xmlns="http://www.w3.org/2000/svg">
<g clip-path="url(#clip0_548_4873)">
<path d="M12.8345 25.9259C19.8663 25.9259 25.5667 20.2255 25.5667 13.1936C25.5667 6.16183 19.8663 0.461426 12.8345 0.461426C5.8027 0.461426 0.102295 6.16183 0.102295 13.1936C0.102295 20.2255 5.8027 25.9259 12.8345 25.9259Z" fill="#F0F0F0"/>
<path d="M12.8345 0.461426C7.57074 0.461426 3.05338 3.65572 1.11426 8.21147H24.5547C22.6156 3.65572 18.0982 0.461426 12.8345 0.461426Z" fill="#A2001D"/>
<path d="M12.8345 25.9258C18.0982 25.9258 22.6156 22.7315 24.5547 18.1758H1.11426C3.05338 22.7315 7.57074 25.9258 12.8345 25.9258Z" fill="#496E2D"/>
<path d="M25.1281 9.87207H0.54091C0.255479 10.9311 0.102295 12.0443 0.102295 13.1935C0.102295 14.3428 0.255479 15.456 0.54091 16.515H25.1282C25.4135 15.456 25.5667 14.3428 25.5667 13.1935C25.5667 12.0443 25.4135 10.9311 25.1281 9.87207V9.87207Z" fill="#0052B4"/>
</g>
<defs>
<clipPath id="clip0_548_4873">
<rect width="25.4644" height="25.4644" fill="white" transform="translate(0.102539 0.461426)"/>
</clipPath>
</defs>
</svg>
