<svg width="27" height="26" viewBox="0 0 27 26" fill="none" xmlns="http://www.w3.org/2000/svg">
<g clip-path="url(#clip0_548_4878)">
<path d="M13.6038 25.7979C20.6356 25.7979 26.336 20.0975 26.336 13.0657C26.336 6.0339 20.6356 0.333496 13.6038 0.333496C6.57199 0.333496 0.871582 6.0339 0.871582 13.0657C0.871582 20.0975 6.57199 25.7979 13.6038 25.7979Z" fill="#F0F0F0"/>
<path d="M26.2282 11.404H15.2646H15.2646V0.440296C14.7209 0.369523 14.1667 0.33252 13.6038 0.33252C13.0409 0.33252 12.4867 0.369523 11.9431 0.440296V11.4039V11.404H0.979358C0.908585 11.9476 0.871582 12.5019 0.871582 13.0647C0.871582 13.6277 0.908585 14.1818 0.979358 14.7254H11.943H11.943V25.6892C12.4867 25.76 13.0409 25.797 13.6038 25.797C14.1667 25.797 14.7209 25.76 15.2645 25.6892V14.7255V14.7255H26.2282C26.299 14.1818 26.336 13.6277 26.336 13.0647C26.336 12.5019 26.299 11.9476 26.2282 11.404V11.404Z" fill="#D80027"/>
<path d="M8.62164 6.42199V4.76123H6.96093V6.42199H5.30017V8.0827H6.96093V9.74341H8.62164V8.0827H10.2823V6.42199H8.62164Z" fill="#D80027"/>
<path d="M20.247 6.42199V4.76123H18.5862V6.42199H16.9255V8.0827H18.5862V9.74341H20.247V8.0827H21.9077V6.42199H20.247Z" fill="#D80027"/>
<path d="M8.62164 18.0474V16.3867H6.96093V18.0474H5.30017V19.7081H6.96093V21.3689H8.62164V19.7081H10.2823V18.0474H8.62164Z" fill="#D80027"/>
<path d="M20.247 18.0474V16.3867H18.5862V18.0474H16.9255V19.7081H18.5862V21.3689H20.247V19.7081H21.9077V18.0474H20.247Z" fill="#D80027"/>
</g>
<defs>
<clipPath id="clip0_548_4878">
<rect width="25.4644" height="25.4644" fill="white" transform="translate(0.871582 0.333008)"/>
</clipPath>
</defs>
</svg>
