<svg width="27" height="26" viewBox="0 0 27 26" fill="none" xmlns="http://www.w3.org/2000/svg">
<g clip-path="url(#clip0_548_4886)">
<path d="M1.53516 17.4943C3.33413 22.3427 8.00103 25.798 13.4754 25.798C18.9498 25.798 23.6168 22.3427 25.4157 17.4943L13.4754 16.3872L1.53516 17.4943Z" fill="#FFDA44"/>
<path d="M13.4754 0.333496C8.00103 0.333496 3.33413 3.7887 1.53516 8.63714L13.4754 9.74425L25.4157 8.63709C23.6168 3.7887 18.9498 0.333496 13.4754 0.333496Z" fill="black"/>
<path d="M1.53546 8.63672C1.02369 10.016 0.74353 11.5079 0.74353 13.0653C0.74353 14.6227 1.02369 16.1146 1.53546 17.4939H25.4161C25.9279 16.1146 26.208 14.6227 26.208 13.0653C26.208 11.5079 25.9279 10.016 25.416 8.63672H1.53546Z" fill="#D80027"/>
</g>
<defs>
<clipPath id="clip0_548_4886">
<rect width="25.4644" height="25.4644" fill="white" transform="translate(0.743164 0.333008)"/>
</clipPath>
</defs>
</svg>
