<svg width="26" height="26" viewBox="0 0 26 26" fill="none" xmlns="http://www.w3.org/2000/svg">
<g clip-path="url(#clip0_548_4890)">
<path d="M-0.000244141 12.9373C-0.000244141 14.4947 0.279914 15.9865 0.79169 17.3658L12.732 17.9194L24.6723 17.3659C25.1841 15.9865 25.4642 14.4947 25.4642 12.9373C25.4642 11.3798 25.1841 9.88799 24.6723 8.50868L12.732 7.95508L0.79169 8.50863C0.279914 9.88799 -0.000244141 11.3798 -0.000244141 12.9373H-0.000244141Z" fill="#FFDA44"/>
<path d="M12.7322 0.20459C7.25775 0.20459 2.59084 3.6598 0.79187 8.50823H24.6725C22.8735 3.6598 18.2066 0.20459 12.7322 0.20459V0.20459Z" fill="#D80027"/>
<path d="M24.6724 17.3657H0.79187C2.59084 22.2141 7.25775 25.6694 12.7322 25.6694C18.2066 25.6694 22.8735 22.2141 24.6724 17.3657Z" fill="#496E2D"/>
<path d="M12.7319 8.50879L13.831 11.8918H17.3885L14.5106 13.9828L15.6098 17.3659L12.7319 15.2751L9.85392 17.3659L10.9533 13.9828L8.07544 11.8918H11.6327L12.7319 8.50879Z" fill="black"/>
</g>
<defs>
<clipPath id="clip0_548_4890">
<rect width="25.4644" height="25.4644" fill="white" transform="translate(0 0.20459)"/>
</clipPath>
</defs>
</svg>
