<svg width="27" height="26" viewBox="0 0 27 26" fill="none" xmlns="http://www.w3.org/2000/svg">
<g clip-path="url(#clip0_548_4895)">
<path d="M13.604 25.669C20.6359 25.669 26.3363 19.9686 26.3363 12.9368C26.3363 5.905 20.6359 0.20459 13.604 0.20459C6.57223 0.20459 0.871826 5.905 0.871826 12.9368C0.871826 19.9686 6.57223 25.669 13.604 25.669Z" fill="#F9F9F9"/>
<path d="M13.6039 25.6699C19.0783 25.6699 23.7452 22.2146 25.5441 17.3662H1.66357C3.4626 22.2146 8.12945 25.6699 13.6039 25.6699Z" fill="#D80027"/>
<path d="M18.5859 10.7232V9.06253H19.1395V7.95537H18.0323V8.50898H16.9252V7.95537H15.818V9.06253H16.3716V10.7232H15.2644V6.84832H15.818V5.74121H14.7109V6.29466H14.1573V5.74121H13.0502V6.29466H12.4966V5.74121H11.3894V6.84832H11.943V10.7232H10.8359V9.06253H11.3894V7.95537H10.2823V8.50898H9.17516V7.95537H8.06801V9.06253H8.62156V10.7232H7.5144V15.1519H19.6931V10.7232H18.5859Z" fill="#D80027"/>
<path d="M13.6038 14.5977C12.6866 14.5977 11.9431 15.3412 11.9431 16.2584C11.9431 16.9813 12.4053 17.5962 13.0502 17.8242V20.1334H11.3895V22.3477H14.1574V17.8243C14.8023 17.5963 15.2645 16.9814 15.2645 16.2584C15.2645 15.3412 14.521 14.5977 13.6038 14.5977V14.5977ZM13.6038 16.812C13.2981 16.812 13.0502 16.5641 13.0502 16.2584C13.0502 15.9527 13.2981 15.7049 13.6038 15.7049C13.9095 15.7049 14.1573 15.9527 14.1573 16.2584C14.1573 16.5641 13.9095 16.812 13.6038 16.812Z" fill="#FFDA44"/>
</g>
<defs>
<clipPath id="clip0_548_4895">
<rect width="25.4644" height="25.4644" fill="white" transform="translate(0.871582 0.20459)"/>
</clipPath>
</defs>
</svg>
