<svg width="27" height="26" viewBox="0 0 27 26" fill="none" xmlns="http://www.w3.org/2000/svg">
<g clip-path="url(#clip0_548_4901)">
<path d="M13.476 25.669C20.5078 25.669 26.2082 19.9686 26.2082 12.9368C26.2082 5.905 20.5078 0.20459 13.476 0.20459C6.44418 0.20459 0.743774 5.905 0.743774 12.9368C0.743774 19.9686 6.44418 25.669 13.476 25.669Z" fill="#F0F0F0"/>
<path d="M13.4752 9.6159H25.7688C25.4496 8.43151 24.9644 7.3154 24.3387 6.29443H13.4752V9.6159Z" fill="#338AF3"/>
<path d="M5.54963 22.9015H21.4009C22.5629 21.9761 23.5593 20.852 24.3387 19.5801H2.61182C3.39122 20.8519 4.38771 21.9761 5.54963 22.9015V22.9015Z" fill="#338AF3"/>
<path d="M5.17164 3.28516C4.17067 4.14712 3.30532 5.16216 2.61182 6.29394H5.17164V3.28516Z" fill="#338AF3"/>
<path d="M13.4753 12.9377C13.4753 11.6408 13.4753 10.5554 13.4753 9.61621H8.49308V12.9377H5.17162V9.61621H1.18166C0.896227 10.6753 0.743042 11.7884 0.743042 12.9377C0.743042 14.0869 0.896227 15.2001 1.18166 16.2591H25.7689C26.0543 15.2001 26.2075 14.0869 26.2075 12.9377H13.4753Z" fill="#338AF3"/>
<path d="M13.4751 0.205078C11.7071 0.205078 10.0233 0.565808 8.49292 1.21709V6.29441H13.4751C13.4751 5.13498 13.4751 4.14888 13.4751 2.97294H21.4008C19.2258 1.24076 16.4716 0.205078 13.4751 0.205078V0.205078Z" fill="#338AF3"/>
</g>
<defs>
<clipPath id="clip0_548_4901">
<rect width="25.4644" height="25.4644" fill="white" transform="translate(0.743164 0.20459)"/>
</clipPath>
</defs>
</svg>
