<svg width="27" height="26" viewBox="0 0 27 26" fill="none" xmlns="http://www.w3.org/2000/svg">
<g clip-path="url(#clip0_548_4909)">
<path d="M0.615112 12.9368C0.615112 5.90504 6.31557 0.20459 13.3473 0.20459C20.3791 0.20459 26.0795 5.90504 26.0795 12.9368C25.526 12.9368 13.3473 14.5975 13.3473 14.5975L0.615112 12.9368Z" fill="#F0F0F0"/>
<path d="M26.0797 12.937C26.0797 19.9688 20.3792 25.6692 13.3475 25.6692C6.31569 25.6692 0.615234 19.9688 0.615234 12.937" fill="#D80027"/>
<path d="M9.47239 19.0258C12.8354 19.0258 15.5617 16.2995 15.5617 12.9365C15.5617 9.57346 12.8354 6.84717 9.47239 6.84717C6.10934 6.84717 3.38306 9.57346 3.38306 12.9365C3.38306 16.2995 6.10934 19.0258 9.47239 19.0258Z" fill="#F0F0F0"/>
<path d="M3.38306 12.9365C3.38306 9.57355 6.10934 6.84717 9.47239 6.84717C12.8355 6.84717 15.5617 9.5735 15.5617 12.9365" fill="#D80027"/>
</g>
<defs>
<clipPath id="clip0_548_4909">
<rect width="25.4644" height="25.4644" fill="white" transform="translate(0.615234 0.20459)"/>
</clipPath>
</defs>
</svg>
