<svg width="26" height="26" viewBox="0 0 26 26" fill="none" xmlns="http://www.w3.org/2000/svg">
<g clip-path="url(#clip0_548_4914)">
<path d="M13.219 25.669C20.2508 25.669 25.9513 19.9686 25.9513 12.9368C25.9513 5.905 20.2508 0.20459 13.219 0.20459C6.18722 0.20459 0.486816 5.905 0.486816 12.9368C0.486816 19.9686 6.18722 25.669 13.219 25.669Z" fill="#FFDA44"/>
<path d="M6.04321 2.4189C8.08658 1.02204 10.5573 0.20459 13.2194 0.20459C15.8814 0.20459 18.3521 1.02204 20.3955 2.4189L13.2194 2.97245L6.04321 2.4189Z" fill="#A2001D"/>
<path d="M13.219 12.9366L12.4064 12.124L12.1907 12.5105L13.219 12.9366Z" fill="#0052B4"/>
<path d="M4.21599 3.93359C-0.756241 8.90582 -0.756241 16.9675 4.21599 21.9397C6.2707 19.885 8.24683 17.9089 13.2191 12.9367L4.21599 3.93359Z" fill="#496E2D"/>
<path d="M22.2221 3.93359C27.1943 8.90582 27.1943 16.9675 22.2221 21.9397C20.1674 19.885 18.1912 17.9089 13.219 12.9367L22.2221 3.93359Z" fill="#496E2D"/>
<path d="M13.2191 17.3659C15.6649 17.3659 17.6477 15.3832 17.6477 12.9374C17.6477 10.4915 15.6649 8.50879 13.2191 8.50879C10.7733 8.50879 8.79053 10.4915 8.79053 12.9374C8.79053 15.3832 10.7733 17.3659 13.2191 17.3659Z" fill="#A2001D"/>
<path d="M13.2188 8.50879L14.2115 11.564H17.4243L14.8252 13.4526L15.8179 16.5079L13.2188 14.6197L10.6196 16.5079L11.6125 13.4526L9.01343 11.564H12.226L13.2188 8.50879Z" fill="#FFDA44"/>
<path d="M13.2234 0.205078H13.2149C9.701 0.206222 6.51989 1.63079 4.2168 3.93363H22.2216C19.9185 1.63079 16.7373 0.206222 13.2234 0.205078Z" fill="#A2001D"/>
<path d="M4.2168 21.9409C6.52083 24.2446 9.70359 25.6694 13.2191 25.6694C16.7347 25.6694 19.9174 24.2446 22.2214 21.9409H4.2168Z" fill="#A2001D"/>
<path d="M13.2193 1.58887L13.4254 2.22319H14.0924L13.5528 2.61525L13.759 3.24958L13.2193 2.85756L12.6797 3.24958L12.8859 2.61525L12.3462 2.22319H13.0131L13.2193 1.58887Z" fill="#FFDA44"/>
<path d="M10.1316 1.58887L10.3378 2.22319H11.0047L10.4652 2.61525L10.6713 3.24958L10.1316 2.85756L9.59212 3.24958L9.79822 2.61525L9.25854 2.22319H9.92549L10.1316 1.58887Z" fill="#FFDA44"/>
<path d="M16.3066 1.58887L16.5127 2.22319H17.1797L16.6401 2.61525L16.8463 3.24958L16.3066 2.85756L15.767 3.24958L15.9731 2.61525L15.4335 2.22319H16.1004L16.3066 1.58887Z" fill="#FFDA44"/>
<path d="M13.2193 22.6245L13.4254 23.2588H14.0924L13.5528 23.6509L13.759 24.2852L13.2193 23.8932L12.6797 24.2852L12.8859 23.6509L12.3462 23.2588H13.0131L13.2193 22.6245Z" fill="#FFDA44"/>
<path d="M10.1316 22.6245L10.3378 23.2588H11.0047L10.4652 23.6509L10.6713 24.2852L10.1316 23.8932L9.59212 24.2852L9.79822 23.6509L9.25854 23.2588H9.92549L10.1316 22.6245Z" fill="#FFDA44"/>
<path d="M16.3066 22.6245L16.5127 23.2588H17.1797L16.6401 23.6509L16.8463 24.2852L16.3066 23.8932L15.767 24.2852L15.9731 23.6509L15.4335 23.2588H16.1004L16.3066 22.6245Z" fill="#FFDA44"/>
<path d="M4.36651 12.7265C4.69352 13.2432 4.53984 13.9272 4.02314 14.2542C3.50649 14.5813 2.82253 14.4276 2.49547 13.9109C1.90337 12.9755 2.2467 11.4478 2.2467 11.4478C2.2467 11.4478 3.77436 11.7911 4.36651 12.7265V12.7265Z" fill="#FFDA44"/>
<path d="M3.72702 14.34C4.03273 14.34 4.28057 14.0922 4.28057 13.7865C4.28057 13.4807 4.03273 13.2329 3.72702 13.2329C3.4213 13.2329 3.17346 13.4807 3.17346 13.7865C3.17346 14.0922 3.4213 14.34 3.72702 14.34Z" fill="#A2001D"/>
</g>
<defs>
<clipPath id="clip0_548_4914">
<rect width="25.4644" height="25.4644" fill="white" transform="translate(0.487305 0.20459)"/>
</clipPath>
</defs>
</svg>
