<svg width="26" height="26" viewBox="0 0 26 26" fill="none" xmlns="http://www.w3.org/2000/svg">
<g clip-path="url(#clip0_548_4937)">
<path d="M5.91455 23.4553C7.95787 24.8521 10.4287 25.6696 13.0907 25.6696C15.7527 25.6696 18.2235 24.8521 20.2668 23.4553L13.0907 22.3481L5.91455 23.4553Z" fill="#D80027"/>
<path d="M20.2671 2.41939C18.2237 1.02258 15.7529 0.205078 13.0909 0.205078C10.429 0.205078 7.95812 1.02258 5.91479 2.41939L13.0909 3.52655L20.2671 2.41939Z" fill="#D80027"/>
<path d="M25.8232 12.9369C25.8232 8.72378 23.3008 4.4928 20.2671 2.41895H5.91484C2.56054 4.71194 0.358765 8.56711 0.358765 12.9369C0.358765 17.3067 2.56054 21.1618 5.91484 23.4548H20.2671C23.6215 21.1618 25.8232 17.3067 25.8232 12.9369Z" fill="#0052B4"/>
<path d="M12.3705 20.974C12.1966 20.8248 8.10889 17.2713 8.10889 12.9369C8.10889 8.60253 12.1965 5.04899 12.3705 4.89984L13.0911 4.28223L13.8116 4.89979C13.9856 5.04899 18.0732 8.60248 18.0732 12.9369C18.0732 17.2713 13.9856 20.8249 13.8116 20.974L13.0911 21.5916L12.3705 20.974Z" fill="#D80027"/>
<path d="M16.9661 12.9372C16.9661 9.06219 13.0911 5.74072 13.0911 5.74072C13.0911 5.74072 9.21606 9.06229 9.21606 12.9372C9.21606 14.1226 9.57898 15.2561 10.0824 16.2587H16.0998C16.6032 15.2561 16.9661 14.1226 16.9661 12.9372Z" fill="#338AF3"/>
<path d="M16.9661 12.937C16.9661 14.1225 16.6032 15.2559 16.0998 16.2585L13.0911 16.812L10.0824 16.2585C9.57898 15.2559 9.21606 14.1225 9.21606 12.937H16.9661Z" fill="#0052B4"/>
<path d="M13.0911 20.1333C13.0911 20.1333 14.9575 18.533 16.0998 16.2583H10.0824C11.2246 18.533 13.0911 20.1333 13.0911 20.1333Z" fill="#FFDA44"/>
<path d="M10.6 10.7227H15.5822L13.0911 13.2137L10.6 10.7227Z" fill="#6DA544"/>
<path d="M12.2603 12.3833H13.921V17.3655H12.2603V12.3833Z" fill="#A2001D"/>
</g>
<defs>
<clipPath id="clip0_548_4937">
<rect width="25.4644" height="25.4644" fill="white" transform="translate(0.358398 0.20459)"/>
</clipPath>
</defs>
</svg>
