<svg width="26" height="26" viewBox="0 0 26 26" fill="none" xmlns="http://www.w3.org/2000/svg">
<g clip-path="url(#clip0_548_4948)">
<path d="M12.9626 25.669C19.9944 25.669 25.6948 19.9686 25.6948 12.9368C25.6948 5.905 19.9944 0.20459 12.9626 0.20459C5.93075 0.20459 0.230347 5.905 0.230347 12.9368C0.230347 19.9686 5.93075 25.669 12.9626 25.669Z" fill="#F0F0F0"/>
<path d="M25.6945 12.9366C25.6945 7.88879 22.7569 3.52721 18.498 1.46777V24.4054C22.7569 22.346 25.6945 17.9844 25.6945 12.9366V12.9366Z" fill="#338AF3"/>
<path d="M0.230347 12.9366C0.230347 17.9844 3.16796 22.346 7.42683 24.4055V1.46777C3.16796 3.52721 0.230347 7.88879 0.230347 12.9366Z" fill="#338AF3"/>
<path d="M16.2898 15.0896L14.137 12.9367L16.1862 10.8874L16.0933 9.80504L15.5067 9.21826L12.9626 11.7623L10.4186 9.21826L9.83188 9.80504L9.73902 10.8874L11.7883 12.9367L9.63538 15.0896L10.8097 16.2638L12.9626 14.111L15.1155 16.2638L16.2898 15.0896Z" fill="#ACABB1"/>
<path d="M16.0941 9.80566L14.9198 10.98C15.4207 11.4808 15.7305 12.1728 15.7305 12.9371C15.7305 14.4658 14.4913 15.705 12.9627 15.705C11.4341 15.705 10.1948 14.4658 10.1948 12.9371C10.1948 12.1728 10.5046 11.4808 11.0055 10.98L9.8312 9.80566C9.02972 10.607 8.53406 11.7142 8.53406 12.9371C8.53406 15.383 10.5168 17.3657 12.9626 17.3657C15.4085 17.3657 17.3912 15.383 17.3912 12.9371C17.3912 11.7142 16.8955 10.607 16.0941 9.80566V9.80566Z" fill="#6DA544"/>
</g>
<defs>
<clipPath id="clip0_548_4948">
<rect width="25.4644" height="25.4644" fill="white" transform="translate(0.230469 0.20459)"/>
</clipPath>
</defs>
</svg>
