<svg width="26" height="26" viewBox="0 0 26 26" fill="none" xmlns="http://www.w3.org/2000/svg">
<g clip-path="url(#clip0_548_4955)">
<path d="M12.7322 25.7979C19.764 25.7979 25.4644 20.0975 25.4644 13.0657C25.4644 6.0339 19.764 0.333496 12.7322 0.333496C5.70041 0.333496 0 6.0339 0 13.0657C0 20.0975 5.70041 25.7979 12.7322 25.7979Z" fill="#F0F0F0"/>
<path d="M25.3567 11.405H14.393H14.393V0.441272C13.8493 0.370499 13.2951 0.333496 12.7322 0.333496C12.1694 0.333496 11.6151 0.370499 11.0715 0.441272V11.405H0.107776C0.037003 11.9486 0 12.5029 0 13.0657C0 13.6286 0.037003 14.1828 0.107776 14.7264H11.0714H11.0715V25.6902C11.6151 25.7609 12.1694 25.7979 12.7322 25.7979C13.2951 25.7979 13.8493 25.761 14.3929 25.6902V14.7266V14.7265H25.3567C25.4274 14.1828 25.4644 13.6286 25.4644 13.0657C25.4644 12.5029 25.4274 11.9486 25.3567 11.405V11.405Z" fill="#D80027"/>
<path d="M16.3302 13.6188L17.1605 14.1724V11.9581L16.3302 12.5117H13.2855V9.46705L13.8391 8.63672H11.6248L12.1784 9.46705V12.5117H9.13367L8.30334 11.9581V14.1724L9.13367 13.6188H12.1784V16.6635L11.6248 17.4939H13.8391L13.2855 16.6635V13.6188H16.3302Z" fill="#FFDA44"/>
</g>
<defs>
<clipPath id="clip0_548_4955">
<rect width="25.4644" height="25.4644" fill="white" transform="translate(0 0.333008)"/>
</clipPath>
</defs>
</svg>
