<svg width="26" height="26" viewBox="0 0 26 26" fill="none" xmlns="http://www.w3.org/2000/svg">
<g clip-path="url(#clip0_548_4966)">
<path d="M17.5197 0.868644C16.1403 0.356819 14.6484 0.0766602 13.091 0.0766602C11.5336 0.0766602 10.0417 0.356819 8.66249 0.868544L8.10889 12.8089L8.66244 24.7492C10.0417 25.261 11.5336 25.5411 13.091 25.5411C14.6485 25.5411 16.1403 25.261 17.5197 24.7491L18.0732 12.8089L17.5197 0.868644Z" fill="#FFDA44"/>
<path d="M0.358765 12.8085C0.358765 18.2829 3.81397 22.9498 8.66241 24.7487V0.868164C3.81397 2.66719 0.358765 7.33404 0.358765 12.8085Z" fill="#D80027"/>
<path d="M25.8231 12.8085C25.8231 7.33404 22.3678 2.66719 17.5194 0.868164V24.7488C22.3678 22.9498 25.8231 18.2829 25.8231 12.8085Z" fill="#6DA544"/>
</g>
<defs>
<clipPath id="clip0_548_4966">
<rect width="25.4644" height="25.4644" fill="white" transform="translate(0.358398 0.0761719)"/>
</clipPath>
</defs>
</svg>
