<svg width="26" height="26" viewBox="0 0 26 26" fill="none" xmlns="http://www.w3.org/2000/svg">
<g clip-path="url(#clip0_548_4959)">
<path d="M12.8346 0.20459C11.6854 0.20459 10.5721 0.357774 9.51311 0.643205L8.40601 12.9368L9.51316 25.2304C10.5721 25.5158 11.6854 25.669 12.8346 25.669C19.8663 25.669 25.5668 19.9686 25.5668 12.9368C25.5668 5.90504 19.8663 0.20459 12.8346 0.20459Z" fill="#FFDA44"/>
<path d="M8.40601 12.937L9.51316 25.2306C10.5721 25.516 11.6854 25.6692 12.8346 25.6692C19.8663 25.6692 25.5668 19.9688 25.5668 12.937H8.40601Z" fill="#6DA544"/>
<path d="M0.102051 12.9375C0.102051 17.7636 2.78726 21.9622 6.74494 24.1216V1.75342C2.78726 3.91282 0.102051 8.11147 0.102051 12.9375Z" fill="#D80027"/>
<path d="M0.102295 12.9376C0.102295 18.8203 4.0921 23.7702 9.51304 25.2312V0.644043C4.0921 2.10506 0.102295 7.05501 0.102295 12.9376Z" fill="#D80027"/>
<path d="M4.91326 9.61572L5.73762 12.153H8.40571L6.2473 13.7213L7.07162 16.2587L4.91326 14.6905L2.7548 16.2587L3.57931 13.7213L1.4209 12.153H4.08885L4.91326 9.61572Z" fill="black"/>
</g>
<defs>
<clipPath id="clip0_548_4959">
<rect width="25.4644" height="25.4644" fill="white" transform="translate(0.102539 0.20459)"/>
</clipPath>
</defs>
</svg>
