<svg width="26" height="26" viewBox="0 0 26 26" fill="none" xmlns="http://www.w3.org/2000/svg">
<g clip-path="url(#clip0_548_4970)">
<path d="M12.732 25.5411C19.7638 25.5411 25.4642 19.8407 25.4642 12.8089C25.4642 5.77707 19.7638 0.0766602 12.732 0.0766602C5.70016 0.0766602 -0.000244141 5.77707 -0.000244141 12.8089C-0.000244141 19.8407 5.70016 25.5411 12.732 25.5411Z" fill="#F0F0F0"/>
<path d="M12.732 0.0766602C10.481 0.0766602 8.36681 0.661646 6.53198 1.68669V23.9311C8.36686 24.9561 10.481 25.5411 12.732 25.5411C19.7638 25.5411 25.4642 19.8406 25.4642 12.8089C25.4642 5.77711 19.7638 0.0766602 12.732 0.0766602Z" fill="#6DA544"/>
<path d="M6.56955 1.66602C5.76856 2.1099 5.02064 2.63749 4.33733 3.2373C4.40641 3.17672 4.47619 3.11684 4.54652 3.05776L14.2979 12.8091L4.54647 22.5605C4.47609 22.5014 4.40636 22.4416 4.33728 22.381C5.02059 22.9808 5.76856 23.5083 6.5695 23.9523L25.4644 12.8091L6.56955 1.66602Z" fill="#F0F0F0"/>
<path d="M5.49417 2.3335C5.10589 2.60236 4.73297 2.89167 4.37761 3.20088L12.7321 12.8086L4.37756 22.4164C4.73292 22.7256 5.10584 23.0149 5.49412 23.2838L23.2849 12.8086L5.49417 2.3335Z" fill="#FFDA44"/>
<path d="M4.5464 3.05713C4.26336 3.29496 3.99021 3.54429 3.729 3.80545L11.6249 12.8085L3.729 21.8116C3.99021 22.0728 4.26331 22.3222 4.5464 22.5599L14.2978 12.8085L4.5464 3.05713Z" fill="black"/>
<path d="M3.72893 3.80566C-1.2433 8.77789 -1.2433 16.8395 3.72893 21.8118C5.78364 19.7571 7.75977 17.781 12.732 12.8087L3.72893 3.80566Z" fill="#D80027"/>
</g>
<defs>
<clipPath id="clip0_548_4970">
<rect width="25.4644" height="25.4644" fill="white" transform="translate(0 0.0761719)"/>
</clipPath>
</defs>
</svg>
