<svg width="27" height="26" viewBox="0 0 27 26" fill="none" xmlns="http://www.w3.org/2000/svg">
<g clip-path="url(#clip0_548_4977)">
<path d="M26.3364 12.8089C26.3364 19.8406 20.6359 25.5411 13.6042 25.5411C6.5724 25.5411 0.871948 19.8406 0.871948 12.8089C0.871948 5.77711 13.6042 0.0766602 13.6042 0.0766602C13.6042 0.0766602 26.3364 5.77711 26.3364 12.8089Z" fill="#A2001D"/>
<path d="M0.871948 12.8089C0.871948 5.77711 6.5724 0.0766602 13.6042 0.0766602C20.6359 0.0766602 26.3364 5.77711 26.3364 12.8089" fill="#0052B4"/>
<path d="M18.0324 16.1307L13.6039 15.5771L9.17529 16.1307V9.48779H18.0324V16.1307Z" fill="#F0F0F0"/>
<path d="M13.6038 15.5766C14.8268 15.5766 15.8182 14.5852 15.8182 13.3623C15.8182 12.1393 14.8268 11.1479 13.6038 11.1479C12.3809 11.1479 11.3895 12.1393 11.3895 13.3623C11.3895 14.5852 12.3809 15.5766 13.6038 15.5766Z" fill="#0052B4"/>
<path d="M13.6039 14.4697C14.2153 14.4697 14.711 13.974 14.711 13.3625C14.711 12.7511 14.2153 12.2554 13.6039 12.2554C12.9924 12.2554 12.4967 12.7511 12.4967 13.3625C12.4967 13.974 12.9924 14.4697 13.6039 14.4697Z" fill="#A2001D"/>
<path d="M11.9431 10.5942H15.2645L13.6038 12.255L11.9431 10.5942Z" fill="#6DA544"/>
<path d="M13.0503 11.7017H14.1574V15.0231H13.0503V11.7017Z" fill="#FFDA44"/>
<path d="M15.3753 14.6914H11.8323L9.17529 16.1307H18.0324L15.3753 14.6914Z" fill="#6DA544"/>
</g>
<defs>
<clipPath id="clip0_548_4977">
<rect width="25.4644" height="25.4644" fill="white" transform="translate(0.871582 0.0761719)"/>
</clipPath>
</defs>
</svg>
