<svg width="27" height="26" viewBox="0 0 27 26" fill="none" xmlns="http://www.w3.org/2000/svg">
<g clip-path="url(#clip0_548_4986)">
<path d="M13.4757 25.5411C20.5076 25.5411 26.208 19.8407 26.208 12.8089C26.208 5.77707 20.5076 0.0766602 13.4757 0.0766602C6.44394 0.0766602 0.74353 5.77707 0.74353 12.8089C0.74353 19.8407 6.44394 25.5411 13.4757 25.5411Z" fill="#F0F0F0"/>
<path d="M13.4756 25.541C16.7043 25.541 19.6517 24.3386 21.8961 22.3579H5.05518C7.29958 24.3386 10.247 25.541 13.4756 25.541Z" fill="#D80027"/>
<path d="M1.14453 15.9907C1.43523 17.12 1.87718 18.1885 2.44715 19.1738H24.5041C25.074 18.1885 25.516 17.12 25.8067 15.9907L13.4756 15.022L1.14453 15.9907Z" fill="#0052B4"/>
<path d="M25.8068 9.62485C25.5161 8.49556 25.0741 7.42705 24.5042 6.44179L13.4757 6.16502C13.4757 3.9412 13.4757 1.83954 13.4757 0.0756836C12.5299 0.0756836 11.6081 0.178884 10.721 0.374493C10.704 0.378273 2.40417 6.92512 2.40417 12.8079C2.6164 12.8448 13.4757 13.9151 13.4757 13.9151C13.4757 13.9151 13.4757 11.4899 13.4757 9.62485H25.8068Z" fill="#0052B4"/>
<path d="M13.476 8.02062V1.65451H9.44371L10.7218 0.376465C5.47514 1.5336 1.44385 5.92642 0.826832 11.3559C0.772621 11.8329 0.743774 12.3175 0.743774 12.809H7.19294V10.2714L9.7557 12.809H14.3107L9.44366 8.02062H13.476Z" fill="#F0F0F0"/>
<path d="M13.4816 12.8085L8.69316 8.02007H7.1927V8.02012L11.9811 12.8085H5.58729V6.44237H24.5042C23.811 5.2441 22.9278 4.16962 21.8963 3.25932H5.58729V2.81543C4.30273 3.83087 3.2189 5.08858 2.40424 6.51966V12.8085H0.74353C0.74353 13.9076 0.882789 14.9742 1.14464 15.9915H25.8069C26.0687 14.9742 26.208 13.9076 26.208 12.8085H13.4816Z" fill="#D80027"/>
</g>
<defs>
<clipPath id="clip0_548_4986">
<rect width="25.4644" height="25.4644" fill="white" transform="translate(0.743164 0.0761719)"/>
</clipPath>
</defs>
</svg>
