<svg width="27" height="26" viewBox="0 0 27 26" fill="none" xmlns="http://www.w3.org/2000/svg">
<g clip-path="url(#clip0_548_4994)">
<path d="M13.3475 25.5411C20.3793 25.5411 26.0797 19.8407 26.0797 12.8089C26.0797 5.77707 20.3793 0.0766602 13.3475 0.0766602C6.31564 0.0766602 0.615234 5.77707 0.615234 12.8089C0.615234 19.8407 6.31564 25.5411 13.3475 25.5411Z" fill="#F0F0F0"/>
<path d="M13.3476 25.5402C18.3954 25.5402 22.757 22.6026 24.8165 18.3438H1.87878C3.93822 22.6026 8.2998 25.5402 13.3476 25.5402Z" fill="#338AF3"/>
<path d="M13.3476 0.0756836C8.2998 0.0756836 3.93822 3.01329 1.87878 7.27217H24.8164C22.757 3.01329 18.3954 0.0756836 13.3476 0.0756836V0.0756836Z" fill="#338AF3"/>
<path d="M8.45104 8.37891L8.86324 9.6476H10.1972L9.11804 10.4316L9.53029 11.7003L8.45104 10.9162L7.37178 11.7003L7.78404 10.4316L6.70483 9.6476H8.03878L8.45104 8.37891Z" fill="#338AF3"/>
<path d="M8.45104 13.9155L8.86324 15.1843H10.1972L9.11804 15.9683L9.53029 17.2369L8.45104 16.4529L7.37178 17.2369L7.78404 15.9683L6.70483 15.1843H8.03878L8.45104 13.9155Z" fill="#338AF3"/>
<path d="M18.2443 8.37891L18.6565 9.6476H19.9905L18.9112 10.4316L19.3235 11.7003L18.2443 10.9162L17.165 11.7003L17.5773 10.4316L16.498 9.6476H17.832L18.2443 8.37891Z" fill="#338AF3"/>
<path d="M18.2443 13.9155L18.6565 15.1843H19.9905L18.9112 15.9683L19.3235 17.2369L18.2443 16.4529L17.165 17.2369L17.5773 15.9683L16.498 15.1843H17.832L18.2443 13.9155Z" fill="#338AF3"/>
<path d="M13.3476 11.147L13.7599 12.4157H15.0938L14.0146 13.1997L14.4269 14.4684L13.3476 13.6843L12.2684 14.4684L12.6806 13.1997L11.6014 12.4157H12.9354L13.3476 11.147Z" fill="#338AF3"/>
</g>
<defs>
<clipPath id="clip0_548_4994">
<rect width="25.4644" height="25.4644" fill="white" transform="translate(0.615234 0.0761719)"/>
</clipPath>
</defs>
</svg>
