<svg width="26" height="27" viewBox="0 0 26 27" fill="none" xmlns="http://www.w3.org/2000/svg">
<g clip-path="url(#clip0_548_5004)">
<path d="M12.7322 26.4127C19.764 26.4127 25.4644 20.7123 25.4644 13.6805C25.4644 6.64865 19.764 0.948242 12.7322 0.948242C5.70041 0.948242 0 6.64865 0 13.6805C0 20.7123 5.70041 26.4127 12.7322 26.4127Z" fill="#D80027"/>
<path d="M14.0465 10.5807C13.7571 11.7842 13.243 11.5547 12.9907 12.6043C11.5044 12.2469 10.5891 10.7524 10.9465 9.26607C11.3037 7.77983 12.7983 6.8645 14.2846 7.22185C13.78 9.32102 14.3053 9.50425 14.0465 10.5807Z" fill="#F0F0F0"/>
<path d="M10.1896 11.4729C11.2449 12.1199 10.8677 12.538 11.7879 13.1024C10.9887 14.4055 9.28455 14.8141 7.98138 14.015C6.67827 13.2159 6.2696 11.5116 7.06874 10.2085C8.90924 11.3371 9.2457 10.8941 10.1896 11.4729V11.4729Z" fill="#F0F0F0"/>
<path d="M9.84609 15.4164C10.7876 14.6128 11.0686 15.1007 11.8897 14.3999C12.8821 15.5626 12.7441 17.3097 11.5814 18.3021C10.4187 19.2946 8.67164 19.1564 7.67932 17.9938C9.32128 16.5921 9.00392 16.1351 9.84609 15.4164Z" fill="#F0F0F0"/>
<path d="M13.4904 16.9614C13.0169 15.8177 13.5678 15.7011 13.155 14.7038C14.5675 14.1192 16.1864 14.7903 16.771 16.2028C17.3556 17.6152 16.6843 19.2341 15.2719 19.8187C14.4465 17.8239 13.9138 17.9845 13.4904 16.9614Z" fill="#F0F0F0"/>
<path d="M16.0861 13.9731C14.8521 14.0699 14.9113 13.5099 13.8353 13.5944C13.7158 12.0705 14.8544 10.7381 16.3783 10.6184C17.9022 10.4991 19.2346 11.6377 19.3541 13.1617C17.2017 13.3304 17.1898 13.8866 16.0861 13.9731Z" fill="#F0F0F0"/>
</g>
<defs>
<clipPath id="clip0_548_5004">
<rect width="25.4644" height="25.4644" fill="white" transform="translate(0 0.948242)"/>
</clipPath>
</defs>
</svg>
