<svg width="27" height="27" viewBox="0 0 27 27" fill="none" xmlns="http://www.w3.org/2000/svg">
<g clip-path="url(#clip0_548_5012)">
<path d="M1.66352 9.25169C1.15174 10.631 0.871582 12.1229 0.871582 13.6803C0.871582 15.2377 1.15174 16.7296 1.66352 18.1088L13.6038 19.216L25.5441 18.1088C26.0559 16.7296 26.336 15.2377 26.336 13.6803C26.336 12.1229 26.0559 10.631 25.5441 9.25169L13.6038 8.14453L1.66352 9.25169Z" fill="#F0F0F0"/>
<path d="M13.6038 0.948242C8.12945 0.948242 3.4625 4.40345 1.66357 9.25189H25.5442C23.7451 4.40345 19.0783 0.948242 13.6038 0.948242V0.948242Z" fill="#D80027"/>
<path d="M13.6038 26.4125C19.0783 26.4125 23.7451 22.9573 25.5441 18.1089H1.66357C3.4625 22.9573 8.12945 26.4125 13.6038 26.4125V26.4125Z" fill="#6DA544"/>
</g>
<defs>
<clipPath id="clip0_548_5012">
<rect width="25.4644" height="25.4644" fill="white" transform="translate(0.871582 0.948242)"/>
</clipPath>
</defs>
</svg>
