<svg width="27" height="27" viewBox="0 0 27 27" fill="none" xmlns="http://www.w3.org/2000/svg">
<g clip-path="url(#clip0_548_5016)">
<path d="M13.4755 26.4127C20.5073 26.4127 26.2077 20.7123 26.2077 13.6805C26.2077 6.64865 20.5073 0.948242 13.4755 0.948242C6.44369 0.948242 0.743286 6.64865 0.743286 13.6805C0.743286 20.7123 6.44369 26.4127 13.4755 26.4127Z" fill="#F0F0F0"/>
<path d="M1.18213 17.0024C1.91881 19.7358 3.54241 22.1049 5.72569 23.7824V17.0024H1.18213Z" fill="#0052B4"/>
<path d="M12.3687 26.3648C12.7336 26.3962 13.1027 26.4132 13.4758 26.4132C19.3584 26.4132 24.3084 22.4234 25.7694 17.0024H12.3687V26.3648Z" fill="#0052B4"/>
<path d="M25.7694 10.359C24.3084 4.93805 19.3584 0.948242 13.4758 0.948242C13.1027 0.948242 12.7336 0.965252 12.3687 0.996684V10.359H25.7694Z" fill="#0052B4"/>
<path d="M5.72569 3.5791C3.54241 5.25667 1.91881 7.62571 1.18213 10.3591H5.72569V3.5791Z" fill="#0052B4"/>
<path d="M26.1002 12.0198H10.7079H10.7079V1.25098C9.53125 1.51189 8.41574 1.93479 7.38642 2.49645V12.0198H0.851307C0.780434 12.5635 0.74353 13.1177 0.74353 13.6806C0.74353 14.2434 0.780434 14.7977 0.851307 15.3413H7.38637H7.38642V24.8646C8.41574 25.4262 9.53125 25.8492 10.7079 26.1101V15.3414V15.3413H26.1002C26.171 14.7977 26.208 14.2434 26.208 13.6806C26.208 13.1177 26.171 12.5635 26.1002 12.0198V12.0198Z" fill="#D80027"/>
</g>
<defs>
<clipPath id="clip0_548_5016">
<rect width="25.4644" height="25.4644" fill="white" transform="translate(0.743164 0.948242)"/>
</clipPath>
</defs>
</svg>
