<svg width="26" height="26" viewBox="0 0 26 26" fill="none" xmlns="http://www.w3.org/2000/svg">
<g clip-path="url(#clip0_548_5024)">
<path d="M13.219 25.5411C20.2508 25.5411 25.9513 19.8407 25.9513 12.8089C25.9513 5.77707 20.2508 0.0766602 13.219 0.0766602C6.18722 0.0766602 0.486816 5.77707 0.486816 12.8089C0.486816 19.8407 6.18722 25.5411 13.219 25.5411Z" fill="#F0F0F0"/>
<path d="M13.2191 0.0766602C8.17126 0.0766602 3.80968 3.01427 1.75024 7.27315H24.6879C22.6285 3.01427 18.2669 0.0766602 13.2191 0.0766602V0.0766602Z" fill="#F24C00"/>
<path d="M13.2191 25.5412C18.2669 25.5412 22.6285 22.6036 24.6879 18.3447H1.75024C3.80968 22.6036 8.17126 25.5412 13.2191 25.5412Z" fill="#17B369"/>
<path d="M13.5 16C15.433 16 17 14.433 17 12.5C17 10.567 15.433 9 13.5 9C11.567 9 10 10.567 10 12.5C10 14.433 11.567 16 13.5 16Z" fill="#0052B4"/>
<path d="M13.5 15C14.8807 15 16 13.8807 16 12.5C16 11.1193 14.8807 10 13.5 10C12.1193 10 11 11.1193 11 12.5C11 13.8807 12.1193 15 13.5 15Z" fill="#F0F0F0"/>
<path d="M13.5 11C14.3284 11 15 11.6716 15 12.5C15 13.3284 14.3284 14 13.5 14C12.6716 14 12 13.3284 12 12.5C12 11.6716 12.6716 11 13.5 11Z" fill="#0052B4"/>
</g>
<defs>
<clipPath id="clip0_548_5024">
<rect width="25.4644" height="25.4644" fill="white" transform="translate(0.487305 0.0761719)"/>
</clipPath>
</defs>
</svg>
