<svg width="26" height="27" viewBox="0 0 26 27" fill="none" xmlns="http://www.w3.org/2000/svg">
<g clip-path="url(#clip0_548_5034)">
<path d="M13.2194 26.4127C20.2512 26.4127 25.9516 20.7123 25.9516 13.6805C25.9516 6.64865 20.2512 0.948242 13.2194 0.948242C6.18759 0.948242 0.487183 6.64865 0.487183 13.6805C0.487183 20.7123 6.18759 26.4127 13.2194 26.4127Z" fill="#F0F0F0"/>
<path d="M17.3545 10.3589H15.6887C15.7024 10.542 15.7102 10.7267 15.7102 10.9125C15.7102 12.1441 15.4024 13.3379 14.8657 14.1877C14.7001 14.4498 14.4219 14.8199 14.0495 15.0696V10.3589H12.3888V15.0696C12.0164 14.8199 11.7381 14.4499 11.5726 14.1877C11.0358 13.3379 10.728 12.1441 10.728 10.9125C10.728 10.7267 10.7359 10.542 10.7496 10.3589H9.08377C9.07308 10.5411 9.06726 10.7256 9.06726 10.9125C9.06726 14.3271 10.891 17.0018 13.2191 17.0018C15.5472 17.0018 17.3709 14.3271 17.3709 10.9125C17.371 10.7256 17.3651 10.5411 17.3545 10.3589V10.3589Z" fill="#D80027"/>
<path d="M5.74582 7.03757H7.40653V8.14473H9.06724V7.03757H10.7279V8.14473H12.3887V7.03757H14.0494V8.14473H15.7101V7.03757H17.3708V8.14473H19.0315V7.03757H20.6922V8.14473H24.6878C22.6285 3.88585 18.2669 0.948242 13.2191 0.948242C8.17131 0.948242 3.80968 3.88585 1.75024 8.14473H5.74582V7.03757Z" fill="#6DA544"/>
<path d="M20.6924 19.2163V20.3235H19.0316V19.2163H17.3709V20.3235H15.7102V19.2163H14.0495V20.3235H12.3888V19.2163H10.7281V20.3235H9.06739V19.2163H7.40653V20.3235H5.74582V19.2163H1.75024C3.80968 23.4752 8.17126 26.4128 13.2191 26.4128C18.2669 26.4128 22.6285 23.4752 24.6879 19.2163H20.6924Z" fill="#D80027"/>
</g>
<defs>
<clipPath id="clip0_548_5034">
<rect width="25.4644" height="25.4644" fill="white" transform="translate(0.487305 0.948242)"/>
</clipPath>
</defs>
</svg>
