<svg width="26" height="27" viewBox="0 0 26 27" fill="none" xmlns="http://www.w3.org/2000/svg">
<g clip-path="url(#clip0_548_5039)">
<path d="M12.732 26.2847C19.7638 26.2847 25.4642 20.5843 25.4642 13.5525C25.4642 6.52072 19.7638 0.820312 12.732 0.820312C5.70016 0.820312 -0.000244141 6.52072 -0.000244141 13.5525C-0.000244141 20.5843 5.70016 26.2847 12.732 26.2847Z" fill="#F0F0F0"/>
<path d="M12.7322 0.820312C7.25775 0.820312 2.59084 4.27552 0.79187 9.12396H24.6725C22.8735 4.27552 18.2066 0.820312 12.7322 0.820312V0.820312Z" fill="#A2001D"/>
<path d="M12.7322 26.2846C18.2066 26.2846 22.8735 22.8294 24.6724 17.981H0.79187C2.59084 22.8294 7.25775 26.2846 12.7322 26.2846Z" fill="black"/>
<path d="M9.68723 12.7225C9.68026 12.7225 9.67345 12.723 9.66649 12.7231V12.7225H7.23259C7.35599 12.2458 7.78858 11.8922 8.30329 11.8922V10.2314C6.77707 10.2314 5.53543 11.4731 5.53543 12.9993V14.3556V14.3833H9.66649H9.68723C9.83986 14.3833 9.964 14.5075 9.964 14.6601V15.2136H4.42822V16.8743H11.6247V14.66C11.6247 13.5917 10.7555 12.7225 9.68723 12.7225V12.7225Z" fill="#496E2D"/>
<path d="M13.8391 15.2136V10.2314H12.1783V16.8744H14.9462V15.2136H13.8391Z" fill="#496E2D"/>
<path d="M19.3748 15.2137V10.2314H17.7141V15.2137H17.1605V13.553H15.4998V16.8744H20.4819V15.2137H19.3748Z" fill="#496E2D"/>
</g>
<defs>
<clipPath id="clip0_548_5039">
<rect width="25.4644" height="25.4644" fill="white" transform="translate(0 0.819336)"/>
</clipPath>
</defs>
</svg>
