<svg width="27" height="27" viewBox="0 0 27 27" fill="none" xmlns="http://www.w3.org/2000/svg">
<g clip-path="url(#clip0_548_5047)">
<path d="M13.6038 26.2847C20.6356 26.2847 26.336 20.5843 26.336 13.5525C26.336 6.52072 20.6356 0.820312 13.6038 0.820312C6.57199 0.820312 0.871582 6.52072 0.871582 13.5525C0.871582 20.5843 6.57199 26.2847 13.6038 26.2847Z" fill="#F0F0F0"/>
<path d="M26.336 13.5521C26.336 8.07769 22.8808 3.41074 18.0323 1.61182V25.4924C22.8808 23.6934 26.336 19.0265 26.336 13.5521V13.5521Z" fill="#FF9811"/>
<path d="M0.871582 13.5521C0.871582 19.0265 4.32679 23.6934 9.17523 25.4924V1.61182C4.32679 3.41074 0.871582 8.07769 0.871582 13.5521V13.5521Z" fill="#6DA544"/>
</g>
<defs>
<clipPath id="clip0_548_5047">
<rect width="25.4644" height="25.4644" fill="white" transform="translate(0.871582 0.819336)"/>
</clipPath>
</defs>
</svg>
