<svg width="27" height="27" viewBox="0 0 27 27" fill="none" xmlns="http://www.w3.org/2000/svg">
<g clip-path="url(#clip0_548_5051)">
<path d="M13.4757 26.2847C20.5076 26.2847 26.208 20.5843 26.208 13.5525C26.208 6.52072 20.5076 0.820312 13.4757 0.820312C6.44394 0.820312 0.74353 6.52072 0.74353 13.5525C0.74353 20.5843 6.44394 26.2847 13.4757 26.2847Z" fill="#D80027"/>
<path d="M18.1899 9.35517L17.29 12.5666L14.5899 12.068L12.8518 8.48535L8.15648 10.1515L7.7862 9.10809L6.55774 8.95674L7.48336 11.5653L10.7146 10.739L11.6329 13.3266L9.39916 16.6232L13.1898 19.8563L12.4714 20.6986L12.9545 21.8383L14.7508 19.7323L12.4195 17.3471L14.2014 15.2581L18.1732 15.5443L19.0778 10.6449L20.1665 10.8459L20.912 9.8577L18.1899 9.35517Z" fill="#F0F0F0"/>
</g>
<defs>
<clipPath id="clip0_548_5051">
<rect width="25.4644" height="25.4644" fill="white" transform="translate(0.743164 0.819336)"/>
</clipPath>
</defs>
</svg>
