<svg width="27" height="27" viewBox="0 0 27 27" fill="none" xmlns="http://www.w3.org/2000/svg">
<g clip-path="url(#clip0_548_5054)">
<path d="M13.3475 26.2847C20.3793 26.2847 26.0797 20.5843 26.0797 13.5525C26.0797 6.52072 20.3793 0.820312 13.3475 0.820312C6.31564 0.820312 0.615234 6.52072 0.615234 13.5525C0.615234 20.5843 6.31564 26.2847 13.3475 26.2847Z" fill="#F0F0F0"/>
<path d="M18.1417 10.7854H14.9456L13.3476 8.01758L11.7497 10.7854H8.55347L10.1517 13.5533L8.55347 16.3212H11.7497L13.3476 19.089L14.9456 16.3212H18.1417L16.5435 13.5533L18.1417 10.7854ZM15.3109 13.5533L14.3293 15.2537H12.366L11.3843 13.5533L12.366 11.853H14.3293L15.3109 13.5533ZM13.3476 10.1526L13.713 10.7854H12.9823L13.3476 10.1526ZM10.4026 11.853H11.1333L10.7679 12.4858L10.4026 11.853ZM10.4026 15.2537L10.768 14.6208L11.1333 15.2537H10.4026ZM13.3476 16.954L12.9823 16.3212H13.713L13.3476 16.954ZM16.2926 15.2537H15.5619L15.9273 14.6208L16.2926 15.2537ZM15.5619 11.853H16.2926L15.9273 12.4858L15.5619 11.853Z" fill="#0052B4"/>
<path d="M21.2733 3.58838H5.42194C4.25998 4.51385 3.26348 5.63797 2.48413 6.90985H24.2111C23.4317 5.63802 22.4352 4.51385 21.2733 3.58838V3.58838Z" fill="#0052B4"/>
<path d="M5.42194 23.5168H21.2732C22.4352 22.5913 23.4317 21.4672 24.211 20.1953H2.48413C3.26353 21.4671 4.26003 22.5913 5.42194 23.5168V23.5168Z" fill="#0052B4"/>
</g>
<defs>
<clipPath id="clip0_548_5054">
<rect width="25.4644" height="25.4644" fill="white" transform="translate(0.615234 0.819336)"/>
</clipPath>
</defs>
</svg>
