<svg width="26" height="27" viewBox="0 0 26 27" fill="none" xmlns="http://www.w3.org/2000/svg">
<g clip-path="url(#clip0_548_5060)">
<path d="M13.219 26.2847C20.2508 26.2847 25.9513 20.5843 25.9513 13.5525C25.9513 6.52072 20.2508 0.820312 13.219 0.820312C6.18722 0.820312 0.486816 6.52072 0.486816 13.5525C0.486816 20.5843 6.18722 26.2847 13.219 26.2847Z" fill="#F0F0F0"/>
<path d="M25.9515 13.5521C25.9515 8.07769 22.4963 3.41079 17.6478 1.61182V25.4924C22.4963 23.6934 25.9515 19.0265 25.9515 13.5521V13.5521Z" fill="#D80027"/>
<path d="M0.486816 13.5521C0.486816 19.0265 3.94202 23.6934 8.79046 25.4924V1.61182C3.94202 3.41079 0.486816 8.07769 0.486816 13.5521Z" fill="#6DA544"/>
</g>
<defs>
<clipPath id="clip0_548_5060">
<rect width="25.4644" height="25.4644" fill="white" transform="translate(0.487305 0.819336)"/>
</clipPath>
</defs>
</svg>
