<svg width="26" height="27" viewBox="0 0 26 27" fill="none" xmlns="http://www.w3.org/2000/svg">
<g clip-path="url(#clip0_548_5064)">
<path d="M13.0911 26.2847C14.6485 26.2847 16.1404 26.0046 17.5196 25.4928L18.0732 13.5525L17.5197 1.61225C16.1404 1.10047 14.6485 0.820312 13.0911 0.820312C11.5337 0.820312 10.0417 1.10047 8.66249 1.61225L8.10889 13.5525L8.66244 25.4928C10.0417 26.0046 11.5337 26.2847 13.0911 26.2847Z" fill="#F0F0F0"/>
<path d="M0.358765 13.5521C0.358765 19.0265 3.81397 23.6934 8.66241 25.4924V1.61182C3.81397 3.41079 0.358765 8.07769 0.358765 13.5521Z" fill="#FF9811"/>
<path d="M17.5194 1.61182V25.4924C22.3678 23.6934 25.8231 19.0265 25.8231 13.5521C25.8231 8.07769 22.3678 3.41079 17.5194 1.61182V1.61182Z" fill="#6DA544"/>
</g>
<defs>
<clipPath id="clip0_548_5064">
<rect width="25.4644" height="25.4644" fill="white" transform="translate(0.358398 0.819336)"/>
</clipPath>
</defs>
</svg>
