<svg width="26" height="27" viewBox="0 0 26 27" fill="none" xmlns="http://www.w3.org/2000/svg">
<g clip-path="url(#clip0_548_5068)">
<path d="M12.9626 26.2847C19.9944 26.2847 25.6948 20.5843 25.6948 13.5525C25.6948 6.52072 19.9944 0.820312 12.9626 0.820312C5.93075 0.820312 0.230347 6.52072 0.230347 13.5525C0.230347 20.5843 5.93075 26.2847 12.9626 26.2847Z" fill="#FFDA44"/>
<path d="M20.7141 3.4523C18.5671 1.80204 15.8797 0.820312 12.9625 0.820312C10.0454 0.820312 7.35786 1.80209 5.21094 3.4523L12.9625 11.2038L20.7141 3.4523Z" fill="#6DA544"/>
<path d="M2.86229 5.80078C1.21212 7.9477 0.230347 10.6351 0.230347 13.5523C0.230347 16.4695 1.21212 19.157 2.86233 21.3039L10.6139 13.5523L2.86229 5.80078Z" fill="black"/>
<path d="M5.21094 23.6524C7.35791 25.3027 10.0454 26.2844 12.9625 26.2844C15.8797 26.2844 18.5671 25.3026 20.7141 23.6524L12.9625 15.9009L5.21094 23.6524Z" fill="#6DA544"/>
<path d="M23.0629 21.3038C24.7132 19.1569 25.6949 16.4695 25.6949 13.5523C25.6949 10.6351 24.7132 7.9477 23.0629 5.80078L15.3114 13.5523L23.0629 21.3038Z" fill="black"/>
</g>
<defs>
<clipPath id="clip0_548_5068">
<rect width="25.4644" height="25.4644" fill="white" transform="translate(0.230469 0.819336)"/>
</clipPath>
</defs>
</svg>
