<svg width="27" height="27" viewBox="0 0 27 27" fill="none" xmlns="http://www.w3.org/2000/svg">
<g clip-path="url(#clip0_548_5077)">
<path d="M13.7065 26.2847C20.7383 26.2847 26.4387 20.5843 26.4387 13.5525C26.4387 6.52072 20.7383 0.820312 13.7065 0.820312C6.67465 0.820312 0.974243 6.52072 0.974243 13.5525C0.974243 20.5843 6.67465 26.2847 13.7065 26.2847Z" fill="#F0F0F0"/>
<path d="M23.8074 21.3053L16.0549 13.5528H16.0548L23.8074 5.80026C23.473 5.36577 23.1072 4.94775 22.7093 4.54971C22.3113 4.15173 21.8933 3.78593 21.4588 3.45166L13.7063 11.2041L13.7062 11.2042L5.95375 3.45166C5.51931 3.78598 5.10124 4.15168 4.70321 4.54971C4.30518 4.94775 3.93942 5.36577 3.60515 5.80026L11.3576 13.5527L11.3577 13.5527L3.6051 21.3053C3.93947 21.7398 4.30523 22.1578 4.70316 22.5559C5.10119 22.9538 5.51916 23.3196 5.9537 23.6539L13.7062 15.9014L13.7063 15.9014L21.4588 23.6539C21.8932 23.3195 22.3113 22.9538 22.7093 22.5558C23.1073 22.1578 23.473 21.7397 23.8074 21.3053V21.3053Z" fill="#D80027"/>
<path d="M11.4919 4.6956L13.7063 5.24915L15.9206 4.6956V2.81347L15.0348 3.25631L13.7063 1.92773L12.3777 3.25631L11.4919 2.81347V4.6956Z" fill="#FFDA44"/>
<path d="M11.4919 4.69531V6.07934C11.4919 7.77432 13.7063 8.29366 13.7063 8.29366C13.7063 8.29366 15.9206 7.77427 15.9206 6.07934V4.69531H11.4919Z" fill="#D80027"/>
</g>
<defs>
<clipPath id="clip0_548_5077">
<rect width="25.4644" height="25.4644" fill="white" transform="translate(0.973633 0.819336)"/>
</clipPath>
</defs>
</svg>
