<svg width="26" height="27" viewBox="0 0 26 27" fill="none" xmlns="http://www.w3.org/2000/svg">
<g clip-path="url(#clip0_548_5082)">
<path d="M13.219 26.1563C20.2508 26.1563 25.9513 20.4559 25.9513 13.4241C25.9513 6.3923 20.2508 0.691895 13.219 0.691895C6.18722 0.691895 0.486816 6.3923 0.486816 13.4241C0.486816 20.4559 6.18722 26.1563 13.219 26.1563Z" fill="#F0F0F0"/>
<path d="M8.237 8.99554H25.1594C23.3605 4.1471 18.6935 0.691895 13.2192 0.691895C9.70319 0.691895 6.52049 2.11726 4.21655 4.42149L8.237 8.99554Z" fill="black"/>
<path d="M8.237 17.8525H25.1594C23.3605 22.701 18.6935 26.1562 13.2192 26.1562C9.70319 26.1562 6.52049 24.7308 4.21655 22.4266L8.237 17.8525Z" fill="#6DA544"/>
<path d="M4.21599 4.4209C-0.756241 9.39313 -0.756241 17.4548 4.21599 22.427C6.2707 20.3723 8.24683 18.3962 13.2191 13.424L4.21599 4.4209Z" fill="#D80027"/>
<path d="M5.54045 10.6562L6.23918 12.1174L7.81723 11.7527L7.11049 13.21L8.37949 14.2163L6.79955 14.5724L6.80393 16.192L5.54045 15.1787L4.27693 16.192L4.28136 14.5724L2.70142 14.2163L3.97036 13.21L3.26372 11.7527L4.84167 12.1174L5.54045 10.6562Z" fill="#F0F0F0"/>
</g>
<defs>
<clipPath id="clip0_548_5082">
<rect width="25.4644" height="25.4644" fill="white" transform="translate(0.487305 0.691406)"/>
</clipPath>
</defs>
</svg>
