<svg width="26" height="27" viewBox="0 0 26 27" fill="none" xmlns="http://www.w3.org/2000/svg">
<g clip-path="url(#clip0_548_5088)">
<path d="M12.7322 26.1563C19.764 26.1563 25.4644 20.4559 25.4644 13.4241C25.4644 6.3923 19.764 0.691895 12.7322 0.691895C5.70041 0.691895 0 6.3923 0 13.4241C0 20.4559 5.70041 26.1563 12.7322 26.1563Z" fill="#338AF3"/>
<path d="M19.9286 13.563H5.53564C5.53564 14.5566 6.40109 15.3621 7.39465 15.3621H7.33477C7.33477 16.3558 8.14023 17.1612 9.13389 17.1612C9.13389 18.1549 9.93935 18.9604 10.933 18.9604H14.5313C15.5249 18.9604 16.3304 18.1549 16.3304 17.1612C17.324 17.1612 18.1295 16.3558 18.1295 15.3621H18.0696C19.0631 15.3621 19.9286 14.5566 19.9286 13.563V13.563Z" fill="#FFDA44"/>
<path d="M17.7142 11.21C17.7142 13.9615 15.4836 16.1921 12.7321 16.1921C9.98045 16.1921 7.74988 13.9615 7.74988 11.21" fill="#338AF3"/>
<path d="M16.5375 11.2094L14.9825 11.9409L15.8106 13.4469L14.1221 13.1238L13.9081 14.8296L12.732 13.575L11.5559 14.8296L11.342 13.1238L9.65344 13.4468L10.4814 11.9408L8.92651 11.2094L10.4815 10.478L9.65344 8.97209L11.3419 9.29507L11.5559 7.58936L12.732 8.84393L13.9081 7.58936L14.1221 9.29507L15.8106 8.97209L14.9826 10.4781L16.5375 11.2094Z" fill="#FFDA44"/>
</g>
<defs>
<clipPath id="clip0_548_5088">
<rect width="25.4644" height="25.4644" fill="white" transform="translate(0 0.691406)"/>
</clipPath>
</defs>
</svg>
