<svg width="27" height="27" viewBox="0 0 27 27" fill="none" xmlns="http://www.w3.org/2000/svg">
<g clip-path="url(#clip0_548_5093)">
<path d="M13.604 26.1558C20.6359 26.1558 26.3363 20.4554 26.3363 13.4236C26.3363 6.39181 20.6359 0.691406 13.604 0.691406C6.57223 0.691406 0.871826 6.39181 0.871826 13.4236C0.871826 20.4554 6.57223 26.1558 13.604 26.1558Z" fill="#F0F0F0"/>
<path d="M13.6039 0.691895C8.55602 0.691895 4.19445 3.62951 2.13501 7.88838H25.0726C23.0133 3.62951 18.6516 0.691895 13.6039 0.691895V0.691895Z" fill="black"/>
<path d="M13.6039 26.1564C8.55602 26.1564 4.19445 23.2188 2.13501 18.96H25.0726C23.0133 23.2188 18.6516 26.1564 13.6039 26.1564V26.1564Z" fill="#496E2D"/>
<path d="M25.7348 9.54932H1.47283C1.08281 10.7713 0.871582 12.0731 0.871582 13.4243C0.871582 14.7756 1.08281 16.0774 1.47283 17.2994H25.7347C26.1248 16.0774 26.336 14.7756 26.336 13.4243C26.336 12.0731 26.1248 10.7713 25.7348 9.54932Z" fill="#A2001D"/>
<path d="M17.5684 6.57485L16.0606 5.87891L13.6038 11.4418L11.147 5.87891L9.63916 6.57485L12.6893 13.4233L9.63916 20.2718L11.147 20.9678L13.6038 15.4048L16.0606 20.9678L17.5684 20.2718L14.5183 13.4233L17.5684 6.57485Z" fill="#F0F0F0"/>
<path d="M14.6279 7.23047C14.0442 6.59301 13.6038 6.22656 13.6038 6.22656C13.6038 6.22656 13.1634 6.59296 12.5797 7.23047V19.6155C13.1634 20.2531 13.6038 20.6195 13.6038 20.6195C13.6038 20.6195 14.0442 20.2531 14.6279 19.6156V7.23047Z" fill="#F0F0F0"/>
<path d="M10.8361 9.60706V17.242C11.4529 18.335 12.2078 19.2308 12.7736 19.8247V7.02441C12.2078 7.6183 11.4528 8.51418 10.8361 9.60706V9.60706Z" fill="#A2001D"/>
<path d="M16.3719 9.60706C15.755 8.51413 15.0001 7.6183 14.4343 7.02441V19.8247C15.0001 19.2308 15.755 18.335 16.3719 17.242V9.60706Z" fill="#A2001D"/>
<path d="M16.3719 9.60645V17.2414C16.9964 16.1348 17.4791 14.8264 17.4791 13.424C17.4791 12.0216 16.9964 10.7131 16.3719 9.60645Z" fill="black"/>
<path d="M10.836 9.60645V17.2414C10.2116 16.1348 9.72888 14.8264 9.72888 13.424C9.72888 12.0216 10.2116 10.7131 10.836 9.60645Z" fill="black"/>
</g>
<defs>
<clipPath id="clip0_548_5093">
<rect width="25.4644" height="25.4644" fill="white" transform="translate(0.871582 0.691406)"/>
</clipPath>
</defs>
</svg>
