<svg width="27" height="27" viewBox="0 0 27 27" fill="none" xmlns="http://www.w3.org/2000/svg">
<g clip-path="url(#clip0_548_5106)">
<path d="M0.743774 13.4241C0.743774 6.39235 6.44423 0.691895 13.476 0.691895C20.5078 0.691895 26.2082 6.39235 26.2082 13.4241" fill="#D80027"/>
<path d="M17.9043 12.5336L16.0946 13.3847L17.0583 15.1374L15.0933 14.7614L14.8444 16.7464L13.4757 15.2865L12.107 16.7464L11.8581 14.7614L9.89307 15.1373L10.8567 13.3847L9.04712 12.5336L10.8567 11.6824L9.89307 9.92993L11.858 10.3057L12.107 8.3208L13.4757 9.78068L14.8444 8.3208L15.0933 10.3057L17.0584 9.92993L16.0948 11.6825L17.9043 12.5336Z" fill="#FFDA44"/>
<path d="M16.7972 4.84405H14.3061C14.3061 4.38554 13.9343 4.01367 13.4758 4.01367C13.0172 4.01367 12.6454 4.38549 12.6454 4.84405H10.1543C10.1543 5.30261 10.5538 5.67443 11.0123 5.67443H10.9846C10.9846 6.13299 11.3563 6.50481 11.815 6.50481C11.815 6.96337 12.1867 7.33519 12.6454 7.33519H14.3061C14.7646 7.33519 15.1365 6.96342 15.1365 6.50481C15.595 6.50481 15.9669 6.13304 15.9669 5.67443H15.9392C16.3978 5.67443 16.7972 5.30266 16.7972 4.84405V4.84405Z" fill="#FFDA44"/>
<path d="M26.208 13.4243C26.208 20.4561 20.5075 26.1565 13.4757 26.1565C6.44398 26.1565 0.74353 20.4561 0.74353 13.4243H26.208Z" fill="#F0F0F0"/>
<path d="M13.4756 26.1563C17.4555 26.1563 21.0083 24.3298 23.3432 21.4699C22.9232 21.1835 22.6965 20.7207 21.9636 20.7207C20.9026 20.7207 20.9026 21.6908 19.8416 21.6908C18.7807 21.6908 18.7806 20.7207 17.7197 20.7207C16.6587 20.7207 16.6587 21.6908 15.5976 21.6908C14.5366 21.6908 14.5365 20.7207 13.4754 20.7207C12.4144 20.7207 12.4144 21.6908 11.3535 21.6908C10.2926 21.6908 10.2926 20.7207 9.23162 20.7207C8.17052 20.7207 8.17052 21.6908 7.10942 21.6908C6.04832 21.6908 6.04832 20.7207 4.98722 20.7207C4.25442 20.7207 4.02768 21.1834 3.60791 21.4698C5.94268 24.3298 9.49567 26.1563 13.4756 26.1563V26.1563Z" fill="#0052B4"/>
<path d="M24.0857 15.0473C23.0247 15.0473 23.0247 14.0771 21.9636 14.0771C20.9026 14.0771 20.9026 15.0473 19.8417 15.0473C18.7807 15.0473 18.7807 14.0771 17.7197 14.0771C16.6587 14.0771 16.6587 15.0473 15.5977 15.0473C14.5366 15.0473 14.5366 14.0771 13.4755 14.0771C12.4145 14.0771 12.4145 15.0473 11.3535 15.0473C10.2927 15.0473 10.2927 14.0771 9.23166 14.0771C8.17056 14.0771 8.17056 15.0473 7.10946 15.0473C6.04836 15.0473 6.04836 14.0771 4.98726 14.0771C3.9264 14.0771 3.9264 15.0473 2.8654 15.0473C1.81012 15.0473 1.804 14.0878 0.76001 14.0776C0.789403 14.66 0.858933 15.2318 0.964073 15.7909C1.80977 15.9152 1.88383 16.7449 2.86545 16.7449C3.92645 16.7449 3.92645 15.7749 4.9873 15.7749C6.04841 15.7749 6.04841 16.7449 7.10951 16.7449C8.17061 16.7449 8.17061 15.7749 9.23171 15.7749C10.2927 15.7749 10.2927 16.7449 11.3536 16.7449C12.4146 16.7449 12.4146 15.7749 13.4755 15.7749C14.5366 15.7749 14.5366 16.7449 15.5977 16.7449C16.6588 16.7449 16.6588 15.7749 17.7198 15.7749C18.7808 15.7749 18.7808 16.7449 19.8417 16.7449C20.9027 16.7449 20.9027 15.7749 21.9637 15.7749C23.0248 15.7749 23.0248 16.7449 24.0857 16.7449C25.0675 16.7449 25.1415 15.9152 25.9873 15.7909C26.0924 15.2318 26.1619 14.66 26.1914 14.0776C25.1472 14.0879 25.141 15.0473 24.0857 15.0473V15.0473Z" fill="#0052B4"/>
<path d="M21.9635 17.3984C20.9025 17.3984 20.9025 18.3686 19.8416 18.3686C18.7806 18.3686 18.7806 17.3984 17.7196 17.3984C16.6586 17.3984 16.6586 18.3686 15.5976 18.3686C14.5365 18.3686 14.5365 17.3984 13.4754 17.3984C12.4144 17.3984 12.4144 18.3686 11.3534 18.3686C10.2926 18.3686 10.2926 17.3984 9.23155 17.3984C8.17045 17.3984 8.17045 18.3686 7.10935 18.3686C6.04825 18.3686 6.04825 17.3984 4.98715 17.3984C3.9263 17.3984 3.9263 18.3686 2.86529 18.3686C2.10718 18.3686 1.89063 17.8734 1.44177 17.5905C1.74058 18.4539 2.12931 19.2751 2.59747 20.0429C2.67889 20.0579 2.76751 20.0662 2.86529 20.0662C3.9263 20.0662 3.9263 19.0961 4.98715 19.0961C6.04825 19.0961 6.04825 20.0662 7.10935 20.0662C8.17045 20.0662 8.17045 19.0961 9.23155 19.0961C10.2926 19.0961 10.2926 20.0662 11.3534 20.0662C12.4144 20.0662 12.4144 19.0961 13.4754 19.0961C14.5365 19.0961 14.5365 20.0662 15.5976 20.0662C16.6587 20.0662 16.6587 19.0961 17.7196 19.0961C18.7806 19.0961 18.7806 20.0662 19.8416 20.0662C20.9025 20.0662 20.9026 19.0961 21.9635 19.0961C23.0246 19.0961 23.0246 20.0662 24.0856 20.0662C24.1835 20.0662 24.2721 20.0579 24.3535 20.0428C24.8217 19.2751 25.2103 18.4539 25.5093 17.5906C25.0604 17.8733 24.8438 18.3686 24.0856 18.3686C23.0246 18.3686 23.0246 17.3984 21.9635 17.3984Z" fill="#0052B4"/>
<path d="M26.1685 12.4181C25.1474 12.4422 25.1333 13.3871 24.0858 13.3871C23.0248 13.3871 23.0248 12.417 21.9637 12.417C20.9027 12.417 20.9027 13.3871 19.8418 13.3871C18.7808 13.3871 18.7808 12.417 17.7198 12.417C16.6588 12.417 16.6588 13.3871 15.5978 13.3871C14.5367 13.3871 14.5367 12.417 13.4756 12.417C12.4145 12.417 12.4145 13.3871 11.3536 13.3871C10.2927 13.3871 10.2927 12.417 9.23174 12.417C8.17064 12.417 8.17064 13.3871 7.10954 13.3871C6.04844 13.3871 6.04844 12.417 4.98734 12.417C3.92649 12.417 3.92649 13.3871 2.86548 13.3871C1.81811 13.3871 1.80394 12.4423 0.78297 12.4181C0.757058 12.75 0.74353 13.0854 0.74353 13.424C0.74353 13.6559 0.750095 13.8863 0.762479 14.1152C1.80408 14.1268 1.811 15.0847 2.86553 15.0847C3.92654 15.0847 3.92654 14.1147 4.98739 14.1147C6.04849 14.1147 6.04849 15.0847 7.10959 15.0847C8.17069 15.0847 8.17069 14.1147 9.23179 14.1147C10.2928 14.1147 10.2928 15.0847 11.3536 15.0847C12.4146 15.0847 12.4146 14.1147 13.4756 14.1147C14.5367 14.1147 14.5367 15.0847 15.5978 15.0847C16.6589 15.0847 16.6589 14.1147 17.7199 14.1147C18.7809 14.1147 18.7809 15.0847 19.8418 15.0847C20.9028 15.0847 20.9028 14.1147 21.9638 14.1147C23.0249 14.1147 23.0249 15.0847 24.0858 15.0847C25.1405 15.0847 25.1474 14.1268 26.1892 14.1152C26.2014 13.8863 26.208 13.6559 26.208 13.424C26.208 13.0854 26.1944 12.75 26.1685 12.4181V12.4181Z" fill="#F0F0F0"/>
</g>
<defs>
<clipPath id="clip0_548_5106">
<rect width="25.4644" height="25.4644" fill="white" transform="translate(0.743164 0.691406)"/>
</clipPath>
</defs>
</svg>
