<svg width="26" height="27" viewBox="0 0 26 27" fill="none" xmlns="http://www.w3.org/2000/svg">
<g clip-path="url(#clip0_548_5117)">
<path d="M12.732 26.0279C19.7638 26.0279 25.4642 20.3275 25.4642 13.2957C25.4642 6.26388 19.7638 0.563477 12.732 0.563477C5.70016 0.563477 -0.000244141 6.26388 -0.000244141 13.2957C-0.000244141 20.3275 5.70016 26.0279 12.732 26.0279Z" fill="#0052B4"/>
<path d="M5.59233 8.31396L5.86716 9.15986H6.75643L6.03701 9.68253L6.3118 10.5283L5.59233 10.0056L4.87281 10.5283L5.14769 9.68253L4.42822 9.15986H5.31744L5.59233 8.31396Z" fill="#F0F0F0"/>
<path d="M8.3601 7.4834L8.63493 8.32925H9.5242L8.80478 8.85191L9.07957 9.69766L8.3601 9.17499L7.64063 9.69766L7.91546 8.85191L7.19604 8.32925H8.08531L8.3601 7.4834Z" fill="#F0F0F0"/>
<path d="M11.1282 6.65332L11.403 7.49917H12.2923L11.5728 8.02188L11.8476 8.86763L11.1282 8.34491L10.4087 8.86763L10.6835 8.02188L9.96411 7.49917H10.8534L11.1282 6.65332Z" fill="#F0F0F0"/>
<path d="M19.8714 8.31396L19.5965 9.15986H18.7073L19.4267 9.68253L19.1519 10.5283L19.8714 10.0056L20.5909 10.5283L20.316 9.68253L21.0355 9.15986H20.1462L19.8714 8.31396Z" fill="#F0F0F0"/>
<path d="M17.1036 7.4834L16.8287 8.32925H15.9395L16.6589 8.85191L16.3841 9.69766L17.1036 9.17499L17.823 9.69766L17.5482 8.85191L18.2676 8.32925H17.3783L17.1036 7.4834Z" fill="#F0F0F0"/>
<path d="M14.3357 6.65332L14.0609 7.49917H13.1716L13.8911 8.02188L13.6163 8.86763L14.3357 8.34491L15.0552 8.86763L14.7804 8.02188L15.4998 7.49917H14.6105L14.3357 6.65332Z" fill="#F0F0F0"/>
<path d="M14.9463 13.8489L12.732 11.0811L11.6248 11.6346V12.7418L9.96409 13.8489H8.85693V15.2793C10.4797 15.9364 11.6248 17.5263 11.6248 19.3847H12.732V18.2775L13.8391 17.1704L14.9463 18.2775L16.0534 17.1704V16.0632L17.1606 14.4025L14.9463 13.8489Z" fill="#FFDA44"/>
</g>
<defs>
<clipPath id="clip0_548_5117">
<rect width="25.4644" height="25.4644" fill="white" transform="translate(0 0.563477)"/>
</clipPath>
</defs>
</svg>
