<svg width="27" height="27" viewBox="0 0 27 27" fill="none" xmlns="http://www.w3.org/2000/svg">
<g clip-path="url(#clip0_548_5127)">
<path d="M25.5441 17.7241C26.0559 16.3448 26.336 14.8529 26.336 13.2955C26.336 11.7381 26.0559 10.2462 25.5441 8.86692L13.6038 7.75977L1.66352 8.86692C1.15174 10.2462 0.871582 11.7381 0.871582 13.2955C0.871582 14.8529 1.15174 16.3448 1.66352 17.7241L13.6038 18.8312L25.5441 17.7241Z" fill="#F0F0F0"/>
<path d="M13.6039 26.0283C19.0783 26.0283 23.7452 22.573 25.5441 17.7246H1.66357C3.4626 22.573 8.12945 26.0283 13.6039 26.0283Z" fill="#D80027"/>
<path d="M13.6039 0.563477C8.12945 0.563477 3.4626 4.01868 1.66357 8.86712H25.5442C23.7452 4.01868 19.0783 0.563477 13.6039 0.563477Z" fill="#6DA544"/>
<path d="M4.60075 4.29248C-0.371475 9.26471 -0.371475 17.3263 4.60075 22.2986C5.89859 21.0008 7.16535 19.734 9.1752 17.7242V8.86698L4.60075 4.29248Z" fill="black"/>
</g>
<defs>
<clipPath id="clip0_548_5127">
<rect width="25.4644" height="25.4644" fill="white" transform="translate(0.871582 0.563477)"/>
</clipPath>
</defs>
</svg>
