<svg width="27" height="27" viewBox="0 0 27 27" fill="none" xmlns="http://www.w3.org/2000/svg">
<g clip-path="url(#clip0_548_5132)">
<path d="M13.4757 26.0279C20.5076 26.0279 26.208 20.3275 26.208 13.2957C26.208 6.26388 20.5076 0.563477 13.4757 0.563477C6.44394 0.563477 0.74353 6.26388 0.74353 13.2957C0.74353 20.3275 6.44394 26.0279 13.4757 26.0279Z" fill="#D80027"/>
<path d="M19.7024 13.2958L17.1582 14.4926L18.5131 16.9568L15.7501 16.4281L15.4002 19.2191L13.4757 17.1665L11.5513 19.2191L11.2012 16.4281L8.43854 16.9567L9.79333 14.4925L7.24902 13.2958L9.79333 12.0991L8.43854 9.63486L11.2011 10.1635L11.5514 7.37256L13.4757 9.42518L15.4003 7.37256L15.7501 10.1635L18.5132 9.63486L17.1583 12.0993L19.7024 13.2958Z" fill="#FFDA44"/>
<path d="M13.4759 17.1705C15.616 17.1705 17.3509 15.4355 17.3509 13.2954C17.3509 11.1553 15.616 9.42041 13.4759 9.42041C11.3357 9.42041 9.60083 11.1553 9.60083 13.2954C9.60083 15.4355 11.3357 17.1705 13.4759 17.1705Z" fill="#D80027"/>
<path d="M11.5377 13.2964C11.4444 13.2964 11.3522 13.3012 11.2612 13.3102C11.2646 13.8469 11.4587 14.3381 11.7794 14.7198C11.9505 14.2594 12.206 13.8395 12.5281 13.4803C12.2204 13.3619 11.8867 13.2964 11.5377 13.2964Z" fill="#FFDA44"/>
<path d="M12.7306 15.3822C12.9634 15.4653 13.214 15.5109 13.4754 15.5109C13.7368 15.5109 13.9874 15.4653 14.2202 15.3822C14.0933 14.8842 13.8313 14.4397 13.4754 14.0903C13.1194 14.4396 12.8575 14.8842 12.7306 15.3822Z" fill="#FFDA44"/>
<path d="M15.3929 12.1895C15.0101 11.5278 14.295 11.082 13.4754 11.082C12.6558 11.082 11.9407 11.5277 11.5579 12.1895C12.2558 12.1931 12.9104 12.3829 13.4754 12.7106C14.0404 12.3829 14.6949 12.1931 15.3929 12.1895Z" fill="#FFDA44"/>
<path d="M14.4225 13.4803C14.7446 13.8395 15.0001 14.2593 15.1712 14.7198C15.4918 14.3381 15.686 13.8469 15.6893 13.3102C15.5983 13.3011 15.5062 13.2964 15.4129 13.2964C15.064 13.2963 14.7302 13.3619 14.4225 13.4803V13.4803Z" fill="#FFDA44"/>
</g>
<defs>
<clipPath id="clip0_548_5132">
<rect width="25.4644" height="25.4644" fill="white" transform="translate(0.743164 0.563477)"/>
</clipPath>
</defs>
</svg>
