<svg width="27" height="27" viewBox="0 0 27 27" fill="none" xmlns="http://www.w3.org/2000/svg">
<g clip-path="url(#clip0_548_5141)">
<path d="M24.8163 7.75899C22.7569 3.50011 18.3953 0.5625 13.3475 0.5625C8.29968 0.5625 3.9381 3.50011 1.87866 7.75899L13.3475 8.86614L24.8163 7.75899Z" fill="#D80027"/>
<path d="M1.87866 18.8308C3.9381 23.0897 8.29968 26.0273 13.3475 26.0273C18.3953 26.0273 22.7569 23.0897 24.8163 18.8308L13.3475 17.7236L1.87866 18.8308Z" fill="#D80027"/>
<path d="M24.8163 7.75977H1.87861C1.06922 9.4336 0.615234 11.3115 0.615234 13.2955C0.615234 15.2795 1.06922 17.1574 1.87861 18.8312H24.8162C25.6257 17.1574 26.0797 15.2795 26.0797 13.2955C26.0797 11.3115 25.6257 9.4336 24.8163 7.75977V7.75977Z" fill="#0052B4"/>
<path d="M13.3475 17.7248C15.7934 17.7248 17.7761 15.7421 17.7761 13.2962C17.7761 10.8504 15.7934 8.86768 13.3475 8.86768C10.9017 8.86768 8.91895 10.8504 8.91895 13.2962C8.91895 15.7421 10.9017 17.7248 13.3475 17.7248Z" fill="#F0F0F0"/>
</g>
<defs>
<clipPath id="clip0_548_5141">
<rect width="25.4644" height="25.4644" fill="white" transform="translate(0.615234 0.563477)"/>
</clipPath>
</defs>
</svg>
