<svg width="27" height="27" viewBox="0 0 27 27" fill="none" xmlns="http://www.w3.org/2000/svg">
<g clip-path="url(#clip0_548_5147)">
<path d="M13.3473 26.1563C20.3791 26.1563 26.0795 20.4559 26.0795 13.4241C26.0795 6.3923 20.3791 0.691895 13.3473 0.691895C6.31552 0.691895 0.615112 6.3923 0.615112 13.4241C0.615112 20.4559 6.31552 26.1563 13.3473 26.1563Z" fill="#F0F0F0"/>
<path d="M13.3473 0.691895C7.46468 0.691895 2.51473 4.6817 1.05371 10.1026H25.641C24.1799 4.6817 19.2299 0.691895 13.3473 0.691895Z" fill="#A2001D"/>
<path d="M13.3473 26.1564C19.2299 26.1564 24.1799 22.1665 25.6409 16.7456H1.05371C2.51473 22.1665 7.46468 26.1564 13.3473 26.1564Z" fill="#A2001D"/>
</g>
<defs>
<clipPath id="clip0_548_5147">
<rect width="25.4644" height="25.4644" fill="white" transform="translate(0.615234 0.691406)"/>
</clipPath>
</defs>
</svg>
