<svg width="26" height="27" viewBox="0 0 26 27" fill="none" xmlns="http://www.w3.org/2000/svg">
<g clip-path="url(#clip0_548_5152)">
<path d="M13.219 26.0279C20.2508 26.0279 25.9513 20.3275 25.9513 13.2957C25.9513 6.26388 20.2508 0.563477 13.219 0.563477C6.18722 0.563477 0.486816 6.26388 0.486816 13.2957C0.486816 20.3275 6.18722 26.0279 13.219 26.0279Z" fill="#F0F0F0"/>
<path d="M13.2193 0.5625C8.1715 0.5625 3.80992 3.50011 1.75049 7.75899H24.6881C22.6287 3.50011 18.2671 0.5625 13.2193 0.5625V0.5625Z" fill="#D80027"/>
<path d="M13.2193 26.0271C18.2671 26.0271 22.6287 23.0894 24.6882 18.8306H1.75049C3.80992 23.0894 8.1715 26.0271 13.2193 26.0271Z" fill="#D80027"/>
<path d="M16.5406 15.5097L13.2192 9.42041L9.89771 15.5097H12.3888V17.1705H14.0496V15.5097H16.5406Z" fill="#6DA544"/>
</g>
<defs>
<clipPath id="clip0_548_5152">
<rect width="25.4644" height="25.4644" fill="white" transform="translate(0.487305 0.563477)"/>
</clipPath>
</defs>
</svg>
