<svg width="26" height="27" viewBox="0 0 26 27" fill="none" xmlns="http://www.w3.org/2000/svg">
<g clip-path="url(#clip0_548_5158)">
<path d="M0.358765 13.2959C0.358765 15.2798 0.812698 17.1577 1.62214 18.8316L13.091 19.3852L24.5598 18.8317C25.3693 17.1577 25.8232 15.2798 25.8232 13.2959C25.8232 11.3119 25.3693 9.43403 24.5598 7.76015L13.091 7.20654L1.62214 7.7601C0.812698 9.43404 0.358765 11.3119 0.358765 13.2959H0.358765Z" fill="#F0F0F0"/>
<path d="M13.0909 26.0275C18.1387 26.0275 22.5003 23.0899 24.5598 18.8311H1.62207C3.68151 23.0899 8.04309 26.0275 13.0909 26.0275Z" fill="#6DA544"/>
<path d="M13.0909 0.563477C8.04309 0.563477 3.68151 3.50109 1.62207 7.75996H24.5597C22.5003 3.50109 18.1387 0.563477 13.0909 0.563477V0.563477Z" fill="#0052B4"/>
<path d="M13.9213 13.0188V9.97412H12.2606V13.0188L10.2548 15.0246C10.8381 15.9795 11.8901 16.617 13.091 16.617C14.2919 16.617 15.3438 15.9795 15.9272 15.0246L13.9213 13.0188Z" fill="black"/>
</g>
<defs>
<clipPath id="clip0_548_5158">
<rect width="25.4644" height="25.4644" fill="white" transform="translate(0.358398 0.563477)"/>
</clipPath>
</defs>
</svg>
