<svg width="27" height="26" viewBox="0 0 27 26" fill="none" xmlns="http://www.w3.org/2000/svg">
<g clip-path="url(#clip0_548_5163)">
<path d="M13.4496 25.4647C20.4814 25.4647 26.1818 19.7643 26.1818 12.7325C26.1818 5.70065 20.4814 0.000244141 13.4496 0.000244141C6.41782 0.000244141 0.717407 5.70065 0.717407 12.7325C0.717407 19.7643 6.41782 25.4647 13.4496 25.4647Z" fill="#F0F0F0"/>
<path d="M3.62744 4.63011H23.2713C22.5457 3.75154 21.7042 2.97244 20.7707 2.31519H6.12798C5.1945 2.97234 4.35303 3.75149 3.62744 4.63011V4.63011Z" fill="#F0F0F0"/>
<path d="M0.717407 12.7324C0.717407 13.1227 0.735958 13.5085 0.770326 13.8899H26.1289C26.1633 13.5085 26.1818 13.1227 26.1818 12.7324C26.1818 12.3421 26.1633 11.9563 26.1289 11.575H0.770326C0.735958 11.9563 0.717407 12.3421 0.717407 12.7324H0.717407Z" fill="#F0F0F0"/>
<path d="M2.10574 18.5197H24.7934C25.1683 17.7863 25.474 17.0119 25.7023 16.2048H1.19678C1.42501 17.0119 1.73088 17.7864 2.10574 18.5197V18.5197Z" fill="#F0F0F0"/>
<path d="M6.12798 23.1496H20.7707C21.7042 22.4924 22.5457 21.7133 23.2712 20.8347H3.62744C4.35303 21.7132 5.1945 22.4924 6.12798 23.1496V23.1496Z" fill="#F0F0F0"/>
<path d="M1.19678 9.25999H25.7024C25.4741 8.45289 25.1683 7.67841 24.7934 6.94507H2.10579C1.73093 7.67841 1.42506 8.45289 1.19678 9.25999V9.25999Z" fill="#F0F0F0"/>
<path d="M6.80737 2.31541H20.7716C18.7007 0.857277 16.1756 0.000488281 13.4503 0.000488281C11.7895 0.000488281 8.87835 0.857277 6.80737 2.31541Z" fill="#D80027"/>
<path d="M12.8966 6.9453H24.794C24.3706 6.11706 23.8592 5.34124 23.2721 4.63037H12.8966V6.9453Z" fill="#D80027"/>
<path d="M12.8966 11.5752H26.1295C26.0578 10.7803 25.9139 10.0062 25.703 9.26025H12.8966V11.5752Z" fill="#D80027"/>
<path d="M1.19728 16.2051H25.7028C25.9138 15.4591 26.0577 14.685 26.1294 13.8901H0.770752C0.842371 14.685 0.986304 15.4591 1.19728 16.2051V16.2051Z" fill="#D80027"/>
<path d="M3.62798 20.8349H23.2718C23.8589 20.124 24.3703 19.3482 24.7937 18.52H2.10608C2.52948 19.3483 3.04085 20.1241 3.62798 20.8349V20.8349Z" fill="#D80027"/>
<path d="M13.4502 25.4648C16.1755 25.4648 18.7006 24.608 20.7715 23.1499H6.12878C8.19976 24.608 10.7248 25.4648 13.4502 25.4648Z" fill="#D80027"/>
<path d="M1.19674 9.26005C0.985766 10.0061 0.841882 10.7801 0.770264 11.575H13.4496V0.000244141C7.62159 0.000244141 2.7083 3.916 1.19674 9.26005V9.26005Z" fill="#0052B4"/>
<path d="M8.29656 3.32153L9.12092 5.85878H11.789L9.63061 7.42703L10.4549 9.96442L8.29656 8.39627L6.1381 9.96442L6.96261 7.42703L4.8042 5.85878H7.47215L8.29656 3.32153Z" fill="#F0F0F0"/>
</g>
<defs>
<clipPath id="clip0_548_5163">
<rect width="25.4644" height="25.4644" fill="white" transform="translate(0.717773)"/>
</clipPath>
</defs>
</svg>
