<svg width="27" height="26" viewBox="0 0 27 26" fill="none" xmlns="http://www.w3.org/2000/svg">
<g clip-path="url(#clip0_548_5180)">
<path d="M1.85249 7.19651C1.04309 8.8704 0.589111 10.7483 0.589111 12.7322C0.589111 14.7162 1.04309 16.5941 1.85249 18.268L13.3213 19.3751L24.7902 18.268C25.5996 16.5941 26.0535 14.7162 26.0535 12.7322C26.0535 10.7483 25.5996 8.8704 24.7902 7.19651L13.3213 6.08936L1.85249 7.19651Z" fill="black"/>
<path d="M1.85315 18.2681C3.91249 22.5269 8.27372 25.4646 13.3215 25.4646C18.3693 25.4646 22.7306 22.5269 24.7899 18.2681H1.85315Z" fill="#496E2D"/>
<path d="M1.85315 7.19673H24.7899C22.7306 2.93786 18.3693 0.000244141 13.3215 0.000244141C8.27372 0.000244141 3.91249 2.93786 1.85315 7.19673Z" fill="#D80027"/>
<path d="M16.2852 10.4038L17.3298 11.8434L19.0217 11.2948L17.9754 12.7332L19.0199 14.1727L17.3287 13.622L16.2824 15.0604L16.2835 13.2818L14.5922 12.7311L16.2841 12.1825L16.2852 10.4038Z" fill="#F0F0F0"/>
<path d="M13.4337 16.3306C11.4465 16.3306 9.83548 14.7196 9.83548 12.7323C9.83548 10.7451 11.4465 9.13409 13.4337 9.13409C14.0533 9.13409 14.6364 9.29076 15.1454 9.56659C14.3468 8.7857 13.2548 8.30371 12.0498 8.30371C9.60391 8.30371 7.62122 10.2865 7.62122 12.7323C7.62122 15.1781 9.60396 17.1609 12.0498 17.1609C13.2549 17.1609 14.3469 16.6789 15.1454 15.898C14.6363 16.1739 14.0534 16.3306 13.4337 16.3306Z" fill="#F0F0F0"/>
</g>
<defs>
<clipPath id="clip0_548_5180">
<rect width="25.4644" height="25.4644" fill="white" transform="translate(0.589355)"/>
</clipPath>
</defs>
</svg>
