<svg width="26" height="26" viewBox="0 0 26 26" fill="none" xmlns="http://www.w3.org/2000/svg">
<g clip-path="url(#clip0_548_5187)">
<path d="M25.9255 12.7322C25.9255 19.764 20.225 25.4645 13.1933 25.4645C6.16151 25.4645 0.46106 19.764 0.46106 12.7322C1.01461 12.7322 13.1933 11.0715 13.1933 11.0715L25.9255 12.7322Z" fill="#D80027"/>
<path d="M0.461182 12.7325C0.461182 5.7007 6.16163 0.000244141 13.1934 0.000244141C20.2252 0.000244141 25.9256 5.7007 25.9256 12.7325" fill="#0052B4"/>
<path d="M9.87177 8.8572C9.87177 7.94003 9.12822 7.19649 8.21106 7.19649C7.78557 7.19649 7.39779 7.35664 7.1039 7.61969V6.64289H7.65746V5.53573H7.1039V4.98218H5.99675V5.53573H5.44319V6.64289H5.99675V7.61969C5.70286 7.35664 5.31508 7.19649 4.88959 7.19649C3.97242 7.19649 3.22888 7.94003 3.22888 8.8572C3.22888 9.34893 3.44279 9.79058 3.78243 10.0947V11.0715H9.31816V10.0947C9.6579 9.79058 9.87177 9.34893 9.87177 8.8572V8.8572Z" fill="#FFDA44"/>
</g>
<defs>
<clipPath id="clip0_548_5187">
<rect width="25.4644" height="25.4644" fill="white" transform="translate(0.461426)"/>
</clipPath>
</defs>
</svg>
