<svg width="26" height="27" viewBox="0 0 26 27" fill="none" xmlns="http://www.w3.org/2000/svg">
<g clip-path="url(#clip0_548_5191)">
<path d="M24.9028 18.0327C25.4147 16.6534 25.6948 15.1615 25.6948 13.6041C25.6948 12.0467 25.4147 10.5548 24.9028 9.17552L12.9626 8.06836L1.02228 9.17552C0.510455 10.5548 0.230347 12.0467 0.230347 13.6041C0.230347 15.1615 0.510455 16.6534 1.02228 18.0327L12.9626 19.1398L24.9028 18.0327Z" fill="#6DA544"/>
<path d="M24.9029 9.17547C23.1039 4.32703 18.437 0.871826 12.9626 0.871826C7.48822 0.871826 2.82131 4.32703 1.02234 9.17547H24.9029Z" fill="#FFDA44"/>
<path d="M12.9626 26.3361C18.437 26.3361 23.1039 22.8809 24.9029 18.0325H1.02234C2.82131 22.8809 7.48822 26.3361 12.9626 26.3361Z" fill="#D80027"/>
</g>
<defs>
<clipPath id="clip0_548_5191">
<rect width="25.4644" height="25.4644" fill="white" transform="translate(0.230469 0.87207)"/>
</clipPath>
</defs>
</svg>
