<svg width="26" height="27" viewBox="0 0 26 27" fill="none" xmlns="http://www.w3.org/2000/svg">
<g clip-path="url(#clip0_548_5195)">
<path d="M12.8343 26.3363C19.8661 26.3363 25.5665 20.6359 25.5665 13.604C25.5665 6.57223 19.8661 0.871826 12.8343 0.871826C5.80246 0.871826 0.102051 6.57223 0.102051 13.604C0.102051 20.6359 5.80246 26.3363 12.8343 26.3363Z" fill="#F0F0F0"/>
<path d="M12.8344 0.871826C7.36004 0.871826 2.69314 4.32703 0.894165 9.17547H24.7748C22.9758 4.32703 18.3089 0.871826 12.8344 0.871826V0.871826Z" fill="#D80027"/>
<path d="M12.8344 26.3361C18.3089 26.3361 22.9758 22.8809 24.7747 18.0325H0.894165C2.69314 22.8809 7.36004 26.3361 12.8344 26.3361Z" fill="#338AF3"/>
</g>
<defs>
<clipPath id="clip0_548_5195">
<rect width="25.4644" height="25.4644" fill="white" transform="translate(0.102539 0.87207)"/>
</clipPath>
</defs>
</svg>
