<svg width="27" height="27" viewBox="0 0 27 27" fill="none" xmlns="http://www.w3.org/2000/svg">
<g clip-path="url(#clip0_548_5199)">
<path d="M13.7065 26.3363C20.7383 26.3363 26.4387 20.6359 26.4387 13.604C26.4387 6.57223 20.7383 0.871826 13.7065 0.871826C6.67465 0.871826 0.974243 6.57223 0.974243 13.604C0.974243 20.6359 6.67465 26.3363 13.7065 26.3363Z" fill="#496E2D"/>
<path d="M15.9205 13.073C15.608 13.073 15.3113 13.1353 15.0357 13.2345C15.1867 12.8981 15.2879 12.5238 15.2879 12.1241C15.2879 10.5424 13.7062 9.3562 13.7062 9.3562C13.7062 9.3562 12.1246 10.5424 12.1246 12.1241C12.1246 12.5237 12.2258 12.8981 12.3768 13.2345C12.1012 13.1354 11.8045 13.073 11.492 13.073C9.91036 13.073 8.72412 14.6546 8.72412 14.6546C8.72412 14.6546 9.91036 16.2363 11.492 16.2363C12.4193 16.2363 13.2102 15.6928 13.7063 15.2429C14.2024 15.6928 14.9933 16.2363 15.9206 16.2363C17.5022 16.2363 18.6885 14.6546 18.6885 14.6546C18.6885 14.6546 17.5021 13.073 15.9205 13.073V13.073Z" fill="#F0F0F0"/>
<path d="M13.7061 5.854L14.0328 6.85945H15.09L14.2348 7.48094L14.5613 8.48639L13.7061 7.8649L12.8509 8.48639L13.1773 7.48094L12.3221 6.85945H13.3794L13.7061 5.854Z" fill="#FFDA44"/>
<path d="M9.68586 7.61255L10.3144 8.17844L11.0469 7.75559L10.7029 8.52822L11.3314 9.09421L10.4903 9.00578L10.1463 9.77842L9.97034 8.95117L9.12927 8.86274L9.86167 8.43979L9.68586 7.61255Z" fill="#FFDA44"/>
<path d="M6.74292 10.5559L7.57022 10.7317L7.99311 9.99927L8.08154 10.8403L8.90874 11.0163L8.13615 11.3603L8.22458 12.2013L7.65855 11.5729L6.88596 11.9169L7.30886 11.1844L6.74292 10.5559Z" fill="#FFDA44"/>
<path d="M17.7263 7.61255L17.0978 8.17844L16.3653 7.75559L16.7093 8.52822L16.0808 9.09421L16.9219 9.00578L17.2659 9.77842L17.4419 8.95117L18.2829 8.86274L17.5505 8.43979L17.7263 7.61255Z" fill="#FFDA44"/>
<path d="M20.6692 10.5559L19.8419 10.7317L19.4191 9.99927L19.3306 10.8403L18.5034 11.0163L19.276 11.3603L19.1876 12.2013L19.7536 11.5729L20.5262 11.9169L20.1033 11.1844L20.6692 10.5559Z" fill="#FFDA44"/>
<path d="M13.7059 20.6652C14.9622 20.6652 16.1202 20.2461 17.0492 19.5408H10.3625C11.2915 20.246 12.4495 20.6652 13.7059 20.6652Z" fill="#F0F0F0"/>
<path d="M8.63159 17.3435C8.80731 17.7457 9.03012 18.1223 9.29183 18.468H18.1207C18.3824 18.1224 18.6052 17.7457 18.781 17.3435H8.63159Z" fill="#F0F0F0"/>
</g>
<defs>
<clipPath id="clip0_548_5199">
<rect width="25.4644" height="25.4644" fill="white" transform="translate(0.973633 0.87207)"/>
</clipPath>
</defs>
</svg>
