<svg width="27" height="27" viewBox="0 0 27 27" fill="none" xmlns="http://www.w3.org/2000/svg">
<g clip-path="url(#clip0_548_5211)">
<path d="M13.5778 26.3363C20.6096 26.3363 26.31 20.6359 26.31 13.604C26.31 6.57223 20.6096 0.871826 13.5778 0.871826C6.54599 0.871826 0.845581 6.57223 0.845581 13.604C0.845581 20.6359 6.54599 26.3363 13.5778 26.3363Z" fill="#F0F0F0"/>
<path d="M9.14929 13.6042V25.5445C10.5285 26.0563 12.0205 26.3365 13.5779 26.3365C20.6096 26.3365 26.3101 20.636 26.3101 13.6042C26.3101 6.57247 9.14929 13.6042 9.14929 13.6042Z" fill="#6DA544"/>
<path d="M13.5779 0.871826C12.0205 0.871826 10.5285 1.15198 9.14929 1.66376V13.604H26.3101C26.3101 6.57228 20.6096 0.871826 13.5779 0.871826Z" fill="#D80027"/>
</g>
<defs>
<clipPath id="clip0_548_5211">
<rect width="25.4644" height="25.4644" fill="white" transform="translate(0.845703 0.87207)"/>
</clipPath>
</defs>
</svg>
