<svg width="27" height="27" viewBox="0 0 27 27" fill="none" xmlns="http://www.w3.org/2000/svg">
<g clip-path="url(#clip0_548_5215)">
<path d="M18.9853 2.1352C17.3114 1.32581 15.4335 0.871826 13.4495 0.871826C11.4655 0.871826 9.58768 1.32581 7.9138 2.1352L6.80664 13.604L7.9138 25.0729C9.58768 25.8823 11.4655 26.3363 13.4495 26.3363C15.4335 26.3363 17.3114 25.8823 18.9853 25.0729L20.0924 13.604L18.9853 2.1352Z" fill="#FFDA44"/>
<path d="M7.91402 2.1355C3.65514 4.19488 0.717529 8.55612 0.717529 13.6039C0.717529 18.6517 3.65514 23.0129 7.91402 25.0723V2.1355Z" fill="#0052B4"/>
<path d="M18.9856 2.13525V25.072C23.2444 23.0127 26.1821 18.6514 26.1821 13.6037C26.1821 8.55587 23.2444 4.19464 18.9856 2.13525Z" fill="#0052B4"/>
<path d="M17.0481 14.711L17.8784 15.8182V11.3896L17.0481 12.4967H14.557V10.0056L15.6641 9.17529H11.2355L12.3427 10.0056V12.4967H9.85157L9.02124 11.3896V15.8182L9.85157 14.711H12.3427V17.2021L11.2355 18.0324H15.6641L14.557 17.2021V14.711H17.0481Z" fill="#D80027"/>
<path d="M16.771 13.0506H14.0031V10.2827H12.896V13.0506H10.1281V14.1577H12.896V16.9256H14.0031V14.1577H16.771V13.0506Z" fill="#F0F0F0"/>
</g>
<defs>
<clipPath id="clip0_548_5215">
<rect width="25.4644" height="25.4644" fill="white" transform="translate(0.717773 0.87207)"/>
</clipPath>
</defs>
</svg>
