<svg width="27" height="27" viewBox="0 0 27 27" fill="none" xmlns="http://www.w3.org/2000/svg">
<g clip-path="url(#clip0_548_5222)">
<path d="M0.589111 13.6042C0.589111 15.1617 0.86927 16.6535 1.38105 18.0328L13.3213 18.5864L25.2616 18.0329C25.7734 16.6535 26.0535 15.1617 26.0535 13.6042C26.0535 12.0468 25.7734 10.555 25.2616 9.17567L13.3213 8.62207L1.38105 9.17562C0.86927 10.555 0.589111 12.0468 0.589111 13.6042H0.589111Z" fill="#D80027"/>
<path d="M13.3216 0.871826C7.84723 0.871826 3.18032 4.32703 1.38135 9.17547H25.262C23.4629 4.32703 18.796 0.871826 13.3216 0.871826V0.871826Z" fill="black"/>
<path d="M25.2619 18.0325H1.38135C3.18032 22.8809 7.84723 26.3361 13.3216 26.3361C18.796 26.3361 23.4629 22.8809 25.2619 18.0325Z" fill="#496E2D"/>
<path d="M17.127 6.96095L15.5721 6.22954L16.4001 4.72361L14.7116 5.04664L14.4976 3.34082L13.3215 4.59539L12.1454 3.34082L11.9314 5.04664L10.2429 4.72361L11.071 6.22954L9.51599 6.96095H17.127Z" fill="#D80027"/>
</g>
<defs>
<clipPath id="clip0_548_5222">
<rect width="25.4644" height="25.4644" fill="white" transform="translate(0.589355 0.87207)"/>
</clipPath>
</defs>
</svg>
