<svg width="26" height="27" viewBox="0 0 26 27" fill="none" xmlns="http://www.w3.org/2000/svg">
<g clip-path="url(#clip0_548_5227)">
<path d="M13.1933 26.336C20.2251 26.336 25.9255 20.6356 25.9255 13.6038C25.9255 6.57199 20.2251 0.871582 13.1933 0.871582C6.16147 0.871582 0.46106 6.57199 0.46106 13.6038C0.46106 20.6356 6.16147 26.336 13.1933 26.336Z" fill="#F0F0F0"/>
<path d="M12.64 13.6039H25.9258C25.9258 12.4547 25.7726 11.3415 25.4872 10.2825H12.64V13.6039Z" fill="#D80027"/>
<path d="M12.64 6.96112H24.057C23.2776 5.68929 22.2812 4.56512 21.1192 3.63965H12.64V6.96112Z" fill="#D80027"/>
<path d="M13.1936 26.336C16.1901 26.336 18.9443 25.3003 21.1193 23.5681H5.26794C7.44292 25.3003 10.1971 26.336 13.1936 26.336V26.336Z" fill="#D80027"/>
<path d="M2.33004 20.247H24.057C24.6827 19.226 25.1679 18.1099 25.4871 16.9255H0.899902C1.21905 18.1099 1.70432 19.226 2.33004 20.247V20.247Z" fill="#D80027"/>
<path d="M13.1933 13.6038C13.1933 6.57203 13.1933 5.74305 13.1933 0.871582C6.16151 0.871582 0.46106 6.57203 0.46106 13.6038H13.1933Z" fill="#0052B4"/>
<path d="M8.92789 11.7705C7.18905 11.7705 5.77945 10.3608 5.77945 8.62204C5.77945 6.88325 7.1891 5.4736 8.92789 5.4736C9.47006 5.4736 9.98019 5.61072 10.4256 5.85204C9.72689 5.16882 8.77138 4.74707 7.71694 4.74707C5.57688 4.74707 3.84192 6.48198 3.84192 8.62209C3.84192 10.7622 5.57688 12.4971 7.71694 12.4971C8.77138 12.4971 9.72689 12.0754 10.4256 11.3921C9.98019 11.6334 9.47011 11.7705 8.92789 11.7705V11.7705Z" fill="#FFDA44"/>
<path d="M9.81501 6.40747L10.374 7.57635L11.6363 7.2847L11.071 8.45044L12.0862 9.25551L10.8222 9.54044L10.8258 10.8361L9.81501 10.0255L8.80419 10.8361L8.80767 9.54044L7.5437 9.25551L8.5589 8.45044L7.99356 7.2847L9.25599 7.57635L9.81501 6.40747Z" fill="#FFDA44"/>
</g>
<defs>
<clipPath id="clip0_548_5227">
<rect width="25.4644" height="25.4644" fill="white" transform="translate(0.461426 0.87207)"/>
</clipPath>
</defs>
</svg>
