<svg width="26" height="27" viewBox="0 0 26 27" fill="none" xmlns="http://www.w3.org/2000/svg">
<g clip-path="url(#clip0_548_5238)">
<path d="M13.2194 26.2083C20.2512 26.2083 25.9516 20.5079 25.9516 13.4761C25.9516 6.4443 20.2512 0.743896 13.2194 0.743896C6.18759 0.743896 0.487183 6.4443 0.487183 13.4761C0.487183 20.5079 6.18759 26.2083 13.2194 26.2083Z" fill="#D80027"/>
<path d="M4.91565 7.38647H21.5229V19.5651H4.91565V7.38647Z" fill="#6DA544"/>
<path d="M15.2698 17.074C13.2826 17.074 11.6715 15.463 11.6715 13.4757C11.6715 11.4885 13.2826 9.8775 15.2698 9.8775C15.8894 9.8775 16.4724 10.0342 16.9814 10.31C16.1829 9.5291 15.091 9.04712 13.8858 9.04712C11.4401 9.04712 9.45728 11.0299 9.45728 13.4757C9.45728 15.9215 11.4401 17.9043 13.8858 17.9043C15.091 17.9043 16.183 17.4223 16.9814 16.6414C16.4724 16.9173 15.8894 17.074 15.2698 17.074Z" fill="#F0F0F0"/>
</g>
<defs>
<clipPath id="clip0_548_5238">
<rect width="25.4644" height="25.4644" fill="white" transform="translate(0.487305 0.744141)"/>
</clipPath>
</defs>
</svg>
