<svg width="26" height="27" viewBox="0 0 26 27" fill="none" xmlns="http://www.w3.org/2000/svg">
<g clip-path="url(#clip0_548_5242)">
<path d="M17.5194 1.53583C16.14 1.02406 14.6482 0.743896 13.0908 0.743896C11.5334 0.743896 10.0415 1.02406 8.66221 1.53583L7.55505 13.4761L8.66221 25.4164C10.0415 25.9282 11.5334 26.2083 13.0908 26.2083C14.6482 26.2083 16.14 25.9282 17.5194 25.4164L18.6265 13.4761L17.5194 1.53583Z" fill="#FFDA44"/>
<path d="M25.8231 13.4759C25.8231 8.00152 22.3678 3.33457 17.5194 1.53564V25.4163C22.3678 23.6172 25.8231 18.9503 25.8231 13.4759V13.4759Z" fill="#D80027"/>
<path d="M0.358765 13.4759C0.358765 18.9503 3.81397 23.6172 8.66241 25.4162V1.53564C3.81397 3.33457 0.358765 8.00152 0.358765 13.4759V13.4759Z" fill="#6DA544"/>
</g>
<defs>
<clipPath id="clip0_548_5242">
<rect width="25.4644" height="25.4644" fill="white" transform="translate(0.358398 0.744141)"/>
</clipPath>
</defs>
</svg>
