<svg width="26" height="27" viewBox="0 0 26 27" fill="none" xmlns="http://www.w3.org/2000/svg">
<g clip-path="url(#clip0_548_5246)">
<path d="M12.9626 26.2083C19.9944 26.2083 25.6948 20.5079 25.6948 13.4761C25.6948 6.4443 19.9944 0.743896 12.9626 0.743896C5.93075 0.743896 0.230347 6.4443 0.230347 13.4761C0.230347 20.5079 5.93075 26.2083 12.9626 26.2083Z" fill="#F0F0F0"/>
<path d="M12.9626 0.743896C19.9944 0.743896 25.6949 6.44435 25.6949 13.4761C25.6949 20.5079 19.9944 26.2083 12.9626 26.2083" fill="#D80027"/>
<path d="M9.08783 5.72589V4.06519H7.42712V5.72589H5.76636V7.3866H7.42712V9.04736H9.08783V7.3866H10.7485V5.72589H9.08783Z" fill="#ACABB1"/>
</g>
<defs>
<clipPath id="clip0_548_5246">
<rect width="25.4644" height="25.4644" fill="white" transform="translate(0.230469 0.744141)"/>
</clipPath>
</defs>
</svg>
