<svg width="26" height="27" viewBox="0 0 26 27" fill="none" xmlns="http://www.w3.org/2000/svg">
<g clip-path="url(#clip0_548_5250)">
<path d="M12.8345 26.2083C19.8663 26.2083 25.5667 20.5079 25.5667 13.4761C25.5667 11.3393 25.0395 9.32591 24.1094 7.55762L12.8195 13.491L18.753 2.20124C16.9847 1.27109 14.9713 0.743896 12.8345 0.743896C5.80275 0.743896 0.102295 6.44435 0.102295 13.4761C0.102295 16.992 1.52741 20.1751 3.83144 22.4792C6.13553 24.7833 9.31858 26.2083 12.8345 26.2083Z" fill="#0052B4"/>
<path d="M24.0958 7.57133C23.513 6.46204 22.7553 5.42053 21.8225 4.4878C20.8898 3.55506 19.8484 2.79735 18.739 2.2146L3.81641 22.4939L24.0958 7.57133Z" fill="#F0F0F0"/>
<path d="M3.81641 22.4939L24.0958 7.57133C23.513 6.46203 22.7553 5.42053 21.8225 4.48779L3.81641 22.4939Z" fill="#FF9811"/>
<path d="M11.1588 8.20997L9.60391 8.94138L10.432 10.4474L8.74344 10.1243L8.52948 11.83L7.35334 10.5755L6.1772 11.83L5.96334 10.1243L4.27483 10.4473L5.10277 8.94133L3.54785 8.20997L5.10282 7.47851L4.27483 5.97263L5.96324 6.29556L6.17725 4.58984L7.35334 5.84441L8.52948 4.58984L8.74344 6.29556L10.432 5.97263L9.60396 7.47856L11.1588 8.20997Z" fill="#F0F0F0"/>
</g>
<defs>
<clipPath id="clip0_548_5250">
<rect width="25.4644" height="25.4644" fill="white" transform="translate(0.102539 0.744141)"/>
</clipPath>
</defs>
</svg>
