<svg width="27" height="27" viewBox="0 0 27 27" fill="none" xmlns="http://www.w3.org/2000/svg">
<g clip-path="url(#clip0_548_5255)">
<path d="M13.7062 26.2083C20.738 26.2083 26.4384 20.5079 26.4384 13.4761C26.4384 6.4443 20.738 0.743896 13.7062 0.743896C6.67441 0.743896 0.973999 6.4443 0.973999 13.4761C0.973999 20.5079 6.67441 26.2083 13.7062 26.2083Z" fill="#F0F0F0"/>
<path d="M26.3291 11.8154C25.9779 9.13041 24.7718 6.53592 22.709 4.47316C20.6462 2.41039 18.0517 1.20426 15.3667 0.853027L15.3667 11.8154H26.3291Z" fill="#0052B4"/>
<path d="M12.0453 0.852783C9.36027 1.20401 6.76573 2.41009 4.70296 4.47286C2.64024 6.53568 1.43412 9.13022 1.08289 11.8153L12.0453 11.8152L12.0453 0.852783Z" fill="#0052B4"/>
<path d="M1.08276 15.1367C1.43399 17.8217 2.64012 20.4163 4.70284 22.479C6.76561 24.5417 9.3601 25.7478 12.0452 26.0992L12.0452 15.1368L1.08276 15.1367Z" fill="#0052B4"/>
<path d="M15.3667 26.0991C18.0517 25.7478 20.6462 24.5417 22.709 22.479C24.7717 20.4162 25.9778 17.8217 26.329 15.1367H15.3667V26.0991Z" fill="#0052B4"/>
<path d="M18.0524 8.82293C18.0524 8.65363 18.1901 8.51602 18.3594 8.51602H19.0171C20.0568 8.51602 20.9026 7.67022 20.9026 6.6306C20.9026 5.59099 20.0568 4.74514 19.0171 4.74514H18.3925C18.1887 4.59201 17.9152 4.49756 17.6135 4.49756C16.9842 4.49756 16.474 4.90564 16.474 5.40906C16.474 5.9076 16.9744 6.31205 17.5953 6.31991L17.595 6.32354H19.0171C19.1865 6.32354 19.3241 6.4612 19.3241 6.6305C19.3241 6.7998 19.1865 6.93742 19.0171 6.93742H18.3594C17.3197 6.93742 16.474 7.78322 16.474 8.82283C16.474 9.86245 17.3197 10.7083 18.3594 10.7083H20.9026V9.1298H18.3594C18.1901 9.12985 18.0524 8.99223 18.0524 8.82293V8.82293Z" fill="#F0F0F0"/>
<path d="M8.08792 8.82269C8.08792 8.65339 8.22554 8.51577 8.39488 8.51577H9.05258C10.0922 8.51577 10.9381 7.66997 10.9381 6.63036C10.9381 5.59074 10.0923 4.7449 9.05258 4.7449H8.42801C8.22414 4.59176 7.95065 4.49731 7.64896 4.49731C7.01966 4.49731 6.50952 4.90539 6.50952 5.40881C6.50952 5.90736 7.00991 6.3118 7.6308 6.31966L7.6305 6.32329H9.05263C9.22198 6.32329 9.3596 6.46096 9.3596 6.63026C9.3596 6.79956 9.22198 6.93718 9.05263 6.93718H8.39493C7.35527 6.93718 6.50952 7.78297 6.50952 8.82259C6.50952 9.8622 7.35522 10.708 8.39493 10.708H10.938V9.12955H8.39488C8.22554 9.1296 8.08792 8.99199 8.08792 8.82269V8.82269Z" fill="#F0F0F0"/>
<path d="M18.0523 20.5695C18.0523 20.4002 18.1899 20.2626 18.3592 20.2626H19.0169C20.0566 20.2626 20.9024 19.4168 20.9024 18.3772C20.9024 17.3376 20.0566 16.4917 19.0169 16.4917H18.3923C18.1885 16.3386 17.915 16.2441 17.6133 16.2441C16.9839 16.2441 16.4738 16.6523 16.4738 17.1556C16.4738 17.6542 16.9742 18.0586 17.5951 18.0665L17.5948 18.0701H19.0169C19.1862 18.0701 19.3238 18.2078 19.3238 18.3771C19.3238 18.5464 19.1862 18.684 19.0169 18.684H18.3592C17.3195 18.684 16.4738 19.5298 16.4738 20.5694C16.4738 21.609 17.3195 22.4549 18.3592 22.4549H20.9024V20.8764H18.3592C18.1899 20.8765 18.0523 20.7388 18.0523 20.5695V20.5695Z" fill="#F0F0F0"/>
<path d="M8.08772 20.5695C8.08772 20.4002 8.22534 20.2626 8.39469 20.2626H9.05239C10.0921 20.2626 10.9379 19.4168 10.9379 18.3772C10.9379 17.3376 10.0921 16.4917 9.05239 16.4917H8.42781C8.22395 16.3386 7.95046 16.2441 7.64876 16.2441C7.01941 16.2441 6.50928 16.6523 6.50928 17.1556C6.50928 17.6542 7.00966 18.0586 7.63056 18.0665L7.63026 18.0701H9.05239C9.22174 18.0701 9.35935 18.2078 9.35935 18.3771C9.35935 18.5464 9.22174 18.684 9.05239 18.684H8.39469C7.35503 18.684 6.50928 19.5298 6.50928 20.5694C6.50928 21.609 7.35498 22.4549 8.39469 22.4549H10.9379V20.8764H8.39469C8.22534 20.8765 8.08772 20.7388 8.08772 20.5695Z" fill="#F0F0F0"/>
</g>
<defs>
<clipPath id="clip0_548_5255">
<rect width="25.4644" height="25.4644" fill="white" transform="translate(0.974609 0.744141)"/>
</clipPath>
</defs>
</svg>
