<svg width="27" height="27" viewBox="0 0 27 27" fill="none" xmlns="http://www.w3.org/2000/svg">
<g clip-path="url(#clip0_548_5267)">
<path d="M13.5782 26.2083C20.61 26.2083 26.3104 20.5079 26.3104 13.4761C26.3104 6.4443 20.61 0.743896 13.5782 0.743896C6.54636 0.743896 0.845947 6.4443 0.845947 13.4761C0.845947 20.5079 6.54636 26.2083 13.5782 26.2083Z" fill="#496E2D"/>
<path d="M13.5777 15.4531C11.4577 15.4531 9.68666 13.9631 9.25212 11.9734C9.18538 12.2793 9.14917 12.5965 9.14917 12.9224C9.14917 15.3684 11.1319 17.351 13.5777 17.351C16.0236 17.351 18.0063 15.3683 18.0063 12.9224C18.0063 12.5965 17.9701 12.2793 17.9034 11.9734C17.4688 13.9631 15.6978 15.4531 13.5777 15.4531Z" fill="#FFDA44"/>
<path d="M13.5777 9.60107L13.9899 10.8698H15.3239L14.2447 11.6538L14.657 12.9225L13.5777 12.1384L12.4985 12.9225L12.9107 11.6538L11.8315 10.8698H13.1655L13.5777 9.60107Z" fill="#FFDA44"/>
</g>
<defs>
<clipPath id="clip0_548_5267">
<rect width="25.4644" height="25.4644" fill="white" transform="translate(0.845703 0.744141)"/>
</clipPath>
</defs>
</svg>
