<svg width="27" height="27" viewBox="0 0 27 27" fill="none" xmlns="http://www.w3.org/2000/svg">
<g clip-path="url(#clip0_548_5272)">
<path d="M2.26587 7.38678L13.45 8.49394L24.6341 7.38678C22.4746 3.42905 18.276 0.743896 13.45 0.743896C8.62392 0.743896 4.42532 3.42905 2.26587 7.38678V7.38678Z" fill="#D80027"/>
<path d="M2.26564 19.5651L13.4497 20.6723L24.6339 19.5651C25.6208 17.7562 26.182 15.6816 26.182 13.4758L13.4497 12.3687L0.717529 13.4758C0.717529 15.6816 1.27869 17.7562 2.26564 19.5651Z" fill="#FFDA44"/>
<path d="M2.26564 7.38647C1.27869 9.19539 0.717529 11.2701 0.717529 13.4758H26.182C26.182 11.2701 25.6208 9.19539 24.6339 7.38647H13.4497H2.26564Z" fill="#0052B4"/>
<path d="M13.45 26.2081C18.276 26.2081 22.4746 23.5229 24.6341 19.5652H2.26587C4.42532 23.5229 8.62392 26.2081 13.45 26.2081Z" fill="#6DA544"/>
</g>
<defs>
<clipPath id="clip0_548_5272">
<rect width="25.4644" height="25.4644" fill="white" transform="translate(0.717773 0.744141)"/>
</clipPath>
</defs>
</svg>
