<svg width="27" height="27" viewBox="0 0 27 27" fill="none" xmlns="http://www.w3.org/2000/svg">
<g clip-path="url(#clip0_548_5277)">
<path d="M13.3212 26.2083C20.353 26.2083 26.0534 20.5079 26.0534 13.4761C26.0534 6.4443 20.353 0.743896 13.3212 0.743896C6.2894 0.743896 0.588989 6.4443 0.588989 13.4761C0.588989 20.5079 6.2894 26.2083 13.3212 26.2083Z" fill="#338AF3"/>
<path d="M6.67859 14.5828H19.9644V16.2435H6.67859V14.5828Z" fill="#818085"/>
<path d="M8.89282 9.6005L13.3214 10.1541L17.75 9.6005V6.94334L15.9785 7.82908L13.3214 5.17188L10.6642 7.82908L8.89282 6.94334V9.6005Z" fill="#FFDA44"/>
<path d="M7.78588 17.9044H6.12512V14.8597L6.67872 14.0293L6.12512 13.199V11.2615H7.78588V17.9044Z" fill="#F0F0F0"/>
<path d="M20.5184 17.9047H18.8577V11.2617H20.5184V13.1992L19.9648 14.0435L20.5184 14.8601V17.9047Z" fill="#F0F0F0"/>
<path d="M6.12476 13.199H20.5177V14.8597H6.12476V13.199Z" fill="#ACABB1"/>
<path d="M13.3214 20.1187C10.8794 20.1187 8.89282 18.132 8.89282 15.6901V9.60083H17.75V15.6901C17.75 18.132 15.7633 20.1187 13.3214 20.1187Z" fill="#F0F0F0"/>
<path d="M13.3215 18.4579C11.7952 18.4579 10.5536 17.2162 10.5536 15.69V11.2615H16.0893V15.69C16.0893 17.2162 14.8477 18.4579 13.3215 18.4579V18.4579Z" fill="#0052B4"/>
<path d="M8.89258 9.60083H10.5533V11.2615H8.89258V9.60083Z" fill="#D80027"/>
<path d="M16.0891 9.60107H17.7498V11.2618H16.0891V9.60107Z" fill="#D80027"/>
<path d="M16.0891 13.1992H17.7498V14.8599H16.0891V13.1992Z" fill="#D80027"/>
<path d="M8.89258 13.1992H10.5533V14.8599H8.89258V13.1992Z" fill="#D80027"/>
<path d="M12.4907 9.60107H14.1514V11.2618H12.4907V9.60107Z" fill="#D80027"/>
<path d="M13.3211 18.4582C13.0318 18.4582 12.753 18.4135 12.4907 18.3308V20.0398C12.7599 20.0911 13.0372 20.119 13.3211 20.119C13.605 20.119 13.8823 20.0911 14.1515 20.0398V18.3308C13.8892 18.4134 13.6104 18.4582 13.3211 18.4582Z" fill="#D80027"/>
<path d="M10.5905 16.1396L9.26514 17.465C9.49491 17.9882 9.82277 18.4586 10.2257 18.853L11.3995 17.6793C10.9806 17.2746 10.6888 16.7394 10.5905 16.1396Z" fill="#D80027"/>
<path d="M17.3776 17.465L16.0522 16.1396C15.9539 16.7394 15.6621 17.2745 15.2433 17.6793L16.417 18.8531C16.8199 18.4586 17.1478 17.9882 17.3776 17.465Z" fill="#D80027"/>
</g>
<defs>
<clipPath id="clip0_548_5277">
<rect width="25.4644" height="25.4644" fill="white" transform="translate(0.589355 0.744141)"/>
</clipPath>
</defs>
</svg>
