<svg width="26" height="27" viewBox="0 0 26 27" fill="none" xmlns="http://www.w3.org/2000/svg">
<g clip-path="url(#clip0_548_5296)">
<path d="M13.1933 26.2083C20.2251 26.2083 25.9255 20.5079 25.9255 13.4761C25.9255 6.4443 20.2251 0.743896 13.1933 0.743896C6.16147 0.743896 0.46106 6.4443 0.46106 13.4761C0.46106 20.5079 6.16147 26.2083 13.1933 26.2083Z" fill="#F0F0F0"/>
<path d="M25.9254 13.4757C25.9254 8.42785 22.9878 4.06627 18.7289 2.00684V24.9445C22.9878 22.8851 25.9254 18.5235 25.9254 13.4757V13.4757Z" fill="#D80027"/>
<path d="M0.46106 13.4757C0.46106 18.5235 3.39867 22.8851 7.65755 24.9445V2.00684C3.39867 4.06627 0.46106 8.42785 0.46106 13.4757Z" fill="#6DA544"/>
<path d="M9.87207 13.4758C9.87207 15.3102 11.3592 16.7973 13.1935 16.7973C15.0279 16.7973 16.515 15.3102 16.515 13.4758V12.3687H9.87207V13.4758Z" fill="#6DA544"/>
<path d="M17.622 11.2615H14.3005C14.3005 10.65 13.8048 10.1543 13.1934 10.1543C12.5819 10.1543 12.0862 10.65 12.0862 11.2615H8.76477C8.76477 11.8729 9.29738 12.3686 9.90878 12.3686H9.87193C9.87193 12.9801 10.3676 13.4758 10.9791 13.4758C10.9791 14.0873 11.4747 14.5829 12.0862 14.5829H14.3005C14.912 14.5829 15.4077 14.0873 15.4077 13.4758C16.0192 13.4758 16.5149 12.9801 16.5149 12.3686H16.478C17.0895 12.3686 17.622 11.8729 17.622 11.2615Z" fill="#FF9811"/>
</g>
<defs>
<clipPath id="clip0_548_5296">
<rect width="25.4644" height="25.4644" fill="white" transform="translate(0.461426 0.744141)"/>
</clipPath>
</defs>
</svg>
