<svg width="26" height="27" viewBox="0 0 26 27" fill="none" xmlns="http://www.w3.org/2000/svg">
<g clip-path="url(#clip0_548_5303)">
<path d="M13.1933 26.0802C20.2251 26.0802 25.9255 20.3798 25.9255 13.3479C25.9255 6.31613 20.2251 0.615723 13.1933 0.615723C6.16147 0.615723 0.46106 6.31613 0.46106 13.3479C0.46106 20.3798 6.16147 26.0802 13.1933 26.0802Z" fill="#338AF3"/>
<path d="M13.1934 6.15137L13.7429 7.84296H15.5217L14.0827 8.88845L14.6323 10.58L13.1934 9.53456L11.7544 10.58L12.3041 8.88845L10.8651 7.84296H12.6438L13.1934 6.15137Z" fill="#F0F0F0"/>
<path d="M5.99683 13.3479L7.68842 12.7983V11.0195L8.73391 12.4586L10.4254 11.9089L9.38002 13.3479L10.4254 14.7868L8.73391 14.2371L7.68842 15.6761V13.8975L5.99683 13.3479Z" fill="#F0F0F0"/>
<path d="M13.1935 20.5443L12.6438 18.8528H10.8651L12.3042 17.8073L11.7545 16.1157L13.1935 17.1612L14.6324 16.1157L14.0827 17.8073L15.5217 18.8528H13.743L13.1935 20.5443Z" fill="#F0F0F0"/>
<path d="M20.3896 13.3478L18.698 13.8974V15.6761L17.6525 14.2371L15.9609 14.7867L17.0064 13.3478L15.9609 11.9089L17.6525 12.4586L18.698 11.0195V12.7982L20.3896 13.3478Z" fill="#F0F0F0"/>
</g>
<defs>
<clipPath id="clip0_548_5303">
<rect width="25.4644" height="25.4644" fill="white" transform="translate(0.461426 0.615723)"/>
</clipPath>
</defs>
</svg>
