<svg width="27" height="27" viewBox="0 0 27 27" fill="none" xmlns="http://www.w3.org/2000/svg">
<g clip-path="url(#clip0_548_5310)">
<path d="M19.1137 1.87885C17.4398 1.06946 15.5619 0.615479 13.5779 0.615479C11.594 0.615479 9.7161 1.06946 8.04221 1.87885L6.93506 13.3477L8.04221 24.8165C9.7161 25.6259 11.594 26.0799 13.5779 26.0799C15.5619 26.0799 17.4398 25.6259 19.1137 24.8165L20.2208 13.3477L19.1137 1.87885Z" fill="#FFDA44"/>
<path d="M8.04243 1.87915C3.78361 3.93854 0.845947 8.29977 0.845947 13.3475C0.845947 18.3953 3.78361 22.7566 8.04243 24.8159V1.87915Z" fill="#0052B4"/>
<path d="M19.1136 1.87915V24.8159C23.3725 22.7566 26.3101 18.3953 26.3101 13.3475C26.3101 8.29977 23.3725 3.93854 19.1136 1.87915Z" fill="#D80027"/>
<path d="M18.0064 10.633H14.9618C14.9618 9.86863 14.3422 9.24902 13.5779 9.24902C12.8135 9.24902 12.1939 9.86863 12.1939 10.633H9.14929C9.14929 11.3855 9.80485 11.9955 10.5573 11.9955H10.5119C10.5119 12.7481 11.122 13.3582 11.8746 13.3582C11.8746 14.0245 12.3531 14.5782 12.9852 14.6965L11.9114 17.1207C12.4259 17.3299 12.9882 17.4461 13.5779 17.4461C14.1675 17.4461 14.7298 17.3299 15.2443 17.1207L14.1706 14.6965C14.8026 14.5782 15.2811 14.0245 15.2811 13.3582C16.0337 13.3582 16.6438 12.7481 16.6438 11.9955H16.5984C17.3509 11.9955 18.0064 11.3855 18.0064 10.633V10.633Z" fill="#FF9811"/>
<path d="M13.5779 12.5173L11.7788 13.3477V15.0084L13.5779 16.1156L15.3771 15.0084V13.3477L13.5779 12.5173Z" fill="#0052B4"/>
<path d="M11.7788 11.687H15.3771V13.3477H11.7788V11.687Z" fill="#D80027"/>
</g>
<defs>
<clipPath id="clip0_548_5310">
<rect width="25.4644" height="25.4644" fill="white" transform="translate(0.845703 0.615723)"/>
</clipPath>
</defs>
</svg>
