<svg width="27" height="27" viewBox="0 0 27 27" fill="none" xmlns="http://www.w3.org/2000/svg">
<g clip-path="url(#clip0_548_5320)">
<path d="M13.3212 26.0799C14.8786 26.0799 16.3705 25.7998 17.7497 25.288L18.3033 13.3477L17.7498 1.40741C16.3705 0.895637 14.8786 0.615479 13.3212 0.615479C11.7638 0.615479 10.2718 0.895637 8.89259 1.40741L8.33899 13.3477L8.89254 25.288C10.2718 25.7998 11.7638 26.0799 13.3212 26.0799Z" fill="#0052B4"/>
<path d="M0.589111 13.3475C0.589111 18.8219 4.04432 23.4888 8.89276 25.2878V1.40723C4.04432 3.2062 0.589111 7.8731 0.589111 13.3475Z" fill="#A2001D"/>
<path d="M17.7496 1.40723V25.2878C22.5981 23.4888 26.0533 18.8219 26.0533 13.3475C26.0533 7.8731 22.5981 3.2062 17.7496 1.40723V1.40723Z" fill="#A2001D"/>
<path d="M6.67847 13.3474H7.78562V17.776H6.67847V13.3474Z" fill="#FFDA44"/>
<path d="M2.24976 13.3474H3.35691V17.776H2.24976V13.3474Z" fill="#FFDA44"/>
<path d="M5.01756 16.1152C5.62902 16.1152 6.12471 15.6195 6.12471 15.008C6.12471 14.3966 5.62902 13.9009 5.01756 13.9009C4.40609 13.9009 3.9104 14.3966 3.9104 15.008C3.9104 15.6195 4.40609 16.1152 5.01756 16.1152Z" fill="#FFDA44"/>
<path d="M5.01754 11.6867C5.32326 11.6867 5.5711 11.4389 5.5711 11.1331C5.5711 10.8274 5.32326 10.5796 5.01754 10.5796C4.71182 10.5796 4.46399 10.8274 4.46399 11.1331C4.46399 11.4389 4.71182 11.6867 5.01754 11.6867Z" fill="#FFDA44"/>
<path d="M3.9104 16.6687H6.12471V17.7759H3.9104V16.6687Z" fill="#FFDA44"/>
<path d="M3.9104 12.2402H6.12471V13.3474H3.9104V12.2402Z" fill="#FFDA44"/>
<path d="M5.01728 7.25781L5.40939 8.46439H6.67803L5.65175 9.21012L6.04356 10.4167L5.01728 9.67097L3.99104 10.4167L4.38285 9.21012L3.35657 8.46439H4.62521L5.01728 7.25781Z" fill="#FFDA44"/>
</g>
<defs>
<clipPath id="clip0_548_5320">
<rect width="25.4644" height="25.4644" fill="white" transform="translate(0.589355 0.615723)"/>
</clipPath>
</defs>
</svg>
