<svg width="26" height="26" viewBox="0 0 26 26" fill="none" xmlns="http://www.w3.org/2000/svg">
<g clip-path="url(#clip0_548_5333)">
<path d="M12.9626 25.9515C19.9944 25.9515 25.6948 20.2511 25.6948 13.2193C25.6948 6.18747 19.9944 0.487061 12.9626 0.487061C5.93075 0.487061 0.230347 6.18747 0.230347 13.2193C0.230347 20.2511 5.93075 25.9515 12.9626 25.9515Z" fill="#FFDA44"/>
<path d="M25.6948 13.2196C25.6948 8.84978 23.4931 4.9946 20.1387 2.70166H5.78642C2.43213 4.9946 0.230347 8.84978 0.230347 13.2196C0.230347 17.5895 2.43213 21.4445 5.78642 23.7375H20.1387C23.4931 21.4445 25.6948 17.5895 25.6948 13.2196Z" fill="#A2001D"/>
<path d="M10.1952 9.89759H15.7309V7.68333L14.6238 8.23688L12.9631 6.57617L11.3023 8.23688L10.1952 7.68333V9.89759Z" fill="#FFDA44"/>
<path d="M17.9452 13.2192H15.1783C15.2869 13.0315 15.3499 12.8143 15.3499 12.5819C15.3499 11.8763 14.7779 11.3044 14.0724 11.3044C13.585 11.3044 13.1616 11.5776 12.9462 11.979C12.7308 11.5775 12.3075 11.3044 11.82 11.3044C11.1145 11.3044 10.5425 11.8763 10.5425 12.5819C10.5425 12.8144 10.6057 13.0315 10.7141 13.2192H7.98071C7.98071 14.0658 8.71814 14.7521 9.56473 14.7521H9.5137C9.5137 15.4466 9.97559 16.033 10.6089 16.2213L9.36464 17.4656L10.5389 18.6399L12.2047 16.9742C12.27 16.9981 12.3375 17.0172 12.4072 17.0303L11.4007 19.303C11.883 19.4991 12.4102 19.608 12.963 19.608C13.5157 19.608 14.0429 19.4991 14.5253 19.303L13.5187 17.0303C13.5885 17.0172 13.6559 16.9981 13.7212 16.9742L15.3869 18.6399L16.5612 17.4656L15.3169 16.2214C15.9501 16.0329 16.4121 15.4466 16.4121 14.7522H16.361C17.2077 14.7521 17.9452 14.0658 17.9452 13.2192V13.2192Z" fill="#FFDA44"/>
<path d="M12.9628 14.0496L11.1637 14.8799V16.5406L12.9628 17.6478L14.7619 16.5406V14.8799L12.9628 14.0496Z" fill="#6DA544"/>
<path d="M11.1637 13.2192H14.7619V15.4336H11.1637V13.2192Z" fill="#0052B4"/>
</g>
<defs>
<clipPath id="clip0_548_5333">
<rect width="25.4644" height="25.4644" fill="white" transform="translate(0.230469 0.487305)"/>
</clipPath>
</defs>
</svg>
