<svg width="26" height="26" viewBox="0 0 26 26" fill="none" xmlns="http://www.w3.org/2000/svg">
<g clip-path="url(#clip0_548_5341)">
<path d="M25.5665 13.2193C25.5665 20.251 19.866 25.9515 12.8343 25.9515C5.8025 25.9515 0.102051 20.251 0.102051 13.2193C0.102051 13.2223 12.8343 0.488453 12.8343 0.487061C19.866 0.487061 25.5665 6.18751 25.5665 13.2193Z" fill="#0052B4"/>
<path d="M12.8004 13.2211H12.8359C12.8359 13.2091 12.8359 13.1975 12.8359 13.1855C12.8241 13.1974 12.8123 13.2092 12.8004 13.2211Z" fill="#F0F0F0"/>
<path d="M12.8345 7.12995C12.8345 4.88962 12.8345 3.42169 12.8345 0.487061H12.8324C5.8015 0.488254 0.102295 6.18816 0.102295 13.2193H6.74518V9.47864L10.4858 13.2193H12.8005C12.8118 13.2079 12.8232 13.1966 12.8346 13.1852C12.8346 12.3274 12.8346 11.5621 12.8346 10.8707L9.09383 7.12995H12.8345Z" fill="#F0F0F0"/>
<path d="M6.54381 2.14795C4.55246 3.28186 2.89693 4.93735 1.76306 6.9287V13.2195H5.08453V5.46952V5.46942H12.8346C12.8346 4.42184 12.8346 3.42386 12.8346 2.14795H6.54381Z" fill="#D80027"/>
<path d="M12.8342 11.6537L8.31054 7.13013H6.74487V7.13023L12.8341 13.2194H12.8342C12.8342 13.2194 12.8342 12.1398 12.8342 11.6537V11.6537Z" fill="#D80027"/>
<path d="M14.4952 7.13013V13.2194C14.4952 16.1856 18.3703 17.0945 18.3703 17.0945C18.3703 17.0945 22.2453 16.1856 22.2453 13.2194V7.13013H14.4952Z" fill="#338AF3"/>
<path d="M14.4952 13.2192C14.4952 16.1854 18.3703 17.0943 18.3703 17.0943C18.3703 17.0943 22.2453 16.1854 22.2453 13.2192H14.4952Z" fill="#A2001D"/>
<path d="M20.0309 9.89798H18.9237V8.79077H17.8166V9.89798H16.7095V11.0051H17.8166V14.3265H18.9237V11.0051H20.0309V9.89798Z" fill="black"/>
</g>
<defs>
<clipPath id="clip0_548_5341">
<rect width="25.4644" height="25.4644" fill="white" transform="translate(0.102539 0.487305)"/>
</clipPath>
</defs>
</svg>
