<svg width="27" height="26" viewBox="0 0 27 26" fill="none" xmlns="http://www.w3.org/2000/svg">
<g clip-path="url(#clip0_548_5353)">
<path d="M13.7062 25.9515C20.738 25.9515 26.4384 20.2511 26.4384 13.2193C26.4384 6.18747 20.738 0.487061 13.7062 0.487061C6.67441 0.487061 0.973999 6.18747 0.973999 13.2193C0.973999 20.2511 6.67441 25.9515 13.7062 25.9515Z" fill="#D80027"/>
<path d="M21.2308 10.9362H15.4827L13.7065 5.46948L11.9302 10.9362H6.18213L10.8324 14.3148L9.05613 19.7816L13.7065 16.403L18.3568 19.7817L16.5805 14.3148L21.2308 10.9362ZM12.1339 13.8919L12.7346 12.0433H14.6783L15.279 13.8919V13.8919L13.7065 15.0344L12.134 13.8919L12.1339 13.8919ZM14.3186 10.9362H13.0944L13.7065 9.05221L14.3186 10.9362ZM16.2207 13.2077L15.8424 12.0433H17.8233L16.2207 13.2077ZM11.5705 12.0433L11.1922 13.2077L9.58954 12.0433H11.5705ZM11.1621 16.8831L11.7742 14.9991L12.7647 15.7187L11.1621 16.8831ZM14.6483 15.7188L15.6387 14.9992L16.2509 16.8831L14.6483 15.7188Z" fill="#FFDA44"/>
</g>
<defs>
<clipPath id="clip0_548_5353">
<rect width="25.4644" height="25.4644" fill="white" transform="translate(0.973633 0.487305)"/>
</clipPath>
</defs>
</svg>
