<svg width="27" height="26" viewBox="0 0 27 26" fill="none" xmlns="http://www.w3.org/2000/svg">
<g clip-path="url(#clip0_548_5356)">
<path d="M13.5782 25.9515C20.61 25.9515 26.3104 20.2511 26.3104 13.2193C26.3104 6.18747 20.61 0.487061 13.5782 0.487061C6.54636 0.487061 0.845947 6.18747 0.845947 13.2193C0.845947 20.2511 6.54636 25.9515 13.5782 25.9515Z" fill="#F0F0F0"/>
<path d="M7.72751 18.2017L4.5752 22.2221C6.87913 24.5263 10.0618 25.9517 13.5778 25.9517C18.8413 25.9517 23.358 22.7573 25.297 18.2017H7.72751Z" fill="#FFDA44"/>
<path d="M25.3168 8.28321C23.3886 3.70304 18.8591 0.487061 13.5778 0.487061C10.0618 0.487061 6.87913 1.91242 4.5752 4.21666L7.76372 8.28321H25.3168Z" fill="#496E2D"/>
<path d="M3.61365 9.85181V16.5408H25.8716C26.1572 15.4819 26.3102 14.3686 26.3102 13.2194C26.3102 12.0535 26.1532 10.9245 25.8596 9.85181H3.61365Z" fill="black"/>
<path d="M4.57512 4.21631C-0.39711 9.18854 -0.39711 17.2502 4.57512 22.2224C6.62983 20.1677 8.60596 18.1916 13.5782 13.2194L4.57512 4.21631Z" fill="#A2001D"/>
<path d="M5.99858 9.89795L6.82295 12.4352H9.49104L7.33263 14.0035L8.15694 16.5409L5.99858 14.9727L3.84012 16.5409L4.66464 14.0035L2.50623 12.4352H5.17412L5.99858 9.89795Z" fill="#FFDA44"/>
<path d="M3.58655 13.2192H8.41206V15.4336H3.58655V13.2192Z" fill="#F0F0F0"/>
<path d="M9.32572 10.6809L8.54284 9.89795L5.99898 12.4418L3.45512 9.89795L2.67224 10.6809L5.21834 13.2225L2.67224 15.7686L3.45512 16.5409L5.99898 14.0016L8.54284 16.5409L9.32572 15.7686L6.77962 13.2225L9.32572 10.6809Z" fill="black"/>
</g>
<defs>
<clipPath id="clip0_548_5356">
<rect width="25.4644" height="25.4644" fill="white" transform="translate(0.845703 0.487305)"/>
</clipPath>
</defs>
</svg>
