<svg width="27" height="26" viewBox="0 0 27 26" fill="none" xmlns="http://www.w3.org/2000/svg">
<g clip-path="url(#clip0_548_5365)">
<path d="M25.39 17.6479C25.9019 16.2686 26.182 14.7767 26.182 13.2193C26.182 11.6619 25.9019 10.17 25.39 8.79075L13.4497 7.68359L1.50946 8.79075C0.997688 10.17 0.717529 11.6619 0.717529 13.2193C0.717529 14.7767 0.997688 16.2686 1.50946 17.6479L13.4497 18.7551L25.39 17.6479Z" fill="#6DA544"/>
<path d="M25.39 8.7907C23.591 3.94227 18.9241 0.487061 13.4497 0.487061C7.97528 0.487061 3.30837 3.94227 1.5094 8.7907H25.39Z" fill="#FFDA44"/>
<path d="M13.4497 25.9516C18.9241 25.9516 23.591 22.4964 25.39 17.6479H1.5094C3.30837 22.4964 7.97528 25.9516 13.4497 25.9516Z" fill="#D80027"/>
<path d="M22.1807 11.2592H15.5108L13.4497 4.91577L11.3886 11.2592H4.71875L10.1148 15.1796L8.05365 21.5231L13.4497 17.648L18.8458 21.523L16.7847 15.1795L22.1807 11.2592Z" fill="#F0F0F0"/>
</g>
<defs>
<clipPath id="clip0_548_5365">
<rect width="25.4644" height="25.4644" fill="white" transform="translate(0.717773 0.487305)"/>
</clipPath>
</defs>
</svg>
