<svg width="27" height="26" viewBox="0 0 27 26" fill="none" xmlns="http://www.w3.org/2000/svg">
<g clip-path="url(#clip0_548_5370)">
<path d="M13.3213 25.9515C20.3531 25.9515 26.0535 20.2511 26.0535 13.2193C26.0535 6.18747 20.3531 0.487061 13.3213 0.487061C6.28952 0.487061 0.589111 6.18747 0.589111 13.2193C0.589111 20.2511 6.28952 25.9515 13.3213 25.9515Z" fill="#F0F0F0"/>
<path d="M4.31853 22.2224C4.85264 22.7565 5.42251 23.2328 6.02027 23.6522L23.7543 5.9181C23.335 5.32033 22.8587 4.75047 22.3245 4.21636C21.7904 3.68225 21.2206 3.20599 20.6228 2.78662L2.88879 20.5207C3.30811 21.1184 3.78443 21.6883 4.31853 22.2224V22.2224Z" fill="#A2001D"/>
<path d="M4.31844 4.21614C0.301621 8.23296 -0.469474 14.2654 2.00351 19.057L19.1593 1.90132C14.3677 -0.571668 8.33515 0.199526 4.31844 4.21614V4.21614Z" fill="#0052B4"/>
<path d="M22.3245 22.2225C26.3412 18.2058 27.1123 12.1732 24.6394 7.38159L7.48364 24.5374C12.2752 27.0103 18.3077 26.2393 22.3245 22.2225Z" fill="#496E2D"/>
<path d="M11.1073 7.68353L9.68057 8.3546L10.4403 9.73635L8.89112 9.44003L8.69476 11.0049L7.61571 9.85392L6.5366 11.0049L6.34035 9.44003L4.7911 9.7363L5.5508 8.35456L4.12415 7.68353L5.55085 7.0124L4.7911 5.63076L6.3403 5.92708L6.53665 4.36206L7.61571 5.51313L8.69481 4.36206L8.89112 5.92708L10.4403 5.63076L9.68066 7.01245L11.1073 7.68353Z" fill="#FFDA44"/>
</g>
<defs>
<clipPath id="clip0_548_5370">
<rect width="25.4644" height="25.4644" fill="white" transform="translate(0.589355 0.487305)"/>
</clipPath>
</defs>
</svg>
