<svg width="26" height="26" viewBox="0 0 26 26" fill="none" xmlns="http://www.w3.org/2000/svg">
<g clip-path="url(#clip0_548_5376)">
<path d="M13.1933 25.9515C20.2251 25.9515 25.9255 20.2511 25.9255 13.2193C25.9255 6.18747 20.2251 0.487061 13.1933 0.487061C6.16147 0.487061 0.46106 6.18747 0.46106 13.2193C0.46106 20.2511 6.16147 25.9515 13.1933 25.9515Z" fill="#0052B4"/>
<path d="M18.6573 14.1078C18.7042 13.8185 18.7289 13.5218 18.7289 13.2195C18.7289 13.5218 18.7042 13.8185 18.6573 14.1078L20.9432 13.2195L18.6573 12.3313L17.4018 11.8434L15.3619 11.0508L14.5692 9.01093C15.9058 9.44905 16.9635 10.5068 17.4017 11.8434L18.6573 12.3313C18.2778 9.98892 16.4237 8.13469 14.0814 7.75531L13.1932 5.46948L12.3049 7.75536C9.96256 8.13484 8.10843 9.98897 7.729 12.3313L5.44312 13.2195L7.72905 14.1078C8.10848 16.4501 9.96261 18.3043 12.3049 18.6837L13.1932 20.9696L14.0814 18.6837C16.4237 18.3043 18.2779 16.4501 18.6573 14.1078V14.1078ZM14.5066 11.9062L13.1932 13.2195H17.8864L14.5065 14.5329L13.1932 13.2195V17.9128L11.8797 14.5329L13.1932 13.2195H8.49989L11.8797 11.9062L13.1932 13.2195V8.52626L14.5066 11.9062ZM11.817 9.01098L11.0244 11.0509L8.98456 11.8435C9.42268 10.5068 10.4804 9.44915 11.817 9.01098ZM8.98461 14.5956L11.0244 15.3883L11.817 17.4281C10.4804 16.9899 9.42278 15.9323 8.98461 14.5956ZM14.5693 17.4281L15.3619 15.3883L17.4017 14.5956C16.9635 15.9323 15.9059 16.9899 14.5693 17.4281Z" fill="#F0F0F0"/>
<path d="M17.8867 13.2192H13.1935L14.5069 14.5326L17.8867 13.2192Z" fill="#0052B4"/>
<path d="M8.50049 13.2194H13.1938L11.8803 11.906L8.50049 13.2194Z" fill="#0052B4"/>
<path d="M13.1938 17.9126V13.2192L11.8804 14.5326L13.1938 17.9126Z" fill="#0052B4"/>
<path d="M13.1935 13.2191L14.5069 11.9058L13.1935 8.52588V13.2191Z" fill="#0052B4"/>
<path d="M12.6393 2.14795H13.7464V4.36226H12.6393V2.14795Z" fill="#F0F0F0"/>
<path d="M2.12134 12.6658H4.33565V13.7729H2.12134V12.6658Z" fill="#F0F0F0"/>
<path d="M12.6393 22.0764H13.7464V24.2907H12.6393V22.0764Z" fill="#F0F0F0"/>
<path d="M22.0498 12.6658H24.2641V13.7729H22.0498V12.6658Z" fill="#F0F0F0"/>
</g>
<defs>
<clipPath id="clip0_548_5376">
<rect width="25.4644" height="25.4644" fill="white" transform="translate(0.461426 0.487305)"/>
</clipPath>
</defs>
</svg>
