<svg width="26" height="26" viewBox="0 0 26 26" fill="none" xmlns="http://www.w3.org/2000/svg">
<g clip-path="url(#clip0_548_5389)">
<path d="M13.219 25.8233C20.2508 25.8233 25.9513 20.1229 25.9513 13.0911C25.9513 6.05929 20.2508 0.358887 13.219 0.358887C6.18722 0.358887 0.486816 6.05929 0.486816 13.0911C0.486816 20.1229 6.18722 25.8233 13.219 25.8233Z" fill="#0052B4"/>
<path d="M13.219 25.8233C20.2508 25.8233 25.9513 20.1229 25.9513 13.0911C25.9513 6.05929 20.2508 0.358887 13.219 0.358887C6.18722 0.358887 0.486816 6.05929 0.486816 13.0911C0.486816 20.1229 6.18722 25.8233 13.219 25.8233Z" fill="#FFDA44"/>
<path d="M13.2191 0.358887C6.56037 0.358887 1.09656 5.47072 0.5354 11.9839H25.9029C25.3417 5.47072 19.8779 0.358887 13.2191 0.358887V0.358887Z" fill="#0052B4"/>
<path d="M13.2194 25.8233C19.8781 25.8233 25.3419 20.7115 25.9031 14.1982H0.535645C1.09681 20.7115 6.56062 25.8233 13.2194 25.8233Z" fill="#0052B4"/>
<path d="M11.005 17.5197L9.57832 18.1908L10.338 19.5725L8.78882 19.2761L8.59252 20.8411L7.51341 19.6901L6.43436 20.8411L6.23805 19.2761L4.6888 19.5724L5.44856 18.1907L4.02185 17.5197L5.44861 16.8486L4.6888 15.4669L6.238 15.7633L6.43441 14.1982L7.51341 15.3493L8.59257 14.1982L8.78882 15.7633L10.3381 15.4669L9.57837 16.8486L11.005 17.5197Z" fill="#F0F0F0"/>
</g>
<defs>
<clipPath id="clip0_548_5389">
<rect width="25.4644" height="25.4644" fill="white" transform="translate(0.487305 0.358887)"/>
</clipPath>
</defs>
</svg>
