<svg width="26" height="26" viewBox="0 0 26 26" fill="none" xmlns="http://www.w3.org/2000/svg">
<g clip-path="url(#clip0_548_5396)">
<path d="M13.091 25.8233C20.1228 25.8233 25.8232 20.1229 25.8232 13.0911C25.8232 6.05929 20.1228 0.358887 13.091 0.358887C6.05917 0.358887 0.358765 6.05929 0.358765 13.0911C0.358765 20.1229 6.05917 25.8233 13.091 25.8233Z" fill="#F0F0F0"/>
<path d="M25.7495 14.4767L25.7482 14.4749L25.7479 14.4767H25.7495Z" fill="#0052B4"/>
<path d="M25.7481 14.4748C25.7481 14.4747 25.7481 14.4746 25.7481 14.4744L11.7852 0.424805C11.1553 0.489013 10.539 0.599127 9.93961 0.751764C4.43198 2.15405 0.358765 13.0908 0.358765 13.0908C0.358765 13.0908 18.1838 25.0191 20.2173 23.6429C20.6242 23.3675 21.0143 23.0693 21.3857 22.75L13.1106 14.4748H25.7481Z" fill="#0052B4"/>
<path d="M22.5017 13.0911L10.1191 0.708496C4.52101 2.04722 0.358765 7.08271 0.358765 13.0911C0.358765 20.1229 6.05922 25.8233 13.091 25.8233C15.7582 25.8233 18.2335 25.0026 20.2792 23.6007L9.76951 13.0911H22.5017Z" fill="#D80027"/>
<path d="M12.4677 19.1582L10.9127 18.4268L11.7408 16.9209L10.0523 17.2439L9.83832 15.5381L8.66223 16.7927L7.48614 15.5381L7.27213 17.2439L5.58367 16.9208L6.41171 18.4268L4.85669 19.1582L6.41171 19.8896L5.58367 21.3956L7.27223 21.0726L7.48609 22.7783L8.66223 21.5237L9.83832 22.7783L10.0523 21.0726L11.7407 21.3956L10.9127 19.8897L12.4677 19.1582Z" fill="#F0F0F0"/>
<path d="M11.4303 7.42009L10.2993 6.88817L10.9016 5.79286L9.67346 6.0278L9.51784 4.78711L8.66245 5.6996L7.80705 4.78711L7.65138 6.0278L6.42327 5.79286L7.02556 6.88817L5.89453 7.42009L8.66245 7.97375L11.4303 7.42009Z" fill="#F0F0F0"/>
<path d="M11.9836 7.42017C11.9836 9.25455 10.4966 10.7416 8.66217 10.7416C6.82778 10.7416 5.3407 9.25455 5.3407 7.42017" fill="#F0F0F0"/>
</g>
<defs>
<clipPath id="clip0_548_5396">
<rect width="25.4644" height="25.4644" fill="white" transform="translate(0.358398 0.358887)"/>
</clipPath>
</defs>
</svg>
