<svg width="26" height="26" viewBox="0 0 26 26" fill="none" xmlns="http://www.w3.org/2000/svg">
<g clip-path="url(#clip0_548_5406)">
<path d="M12.9626 25.8233C19.9944 25.8233 25.6948 20.1229 25.6948 13.0911C25.6948 6.05929 19.9944 0.358887 12.9626 0.358887C5.93075 0.358887 0.230347 6.05929 0.230347 13.0911C0.230347 20.1229 5.93075 25.8233 12.9626 25.8233Z" fill="#F0F0F0"/>
<path d="M12.9626 0.358887C7.48822 0.358887 2.82131 3.81409 1.02234 8.66253H24.903C23.1039 3.81409 18.437 0.358887 12.9626 0.358887V0.358887Z" fill="#A2001D"/>
<path d="M12.9626 25.8234C18.437 25.8234 23.1039 22.3682 24.9029 17.5198H1.02234C2.82131 22.3682 7.48822 25.8234 12.9626 25.8234Z" fill="#0052B4"/>
</g>
<defs>
<clipPath id="clip0_548_5406">
<rect width="25.4644" height="25.4644" fill="white" transform="translate(0.230469 0.358887)"/>
</clipPath>
</defs>
</svg>
