<svg width="26" height="26" viewBox="0 0 26 26" fill="none" xmlns="http://www.w3.org/2000/svg">
<g clip-path="url(#clip0_548_5410)">
<path d="M25.5665 13.0911C25.5665 20.1229 19.866 25.8233 12.8343 25.8233C5.8025 25.8233 0.102051 20.1229 0.102051 13.0911C0.102051 13.0941 12.8343 0.360279 12.8343 0.358887C19.866 0.358887 25.5665 6.05934 25.5665 13.0911Z" fill="#0052B4"/>
<path d="M12.8004 13.0924H12.8359C12.8359 13.0805 12.8359 13.0689 12.8359 13.0569C12.8241 13.0688 12.8123 13.0806 12.8004 13.0924Z" fill="#F0F0F0"/>
<path d="M12.8345 7.00177C12.8345 4.76145 12.8345 3.29351 12.8345 0.358887H12.8324C5.80155 0.36008 0.102295 6.05999 0.102295 13.0911H6.74518V9.35047L10.4859 13.0911H12.8005C12.8118 13.0798 12.8232 13.0684 12.8346 13.057C12.8346 12.1993 12.8346 11.4339 12.8346 10.7425L9.09383 7.00177H12.8345Z" fill="#F0F0F0"/>
<path d="M6.54381 2.01978C4.55246 3.15369 2.89697 4.80918 1.76306 6.80052V13.0913H5.08453V5.34134V5.34124H12.8346C12.8346 4.29367 12.8346 3.29568 12.8346 2.01978H6.54381Z" fill="#D80027"/>
<path d="M12.8345 11.5255L8.31095 7.00195C8.31095 7.00195 6.74524 7.00205 6.74524 7.00195V7.00205L12.8345 13.0912H12.8345C12.8345 13.0912 12.8345 12.0116 12.8345 11.5255Z" fill="#D80027"/>
<path d="M22.1513 9.80664L22.4261 10.6524H23.3154L22.5959 11.1752L22.8707 12.0209L22.1513 11.4982L21.4317 12.0209L21.7066 11.1752L20.9871 10.6524H21.8764L22.1513 9.80664Z" fill="#D80027"/>
<path d="M18.9722 15.8962L19.3844 17.165H20.7184L19.6391 17.949L20.0514 19.2177L18.9722 18.4336L17.8929 19.2177L18.3052 17.949L17.226 17.165H18.5599L18.9722 15.8962Z" fill="#D80027"/>
<path d="M19.0921 5.93164L19.4356 6.98896H20.5473L19.6479 7.64223L19.9914 8.69951L19.0921 8.04603L18.1928 8.69951L18.5363 7.64223L17.637 6.98896H18.7485L19.0921 5.93164Z" fill="#D80027"/>
<path d="M16.0332 9.76978L16.4454 11.0385H17.7794L16.7001 11.8225L17.1124 13.0912L16.0332 12.3072L14.9539 13.0912L15.3662 11.8225L14.287 11.0385H15.6209L16.0332 9.76978Z" fill="#D80027"/>
</g>
<defs>
<clipPath id="clip0_548_5410">
<rect width="25.4644" height="25.4644" fill="white" transform="translate(0.102539 0.358887)"/>
</clipPath>
</defs>
</svg>
