<svg width="27" height="26" viewBox="0 0 27 26" fill="none" xmlns="http://www.w3.org/2000/svg">
<g clip-path="url(#clip0_548_5423)">
<path d="M13.7061 25.8233C20.7379 25.8233 26.4383 20.1229 26.4383 13.0911C26.4383 6.05929 20.7379 0.358887 13.7061 0.358887C6.67428 0.358887 0.973877 6.05929 0.973877 13.0911C0.973877 20.1229 6.67428 25.8233 13.7061 25.8233Z" fill="#F0F0F0"/>
<path d="M13.7061 0.358887C8.65832 0.358887 4.29674 3.2965 2.2373 7.55537H25.1749C23.1156 3.2965 18.7539 0.358887 13.7061 0.358887V0.358887Z" fill="#338AF3"/>
<path d="M13.7061 25.8232C18.7539 25.8232 23.1156 22.8856 25.175 18.6267H2.2373C4.29674 22.8856 8.65832 25.8232 13.7061 25.8232Z" fill="#338AF3"/>
<path d="M13.7062 9.21606C11.5661 9.21606 9.83118 10.951 9.83118 13.0911C9.83118 15.2312 11.5661 16.9661 13.7062 16.9661C15.8463 16.9661 17.5812 15.2312 17.5812 13.0911C17.5812 10.951 15.8463 9.21606 13.7062 9.21606ZM13.7062 15.3054C12.4833 15.3054 11.4919 14.3141 11.4919 13.0911C11.4919 11.8681 12.4833 10.8768 13.7062 10.8768C14.9291 10.8768 15.9205 11.8681 15.9205 13.0911C15.9205 14.3141 14.9291 15.3054 13.7062 15.3054Z" fill="#FFDA44"/>
<path d="M15.6241 13.6446L13.7064 13.0911L11.7887 13.6446L11.1495 14.7518H16.2633L15.6241 13.6446Z" fill="#0052B4"/>
<path d="M13.7063 10.323L12.4279 12.5373L13.7063 13.0909L14.9847 12.5373L13.7063 10.323Z" fill="#338AF3"/>
<path d="M11.7886 13.6447H15.624L14.9847 12.5376H12.4278L11.7886 13.6447Z" fill="#6DA544"/>
</g>
<defs>
<clipPath id="clip0_548_5423">
<rect width="25.4644" height="25.4644" fill="white" transform="translate(0.973633 0.358887)"/>
</clipPath>
</defs>
</svg>
