<svg width="27" height="26" viewBox="0 0 27 26" fill="none" xmlns="http://www.w3.org/2000/svg">
<g clip-path="url(#clip0_548_5438)">
<path d="M13.4497 25.8236C20.4816 25.8236 26.182 20.1232 26.182 13.0913C26.182 6.05954 20.4816 0.359131 13.4497 0.359131C6.41794 0.359131 0.717529 6.05954 0.717529 13.0913C0.717529 20.1232 6.41794 25.8236 13.4497 25.8236Z" fill="#F0F0F0"/>
<path d="M0.717529 13.0911C0.717529 18.5656 4.17273 23.2324 9.02117 25.0314V1.15088C4.17273 2.9498 0.717529 7.61676 0.717529 13.0911V13.0911Z" fill="#6DA544"/>
<path d="M26.1821 13.0911C26.1821 7.61676 22.7269 2.9498 17.8784 1.15088V25.0315C22.7269 23.2324 26.1821 18.5656 26.1821 13.0911V13.0911Z" fill="#6DA544"/>
</g>
<defs>
<clipPath id="clip0_548_5438">
<rect width="25.4644" height="25.4644" fill="white" transform="translate(0.717773 0.358887)"/>
</clipPath>
</defs>
</svg>
