<svg width="27" height="26" viewBox="0 0 27 26" fill="none" xmlns="http://www.w3.org/2000/svg">
<g clip-path="url(#clip0_548_5432)">
<path d="M2.10932 7.5554C1.29993 9.22929 0.845947 11.1071 0.845947 13.0911C0.845947 15.0751 1.29993 16.953 2.10932 18.6269L13.5782 19.734L25.047 18.6269C25.8564 16.953 26.3104 15.0751 26.3104 13.0911C26.3104 11.1071 25.8564 9.22929 25.047 7.5554L13.5782 6.44824L2.10932 7.5554Z" fill="#F0F0F0"/>
<path d="M2.10962 18.6267C4.16896 22.8856 8.53019 25.8232 13.578 25.8232C18.6258 25.8232 22.9871 22.8856 25.0464 18.6267H2.10962Z" fill="#6DA544"/>
<path d="M2.10962 7.55513H25.0464C22.9871 3.29625 18.6258 0.358643 13.578 0.358643C8.53024 0.358643 4.16896 3.29625 2.10962 7.55513Z" fill="#FF9811"/>
<path d="M13.5781 17.5193C16.0239 17.5193 18.0067 15.5365 18.0067 13.0907C18.0067 10.6448 16.0239 8.66211 13.5781 8.66211C11.1323 8.66211 9.14954 10.6448 9.14954 13.0907C9.14954 15.5365 11.1323 17.5193 13.5781 17.5193Z" fill="#FF9811"/>
</g>
<defs>
<clipPath id="clip0_548_5432">
<rect width="25.4644" height="25.4644" fill="white" transform="translate(0.845703 0.358887)"/>
</clipPath>
</defs>
</svg>
