<svg width="27" height="26" viewBox="0 0 27 26" fill="none" xmlns="http://www.w3.org/2000/svg">
<g clip-path="url(#clip0_548_5443)">
<path d="M26.0534 13.0911C26.0534 20.1229 20.353 25.8233 13.3212 25.8233C6.28944 25.8233 0.588989 20.1229 0.588989 13.0911C0.588989 13.0941 13.3212 0.360279 13.3212 0.358887C20.353 0.358887 26.0534 6.05934 26.0534 13.0911Z" fill="#FFDA44"/>
<path d="M13.3213 6.44824V10.7425L8.8927 6.44824H13.3213Z" fill="#0052B4"/>
<path d="M7.23202 13.0911H10.9727L7.23202 8.10889L6.67847 11.9839L7.23202 13.0911Z" fill="#0052B4"/>
<path d="M13.2876 13.0926H13.3231C13.3231 13.0807 13.3231 13.0691 13.3231 13.0571C13.3113 13.069 13.2995 13.0808 13.2876 13.0926Z" fill="#F0F0F0"/>
<path d="M13.3215 7.00202C13.3215 4.76169 13.3215 3.29376 13.3215 0.359131H13.3193C6.28844 0.360325 0.589233 6.06023 0.589233 13.0913H7.23212V9.35071L10.9728 13.0913H13.2874C13.2988 13.08 13.3101 13.0687 13.3215 13.0573C13.3215 12.1995 13.3215 11.4341 13.3215 10.7428L9.58077 7.00202H13.3215Z" fill="#F0F0F0"/>
<path d="M13.3211 11.5255L8.79748 7.00195H7.23181V7.00205L13.321 13.0912H13.3211C13.3211 13.0912 13.3211 12.0116 13.3211 11.5255V11.5255Z" fill="#D80027"/>
<path d="M7.03063 2.01978C6.53979 2.29929 6.06954 2.61078 5.62232 2.95082H6.14474L4.76399 3.95418L5.29129 5.57739L3.91054 4.57423L3.76362 4.68101C3.19032 5.33204 2.68203 6.04166 2.24988 6.80052V13.0913H5.57135V5.34134V5.34124H13.3214C13.3214 4.29367 13.3214 3.29568 13.3214 2.01978H7.03063Z" fill="#D80027"/>
<path d="M6.02824 2.6543C5.89092 2.75044 5.75554 2.84926 5.6222 2.95067L4.76402 3.95403L3.91056 4.57403L3.7624 4.68165C3.44976 5.03676 3.15657 5.40938 2.88452 5.79796C3.19462 5.94846 3.54272 6.03306 3.91056 6.03306C5.20994 6.03306 6.26323 4.97977 6.26323 3.68038C6.26333 3.31244 6.17878 2.96445 6.02824 2.6543V2.6543Z" fill="#0052B4"/>
<path d="M3.76257 4.68167L3.91073 4.57404L5.29148 5.57725L4.76414 3.95404L6.14479 2.95068H5.62227C4.94617 3.4649 4.32314 4.04501 3.76257 4.68167V4.68167Z" fill="#FFDA44"/>
<path d="M9.38942 2.57324L9.66426 3.41899H10.5535L9.8341 3.94176L10.1088 4.7875L9.38942 4.26479L8.67 4.7875L8.94464 3.94176L8.22522 3.41899H9.11454L9.38942 2.57324Z" fill="#FFDA44"/>
<path d="M3.91073 8.10913L4.18557 8.95488H5.07484L4.35547 9.47769L4.63015 10.3234L3.91073 9.80068L3.19126 10.3234L3.46595 9.47769L2.74658 8.95488H3.63585L3.91073 8.10913Z" fill="#FFDA44"/>
</g>
<defs>
<clipPath id="clip0_548_5443">
<rect width="25.4644" height="25.4644" fill="white" transform="translate(0.589355 0.358887)"/>
</clipPath>
</defs>
</svg>
