<svg width="26" height="26" viewBox="0 0 26 26" fill="none" xmlns="http://www.w3.org/2000/svg">
<g clip-path="url(#clip0_548_5460)">
<path d="M18.7289 1.62226C17.055 0.81287 15.1772 0.358887 13.1932 0.358887C11.2092 0.358887 9.33134 0.81287 7.65745 1.62226L6.55029 13.0911L7.65745 24.5599C9.33134 25.3693 11.2092 25.8233 13.1932 25.8233C15.1772 25.8233 17.055 25.3693 18.7289 24.5599L19.8361 13.0911L18.7289 1.62226Z" fill="#F0F0F0"/>
<path d="M7.65755 1.62256C3.39867 3.6819 0.46106 8.04313 0.46106 13.091C0.46106 18.1388 3.39867 22.5 7.65755 24.5594V1.62256Z" fill="#6DA544"/>
<path d="M18.729 1.62256V24.5594C22.9879 22.5 25.9255 18.1387 25.9255 13.091C25.9255 8.04318 22.9879 3.6819 18.729 1.62256Z" fill="#6DA544"/>
<path d="M16.515 16.9661L13.1935 6.44824L9.87207 16.9661H12.3632V19.734H14.0239V16.9661H16.515Z" fill="#6DA544"/>
</g>
<defs>
<clipPath id="clip0_548_5460">
<rect width="25.4644" height="25.4644" fill="white" transform="translate(0.461426 0.358887)"/>
</clipPath>
</defs>
</svg>
