<svg width="27" height="26" viewBox="0 0 27 26" fill="none" xmlns="http://www.w3.org/2000/svg">
<g clip-path="url(#clip0_548_5474)">
<path d="M13.4499 25.6954C20.4817 25.6954 26.1821 19.995 26.1821 12.9632C26.1821 5.93137 20.4817 0.230957 13.4499 0.230957C6.41806 0.230957 0.717651 5.93137 0.717651 12.9632C0.717651 19.995 6.41806 25.6954 13.4499 25.6954Z" fill="#F0F0F0"/>
<path d="M3.79815 4.65918C3.35138 5.17807 2.94579 5.73326 2.5863 6.31989H24.3132C23.9537 5.73326 23.5482 5.17802 23.1014 4.65918H3.79815Z" fill="#D80027"/>
<path d="M3.79798 21.2667H23.1013C23.548 20.7478 23.9536 20.1926 24.3131 19.606H2.58618C2.94562 20.1925 3.35121 20.7478 3.79798 21.2667V21.2667Z" fill="#D80027"/>
<path d="M11.8199 10.6345L12.8646 12.0741L14.5564 11.5255L13.5101 12.9639L14.5547 14.4034L12.8634 13.8527L11.8172 15.2911L11.8182 13.5125L10.127 12.9618L11.8188 12.4133L11.8199 10.6345Z" fill="#D80027"/>
<path d="M8.969 16.5613C6.98178 16.5613 5.37076 14.9503 5.37076 12.963C5.37076 10.9758 6.98178 9.3648 8.969 9.3648C9.5886 9.3648 10.1716 9.52147 10.6806 9.7973C9.88214 9.01641 8.7901 8.53442 7.58507 8.53442C5.13919 8.53442 3.15649 10.5172 3.15649 12.963C3.15649 15.4088 5.13924 17.3916 7.58507 17.3916C8.7901 17.3916 9.88214 16.9096 10.6806 16.1287C10.1716 16.4046 9.58865 16.5613 8.969 16.5613Z" fill="#D80027"/>
</g>
<defs>
<clipPath id="clip0_548_5474">
<rect width="25.4644" height="25.4644" fill="white" transform="translate(0.717773 0.230957)"/>
</clipPath>
</defs>
</svg>
