<svg width="27" height="26" viewBox="0 0 27 26" fill="none" xmlns="http://www.w3.org/2000/svg">
<g clip-path="url(#clip0_548_5481)">
<path d="M13.3212 25.6954C20.353 25.6954 26.0534 19.995 26.0534 12.9632C26.0534 5.93137 20.353 0.230957 13.3212 0.230957C6.2894 0.230957 0.588989 5.93137 0.588989 12.9632C0.588989 19.995 6.2894 25.6954 13.3212 25.6954Z" fill="#338AF3"/>
<path d="M12.9201 20.9801C12.5769 20.9635 12.2929 20.7404 12.1817 20.4376C11.9852 20.6938 11.6475 20.8228 11.3148 20.7371C10.9815 20.6513 10.7485 20.3756 10.7003 20.0556C10.4556 20.267 10.0991 20.3246 9.7908 20.1735C9.48189 20.0218 9.30921 19.7046 9.32692 19.3818C9.04517 19.5401 8.68424 19.5247 8.41244 19.3143C8.14118 19.1039 8.03544 18.759 8.11736 18.4463C7.80954 18.5448 7.45971 18.4573 7.2355 18.1966C7.01129 17.9364 6.97693 17.5771 7.11982 17.2876C6.79873 17.3219 6.47326 17.1658 6.30605 16.8658C6.13829 16.5658 6.17709 16.2065 6.37578 15.9512C6.05414 15.9202 5.76627 15.7016 5.66332 15.3739C5.55982 15.0462 5.67053 14.7018 5.91687 14.492C5.60797 14.3967 5.37103 14.1244 5.33616 13.7829C5.3013 13.4413 5.47845 13.1275 5.7613 12.9713C5.4784 12.8163 5.30015 12.5025 5.33392 12.1615H5.33447C5.36824 11.8193 5.60518 11.5465 5.91349 11.4501C5.66715 11.2409 5.55534 10.8971 5.65775 10.5693C5.76015 10.2411 6.04743 10.0218 6.36911 9.98972C6.17037 9.73508 6.13053 9.37574 6.29715 9.07524C6.46376 8.77519 6.78928 8.61852 7.11091 8.65229C6.96698 8.36278 7.00075 8.00349 7.22441 7.74224C7.44752 7.48152 7.79736 7.39349 8.10572 7.49092C8.02266 7.17869 8.12785 6.83327 8.39911 6.6224C8.66981 6.41142 9.03074 6.39536 9.31249 6.55257C9.29424 6.22989 9.46637 5.91263 9.77473 5.76039C10.0825 5.60869 10.4396 5.66519 10.6848 5.87662C10.7318 5.55672 10.9649 5.27994 11.2976 5.1935C11.6297 5.10716 11.9674 5.23503 12.1645 5.49077C12.2757 5.18798 12.5592 4.96432 12.9024 4.94717C13.2451 4.92951 13.5495 5.12208 13.6912 5.41169C13.8606 5.1371 14.1828 4.97437 14.5222 5.02585C14.862 5.07678 15.1228 5.32694 15.2036 5.63978C15.4251 5.40388 15.7738 5.31038 16.096 5.4288C16.4187 5.54782 16.6235 5.84563 16.639 6.16891C16.9031 5.98295 17.264 5.96132 17.5558 6.1429C17.8475 6.32394 17.9876 6.65662 17.9377 6.97601C18.2339 6.84705 18.5915 6.89853 18.8406 7.13432C19.0897 7.37071 19.1606 7.72443 19.0477 8.02722C19.3637 7.96023 19.7037 8.08203 19.9007 8.36378C20.0978 8.64498 20.0961 9.00591 19.9251 9.27995C20.2478 9.27771 20.5562 9.46596 20.6929 9.78093C20.8291 10.0965 20.7543 10.4502 20.5313 10.6844C20.8485 10.7475 21.1125 10.9938 21.1823 11.3304C21.2514 11.6669 21.107 11.9974 20.8418 12.1818C21.1385 12.3075 21.3478 12.6014 21.3483 12.9446V12.9557V12.9629C21.3483 13.3061 21.1402 13.6006 20.8435 13.7274C21.1092 13.9107 21.2548 14.2411 21.1856 14.5777C21.1169 14.9143 20.8535 15.1612 20.5362 15.2254C20.7599 15.459 20.8357 15.8122 20.7001 16.1283C20.5645 16.4438 20.2561 16.6326 19.9329 16.6309C20.1044 16.905 20.1072 17.2659 19.9107 17.5476C19.7142 17.8295 19.3749 17.9523 19.0588 17.8859C19.1723 18.1881 19.1019 18.5424 18.8534 18.7794C18.6043 19.0158 18.2472 19.0678 17.9511 18.9399C18.0014 19.2588 17.8619 19.5921 17.5707 19.7742C17.2795 19.9563 16.9186 19.9352 16.654 19.7498C16.639 20.0731 16.4353 20.3715 16.1132 20.4911C15.7911 20.6106 16.1132 20.4911 16.1126 20.4911C15.7905 20.6101 15.4417 20.5171 15.2197 20.2819C15.14 20.5952 14.8799 20.8459 14.54 20.898C14.2006 20.9495 13.8779 20.7878 13.7079 20.5132C13.5729 20.7917 13.2872 20.981 12.9617 20.981C12.9478 20.9812 12.934 20.9807 12.9201 20.9801V20.9801Z" fill="#F3F3F3"/>
<path d="M13.3215 18.4987C16.3788 18.4987 18.8572 16.0203 18.8572 12.963C18.8572 9.90568 16.3788 7.42725 13.3215 7.42725C10.2642 7.42725 7.78577 9.90568 7.78577 12.963C7.78577 16.0203 10.2642 18.4987 13.3215 18.4987Z" fill="#338AF3"/>
<path d="M14.533 11.084C14.805 10.8822 14.982 10.5598 14.982 10.1951V9.64158C14.982 9.03009 14.4864 8.53442 13.8749 8.53442H12.7678C12.1563 8.53442 11.6606 9.03009 11.6606 9.64158V10.1951C11.6606 10.5598 11.8377 10.8822 12.1096 11.084L11.1071 21.2666C11.1071 21.2666 11.6606 21.8202 13.3214 21.8202C14.9821 21.8202 15.5357 21.2666 15.5357 21.2666L14.533 11.084Z" fill="#BDBCC1"/>
<path d="M13.3216 8.53442L14.2834 11.4946H17.3961L14.878 13.3242L15.8397 16.2845L13.3216 14.455L10.8034 16.2845L11.7653 13.3242L9.24719 11.4946H12.3598L13.3216 8.53442Z" fill="#F0F0F0"/>
</g>
<defs>
<clipPath id="clip0_548_5481">
<rect width="25.4644" height="25.4644" fill="white" transform="translate(0.589355 0.230957)"/>
</clipPath>
</defs>
</svg>
