<svg width="26" height="26" viewBox="0 0 26 26" fill="none" xmlns="http://www.w3.org/2000/svg">
<g clip-path="url(#clip0_548_5466)">
<path d="M13.1933 25.6954C20.2251 25.6954 25.9255 19.995 25.9255 12.9632C25.9255 5.93137 20.2251 0.230957 13.1933 0.230957C6.16147 0.230957 0.46106 5.93137 0.46106 12.9632C0.46106 19.995 6.16147 25.6954 13.1933 25.6954Z" fill="#F0F0F0"/>
<path d="M13.1933 0.230713C9.33429 0.230713 5.87655 1.94777 3.54163 4.65929H22.8449C20.51 1.94777 17.0523 0.230713 13.1933 0.230713V0.230713Z" fill="#0052B4"/>
<path d="M22.8451 21.2664H3.54175C5.87667 23.9779 9.33441 25.6949 13.1934 25.6949C17.0524 25.6949 20.5102 23.9779 22.8451 21.2664Z" fill="#0052B4"/>
<path d="M24.0567 6.32007H2.32981C1.14467 8.25402 0.46106 10.5286 0.46106 12.963C0.46106 15.3973 1.14467 17.6719 2.32981 19.6058H24.0567C25.2419 17.6719 25.9255 15.3973 25.9255 12.963C25.9255 10.5286 25.2419 8.25402 24.0567 6.32007Z" fill="#D80027"/>
<path d="M8.29438 17.862C11.0001 17.862 13.1935 15.6685 13.1935 12.9628C13.1935 10.2571 11.0001 8.06372 8.29438 8.06372C5.58867 8.06372 3.39526 10.2571 3.39526 12.9628C3.39526 15.6685 5.58867 17.862 8.29438 17.862Z" fill="#F0F0F0"/>
<path d="M8.29394 8.06372L9.39314 11.4468H12.9561L10.0726 13.5377L11.1804 16.9309L8.29394 14.8299L5.41189 16.9269L6.51531 13.5377L3.6344 11.4468H7.1947L8.29394 8.06372Z" fill="#D80027"/>
</g>
<defs>
<clipPath id="clip0_548_5466">
<rect width="25.4644" height="25.4644" fill="white" transform="translate(0.461426 0.230957)"/>
</clipPath>
</defs>
</svg>
