<svg width="26" height="26" viewBox="0 0 26 26" fill="none" xmlns="http://www.w3.org/2000/svg">
<g clip-path="url(#clip0_548_5487)">
<path d="M13.091 25.567C20.1228 25.567 25.8232 19.8666 25.8232 12.8348C25.8232 5.80295 20.1228 0.102539 13.091 0.102539C6.05917 0.102539 0.358765 5.80295 0.358765 12.8348C0.358765 19.8666 6.05917 25.567 13.091 25.567Z" fill="#F0F0F0"/>
<path d="M0.797119 16.156C1.5338 18.8894 3.1574 21.2585 5.34068 22.936V16.156H0.797119Z" fill="#D80027"/>
<path d="M11.9838 25.5183C12.3487 25.5497 12.7178 25.5668 13.0909 25.5668C18.9736 25.5668 23.9235 21.5769 25.3845 16.156H11.9838V25.5183Z" fill="#D80027"/>
<path d="M25.3845 9.51329C23.9235 4.09235 18.9736 0.102539 13.0909 0.102539C12.7178 0.102539 12.3487 0.119549 11.9838 0.150981V9.51329H25.3845Z" fill="#D80027"/>
<path d="M5.34068 2.73315C3.1574 4.41072 1.5338 6.77976 0.797119 9.51316H5.34068V2.73315Z" fill="#D80027"/>
<path d="M25.7154 11.1739H10.3232H10.3231V0.405029C9.14648 0.66594 8.03097 1.08884 7.00165 1.6505V11.1738V11.1739H0.466541C0.395668 11.7175 0.358765 12.2718 0.358765 12.8346C0.358765 13.3975 0.395668 13.9517 0.466541 14.4953H7.0016H7.00165V24.0187C8.03097 24.5803 9.14648 25.0033 10.3231 25.2641V14.4955V14.4954H25.7154C25.7862 13.9517 25.8232 13.3975 25.8232 12.8346C25.8232 12.2718 25.7862 11.7175 25.7154 11.1739V11.1739Z" fill="#0052B4"/>
</g>
<defs>
<clipPath id="clip0_548_5487">
<rect width="25.4644" height="25.4644" fill="white" transform="translate(0.358398 0.102539)"/>
</clipPath>
</defs>
</svg>
