<svg width="26" height="26" viewBox="0 0 26 26" fill="none" xmlns="http://www.w3.org/2000/svg">
<g clip-path="url(#clip0_548_5495)">
<path d="M12.9626 25.567C19.9944 25.567 25.6948 19.8666 25.6948 12.8348C25.6948 5.80295 19.9944 0.102539 12.9626 0.102539C5.93075 0.102539 0.230347 5.80295 0.230347 12.8348C0.230347 19.8666 5.93075 25.567 12.9626 25.567Z" fill="#F0F0F0"/>
<path d="M0.230347 12.8347C0.230347 17.6608 2.91555 21.8594 6.87323 24.0189V1.65063C2.91555 3.81004 0.230347 8.00869 0.230347 12.8347Z" fill="#D80027"/>
<path d="M24.9028 17.2634C25.4146 15.8841 25.6947 14.3922 25.6947 12.8348C25.6947 11.2774 25.4146 9.78551 24.9028 8.40625H1.02221C0.510383 9.78551 0.230225 11.2774 0.230225 12.8348C0.230225 14.3922 0.510383 15.8841 1.02221 17.2634L12.9624 18.3706L24.9028 17.2634Z" fill="#D80027"/>
<path d="M12.9628 25.5668C18.4373 25.5668 23.1041 22.1116 24.9032 17.2632H1.02258C2.82151 22.1116 7.48846 25.5668 12.9628 25.5668V25.5668Z" fill="#6DA544"/>
<path d="M0.230347 12.8346C0.230347 18.7172 4.22016 23.6672 9.6411 25.1282V0.541016C4.22016 2.00204 0.230347 6.95199 0.230347 12.8346Z" fill="#D80027"/>
<path d="M8.01995 5.7053L6.84565 4.53101L6.06282 5.31394L5.27999 4.53101L4.10569 5.7053L4.88857 6.48819L4.10559 7.27112L5.27989 8.44542L6.06277 7.66248L6.84565 8.44542L8.01995 7.27112L7.23707 6.48819L8.01995 5.7053Z" fill="#F0F0F0"/>
</g>
<defs>
<clipPath id="clip0_548_5495">
<rect width="25.4644" height="25.4644" fill="white" transform="translate(0.230469 0.102539)"/>
</clipPath>
</defs>
</svg>
