<svg width="26" height="26" viewBox="0 0 26 26" fill="none" xmlns="http://www.w3.org/2000/svg">
<g clip-path="url(#clip0_548_5503)">
<path d="M25.1281 16.1561C25.4135 15.0971 25.5667 13.9839 25.5667 12.8347C25.5667 11.6854 25.4135 10.5722 25.1281 9.51319L11.7274 0.150879C9.23955 0.365238 6.95656 1.29479 5.08447 2.73318L0.54091 9.51319C0.255479 10.5722 0.102295 11.6854 0.102295 12.8347C0.102295 13.9772 0.253639 15.0842 0.535887 16.1377L5.08442 22.9361C6.95651 24.3745 9.2395 25.3041 11.7273 25.5184L25.1281 16.1561Z" fill="#FFDA44"/>
<path d="M0.540771 16.156C1.27745 18.8894 2.90111 21.2585 5.08433 22.936V16.156H0.540771Z" fill="#D80027"/>
<path d="M11.7269 25.5183C12.0919 25.5497 12.461 25.5668 12.8341 25.5668C18.7167 25.5668 23.6667 21.5769 25.1277 16.156H11.7269V25.5183Z" fill="#D80027"/>
<path d="M25.1277 9.51329C23.6667 4.09235 18.7167 0.102539 12.8341 0.102539C12.461 0.102539 12.0919 0.119549 11.7269 0.150981V9.51329H25.1277Z" fill="#D80027"/>
<path d="M5.08433 2.73315C2.90111 4.41072 1.27745 6.77976 0.540771 9.51316H5.08433V2.73315Z" fill="#D80027"/>
<path d="M25.459 11.1739H10.0667H10.0666V0.405029C8.89001 0.66594 7.7745 1.08884 6.74518 1.6505V11.1739H0.210071C0.139298 11.7175 0.102295 12.2718 0.102295 12.8346C0.102295 13.3975 0.139298 13.9517 0.210071 14.4953H6.74513H6.74518V24.0187C7.7745 24.5803 8.89001 25.0033 10.0666 25.2641V14.4955V14.4954H25.459C25.5297 13.9517 25.5667 13.3975 25.5667 12.8346C25.5667 12.2718 25.5297 11.7175 25.459 11.1739V11.1739Z" fill="#0052B4"/>
</g>
<defs>
<clipPath id="clip0_548_5503">
<rect width="25.4644" height="25.4644" fill="white" transform="translate(0.102539 0.102539)"/>
</clipPath>
</defs>
</svg>
