<svg width="27" height="26" viewBox="0 0 27 26" fill="none" xmlns="http://www.w3.org/2000/svg">
<g clip-path="url(#clip0_548_5511)">
<path d="M25.6465 17.2631C26.1583 15.8838 26.4384 14.392 26.4384 12.8346C26.4384 11.2771 26.1583 9.78529 25.6465 8.40598L13.7062 7.29883L1.76593 8.40598C1.25416 9.78529 0.973999 11.2771 0.973999 12.8346C0.973999 14.392 1.25416 15.8838 1.76593 17.2631L13.7062 18.3703L25.6465 17.2631Z" fill="#D80027"/>
<path d="M13.7062 25.5668C19.1806 25.5668 23.8475 22.1116 25.6464 17.2632H1.76587C3.56489 22.1116 8.23175 25.5668 13.7062 25.5668Z" fill="#FFDA44"/>
<path d="M13.7062 0.102539C8.23175 0.102539 3.56489 3.55774 1.76587 8.40618H25.6465C23.8475 3.55774 19.1806 0.102539 13.7062 0.102539Z" fill="#F0F0F0"/>
</g>
<defs>
<clipPath id="clip0_548_5511">
<rect width="25.4644" height="25.4644" fill="white" transform="translate(0.973633 0.102539)"/>
</clipPath>
</defs>
</svg>
