<svg width="27" height="26" viewBox="0 0 27 26" fill="none" xmlns="http://www.w3.org/2000/svg">
<g clip-path="url(#clip0_548_5515)">
<path d="M13.5779 25.5672C20.6097 25.5672 26.3101 19.8668 26.3101 12.835C26.3101 5.80319 20.6097 0.102783 13.5779 0.102783C6.54611 0.102783 0.845703 5.80319 0.845703 12.835C0.845703 19.8668 6.54611 25.5672 13.5779 25.5672Z" fill="#F0F0F0"/>
<path d="M0.845703 12.835C0.845703 17.661 3.53086 21.8596 7.48859 24.0191V1.65088C3.53086 3.81033 0.845703 8.00893 0.845703 12.835Z" fill="#F0F0F0"/>
<path d="M13.578 0.102539C11.3722 0.102539 9.29757 0.663702 7.48865 1.65065V24.0188C9.29757 25.0058 11.3722 25.567 13.578 25.567C20.6097 25.567 26.3102 19.8665 26.3102 12.8348C26.3102 5.80299 20.6097 0.102539 13.578 0.102539Z" fill="#496E2D"/>
<path d="M19.0213 14.9403C17.4105 16.1042 15.1612 15.7419 13.9974 14.1312C12.8335 12.5203 13.1958 10.2711 14.8066 9.10726C15.3088 8.74439 15.8731 8.52989 16.4472 8.45533C15.3427 8.29016 14.1752 8.53904 13.1985 9.24473C11.2161 10.6772 10.7701 13.4455 12.2025 15.4281C13.635 17.4105 16.4033 17.8565 18.3859 16.4239C19.3626 15.7182 19.9655 14.6881 20.1554 13.5875C19.9044 14.109 19.5236 14.5774 19.0213 14.9403V14.9403Z" fill="#F0F0F0"/>
<path d="M18.9525 8.40625L19.8599 9.38409L21.0702 8.82348L20.4206 9.98848L21.3279 10.9664L20.019 10.7085L19.3694 11.8736L19.2102 10.5492L17.9014 10.2913L19.1118 9.7307L18.9525 8.40625Z" fill="#F0F0F0"/>
</g>
<defs>
<clipPath id="clip0_548_5515">
<rect width="25.4644" height="25.4644" fill="white" transform="translate(0.845703 0.102539)"/>
</clipPath>
</defs>
</svg>
