<svg width="27" height="26" viewBox="0 0 27 26" fill="none" xmlns="http://www.w3.org/2000/svg">
<g clip-path="url(#clip0_548_5526)">
<path d="M13.3212 25.5672C20.353 25.5672 26.0534 19.8668 26.0534 12.835C26.0534 5.80319 20.353 0.102783 13.3212 0.102783C6.2894 0.102783 0.588989 5.80319 0.588989 12.835C0.588989 19.8668 6.2894 25.5672 13.3212 25.5672Z" fill="#F0F0F0"/>
<path d="M8.33929 8.40618H25.2617C23.4628 3.55774 18.7958 0.102539 13.3215 0.102539C9.80549 0.102539 6.62278 1.5279 4.31885 3.83213L8.33929 8.40618Z" fill="black"/>
<path d="M8.33929 17.2632H25.2617C23.4628 22.1116 18.7958 25.5668 13.3215 25.5668C9.80549 25.5668 6.62278 24.1415 4.31885 21.8372L8.33929 17.2632Z" fill="#6DA544"/>
<path d="M4.31828 3.83154C-0.653946 8.80377 -0.653946 16.8654 4.31828 21.8377C6.37299 19.783 8.34912 17.8068 13.3214 12.8346L4.31828 3.83154Z" fill="#D80027"/>
</g>
<defs>
<clipPath id="clip0_548_5526">
<rect width="25.4644" height="25.4644" fill="white" transform="translate(0.589355 0.102539)"/>
</clipPath>
</defs>
</svg>
