<svg width="26" height="26" viewBox="0 0 26 26" fill="none" xmlns="http://www.w3.org/2000/svg">
<g clip-path="url(#clip0_548_5531)">
<path d="M13.1934 25.5672C20.2252 25.5672 25.9256 19.8668 25.9256 12.835C25.9256 5.80319 20.2252 0.102783 13.1934 0.102783C6.16159 0.102783 0.461182 5.80319 0.461182 12.835C0.461182 19.8668 6.16159 25.5672 13.1934 25.5672Z" fill="#F0F0F0"/>
<path d="M0.46106 12.8347C0.46106 19.8665 6.16151 25.5669 13.1933 25.5669C13.1933 20.725 13.1933 12.8347 13.1933 12.8347C13.1933 12.8347 4.88963 12.8347 0.46106 12.8347Z" fill="#0052B4"/>
<path d="M13.1932 0.102539C20.225 0.102539 25.9255 5.80299 25.9255 12.8348C21.0835 12.8348 13.1932 12.8348 13.1932 12.8348C13.1932 12.8348 13.1932 4.53111 13.1932 0.102539Z" fill="#D80027"/>
<path d="M8.04026 4.53101L8.86472 7.0684H11.5327L9.37426 8.63655L10.1987 11.1739L8.04026 9.60574L5.88185 11.1739L6.70626 8.63655L4.54785 7.0684H7.2158L8.04026 4.53101Z" fill="#0052B4"/>
<path d="M18.3464 14.4954L19.1709 17.0328H21.8388L19.6804 18.6009L20.5048 21.1383L18.3464 19.5701L16.188 21.1383L17.0124 18.6009L14.854 17.0328H17.522L18.3464 14.4954Z" fill="#D80027"/>
</g>
<defs>
<clipPath id="clip0_548_5531">
<rect width="25.4644" height="25.4644" fill="white" transform="translate(0.461426 0.102539)"/>
</clipPath>
</defs>
</svg>
