<svg width="26" height="27" viewBox="0 0 26 27" fill="none" xmlns="http://www.w3.org/2000/svg">
<g clip-path="url(#clip0_548_5537)">
<path d="M22.2221 22.7094C17.2499 27.6816 9.18831 27.6816 4.21598 22.7094C-0.756247 17.7372 -0.756247 9.67555 4.21603 4.70327C9.18826 -0.268957 16.467 0.513926 21.4392 5.4862C26.4114 10.4584 27.1943 17.7372 22.2221 22.7094V22.7094Z" fill="black"/>
<path d="M4.21619 4.70325C9.18842 -0.26898 17.25 -0.26888 22.2223 4.7033C27.1945 9.67553 27.1945 17.7371 22.2223 22.7094" fill="#A2001D"/>
<path d="M10.2171 18.1345L10.4232 18.7689H11.0902L10.5506 19.1609L10.7567 19.7953L10.2171 19.4032L9.67747 19.7953L9.88357 19.1609L9.34399 18.7689H10.0109L10.2171 18.1345Z" fill="#F0F0F0"/>
<path d="M8.5135 12.0454L8.85712 13.1027H9.96871L9.06934 13.7561L9.41286 14.8133L8.5135 14.1599L7.61419 14.8133L7.95776 13.7561L7.05835 13.1027H8.17003L8.5135 12.0454Z" fill="#F0F0F0"/>
<path d="M8.5135 19.7957L8.85702 20.8529H9.96871L9.06924 21.5062L9.41286 22.5635L8.5135 21.91L7.61419 22.5635L7.95766 21.5062L7.05835 20.8529H8.16988L8.5135 19.7957Z" fill="#F0F0F0"/>
<path d="M11.7639 14.8135L12.1076 15.8707H13.2191L12.3198 16.5241L12.6633 17.5813L11.7639 16.9279L10.8646 17.5813L11.2082 16.5241L10.3088 15.8707H11.4205L11.7639 14.8135Z" fill="#F0F0F0"/>
<path d="M5.2635 14.8135L5.60712 15.8707H6.71866L5.81934 16.5241L6.16282 17.5813L5.2635 16.9279L4.36414 17.5813L4.70776 16.5241L3.80835 15.8707H4.91998L5.2635 14.8135Z" fill="#F0F0F0"/>
<path d="M21.801 10.4021C21.232 9.83308 20.4926 9.49692 19.6981 9.43918L22.0764 7.58938C21.1292 6.64217 19.8597 6.2144 18.6209 6.30487C18.4725 5.7719 18.1898 5.26848 17.7707 4.84937L16.8312 6.72826C16.7696 6.61596 16.6916 6.51027 16.5964 6.41513C16.0559 5.87466 15.1796 5.87466 14.6392 6.41513C14.0988 6.9556 14.0987 7.83184 14.6392 8.37231C14.7343 8.46745 14.8401 8.54549 14.9524 8.60716L13.0735 9.54661C13.4927 9.96588 13.9965 10.2488 14.5297 10.397C14.439 11.6358 14.8663 12.9052 15.8135 13.8524L17.8915 11.1808C18.0478 11.0268 18.2543 10.9418 18.4739 10.9418C18.6957 10.9418 18.9042 11.0282 19.061 11.1851C19.2179 11.3419 19.3043 11.5504 19.3043 11.7722C19.3043 11.994 19.2179 12.2025 19.061 12.3594L19.8439 13.1423C20.2098 12.7764 20.4114 12.2898 20.4114 11.7723C20.4114 11.3488 20.2763 10.9463 20.027 10.6134C20.3903 10.7105 20.7338 10.9006 21.0182 11.1851C21.8816 12.0484 21.8816 13.4533 21.0182 14.3166L21.8012 15.0995C22.4285 14.4721 22.774 13.6381 22.774 12.7509C22.7738 11.8635 22.4283 11.0295 21.801 10.4021V10.4021Z" fill="#FFDA44"/>
</g>
<defs>
<clipPath id="clip0_548_5537">
<rect width="25.4644" height="25.4644" fill="white" transform="translate(0.487305 0.974121)"/>
</clipPath>
</defs>
</svg>
