<svg width="26" height="27" viewBox="0 0 26 27" fill="none" xmlns="http://www.w3.org/2000/svg">
<g clip-path="url(#clip0_548_5547)">
<path d="M13.091 26.4386C20.1228 26.4386 25.8232 20.7381 25.8232 13.7063C25.8232 6.67453 20.1228 0.974121 13.091 0.974121C6.05917 0.974121 0.358765 6.67453 0.358765 13.7063C0.358765 20.7381 6.05917 26.4386 13.091 26.4386Z" fill="#F0F0F0"/>
<path d="M13.0909 0.974121C8.04309 0.974121 3.68151 3.91173 1.62207 8.17061H24.5597C22.5003 3.91173 18.1387 0.974121 13.0909 0.974121V0.974121Z" fill="#D80027"/>
<path d="M13.0909 26.4387C18.1387 26.4387 22.5003 23.5011 24.5598 19.2422H1.62207C3.68151 23.5011 8.04309 26.4387 13.0909 26.4387Z" fill="#0052B4"/>
<path d="M16.2225 10.0212L15.0482 11.1955C15.5491 11.6964 15.8589 12.3884 15.8589 13.1527C15.8589 14.6814 14.6197 15.9206 13.0911 15.9206C11.5624 15.9206 10.3232 14.6813 10.3232 13.1527C10.3232 12.3884 10.633 11.6964 11.1339 11.1955L9.95962 10.0212C9.15814 10.8226 8.66248 11.9297 8.66248 13.1527C8.66248 15.5986 10.6452 17.5813 13.0911 17.5813C15.5369 17.5813 17.5196 15.5985 17.5196 13.1527C17.5196 11.9297 17.0239 10.8226 16.2225 10.0212V10.0212Z" fill="#6DA544"/>
<path d="M13.0907 11.4922L13.5029 12.7609H14.8369L13.7577 13.545L14.1699 14.8137L13.0907 14.0296L12.0114 14.8137L12.4237 13.545L11.3445 12.7609H12.6784L13.0907 11.4922Z" fill="#FFDA44"/>
</g>
<defs>
<clipPath id="clip0_548_5547">
<rect width="25.4644" height="25.4644" fill="white" transform="translate(0.358398 0.974121)"/>
</clipPath>
</defs>
</svg>
