<svg width="26" height="27" viewBox="0 0 26 27" fill="none" xmlns="http://www.w3.org/2000/svg">
<g clip-path="url(#clip0_548_5553)">
<path d="M12.9626 26.4386C19.9944 26.4386 25.6948 20.7381 25.6948 13.7063C25.6948 6.67453 19.9944 0.974121 12.9626 0.974121C5.93075 0.974121 0.230347 6.67453 0.230347 13.7063C0.230347 20.7381 5.93075 26.4386 12.9626 26.4386Z" fill="#F0F0F0"/>
<path d="M25.6949 13.7063C25.6949 8.23199 22.2397 3.56504 17.3912 1.76611V25.6467C22.2397 23.8477 25.6949 19.1808 25.6949 13.7063V13.7063Z" fill="#D80027"/>
<path d="M0.230347 13.7063C0.230347 19.1808 3.68555 23.8477 8.53399 25.6467V1.76611C3.68555 3.56504 0.230347 8.23199 0.230347 13.7063V13.7063Z" fill="#D80027"/>
</g>
<defs>
<clipPath id="clip0_548_5553">
<rect width="25.4644" height="25.4644" fill="white" transform="translate(0.230469 0.974121)"/>
</clipPath>
</defs>
</svg>
