<svg width="26" height="27" viewBox="0 0 26 27" fill="none" xmlns="http://www.w3.org/2000/svg">
<g clip-path="url(#clip0_548_5558)">
<path d="M12.8343 26.4386C19.8661 26.4386 25.5665 20.7381 25.5665 13.7063C25.5665 6.67453 19.8661 0.974121 12.8343 0.974121C5.80246 0.974121 0.102051 6.67453 0.102051 13.7063C0.102051 20.7381 5.80246 26.4386 12.8343 26.4386Z" fill="#F0F0F0"/>
<path d="M12.8345 0.974121V13.7063L3.83142 22.7094C6.1355 25.0134 9.31856 26.4386 12.8345 26.4386C19.8663 26.4386 25.5667 20.7381 25.5667 13.7063C25.5667 6.67457 12.8345 0.974121 12.8345 0.974121Z" fill="#D80027"/>
<path d="M12.8345 0.974121C9.31856 0.974121 6.1355 2.39923 3.83142 4.70327C6.95529 7.82714 8.06424 8.93613 12.8345 13.7063H25.5667C25.5667 6.67457 19.8663 0.974121 12.8345 0.974121Z" fill="#0052B4"/>
<path d="M8.82045 13.7065L7.26553 12.9751L8.09357 11.4692L6.40506 11.7922L6.1911 10.0864L5.01496 11.3409L3.83887 10.0864L3.62486 11.7922L1.9364 11.4691L2.76444 12.9751L1.20947 13.7065L2.76444 14.4379L1.9364 15.9438L3.62501 15.6209L3.83882 17.3266L5.01496 16.0721L6.1911 17.3266L6.40506 15.6209L8.09347 15.9439L7.26548 14.438L8.82045 13.7065Z" fill="#FFDA44"/>
<path d="M3.49788 5.95654L4.01533 6.67984L4.86307 6.41132L4.33498 7.12691L4.85242 7.85021L4.00861 7.56916L3.48058 8.2847L3.48719 7.39543L2.64343 7.11433L3.49132 6.84581L3.49788 5.95654Z" fill="#FFDA44"/>
<path d="M3.49788 19.1284L4.01533 19.8517L4.86307 19.5831L4.33498 20.2988L4.85242 21.0221L4.00861 20.741L3.48058 21.4566L3.48719 20.5673L2.64343 20.2862L3.49132 20.0177L3.49788 19.1284Z" fill="#FFDA44"/>
<path d="M10.8784 12.5425L10.361 13.2658L9.51318 12.9972L10.0413 13.7128L9.52383 14.4361L10.3676 14.155L10.8957 14.8706L10.8891 13.9814L11.7328 13.7003L10.885 13.4317L10.8784 12.5425Z" fill="#FFDA44"/>
</g>
<defs>
<clipPath id="clip0_548_5558">
<rect width="25.4644" height="25.4644" fill="white" transform="translate(0.102539 0.974121)"/>
</clipPath>
</defs>
</svg>
