<svg width="27" height="27" viewBox="0 0 27 27" fill="none" xmlns="http://www.w3.org/2000/svg">
<g clip-path="url(#clip0_548_5567)">
<path d="M26.4384 13.7063C26.4384 20.7381 20.738 26.4386 13.7062 26.4386C6.67445 26.4386 0.973999 20.7381 0.973999 13.7063C0.973999 13.7094 13.7062 0.975514 13.7062 0.974121C20.738 0.974121 26.4384 6.67457 26.4384 13.7063Z" fill="#0052B4"/>
<path d="M13.6721 13.7081H13.7076C13.7076 13.6962 13.7076 13.6846 13.7076 13.6726C13.6958 13.6845 13.684 13.6963 13.6721 13.7081Z" fill="#F0F0F0"/>
<path d="M13.7062 7.61701C13.7062 5.37668 13.7062 3.90875 13.7062 0.974121H13.7041C6.67321 0.975315 0.973999 6.67522 0.973999 13.7063H7.61688V9.9657L11.3575 13.7063H13.6722C13.6835 13.695 13.6949 13.6837 13.7063 13.6723C13.7063 12.8145 13.7063 12.0491 13.7063 11.3577L9.96553 7.61701H13.7062Z" fill="#F0F0F0"/>
<path d="M7.41539 2.63477C5.42404 3.76868 3.76851 5.42417 2.63464 7.41551V13.7063H5.95611V5.95633V5.95623H13.7062C13.7062 4.90866 13.7062 3.91067 13.7062 2.63477H7.41539Z" fill="#D80027"/>
<path d="M13.7059 12.1408L9.18224 7.61719H7.61658V7.61729L13.7058 13.7065H13.7059C13.7059 13.7065 13.7059 12.6269 13.7059 12.1408V12.1408Z" fill="#D80027"/>
<path d="M20.9029 8.72416L19.2421 9.27777L17.5814 8.72416L17.0278 7.34023L17.5814 5.9563H20.9029L20.3493 7.34023L20.9029 8.72416Z" fill="#ACABB1"/>
<path d="M15.3668 8.72437V14.8136C15.3668 17.7799 19.2418 18.6887 19.2418 18.6887C19.2418 18.6887 23.1169 17.7799 23.1169 14.8136V8.72437H15.3668Z" fill="#338AF3"/>
<path d="M15.7162 16.2562C16.6687 18.0849 19.2419 18.6886 19.2419 18.6886C19.2419 18.6886 21.8151 18.0849 22.7676 16.2562L19.2419 10.385L15.7162 16.2562Z" fill="#6DA544"/>
<path d="M23.1169 14.7521L19.2418 8.72437L15.3668 14.7522V14.8136C15.3668 15.3626 15.4998 15.841 15.7161 16.2563L19.2418 10.7717L22.7676 16.2562C22.9839 15.8409 23.1169 15.3626 23.1169 14.8136V14.7521Z" fill="#FFDA44"/>
</g>
<defs>
<clipPath id="clip0_548_5567">
<rect width="25.4644" height="25.4644" fill="white" transform="translate(0.973633 0.974121)"/>
</clipPath>
</defs>
</svg>
