<svg width="27" height="27" viewBox="0 0 27 27" fill="none" xmlns="http://www.w3.org/2000/svg">
<g clip-path="url(#clip0_548_5583)">
<path d="M0.717529 13.7064C0.717529 19.1808 4.17273 23.8477 9.02107 25.6466L10.1283 13.7063L9.02107 1.76611C4.17273 3.56514 0.717529 8.23199 0.717529 13.7064Z" fill="#6DA544"/>
<path d="M26.1821 13.7063C26.1821 6.67457 20.4817 0.974121 13.4499 0.974121C11.8925 0.974121 10.4006 1.25428 9.02124 1.76606V25.6466C10.4006 26.1584 11.8925 26.4386 13.4499 26.4386C20.4817 26.4386 26.1821 20.7381 26.1821 13.7063Z" fill="#D80027"/>
<path d="M9.02098 18.135C11.4668 18.135 13.4496 16.1522 13.4496 13.7064C13.4496 11.2606 11.4668 9.27783 9.02098 9.27783C6.57515 9.27783 4.59241 11.2606 4.59241 13.7064C4.59241 16.1522 6.57515 18.135 9.02098 18.135Z" fill="#FFDA44"/>
<path d="M6.52991 11.4922V14.2601C6.52991 15.6358 7.64517 16.7511 9.021 16.7511C10.3968 16.7511 11.5121 15.6359 11.5121 14.2601V11.4922H6.52991Z" fill="#D80027"/>
<path d="M9.0213 15.0903C8.56343 15.0903 8.19092 14.7178 8.19092 14.2599V13.1528H9.85163V14.26C9.85163 14.7178 9.47911 15.0903 9.0213 15.0903Z" fill="#F0F0F0"/>
</g>
<defs>
<clipPath id="clip0_548_5583">
<rect width="25.4644" height="25.4644" fill="white" transform="translate(0.717773 0.974121)"/>
</clipPath>
</defs>
</svg>
