<svg width="27" height="27" viewBox="0 0 27 27" fill="none" xmlns="http://www.w3.org/2000/svg">
<g clip-path="url(#clip0_548_5589)">
<path d="M13.3213 26.4386C20.3531 26.4386 26.0535 20.7381 26.0535 13.7063C26.0535 6.67453 20.3531 0.974121 13.3213 0.974121C6.28952 0.974121 0.589111 6.67453 0.589111 13.7063C0.589111 20.7381 6.28952 26.4386 13.3213 26.4386Z" fill="#F0F0F0"/>
<path d="M13.3212 0.974121C9.15579 0.974121 5.45772 2.97462 3.13489 6.06701H23.5075C21.1847 2.97462 17.4866 0.974121 13.3212 0.974121Z" fill="#D80027"/>
<path d="M13.3212 26.4386C17.4866 26.4386 21.1847 24.4381 23.5075 21.3457H3.13489C5.45772 24.4381 9.15579 26.4386 13.3212 26.4386Z" fill="#D80027"/>
<path d="M0.588867 13.7064C0.588867 14.5785 0.676799 15.43 0.84386 16.2528H25.7984C25.9655 15.43 26.0533 14.5785 26.0533 13.7064C26.0533 12.8342 25.9654 11.9827 25.7984 11.1599H0.84386C0.676799 11.9827 0.588867 12.8342 0.588867 13.7064H0.588867Z" fill="#D80027"/>
<path d="M4.31828 4.70312C-0.653946 9.67535 -0.653946 17.737 4.31828 22.7093C6.37299 20.6546 8.34912 18.6784 13.3214 13.7062L4.31828 4.70312Z" fill="#0052B4"/>
<path d="M5.74224 10.385L6.5666 12.9223H9.23469L7.07628 14.4906L7.9006 17.0279L5.74224 15.4597L3.58378 17.0279L4.40829 14.4906L2.24988 12.9223H4.91778L5.74224 10.385Z" fill="#F0F0F0"/>
</g>
<defs>
<clipPath id="clip0_548_5589">
<rect width="25.4644" height="25.4644" fill="white" transform="translate(0.589355 0.974121)"/>
</clipPath>
</defs>
</svg>
