<svg width="26" height="27" viewBox="0 0 26 27" fill="none" xmlns="http://www.w3.org/2000/svg">
<g clip-path="url(#clip0_548_5597)">
<path d="M13.1933 26.4388C20.2251 26.4388 25.9255 20.7384 25.9255 13.7066C25.9255 6.67477 20.2251 0.974365 13.1933 0.974365C6.16147 0.974365 0.46106 6.67477 0.46106 13.7066C0.46106 20.7384 6.16147 26.4388 13.1933 26.4388Z" fill="#F0F0F0"/>
<path d="M25.9254 13.7063C25.9254 6.67457 20.2249 0.974121 13.1932 0.974121C10.7024 0.974121 8.37909 1.69006 6.41663 2.92628L9.20742 4.11202L5.44312 5.7114L9.20742 7.31074L5.44312 8.91002L9.20742 10.5093L5.44312 12.1083L9.20742 13.7072L5.44312 15.3065L9.20742 16.9057L5.44312 18.5047L9.20742 20.1039L5.44312 21.7032L9.20742 23.3023L6.41788 24.4873C8.38008 25.723 10.7029 26.4386 13.1932 26.4386C20.2249 26.4386 25.9254 20.7381 25.9254 13.7063Z" fill="#751A46"/>
</g>
<defs>
<clipPath id="clip0_548_5597">
<rect width="25.4644" height="25.4644" fill="white" transform="translate(0.461426 0.974121)"/>
</clipPath>
</defs>
</svg>
