<svg width="26" height="27" viewBox="0 0 26 27" fill="none" xmlns="http://www.w3.org/2000/svg">
<g clip-path="url(#clip0_548_5600)">
<path d="M13.1933 26.3104C20.2251 26.3104 25.9255 20.61 25.9255 13.5782C25.9255 6.54636 20.2251 0.845947 13.1933 0.845947C6.16147 0.845947 0.46106 6.54636 0.46106 13.5782C0.46106 20.61 6.16147 26.3104 13.1933 26.3104Z" fill="#FCFCFC"/>
<path d="M17.0682 11.3638V12.4709H18.5877C17.9536 13.3522 17.1089 14.0717 16.1275 14.5562C15.8758 14.2946 15.5223 14.1316 15.1306 14.1316C14.4704 14.1316 13.9185 14.5941 13.7803 15.2128C13.5869 15.2298 13.3911 15.2388 13.1932 15.2388C12.9953 15.2388 12.7995 15.2297 12.606 15.2128C12.4678 14.5942 11.9159 14.1316 11.2557 14.1316C10.864 14.1316 10.5106 14.2946 10.2588 14.5562C9.2774 14.0718 8.4328 13.3522 7.79867 12.4709H9.31814V11.3638H5.44312C5.44312 15.6439 8.91299 19.1138 13.1932 19.1138C17.4734 19.1138 20.9432 15.6439 20.9432 11.3638H17.0682Z" fill="#D80027"/>
</g>
<defs>
<clipPath id="clip0_548_5600">
<rect width="25.4644" height="25.4644" fill="white" transform="translate(0.461426 0.846191)"/>
</clipPath>
</defs>
</svg>
