<svg width="27" height="27" viewBox="0 0 27 27" fill="none" xmlns="http://www.w3.org/2000/svg">
<g clip-path="url(#clip0_548_5616)">
<path d="M7.51693 24.7719L16.8704 16.973L24.6693 7.61952C23.4567 5.26963 21.5341 3.34592 19.1851 2.13184L9.82425 9.92689L2.0293 19.2877C3.24328 21.6367 5.16699 23.5593 7.51693 24.7719V24.7719Z" fill="#FFDA44"/>
<path d="M22.3509 22.4533C26.3678 18.4363 27.1389 12.4036 24.6659 7.61182L7.5094 24.7683C12.3012 27.2413 18.334 26.4702 22.3509 22.4533Z" fill="#D80027"/>
<path d="M4.34392 4.44658C0.327006 8.46349 -0.444089 14.4963 2.0289 19.2881L19.1854 2.1316C14.3936 -0.34148 8.36084 0.429714 4.34392 4.44658V4.44658Z" fill="#6DA544"/>
</g>
<defs>
<clipPath id="clip0_548_5616">
<rect width="25.4645" height="25.4645" fill="white" transform="translate(0.615234 0.717773)"/>
</clipPath>
</defs>
</svg>
