<svg width="27" height="27" viewBox="0 0 27 27" fill="none" xmlns="http://www.w3.org/2000/svg">
<g clip-path="url(#clip0_548_5603)">
<path d="M13.3212 26.3104C20.353 26.3104 26.0534 20.61 26.0534 13.5782C26.0534 6.54636 20.353 0.845947 13.3212 0.845947C6.2894 0.845947 0.588989 6.54636 0.588989 13.5782C0.588989 20.61 6.2894 26.3104 13.3212 26.3104Z" fill="#FFDA44"/>
<path d="M15.2573 26.164C17.3281 25.8481 19.2343 25.0326 20.8504 23.8454L13.321 13.5781L15.2573 26.164Z" fill="#D80027"/>
<path d="M11.3849 0.992188C9.31422 1.30811 7.40807 2.12356 5.79187 3.31069L13.3213 13.578L11.3849 0.992188Z" fill="#D80027"/>
<path d="M5.79187 23.8454C7.40797 25.0325 9.31412 25.848 11.3848 26.164L13.3213 13.5781L5.79187 23.8454Z" fill="#D80027"/>
<path d="M3.05386 6.04858C1.86668 7.66478 1.05132 9.57088 0.735352 11.6417L13.3212 13.578L3.05386 6.04858Z" fill="#D80027"/>
<path d="M0.735352 15.5144C1.05127 17.5852 1.86673 19.4913 3.05391 21.1074L13.3212 13.5781L0.735352 15.5144Z" fill="#D80027"/>
<path d="M25.9069 11.6419C25.5909 9.57113 24.7755 7.66497 23.5883 6.04883L13.321 13.5782L25.9069 11.6419Z" fill="#D80027"/>
<path d="M20.8504 3.31064C19.2342 2.12351 17.3281 1.30811 15.2573 0.992188L13.321 13.578L20.8504 3.31064Z" fill="#D80027"/>
<path d="M23.5884 21.1075C24.7756 19.4913 25.591 17.5851 25.907 15.5145L13.321 13.5781L23.5884 21.1075Z" fill="#D80027"/>
<path d="M13.3212 18.0066C15.767 18.0066 17.7497 16.0238 17.7497 13.578C17.7497 11.1322 15.767 9.14941 13.3212 9.14941C10.8753 9.14941 8.89258 11.1322 8.89258 13.578C8.89258 16.0238 10.8753 18.0066 13.3212 18.0066Z" fill="#D80027"/>
<path d="M13.3215 16.8995C15.1559 16.8995 16.6429 15.4125 16.6429 13.5781C16.6429 11.7437 15.1559 10.2566 13.3215 10.2566C11.4871 10.2566 10 11.7437 10 13.5781C10 15.4125 11.4871 16.8995 13.3215 16.8995Z" fill="#FFDA44"/>
</g>
<defs>
<clipPath id="clip0_548_5603">
<rect width="25.4644" height="25.4644" fill="white" transform="translate(0.589355 0.846191)"/>
</clipPath>
</defs>
</svg>
