<svg width="26" height="27" viewBox="0 0 26 27" fill="none" xmlns="http://www.w3.org/2000/svg">
<g clip-path="url(#clip0_548_5620)">
<path d="M17.6478 1.50966C16.2684 0.997932 14.7766 0.717773 13.2192 0.717773C11.6618 0.717724 10.1699 0.997932 8.79063 1.50966L7.68347 13.4499L8.79063 25.3902C10.1699 25.9021 11.6617 26.1822 13.2192 26.1822C14.7766 26.1822 16.2685 25.9021 17.6478 25.3902L18.7549 13.45L17.6478 1.50966Z" fill="#FFDA44"/>
<path d="M25.9515 13.4498C25.9515 7.97545 22.4963 3.30844 17.6478 1.50952V25.3902C22.4963 23.5911 25.9514 18.9243 25.9515 13.4498Z" fill="#D80027"/>
<path d="M0.487183 13.4497C0.487183 18.9242 3.94239 23.591 8.79073 25.3901L8.79078 1.50952C3.94239 3.30844 0.487183 7.9753 0.487183 13.4497H0.487183Z" fill="#0052B4"/>
</g>
<defs>
<clipPath id="clip0_548_5620">
<rect width="25.4644" height="25.4644" fill="white" transform="translate(0.487305 0.717773)"/>
</clipPath>
</defs>
</svg>
