<svg width="26" height="27" viewBox="0 0 26 27" fill="none" xmlns="http://www.w3.org/2000/svg">
<g clip-path="url(#clip0_548_5624)">
<path d="M13.091 26.1822C20.1228 26.1822 25.8232 20.4818 25.8232 13.45C25.8232 6.41818 20.1228 0.717773 13.091 0.717773C6.05917 0.717773 0.358765 6.41818 0.358765 13.45C0.358765 20.4818 6.05917 26.1822 13.091 26.1822Z" fill="#F0F0F0"/>
<path d="M25.0313 17.8786C25.5431 16.4993 25.8232 15.0075 25.8232 13.4501C25.8232 11.8926 25.5431 10.4008 25.0313 9.02148H1.1507C0.638923 10.4008 0.358765 11.8926 0.358765 13.4501C0.358765 15.0075 0.638923 16.4993 1.1507 17.8786L13.091 18.9858L25.0313 17.8786Z" fill="#0052B4"/>
<path d="M13.0909 26.1821C18.5653 26.1821 23.2322 22.7269 25.0312 17.8784H1.15063C2.94961 22.7269 7.61651 26.1821 13.0909 26.1821Z" fill="#D80027"/>
</g>
<defs>
<clipPath id="clip0_548_5624">
<rect width="25.4644" height="25.4644" fill="white" transform="translate(0.358398 0.717773)"/>
</clipPath>
</defs>
</svg>
