<svg width="26" height="27" viewBox="0 0 26 27" fill="none" xmlns="http://www.w3.org/2000/svg">
<g clip-path="url(#clip0_548_5628)">
<path d="M0.230347 13.4499C0.230347 15.6557 0.791509 17.7303 1.77846 19.5393L12.9626 20.6464L24.1467 19.5393C25.1336 17.7303 25.6948 15.6557 25.6948 13.4499L12.9626 12.3428L0.230347 13.4499Z" fill="#FFDA44"/>
<path d="M24.1467 7.36066C21.9872 3.40293 17.7886 0.717773 12.9626 0.717773C8.13651 0.717773 3.93791 3.40293 1.77846 7.36066C0.791509 9.16958 0.230347 11.2442 0.230347 13.45H25.6948C25.6948 11.2442 25.1336 9.16958 24.1467 7.36066Z" fill="#338AF3"/>
<path d="M12.9626 26.1819C17.7886 26.1819 21.9872 23.4968 24.1467 19.5391H1.77844C3.9379 23.4968 8.13649 26.1819 12.9626 26.1819Z" fill="#496E2D"/>
<path d="M14.6233 8.1691L16.1783 8.90056L15.3503 10.4065L17.0388 10.0836L17.2527 11.7892L18.4288 10.5347L19.6049 11.7892L19.8188 10.0836L21.5073 10.4064L20.6794 8.90051L22.2343 8.1691L20.6793 7.43774L21.5073 5.93176L19.8189 6.25474L19.6049 4.54907L18.4288 5.80359L17.2527 4.54907L17.0388 6.25474L15.3502 5.93176L16.1783 7.43779L14.6233 8.1691Z" fill="#FFDA44"/>
</g>
<defs>
<clipPath id="clip0_548_5628">
<rect width="25.4644" height="25.4644" fill="white" transform="translate(0.230469 0.717773)"/>
</clipPath>
</defs>
</svg>
