<svg width="26" height="27" viewBox="0 0 26 27" fill="none" xmlns="http://www.w3.org/2000/svg">
<g clip-path="url(#clip0_548_5633)">
<path d="M12.8345 26.1822C19.8663 26.1822 25.5667 20.4818 25.5667 13.45C25.5667 6.41818 19.8663 0.717773 12.8345 0.717773C5.8027 0.717773 0.102295 6.41818 0.102295 13.45C0.102295 20.4818 5.8027 26.1822 12.8345 26.1822Z" fill="#F0F0F0"/>
<path d="M12.8345 0.717778C12.8226 0.708826 0.0989136 13.4467 0.102296 13.45C0.102296 6.41823 5.80275 0.717778 12.8345 0.717778Z" fill="#D80027"/>
<path d="M12.8342 0.717778C12.8461 0.708826 25.5698 13.4466 25.5664 13.45C25.5664 6.41823 19.866 0.717778 12.8342 0.717778Z" fill="#D80027"/>
<path d="M12.8345 26.1822C12.8226 26.1911 0.0989136 13.4533 0.102296 13.45C0.102296 20.4817 5.80275 26.1822 12.8345 26.1822Z" fill="#0052B4"/>
<path d="M12.8342 26.1824C12.8461 26.1914 25.5698 13.4536 25.5664 13.4502C25.5664 20.482 19.866 26.1824 12.8342 26.1824Z" fill="#0052B4"/>
<path d="M12.8345 7.36084L14.2086 11.5898H18.6552L15.0578 14.2034L16.4319 18.4323L12.8345 15.8187L9.23718 18.4323L10.6113 14.2034L7.01392 11.5898H11.4604L12.8345 7.36084Z" fill="#FFDA44"/>
</g>
<defs>
<clipPath id="clip0_548_5633">
<rect width="25.4644" height="25.4644" fill="white" transform="translate(0.102539 0.717773)"/>
</clipPath>
</defs>
</svg>
