<svg width="27" height="27" viewBox="0 0 27 27" fill="none" xmlns="http://www.w3.org/2000/svg">
<g clip-path="url(#clip0_548_5642)">
<path d="M2.23737 7.91428C1.42798 9.58817 0.973999 11.466 0.973999 13.45C0.973999 15.434 1.42798 17.3119 2.23737 18.9857L13.7062 20.0929L25.1751 18.9857C25.9845 17.3119 26.4384 15.434 26.4384 13.45C26.4384 11.466 25.9845 9.58817 25.1751 7.91428L13.7062 6.80713L2.23737 7.91428Z" fill="#F0F0F0"/>
<path d="M2.23792 18.9856C4.29725 23.2445 8.65853 26.1821 13.7063 26.1821C18.7541 26.1821 23.1154 23.2445 25.1747 18.9856H2.23792Z" fill="#496E2D"/>
<path d="M2.23792 7.91426H25.1747C23.1154 3.65538 18.7541 0.717773 13.7063 0.717773C8.65848 0.717773 4.29725 3.65538 2.23792 7.91426Z" fill="black"/>
<path d="M4.70317 4.44678C-0.269058 9.41901 -0.269058 17.4806 4.70317 22.4529C6.75788 20.3982 8.73401 18.4221 13.7062 13.4498L4.70317 4.44678Z" fill="#D80027"/>
<path d="M17.0275 13.45C17.0275 11.5949 18.3312 10.0452 20.0721 9.66507C19.8045 9.60663 19.5269 9.57495 19.2417 9.57495C17.1016 9.57495 15.3667 11.3098 15.3667 13.45C15.3667 15.5901 17.1016 17.325 19.2417 17.325C19.5269 17.325 19.8045 17.2933 20.0721 17.2349C18.3312 16.8547 17.0275 15.305 17.0275 13.45Z" fill="#D80027"/>
<path d="M20.2351 10.959L20.7848 12.6507H22.5634L21.1244 13.696L21.6741 15.3876L20.2351 14.3422L18.7962 15.3876L19.3459 13.696L17.9069 12.6507H19.6854L20.2351 10.959Z" fill="#D80027"/>
</g>
<defs>
<clipPath id="clip0_548_5642">
<rect width="25.4644" height="25.4644" fill="white" transform="translate(0.974609 0.717773)"/>
</clipPath>
</defs>
</svg>
