<svg width="27" height="27" viewBox="0 0 27 27" fill="none" xmlns="http://www.w3.org/2000/svg">
<g clip-path="url(#clip0_548_5650)">
<path d="M26.0534 13.45C26.0534 20.4818 20.353 26.1822 13.3212 26.1822C6.28944 26.1822 0.588989 20.4818 0.588989 13.45C4.96221 9.07677 8.67116 5.36782 13.3212 0.717773C20.353 0.717773 26.0534 6.41823 26.0534 13.45Z" fill="#D80027"/>
<path d="M13.3212 13.45C13.3212 6.41823 13.3212 5.58924 13.3212 0.717773C6.28944 0.717773 0.588989 6.41823 0.588989 13.45H13.3212Z" fill="#0052B4"/>
<path d="M10.7877 9.02148L10.9938 9.65586H11.6608L11.1211 10.0478L11.3273 10.6822L10.7877 10.2901L10.248 10.6822L10.4542 10.0478L9.91455 9.65586H10.5815L10.7877 9.02148Z" fill="#F0F0F0"/>
<path d="M7.43745 4.03906L7.78097 5.09638H8.89266L7.99324 5.74966L8.33686 6.80693L7.43745 6.15346L6.53809 6.80693L6.88166 5.74966L5.9823 5.09638H7.09388L7.43745 4.03906Z" fill="#F0F0F0"/>
<path d="M10.7591 5.14648L11.1026 6.20386H12.2143L11.3149 6.85713L11.6584 7.9144L10.7591 7.26093L9.85975 7.9144L10.2033 6.85713L9.30396 6.20386H10.4155L10.7591 5.14648Z" fill="#F0F0F0"/>
<path d="M8.1335 9.57495L8.47707 10.6323H9.58865L8.68929 11.2855L9.03286 12.3428L8.1335 11.6894L7.23414 12.3428L7.57771 11.2855L6.67834 10.6323H7.78998L8.1335 9.57495Z" fill="#F0F0F0"/>
<path d="M5.22317 6.80713L5.56674 7.86445H6.67837L5.77896 8.51772L6.12253 9.57499L5.22317 8.92157L4.32386 9.57499L4.66738 8.51772L3.76807 7.86445H4.87965L5.22317 6.80713Z" fill="#F0F0F0"/>
</g>
<defs>
<clipPath id="clip0_548_5650">
<rect width="25.4644" height="25.4644" fill="white" transform="translate(0.589355 0.717773)"/>
</clipPath>
</defs>
</svg>
