<svg width="26" height="27" viewBox="0 0 26 27" fill="none" xmlns="http://www.w3.org/2000/svg">
<g clip-path="url(#clip0_548_5659)">
<path d="M25.9255 13.45C25.9255 20.4818 20.225 26.1822 13.1933 26.1822C6.16151 26.1822 0.46106 20.4818 0.46106 13.45C1.01461 13.45 13.1933 11.7893 13.1933 11.7893L25.9255 13.45Z" fill="#338AF3"/>
<path d="M0.46106 13.45C0.46106 6.41823 6.16151 0.717773 13.1933 0.717773C20.225 0.717773 25.9255 6.41823 25.9255 13.45" fill="#F0F0F0"/>
<path d="M18.2469 9.50293L13.193 14.5569L8.13915 9.50293C7.48558 10.4731 7.10376 11.6408 7.10376 12.8961V14.5568C7.10376 17.2234 8.82684 19.495 11.218 20.3172C10.8988 20.9426 10.9526 21.7232 11.4203 22.3069C12.0414 21.8091 12.6844 21.2938 13.2299 20.8567C13.7754 21.2938 14.4185 21.8091 15.0395 22.3069C15.5126 21.7164 15.5626 20.9241 15.2308 20.295C17.5893 19.4549 19.2823 17.2001 19.2823 14.5568V12.8962C19.2824 11.6408 18.9005 10.4732 18.2469 9.50293V9.50293Z" fill="#6DA544"/>
<path d="M13.1933 18.9859C10.7514 18.9859 8.76477 16.9992 8.76477 14.5573V12.8966C8.76477 10.4546 10.7514 8.46802 13.1933 8.46802C15.6352 8.46802 17.6219 10.4547 17.6219 12.8966V14.5573C17.6219 16.9992 15.6353 18.9859 13.1933 18.9859Z" fill="#FFDA44"/>
<path d="M15.9609 14.5567V12.896C15.9609 11.3698 14.7192 10.1282 13.193 10.1282C11.6669 10.1282 10.4252 11.3699 10.4252 12.896V14.5567L13.193 15.1103L15.9609 14.5567Z" fill="#338AF3"/>
<path d="M10.4252 14.5571C10.4252 16.0834 11.6669 17.325 13.193 17.325C14.7192 17.325 15.9609 16.0833 15.9609 14.5571H10.4252Z" fill="#6DA544"/>
<path d="M16.5148 8.46779C16.5148 7.55063 15.7713 6.80709 14.8541 6.80709C14.4286 6.80709 14.0409 6.96723 13.747 7.23028V6.25348H14.3005V5.14633H13.747V4.59277H12.6398V5.14633H12.0863V6.25348H12.6398V7.23028C12.3459 6.96723 11.9581 6.80709 11.5327 6.80709C10.6155 6.80709 9.87195 7.55063 9.87195 8.46779C9.87195 8.95953 10.0859 9.40117 10.4255 9.70531V10.6821H15.9612V9.70531C16.3009 9.40117 16.5148 8.95953 16.5148 8.46779V8.46779Z" fill="#FFDA44"/>
</g>
<defs>
<clipPath id="clip0_548_5659">
<rect width="25.4644" height="25.4644" fill="white" transform="translate(0.461426 0.717773)"/>
</clipPath>
</defs>
</svg>
