<svg width="26" height="27" viewBox="0 0 26 27" fill="none" xmlns="http://www.w3.org/2000/svg">
<g clip-path="url(#clip0_548_5667)">
<path d="M12.8345 26.054C19.8663 26.054 25.5667 20.3536 25.5667 13.3218C25.5667 6.29001 19.8663 0.5896 12.8345 0.5896C5.8027 0.5896 0.102295 6.29001 0.102295 13.3218C0.102295 20.3536 5.8027 26.054 12.8345 26.054Z" fill="#FFDA44"/>
<path d="M7.85211 8.89324H24.7745C22.9756 4.04481 18.3086 0.5896 12.8343 0.5896C9.31831 0.5896 6.1356 2.01496 3.83167 4.31919L7.85211 8.89324Z" fill="#6DA544"/>
<path d="M7.85223 17.7498H24.7746C22.9757 22.5982 18.3088 26.0534 12.8344 26.0534C9.31843 26.0534 6.13572 24.628 3.83179 22.3238L7.85223 17.7498Z" fill="#6DA544"/>
<path d="M3.83147 4.31885C-1.14076 9.29108 -1.14076 17.3527 3.83147 22.325C5.88618 20.2703 7.86231 18.2941 12.8345 13.3219L3.83147 4.31885Z" fill="#D80027"/>
<path d="M16.2699 11.1077L16.8195 12.7993H18.5982L17.1592 13.8447L17.7088 15.5363L16.2699 14.4908L14.831 15.5363L15.3805 13.8447L13.9417 12.7993H15.7203L16.2699 11.1077Z" fill="black"/>
<path d="M21.8058 11.1077L22.3554 12.7993H24.1341L22.6952 13.8447L23.2447 15.5363L21.8058 14.4908L20.3669 15.5363L20.9165 13.8447L19.4775 12.7993H21.2562L21.8058 11.1077Z" fill="black"/>
</g>
<defs>
<clipPath id="clip0_548_5667">
<rect width="25.4644" height="25.4644" fill="white" transform="translate(0.102539 0.589355)"/>
</clipPath>
</defs>
</svg>
