<svg width="27" height="26" viewBox="0 0 27 26" fill="none" xmlns="http://www.w3.org/2000/svg">
<g clip-path="url(#clip0_548_5675)">
<path d="M13.5782 25.9256C20.61 25.9256 26.3104 20.2252 26.3104 13.1934C26.3104 6.16159 20.61 0.461182 13.5782 0.461182C6.54636 0.461182 0.845947 6.16159 0.845947 13.1934C0.845947 20.2252 6.54636 25.9256 13.5782 25.9256Z" fill="#F0F0F0"/>
<path d="M26.2026 11.5327H15.239H15.2389V0.568958C14.6953 0.498185 14.141 0.461182 13.5782 0.461182C13.0153 0.461182 12.4611 0.498185 11.9175 0.568958V11.5326V11.5326H0.953724C0.88295 12.0763 0.845947 12.6305 0.845947 13.1934C0.845947 13.7563 0.88295 14.3105 0.953724 14.8541H11.9174H11.9174V25.8178C12.4611 25.8886 13.0153 25.9256 13.5782 25.9256C14.141 25.9256 14.6953 25.8887 15.2389 25.8178V14.8543V14.8542H26.2026C26.2734 14.3105 26.3104 13.7563 26.3104 13.1934C26.3104 12.6305 26.2734 12.0763 26.2026 11.5327V11.5327Z" fill="#D80027"/>
<path d="M19.6675 4.88989C18.6357 4.88989 17.7687 5.59559 17.5229 6.5506L19.6675 7.10415L21.812 6.5506C21.5662 5.59564 20.6993 4.88989 19.6675 4.88989V4.88989Z" fill="black"/>
<path d="M17.453 9.87187L20.2208 10.4254V9.24854C20.9989 9.0482 21.6114 8.43562 21.8117 7.65756L19.6673 7.104H16.8994L17.453 8.76471V9.87187Z" fill="black"/>
<path d="M21.8118 6.55029H16.8994V7.65745V8.7646H17.453V7.65745H21.8117C21.8572 7.48054 21.8816 7.29503 21.8816 7.1039C21.8816 6.91271 21.8574 6.7272 21.8118 6.55029V6.55029Z" fill="#ACABB1"/>
<path d="M8.04199 4.88989C7.01019 4.88989 6.14325 5.59559 5.89746 6.5506L8.04199 7.10415L10.1865 6.5506C9.94074 5.59564 9.0738 4.88989 8.04199 4.88989Z" fill="black"/>
<path d="M5.82802 9.87187L8.59588 10.4254V9.24854C9.37399 9.0482 9.98643 8.43562 10.1867 7.65756L8.04233 7.104H5.27441L5.82797 8.76471V9.87187H5.82802Z" fill="black"/>
<path d="M10.1869 6.55029H5.27441V7.65745V8.7646H5.82797V7.65745H10.1867C10.2322 7.48054 10.2566 7.29503 10.2566 7.1039C10.2566 6.91271 10.2324 6.7272 10.1869 6.55029Z" fill="#ACABB1"/>
<path d="M19.6675 15.9614C18.6357 15.9614 17.7687 16.6671 17.5229 17.6221L19.6675 18.1757L21.812 17.6221C21.5662 16.6671 20.6993 15.9614 19.6675 15.9614V15.9614Z" fill="black"/>
<path d="M17.453 20.9436L20.2208 21.4972V20.3203C20.9989 20.12 21.6114 19.5074 21.8117 18.7293L19.6673 18.1758H16.8994L17.453 19.8365V20.9436Z" fill="black"/>
<path d="M21.8118 17.6221H16.8994V18.7292V19.8364H17.453V18.7292H21.8117C21.8572 18.5523 21.8816 18.3668 21.8816 18.1757C21.8816 17.9845 21.8574 17.799 21.8118 17.6221V17.6221Z" fill="#ACABB1"/>
<path d="M8.04199 15.9614C7.01019 15.9614 6.14325 16.6671 5.89746 17.6221L8.04199 18.1757L10.1865 17.6221C9.94074 16.6671 9.0738 15.9614 8.04199 15.9614Z" fill="black"/>
<path d="M5.82802 20.9436L8.59588 21.4972V20.3203C9.37399 20.12 9.98643 19.5074 10.1867 18.7293L8.04233 18.1758H5.27441L5.82797 19.8365V20.9436H5.82802Z" fill="black"/>
<path d="M10.1869 17.6221H5.27441V18.7292V19.8364H5.82797V18.7292H10.1867C10.2322 18.5523 10.2566 18.3668 10.2566 18.1757C10.2566 17.9845 10.2324 17.799 10.1869 17.6221Z" fill="#ACABB1"/>
</g>
<defs>
<clipPath id="clip0_548_5675">
<rect width="25.4644" height="25.4644" fill="white" transform="translate(0.845703 0.461426)"/>
</clipPath>
</defs>
</svg>
