<svg width="27" height="27" viewBox="0 0 27 27" fill="none" xmlns="http://www.w3.org/2000/svg">
<g clip-path="url(#clip0_548_5690)">
<path d="M13.7061 26.054C20.7379 26.054 26.4383 20.3536 26.4383 13.3218C26.4383 6.29001 20.7379 0.5896 13.7061 0.5896C6.67428 0.5896 0.973877 6.29001 0.973877 13.3218C0.973877 20.3536 6.67428 26.054 13.7061 26.054Z" fill="#6DA544"/>
<path d="M8.17078 15.8127C8.17078 16.7299 8.91432 17.4735 9.83149 17.4735H14.8137C14.8137 18.2378 15.4333 18.8574 16.1976 18.8574H17.8583C18.6226 18.8574 19.2422 18.2378 19.2422 17.4735V15.8127H8.17078Z" fill="#F0F0F0"/>
<path d="M19.3806 7.78564V11.6607C19.3806 12.2712 18.8839 12.7678 18.2734 12.7678V14.4285C19.7997 14.4285 21.0413 13.1868 21.0413 11.6607V7.78564H19.3806Z" fill="#F0F0F0"/>
<path d="M7.47849 11.6609C7.47849 12.2714 6.98184 12.7681 6.37134 12.7681V14.4288C7.89756 14.4288 9.1392 13.1871 9.1392 11.6609V7.78589H7.47849V11.6609Z" fill="#F0F0F0"/>
<path d="M16.8898 7.78564H18.5505V11.6607H16.8898V7.78564Z" fill="#F0F0F0"/>
<path d="M14.3985 9.99996C14.3985 10.1526 14.2744 10.2767 14.1218 10.2767C13.9692 10.2767 13.845 10.1525 13.845 9.99996V7.78564H12.1843V9.99996C12.1843 10.1526 12.0601 10.2767 11.9075 10.2767C11.7549 10.2767 11.6307 10.1525 11.6307 9.99996V7.78564H9.96997V9.99996C9.96997 11.0683 10.8391 11.9375 11.9075 11.9375C12.319 11.9375 12.7005 11.8082 13.0147 11.5885C13.3287 11.8081 13.7104 11.9375 14.1218 11.9375C14.2047 11.9375 14.2861 11.9317 14.3663 11.9215C14.2486 12.4063 13.8119 12.7678 13.2914 12.7678V14.4285C14.8177 14.4285 16.0593 13.1868 16.0593 11.6607V9.99996V7.78564H14.3986V9.99996H14.3985Z" fill="#F0F0F0"/>
<path d="M9.96997 12.7678H12.4611V14.4285H9.96997V12.7678Z" fill="#F0F0F0"/>
</g>
<defs>
<clipPath id="clip0_548_5690">
<rect width="25.4644" height="25.4644" fill="white" transform="translate(0.973633 0.589355)"/>
</clipPath>
</defs>
</svg>
