<svg width="27" height="27" viewBox="0 0 27 27" fill="none" xmlns="http://www.w3.org/2000/svg">
<g clip-path="url(#clip0_548_5699)">
<path d="M13.5782 26.0543C20.61 26.0543 26.3104 20.3539 26.3104 13.3221C26.3104 6.29025 20.61 0.589844 13.5782 0.589844C6.54636 0.589844 0.845947 6.29025 0.845947 13.3221C0.845947 20.3539 6.54636 26.0543 13.5782 26.0543Z" fill="#F0F0F0"/>
<path d="M21.3293 3.22159C19.1824 1.57132 16.4949 0.5896 13.5778 0.5896C10.6606 0.5896 7.97309 1.57137 5.82617 3.22159L13.5778 10.9731L21.3293 3.22159Z" fill="#0052B4"/>
<path d="M3.47764 5.57007C1.82748 7.71699 0.845703 10.4044 0.845703 13.3216C0.845703 16.2388 1.82748 18.9263 3.47769 21.0732L11.2293 13.3216L3.47764 5.57007Z" fill="#0052B4"/>
<path d="M5.82617 23.4219C7.97314 25.0722 10.6606 26.0539 13.5778 26.0539C16.4949 26.0539 19.1824 25.0722 21.3293 23.4219L13.5778 15.6704L5.82617 23.4219Z" fill="#0052B4"/>
<path d="M23.6783 21.0731C25.3286 18.9262 26.3103 16.2388 26.3103 13.3216C26.3103 10.4044 25.3286 7.71699 23.6783 5.57007L15.9268 13.3216L23.6783 21.0731Z" fill="#0052B4"/>
</g>
<defs>
<clipPath id="clip0_548_5699">
<rect width="25.4644" height="25.4644" fill="white" transform="translate(0.845703 0.589355)"/>
</clipPath>
</defs>
</svg>
