<svg width="27" height="27" viewBox="0 0 27 27" fill="none" xmlns="http://www.w3.org/2000/svg">
<g clip-path="url(#clip0_548_5706)">
<path d="M18.9853 1.85297C17.3114 1.04358 15.4335 0.5896 13.4495 0.5896C11.4656 0.5896 9.58768 1.04358 7.9138 1.85297L6.80664 13.3218L7.9138 24.7907C9.58768 25.6001 11.4656 26.054 13.4495 26.054C15.4335 26.054 17.3114 25.6001 18.9853 24.7907L20.0924 13.3218L18.9853 1.85297Z" fill="#FFDA44"/>
<path d="M13.45 8.89307L14.5491 12.2761H18.1066L15.2287 14.3671L16.3279 17.7502L13.45 15.6593L10.5721 17.7502L11.6715 14.3671L8.79358 12.2761H12.3508L13.45 8.89307Z" fill="#496E2D"/>
<path d="M7.91402 1.85303C3.65519 3.91241 0.717529 8.27365 0.717529 13.3214C0.717529 18.3692 3.65519 22.7304 7.91402 24.7898V1.85303Z" fill="#496E2D"/>
<path d="M18.9856 1.85303V24.7898C23.2444 22.7304 26.1821 18.3692 26.1821 13.3214C26.1821 8.27365 23.2444 3.91241 18.9856 1.85303Z" fill="#D80027"/>
</g>
<defs>
<clipPath id="clip0_548_5706">
<rect width="25.4644" height="25.4644" fill="white" transform="translate(0.717773 0.589355)"/>
</clipPath>
</defs>
</svg>
