<svg width="27" height="27" viewBox="0 0 27 27" fill="none" xmlns="http://www.w3.org/2000/svg">
<g clip-path="url(#clip0_548_5712)">
<path d="M13.3215 26.054C20.3533 26.054 26.0537 20.3536 26.0537 13.3218C26.0537 6.29001 20.3533 0.5896 13.3215 0.5896C6.28964 0.5896 0.589233 6.29001 0.589233 13.3218C0.589233 20.3536 6.28964 26.054 13.3215 26.054Z" fill="#F0F0F0"/>
<path d="M13.3215 0.5896C6.28969 0.5896 0.589233 6.29005 0.589233 13.3218C0.589233 14.8792 0.869392 16.3711 1.38117 17.7504H25.2618C25.7736 16.3711 26.0537 14.8792 26.0537 13.3218C26.0537 6.29005 20.3532 0.5896 13.3215 0.5896Z" fill="#0052B4"/>
<path d="M13.3216 0.5896C7.84723 0.5896 3.18032 4.04481 1.38135 8.89324H25.262C23.4629 4.04481 18.796 0.5896 13.3216 0.5896V0.5896Z" fill="#D80027"/>
<path d="M3.88184 7.78613V14.1376C3.88184 17.7506 8.60176 18.8576 8.60176 18.8576C8.60176 18.8576 13.3216 17.7506 13.3216 14.1376V7.78613H3.88184Z" fill="#D80027"/>
<path d="M5.8335 8.89324H11.3693V6.67893L10.2621 7.23249L8.60141 5.57178L6.94065 7.23249L5.8335 6.67893V8.89324Z" fill="#FFDA44"/>
<path d="M12.2143 15.0218L8.61607 11.4236L5.01782 15.0218L6.19212 16.1961L8.61607 13.7722L11.04 16.1961L12.2143 15.0218Z" fill="#FFDA44"/>
<path d="M12.2144 11.6609H10.5356C10.63 11.4979 10.6849 11.3092 10.6849 11.1074C10.6849 10.4959 10.1892 10.0002 9.57772 10.0002C9.15522 10.0002 8.78832 10.2369 8.60167 10.5848C8.41501 10.2369 8.04811 10.0002 7.62561 10.0002C7.01417 10.0002 6.51846 10.4959 6.51846 11.1074C6.51846 11.3092 6.57336 11.498 6.66776 11.6609H5.01794C5.01794 12.2723 5.55056 12.768 6.16195 12.768H6.1251C6.1251 13.3795 6.62076 13.8752 7.23226 13.8752C7.23226 14.4166 7.62109 14.8664 8.1346 14.9627L7.26225 16.9323C7.68032 17.1022 8.13719 17.1966 8.61624 17.1966C9.09529 17.1966 9.55216 17.1022 9.97023 16.9323L9.09787 14.9627C9.61139 14.8665 10.0002 14.4166 10.0002 13.8752C10.6117 13.8752 11.1074 13.3795 11.1074 12.768H11.0705C11.6819 12.768 12.2144 12.2723 12.2144 11.6609V11.6609Z" fill="#F0F0F0"/>
</g>
<defs>
<clipPath id="clip0_548_5712">
<rect width="25.4644" height="25.4644" fill="white" transform="translate(0.589355 0.589355)"/>
</clipPath>
</defs>
</svg>
