<svg width="26" height="27" viewBox="0 0 26 27" fill="none" xmlns="http://www.w3.org/2000/svg">
<g clip-path="url(#clip0_548_5722)">
<path d="M13.1933 26.0543C20.2251 26.0543 25.9255 20.3539 25.9255 13.3221C25.9255 6.29025 20.2251 0.589844 13.1933 0.589844C6.16147 0.589844 0.46106 6.29025 0.46106 13.3221C0.46106 20.3539 6.16147 26.0543 13.1933 26.0543Z" fill="#F0F0F0"/>
<path d="M21.7883 3.92867C19.5233 1.85511 16.5063 0.5896 13.1936 0.5896C12.6513 0.5896 12.1169 0.623768 11.5923 0.689567L5.44353 7.78609L0.864258 16.5114C1.16008 17.6583 1.61238 18.7423 2.19592 19.74L13.1936 13.3218L21.7883 3.92867Z" fill="#FFDA44"/>
<path d="M23.7932 20.3757L5.97961 23.8134C8.03015 25.226 10.5148 26.0536 13.1931 26.0536C17.6156 26.0536 21.5108 23.7985 23.7932 20.3757V20.3757Z" fill="#6DA544"/>
<path d="M21.7899 3.93018L2.203 19.7522C2.71533 20.6259 3.32871 21.4332 4.02734 22.1578L25.9256 13.3216C25.9256 9.60347 24.3315 6.25788 21.7899 3.93018V3.93018Z" fill="#D80027"/>
<path d="M0.46106 13.3217C0.46106 14.4232 0.601014 15.4919 0.863965 16.5113L11.5921 0.689453C5.31611 1.47696 0.46106 6.83225 0.46106 13.3217Z" fill="#0052B4"/>
</g>
<defs>
<clipPath id="clip0_548_5722">
<rect width="25.4644" height="25.4644" fill="white" transform="translate(0.461426 0.589355)"/>
</clipPath>
</defs>
</svg>
