<svg width="27" height="27" viewBox="0 0 27 27" fill="none" xmlns="http://www.w3.org/2000/svg">
<g clip-path="url(#clip0_548_5728)">
<path d="M25.39 17.8784C25.9019 16.4991 26.182 15.0072 26.182 13.4498C26.182 11.8924 25.9019 10.4005 25.39 9.02122L13.4497 7.91406L1.50946 9.02122C0.997638 10.4005 0.717529 11.8924 0.717529 13.4498C0.717529 15.0072 0.997638 16.4991 1.50946 17.8784L13.4497 18.9855L25.39 17.8784Z" fill="#F0F0F0"/>
<path d="M13.4497 26.1821C18.9241 26.1821 23.591 22.7269 25.39 17.8784H1.5094C3.30842 22.7269 7.97528 26.1821 13.4497 26.1821Z" fill="#338AF3"/>
<path d="M13.4497 0.717773C7.97528 0.717773 3.30842 4.17298 1.5094 9.02142H25.39C23.591 4.17298 18.9241 0.717773 13.4497 0.717773Z" fill="#6DA544"/>
</g>
<defs>
<clipPath id="clip0_548_5728">
<rect width="25.4644" height="25.4644" fill="white" transform="translate(0.717773 0.717773)"/>
</clipPath>
</defs>
</svg>
