<svg width="27" height="26" viewBox="0 0 27 26" fill="none" xmlns="http://www.w3.org/2000/svg">
<g clip-path="url(#clip0_548_5732)">
<path d="M13.3212 25.9256C20.353 25.9256 26.0534 20.2252 26.0534 13.1934C26.0534 6.16159 20.353 0.461182 13.3212 0.461182C6.2894 0.461182 0.588989 6.16159 0.588989 13.1934C0.588989 20.2252 6.2894 25.9256 13.3212 25.9256Z" fill="#F0F0F0"/>
<path d="M0.588989 13.1934C0.588989 6.16163 6.28944 0.461182 13.3212 0.461182C20.353 0.461182 26.0534 6.16163 26.0534 13.1934" fill="#D80027"/>
<path d="M8.3391 7.10397C8.3391 5.24895 9.64281 3.6993 11.3837 3.31907C11.1162 3.26069 10.8386 3.229 10.5534 3.229C8.41321 3.229 6.67834 4.96387 6.67834 7.10402C6.67834 9.24418 8.41321 10.979 10.5534 10.979C10.8385 10.979 11.1161 10.9474 11.3837 10.8889C9.64281 10.5087 8.3391 8.95905 8.3391 7.10397V7.10397Z" fill="#F0F0F0"/>
<path d="M13.3217 3.5061L13.5965 4.35185H14.4858L13.7663 4.87462L14.0412 5.72037L13.3217 5.1977L12.6022 5.72037L12.8771 4.87462L12.1576 4.35185H13.0469L13.3217 3.5061Z" fill="#F0F0F0"/>
<path d="M11.164 5.1665L11.4387 6.0123H12.3281L11.6086 6.53502L11.8834 7.38077L11.164 6.8581L10.4444 7.38077L10.7193 6.53502L9.99976 6.0123H10.8891L11.164 5.1665Z" fill="#F0F0F0"/>
<path d="M15.4786 5.1665L15.7534 6.0123H16.6427L15.9232 6.53502L16.1981 7.38077L15.4786 6.8581L14.7591 7.38077L15.0339 6.53502L14.3145 6.0123H15.2037L15.4786 5.1665Z" fill="#F0F0F0"/>
<path d="M14.6482 7.65771L14.9231 8.50351H15.8123L15.0929 9.02623L15.3677 9.87198L14.6482 9.34931L13.9288 9.87198L14.2036 9.02623L13.4841 8.50351H14.3733L14.6482 7.65771Z" fill="#F0F0F0"/>
<path d="M11.9944 7.65771L12.2691 8.50351H13.1585L12.439 9.02623L12.7139 9.87198L11.9944 9.34931L11.2748 9.87198L11.5497 9.02623L10.8302 8.50351H11.7195L11.9944 7.65771Z" fill="#F0F0F0"/>
</g>
<defs>
<clipPath id="clip0_548_5732">
<rect width="25.4644" height="25.4644" fill="white" transform="translate(0.589355 0.461426)"/>
</clipPath>
</defs>
</svg>
