<svg width="27" height="26" viewBox="0 0 27 26" fill="none" xmlns="http://www.w3.org/2000/svg">
<g clip-path="url(#clip0_548_5757)">
<path d="M12.2402 14.1729C12.2402 14.1729 4.3517 4.0609 4.34424 4.06269C6.64827 1.75861 9.83138 0.333496 13.3473 0.333496C20.3791 0.333496 26.0795 6.03395 26.0795 13.0657L12.2402 14.1729Z" fill="#D80027"/>
<path d="M12.2402 13.0649C12.2402 13.0649 4.3517 22.0698 4.34424 22.068C6.64827 24.372 9.83138 25.7972 13.3473 25.7972C20.3791 25.7972 26.0795 20.0967 26.0795 13.0649H12.2402Z" fill="#0052B4"/>
<path d="M4.34441 4.0625C-0.627823 9.03473 -0.627823 17.0964 4.34441 22.0686C6.39912 20.0139 8.37525 18.0378 13.3475 13.0656L4.34441 4.0625Z" fill="#F0F0F0"/>
<path d="M2.01096 13.0649C2.00399 13.1564 1.99927 13.2485 1.99927 13.3417C1.99927 15.3289 3.61029 16.9399 5.59751 16.9399C7.58473 16.9399 9.19576 15.3289 9.19576 13.3417C9.19576 13.2485 9.19103 13.1563 9.18407 13.0649H2.01096Z" fill="#FFDA44"/>
<path d="M5.59739 11.4038C6.20886 11.4038 6.70455 10.9081 6.70455 10.2966C6.70455 9.68514 6.20886 9.18945 5.59739 9.18945C4.98593 9.18945 4.49023 9.68514 4.49023 10.2966C4.49023 10.9081 4.98593 11.4038 5.59739 11.4038Z" fill="#FFDA44"/>
<path d="M3.1062 10.021V13.6192C3.1062 15.5261 5.59729 16.1103 5.59729 16.1103C5.59729 16.1103 8.08838 15.5261 8.08838 13.6192V10.021H3.1062Z" fill="#D80027"/>
<path d="M5.59855 14.9514C5.13641 14.7851 4.21338 14.3601 4.21338 13.619V11.1279H6.98129V13.619C6.98129 14.3625 6.05836 14.7865 5.59855 14.9514V14.9514Z" fill="#338AF3"/>
<path d="M6.15078 12.512V11.9584L5.59723 11.6816L5.04362 11.9584V12.512L4.76685 12.7888V13.896H6.4276V12.7888L6.15078 12.512Z" fill="#F3F3F3"/>
</g>
<defs>
<clipPath id="clip0_548_5757">
<rect width="25.4644" height="25.4644" fill="white" transform="translate(0.615234 0.333008)"/>
</clipPath>
</defs>
</svg>
