<svg width="26" height="26" viewBox="0 0 26 26" fill="none" xmlns="http://www.w3.org/2000/svg">
<g clip-path="url(#clip0_548_5742)">
<path d="M6.01709 23.7116C8.06051 25.1085 10.5312 25.926 13.1932 25.926C15.8553 25.926 18.326 25.1085 20.3694 23.7116L13.1932 22.6045L6.01709 23.7116Z" fill="#D80027"/>
<path d="M20.3694 2.67574C18.326 1.27892 15.8553 0.461426 13.1932 0.461426C10.5312 0.461426 8.06041 1.27892 6.01709 2.67574L13.1932 3.78289L20.3694 2.67574Z" fill="#D80027"/>
<path d="M6.01746 23.7116C8.06088 25.1085 10.5316 25.926 13.1936 25.926C15.8556 25.926 18.3264 25.1085 20.3697 23.7116L13.1936 22.6045L6.01746 23.7116Z" fill="#D80027"/>
<path d="M20.3697 2.67501C18.3264 1.27819 15.8556 0.460693 13.1936 0.460693C10.5316 0.460693 8.06078 1.27819 6.01746 2.67501L13.1936 3.78216L20.3697 2.67501Z" fill="#D80027"/>
<path d="M25.8932 12.3631C25.5915 8.43353 23.2039 4.61307 20.3695 2.67554H6.01723C2.87715 4.82216 0.747135 8.33784 0.487915 12.3631L13.1934 13.1935L25.8932 12.3631Z" fill="#0052B4"/>
<path d="M0.488037 14.0237C0.747257 18.0491 2.87722 21.5647 6.0173 23.7113H20.3696C23.5098 21.5647 25.6397 18.0491 25.8989 14.0237L13.1935 13.1934L0.488037 14.0237Z" fill="#0052B4"/>
<path d="M25.8931 12.3631H14.0237V2.12207H12.3629V12.3631H0.487867C0.470211 12.6377 0.46106 12.9146 0.46106 13.1936C0.46106 13.4725 0.470161 13.7494 0.487817 14.0239H12.3629V24.2651H14.0237V14.0239H25.8988C25.9164 13.7494 25.9255 13.4725 25.9255 13.1936C25.9255 12.9166 25.9143 12.6396 25.8931 12.3631Z" fill="#D80027"/>
<path d="M5.44312 13.1934L13.1931 8.32227L20.9432 13.1934L13.1931 18.0646L5.44312 13.1934Z" fill="#F0F0F0"/>
<path d="M8.76477 15.4079H18.7291L16.5148 12.0864L15.4077 13.1936L14.3005 12.64L13.1933 14.3007H10.979L9.87188 13.1936L8.76477 15.4079Z" fill="#6DA544"/>
<path d="M13.1931 9.87207L13.4679 10.7178H14.3572L13.6377 11.2406L13.9126 12.0864L13.1931 11.5637L12.4736 12.0864L12.7485 11.2406L12.0291 10.7178H12.9183L13.1931 9.87207Z" fill="#FFDA44"/>
<path d="M13.1932 6.93066L3.22888 13.1936L13.1932 19.4566L23.1576 13.1936L13.1932 6.93066ZM6.34967 13.1936L13.1932 8.89217L20.0368 13.1936L13.1932 17.4951L6.34967 13.1936Z" fill="#D80027"/>
</g>
<defs>
<clipPath id="clip0_548_5742">
<rect width="25.4644" height="25.4644" fill="white" transform="translate(0.461426 0.461426)"/>
</clipPath>
</defs>
</svg>
