<svg width="26" height="26" viewBox="0 0 26 26" fill="none" xmlns="http://www.w3.org/2000/svg">
<g clip-path="url(#clip0_548_5775)">
<path d="M13.091 25.7979C20.1228 25.7979 25.8232 20.0975 25.8232 13.0657C25.8232 6.0339 20.1228 0.333496 13.091 0.333496C6.05917 0.333496 0.358765 6.0339 0.358765 13.0657C0.358765 20.0975 6.05917 25.7979 13.091 25.7979Z" fill="#F0F0F0"/>
<path d="M25.0313 8.6369H11.4303V5.31543H4.78734V8.6369H1.1507C0.638923 10.0162 0.358765 11.5081 0.358765 13.0655C0.358765 14.6229 0.638923 16.1147 1.1507 17.494L13.091 18.6012L25.0313 17.494C25.543 16.1147 25.8232 14.6229 25.8232 13.0655C25.8232 11.5081 25.543 10.0162 25.0313 8.6369Z" fill="#0052B4"/>
<path d="M13.0909 25.7973C18.5653 25.7973 23.2322 22.3421 25.0312 17.4937H1.15063C2.94961 22.3421 7.61651 25.7973 13.0909 25.7973Z" fill="#D80027"/>
<path d="M4.78723 8.63656V9.74367C4.78723 12.2862 8.1087 13.0652 8.1087 13.0652C8.1087 13.0652 11.4302 12.2862 11.4302 9.74367V8.63656L10.323 9.74372L8.1087 8.08301L5.89439 9.74372L4.78723 8.63656Z" fill="#F0F0F0"/>
</g>
<defs>
<clipPath id="clip0_548_5775">
<rect width="25.4644" height="25.4644" fill="white" transform="translate(0.358398 0.333008)"/>
</clipPath>
</defs>
</svg>
