<svg width="26" height="26" viewBox="0 0 26 26" fill="none" xmlns="http://www.w3.org/2000/svg">
<g clip-path="url(#clip0_548_5767)">
<path d="M13.2194 25.7979C20.2512 25.7979 25.9516 20.0975 25.9516 13.0657C25.9516 6.0339 20.2512 0.333496 13.2194 0.333496C6.18759 0.333496 0.487183 6.0339 0.487183 13.0657C0.487183 20.0975 6.18759 25.7979 13.2194 25.7979Z" fill="#F0F0F0"/>
<path d="M13.219 25.7975C20.2508 25.7975 25.9513 20.0971 25.9513 13.0653C25.9513 11.5079 25.6711 10.016 25.1593 8.63672H1.27875C0.766975 10.016 0.486816 11.5079 0.486816 13.0653C0.486816 20.0971 6.18727 25.7975 13.219 25.7975Z" fill="#0052B4"/>
<path d="M13.219 25.7973C18.6934 25.7973 23.3603 22.3421 25.1593 17.4937H1.27869C3.07766 22.3421 7.74456 25.7973 13.219 25.7973Z" fill="#D80027"/>
<path d="M3.77917 7.5293V13.8808C3.77917 17.4938 8.4991 18.6008 8.4991 18.6008C8.4991 18.6008 13.219 17.4938 13.219 13.8808V7.5293H3.77917Z" fill="#F0F0F0"/>
<path d="M4.88635 7.5293V13.8808C4.88635 14.3049 4.98055 14.7055 5.16716 15.081H11.831C12.0176 14.7055 12.1118 14.3049 12.1118 13.8808V7.5293H4.88635Z" fill="#D80027"/>
<path d="M10.7135 11.9581H9.05283V10.851H10.16V9.74382H9.05283V8.63672H7.94567V9.74382H6.83856V10.851H7.94567V11.9581H6.28491V13.0653H7.94567V14.1724H9.05283V13.0653H10.7135V11.9581Z" fill="#F0F0F0"/>
<path d="M6.67747 16.6266C7.39092 17.075 8.12392 17.3353 8.49917 17.451C8.87442 17.3353 9.60742 17.075 10.3209 16.6266C11.0403 16.1744 11.5447 15.6572 11.8311 15.0811C11.5152 14.8576 11.1298 14.7258 10.7135 14.7258C10.5619 14.7258 10.4146 14.7438 10.273 14.7767C9.97297 14.095 9.29185 13.6187 8.49922 13.6187C7.70659 13.6187 7.02542 14.095 6.72541 14.7767C6.58382 14.7438 6.4365 14.7258 6.28496 14.7258C5.86863 14.7258 5.48323 14.8576 5.16736 15.0811C5.45358 15.6572 5.95795 16.1743 6.67747 16.6266Z" fill="#0052B4"/>
</g>
<defs>
<clipPath id="clip0_548_5767">
<rect width="25.4644" height="25.4644" fill="white" transform="translate(0.487305 0.333008)"/>
</clipPath>
</defs>
</svg>
