<svg width="26" height="26" viewBox="0 0 26 26" fill="none" xmlns="http://www.w3.org/2000/svg">
<g clip-path="url(#clip0_548_5780)">
<path d="M21.9659 22.0686C26.741 17.2934 26.9296 9.66978 22.5335 4.66846L12.9625 13.0651L4.5658 22.6362C9.56712 27.0322 17.1907 26.8437 21.9659 22.0686V22.0686Z" fill="#496E2D"/>
<path d="M3.95917 4.06235C8.7343 -0.712783 16.358 -0.901329 21.3593 3.49472L12.9625 13.0659L3.39159 21.4625C-1.0045 16.4611 -0.815907 8.83747 3.95917 4.06235V4.06235Z" fill="#0052B4"/>
<path d="M21.3593 3.49414L3.3916 21.4619C3.57323 21.6685 3.76183 21.8713 3.95923 22.0686C4.15658 22.2659 4.35935 22.4545 4.56605 22.6362L22.5336 4.66849C22.352 4.46179 22.1634 4.25907 21.966 4.06167C21.7687 3.86442 21.5659 3.67577 21.3593 3.49414V3.49414Z" fill="#FFDA44"/>
<path d="M5.59482 4.76123L5.8697 5.60708H6.75902L6.03955 6.12974L6.31434 6.97559L5.59482 6.45282L4.8753 6.97559L5.15018 6.12974L4.43066 5.60708H5.32003L5.59482 4.76123Z" fill="#F0F0F0"/>
<path d="M10.1377 4.76123L10.4125 5.60708H11.3018L10.5823 6.12974L10.8572 6.97559L10.1377 6.45282L9.41814 6.97559L9.69303 6.12974L8.97351 5.60708H9.86283L10.1377 4.76123Z" fill="#F0F0F0"/>
<path d="M5.59482 9.19043L5.8697 10.0363H6.75902L6.03955 10.559L6.31434 11.4048L5.59482 10.8821L4.8753 11.4048L5.15018 10.559L4.43066 10.0363H5.32003L5.59482 9.19043Z" fill="#F0F0F0"/>
<path d="M10.1377 9.19043L10.4125 10.0363H11.3018L10.5823 10.559L10.8572 11.4048L10.1377 10.8821L9.41814 11.4048L9.69303 10.559L8.97351 10.0363H9.86283L10.1377 9.19043Z" fill="#F0F0F0"/>
<path d="M7.86647 6.97559L8.14136 7.82143H9.03063L8.31116 8.34415L8.58599 9.19L7.86647 8.66723L7.14695 9.19L7.42179 8.34415L6.70227 7.82143H7.59164L7.86647 6.97559Z" fill="#F0F0F0"/>
</g>
<defs>
<clipPath id="clip0_548_5780">
<rect width="25.4645" height="25.4645" fill="white" transform="translate(0.230469 0.333008)"/>
</clipPath>
</defs>
</svg>
