<svg width="27" height="26" viewBox="0 0 27 26" fill="none" xmlns="http://www.w3.org/2000/svg">
<g clip-path="url(#clip0_548_5793)">
<path d="M25.6465 17.4936C26.1583 16.1143 26.4384 14.6224 26.4384 13.065C26.4384 11.5076 26.1583 10.0158 25.6465 8.63645L13.7062 7.5293L1.76593 8.63645C1.25416 10.0158 0.973999 11.5076 0.973999 13.065C0.973999 14.6224 1.25416 16.1143 1.76593 17.4936L13.7062 18.6008L25.6465 17.4936Z" fill="#F0F0F0"/>
<path d="M13.7062 25.7973C19.1806 25.7973 23.8475 22.3421 25.6464 17.4937H1.76587C3.56489 22.3421 8.23175 25.7973 13.7062 25.7973Z" fill="#D80027"/>
<path d="M13.7062 0.333496C8.23175 0.333496 3.56489 3.7887 1.76587 8.63714H25.6465C23.8475 3.7887 19.1806 0.333496 13.7062 0.333496Z" fill="#496E2D"/>
<path d="M13.7062 10.2974L14.3932 12.4118H16.6165L14.8178 13.7186L15.5049 15.8331L13.7062 14.5264L11.9075 15.8331L12.5946 13.7186L10.7959 12.4118H13.0192L13.7062 10.2974Z" fill="black"/>
<path d="M17.489 2.82471V5.408C17.489 5.81509 17.158 6.14612 16.751 6.14612V7.25328C17.7685 7.25328 18.5962 6.42554 18.5962 5.408V2.82471H17.489Z" fill="#F0F0F0"/>
<path d="M9.5544 5.408C9.5544 5.81509 9.22332 6.14612 8.81628 6.14612V7.25328C9.83382 7.25328 10.6616 6.42554 10.6616 5.408V2.82471H9.5544V5.408Z" fill="#F0F0F0"/>
<path d="M15.8281 2.82471H16.9353V5.408H15.8281V2.82471Z" fill="#F0F0F0"/>
<path d="M14.1674 4.30085C14.1674 4.40261 14.0846 4.48542 13.9829 4.48542C13.8811 4.48542 13.7983 4.40261 13.7983 4.30085V2.82471H12.6912V4.30085C12.6912 4.40261 12.6084 4.48542 12.5066 4.48542C12.4049 4.48542 12.3221 4.40261 12.3221 4.30085V2.82471H11.215V4.30085C11.215 5.01316 11.7944 5.59257 12.5066 5.59257C12.7809 5.59257 13.0354 5.50638 13.2447 5.36001C13.4541 5.50638 13.7085 5.59257 13.9828 5.59257C14.0381 5.59257 14.0924 5.58869 14.1458 5.58188C14.0673 5.90511 13.7762 6.14612 13.4293 6.14612V7.25328C14.4468 7.25328 15.2745 6.42554 15.2745 5.408V4.30085V2.82471H14.1673L14.1674 4.30085Z" fill="#F0F0F0"/>
<path d="M11.215 6.146H12.8757V7.25315H11.215V6.146Z" fill="#F0F0F0"/>
</g>
<defs>
<clipPath id="clip0_548_5793">
<rect width="25.4644" height="25.4644" fill="white" transform="translate(0.974609 0.333008)"/>
</clipPath>
</defs>
</svg>
