<svg width="27" height="26" viewBox="0 0 27 26" fill="none" xmlns="http://www.w3.org/2000/svg">
<g clip-path="url(#clip0_548_5833)">
<path d="M13.3212 25.7974C20.353 25.7974 26.0534 20.097 26.0534 13.0652C26.0534 6.03342 20.353 0.333008 13.3212 0.333008C6.2894 0.333008 0.588989 6.03342 0.588989 13.0652C0.588989 20.097 6.2894 25.7974 13.3212 25.7974Z" fill="#F0F0F0"/>
<path d="M25.0604 8.12964C23.1322 3.54948 18.6028 0.333496 13.3215 0.333496C9.80549 0.333496 6.62278 1.75886 4.31885 4.06309L7.50737 8.12964H25.0604Z" fill="black"/>
<path d="M7.54353 17.9556L4.31885 22.0682C6.62278 24.3725 9.80549 25.7978 13.3215 25.7978C18.6206 25.7978 23.163 22.5604 25.0801 17.9556H7.54353Z" fill="#496E2D"/>
<path d="M3.35693 9.69727V16.3863H25.6149C25.9005 15.3273 26.0535 14.2141 26.0535 13.0648C26.0535 11.8989 25.8964 10.77 25.6028 9.69727H3.35693Z" fill="#A2001D"/>
<path d="M4.31828 4.0625C-0.653946 9.03473 -0.653946 17.0964 4.31828 22.0686C6.37299 20.0139 8.34912 18.0378 13.3214 13.0656L4.31828 4.0625Z" fill="#0052B4"/>
<path d="M4.7369 9.8999L6.29088 12.0684L8.83374 11.2605L7.25161 13.4087L8.80559 15.5773L6.27367 14.7364L4.69149 16.8846L4.7089 14.2166L2.17688 13.3756L4.71954 12.5677L4.7369 9.8999Z" fill="#FFDA44"/>
</g>
<defs>
<clipPath id="clip0_548_5833">
<rect width="25.4644" height="25.4644" fill="white" transform="translate(0.589355 0.333008)"/>
</clipPath>
</defs>
</svg>
