<svg width="27" height="26" viewBox="0 0 27 26" fill="none" xmlns="http://www.w3.org/2000/svg">
<g clip-path="url(#clip0_548_5804)">
<path d="M13.5782 25.7979C20.61 25.7979 26.3104 20.0975 26.3104 13.0657C26.3104 6.0339 20.61 0.333496 13.5782 0.333496C6.54636 0.333496 0.845947 6.0339 0.845947 13.0657C0.845947 20.0975 6.54636 25.7979 13.5782 25.7979Z" fill="#F0F0F0"/>
<path d="M4.57512 22.0686C-0.39711 17.0964 -0.39711 9.03478 4.57512 4.0625C4.57477 4.06305 11.9175 13.0656 11.9175 13.0656L4.57512 22.0686Z" fill="black"/>
<path d="M11.9176 13.0652L2.53471 6.72461C2.24381 7.23027 1.98727 7.75806 1.76685 8.30435L6.51701 13.0653L1.76699 17.8264C1.98722 18.3723 2.24351 18.8997 2.53421 19.4051L11.9176 13.0652Z" fill="#FFDA44"/>
<path d="M26.2026 11.4047H11.9171L4.57494 4.0625C3.78375 4.85369 3.09636 5.74847 2.53455 6.72483L8.86282 13.0654L2.53406 19.4051C3.09587 20.3817 3.78356 21.2768 4.57494 22.0682L11.9171 14.7261H26.2026C26.2733 14.1825 26.3103 13.6282 26.3103 13.0654C26.3103 12.5025 26.2733 11.9483 26.2026 11.4047V11.4047Z" fill="#6DA544"/>
<path d="M5.82581 23.1658C7.97283 24.8161 10.6604 25.798 13.5776 25.798C19.4603 25.798 24.4102 21.8081 25.8712 16.3872H12.6045L5.82581 23.1658Z" fill="#0052B4"/>
<path d="M25.8712 9.74425C24.4102 4.3233 19.4603 0.333496 13.5776 0.333496C10.6604 0.333496 7.97283 1.31532 5.82581 2.96563L12.6044 9.74425H25.8712Z" fill="#D80027"/>
</g>
<defs>
<clipPath id="clip0_548_5804">
<rect width="25.4644" height="25.4644" fill="white" transform="translate(0.845703 0.333008)"/>
</clipPath>
</defs>
</svg>
