<svg width="27" height="26" viewBox="0 0 27 26" fill="none" xmlns="http://www.w3.org/2000/svg">
<g clip-path="url(#clip0_548_5811)">
<path d="M13.4499 25.9256C20.4817 25.9256 26.1821 20.2252 26.1821 13.1934C26.1821 6.16159 20.4817 0.461182 13.4499 0.461182C6.41806 0.461182 0.717651 6.16159 0.717651 13.1934C0.717651 20.2252 6.41806 25.9256 13.4499 25.9256Z" fill="#F0F0F0"/>
<path d="M17.8784 13.1932C17.8784 14.3004 15.8956 17.0682 13.4498 17.0682C11.004 17.0682 9.02124 14.3004 9.02124 13.1932C9.02124 10.7473 11.004 8.76465 13.4498 8.76465C15.8956 8.76465 17.8784 10.7473 17.8784 13.1932Z" fill="#D80027"/>
<path d="M17.8784 13.1934C17.8784 15.6392 15.8956 17.6219 13.4498 17.6219C11.004 17.6219 9.02124 15.6392 9.02124 13.1934" fill="#0052B4"/>
<path d="M18.1437 17.1084L19.3178 15.9343L20.1006 16.717L18.9264 17.8912L18.1437 17.1084Z" fill="black"/>
<path d="M16.186 19.0649L17.3602 17.8908L18.1429 18.6736L16.9688 19.8477L16.186 19.0649Z" fill="black"/>
<path d="M20.4919 19.4561L21.6661 18.2819L22.4488 19.0647L21.2747 20.2388L20.4919 19.4561Z" fill="black"/>
<path d="M18.5345 21.4136L19.7087 20.2395L20.4914 21.0222L19.3173 22.1963L18.5345 21.4136Z" fill="black"/>
<path d="M19.3176 18.2817L20.4917 17.1076L21.2745 17.8904L20.1004 19.0645L19.3176 18.2817Z" fill="black"/>
<path d="M17.3606 20.2393L18.5347 19.0651L19.3175 19.8479L18.1434 21.022L17.3606 20.2393Z" fill="black"/>
<path d="M20.4971 9.28125L17.3661 6.15025L18.1488 5.36749L21.2798 8.49849L20.4971 9.28125Z" fill="black"/>
<path d="M17.3655 8.49854L16.1914 7.32441L16.9741 6.54169L18.1482 7.71581L17.3655 8.49854Z" fill="black"/>
<path d="M19.3223 10.4561L18.1481 9.28193L18.9309 8.49921L20.105 9.67333L19.3223 10.4561Z" fill="black"/>
<path d="M19.7134 6.1499L18.5393 4.97578L19.322 4.19302L20.4961 5.36714L19.7134 6.1499Z" fill="black"/>
<path d="M21.6716 8.10791L20.4975 6.93379L21.2803 6.15103L22.4544 7.32515L21.6716 8.10791Z" fill="black"/>
<path d="M5.2312 18.2798L8.3622 21.4108L7.57944 22.1935L4.44844 19.0625L5.2312 18.2798Z" fill="black"/>
<path d="M8.36206 19.062L9.53618 20.2361L8.75346 21.0189L7.57934 19.8447L8.36206 19.062Z" fill="black"/>
<path d="M6.40515 17.1055L7.57927 18.2796L6.79651 19.0623L5.62239 17.8882L6.40515 17.1055Z" fill="black"/>
<path d="M7.5791 15.9312L10.7101 19.0622L9.92734 19.8449L6.79634 16.7139L7.5791 15.9312Z" fill="black"/>
<path d="M8.36182 4.97339L5.23081 8.10439L4.44806 7.32163L7.57906 4.19063L8.36182 4.97339Z" fill="black"/>
<path d="M9.53601 6.14746L6.40501 9.27846L5.62225 8.4957L8.75325 5.3647L9.53601 6.14746Z" fill="black"/>
<path d="M10.7112 7.32227L7.58018 10.4533L6.79746 9.67054L9.92846 6.53954L10.7112 7.32227Z" fill="black"/>
</g>
<defs>
<clipPath id="clip0_548_5811">
<rect width="25.4644" height="25.4644" fill="white" transform="translate(0.717773 0.461426)"/>
</clipPath>
</defs>
</svg>
