<svg width="26" height="26" viewBox="0 0 26 26" fill="none" xmlns="http://www.w3.org/2000/svg">
<g clip-path="url(#clip0_548_5840)">
<path d="M0.46106 13.065C0.46106 14.6224 0.741218 16.1143 1.25299 17.4936L13.1933 18.6008L25.1336 17.4936C25.6453 16.1143 25.9255 14.6224 25.9255 13.065C25.9255 11.5076 25.6453 10.0158 25.1336 8.63645L13.1933 7.5293L1.25299 8.63645C0.741218 10.0158 0.46106 11.5076 0.46106 13.065H0.46106Z" fill="#FFDA44"/>
<path d="M25.1335 8.63616C23.3345 3.78777 18.6676 0.33252 13.1932 0.33252C7.71881 0.33252 3.0519 3.78777 1.25293 8.63616H25.1335Z" fill="#D80027"/>
<path d="M1.25293 17.4937C3.0519 22.342 7.71881 25.7973 13.1932 25.7973C18.6676 25.7973 23.3345 22.342 25.1335 17.4937H1.25293Z" fill="#D80027"/>
</g>
<defs>
<clipPath id="clip0_548_5840">
<rect width="25.4644" height="25.4644" fill="white" transform="translate(0.461426 0.333008)"/>
</clipPath>
</defs>
</svg>
