<svg width="27" height="26" viewBox="0 0 27 26" fill="none" xmlns="http://www.w3.org/2000/svg">
<g clip-path="url(#clip0_548_5845)">
<path d="M13.7061 25.669C20.7379 25.669 26.4383 19.9686 26.4383 12.9368C26.4383 5.90499 20.7379 0.20459 13.7061 0.20459C6.67427 0.20459 0.973877 5.90499 0.973877 12.9368C0.973877 19.9686 6.67427 25.669 13.7061 25.669Z" fill="#FFDA44"/>
<path d="M10.9382 2.41895H6.52993C6.33457 2.55248 6.14339 2.69149 5.95603 2.83538L4.84888 12.9368L5.95603 23.0382C6.14339 23.1822 6.33457 23.3212 6.52993 23.4547H10.9382V2.41895Z" fill="#FF9811"/>
<path d="M0.973999 12.9369C0.973999 17.0523 2.927 20.7109 5.95618 23.0383V2.83545C2.927 5.16296 0.973999 8.82158 0.973999 12.9369V12.9369Z" fill="#6DA544"/>
<path d="M21.4563 7.9668V8.28549L21.4681 8.28728L21.4563 7.9668Z" fill="#FFDA44"/>
<path d="M25.4235 16.2583H23.0246L22.0097 17.3654V19.5797H19.7954V18.4726H20.9026V16.2583H15.9204V17.6422H14.8133V15.0047C14.4736 14.7006 14.2597 14.2589 14.2597 13.7672V6.57074C14.2597 5.65358 15.0032 4.91003 15.9204 4.91003V15.1512H18.1347L18.8945 14.518C18.7618 14.2019 18.6883 13.8548 18.6883 13.4905V11.8297H17.0276V8.50833H20.349C20.349 7.95477 21.1794 7.40117 21.1794 7.40117C21.1794 7.40117 22.0097 7.95472 22.0097 8.50833V9.33871V11.8298C22.6256 11.8371 23.6041 11.8211 24.6612 11.8298C24.3835 11.3444 24.224 10.7684 24.224 10.1691C24.224 9.19224 24.6458 8.31401 25.3171 7.70625C24.3494 5.56191 22.8054 3.73355 20.8823 2.41895H12.599V23.4548H20.8823C23.2208 21.8562 24.9988 19.4982 25.8614 16.736L25.4235 16.2583Z" fill="#A2001D"/>
</g>
<defs>
<clipPath id="clip0_548_5845">
<rect width="25.4644" height="25.4644" fill="white" transform="translate(0.973633 0.20459)"/>
</clipPath>
</defs>
</svg>
