<svg width="26" height="26" viewBox="0 0 26 26" fill="none" xmlns="http://www.w3.org/2000/svg">
<g clip-path="url(#clip0_548_5852)">
<path d="M12.8343 25.5411C19.8661 25.5411 25.5665 19.8407 25.5665 12.8089C25.5665 5.77707 19.8661 0.0766602 12.8343 0.0766602C5.80246 0.0766602 0.102051 5.77707 0.102051 12.8089C0.102051 19.8407 5.80246 25.5411 12.8343 25.5411Z" fill="#F0F0F0"/>
<path d="M22.8358 10.3175H18.6471C18.6471 9.55321 18.0275 8.93359 17.2632 8.93359L16.156 11.1479C16.156 11.1479 17.337 14.4693 17.3001 14.4693H18.684C19.4483 14.4693 20.0679 13.8498 20.0679 13.0854C20.8323 13.0854 21.4518 12.4659 21.4518 11.7015H21.4057C22.17 11.7014 22.8358 11.0819 22.8358 10.3175Z" fill="#ACABB1"/>
<path d="M2.83337 10.3175H7.02208C7.02208 9.55321 7.64169 8.93359 8.406 8.93359L9.51317 11.1479C9.51317 11.1479 8.33218 14.4693 8.36912 14.4693H6.98519C6.22083 14.4693 5.60127 13.8498 5.60127 13.0854C4.83691 13.0854 4.21735 12.4659 4.21735 11.7015H4.26344C3.49908 11.7014 2.83337 11.0819 2.83337 10.3175V10.3175Z" fill="#ACABB1"/>
<path d="M17.263 17.791V18.3446H8.40582V17.791H6.19153V20.0053H8.40582V20.5589H17.263V20.0053H19.4773V17.791H17.263Z" fill="#FFDA44"/>
<path d="M8.40601 8.93344V14.4691C8.40601 17.859 12.8346 18.8978 12.8346 18.8978C12.8346 18.8978 17.2632 17.859 17.2632 14.4691V8.93344L12.8346 8.37988L8.40601 8.93344Z" fill="#0052B4"/>
<path d="M8.40601 11.1484H17.2632V14.4699H8.40601V11.1484Z" fill="#D80027"/>
<path d="M15.0489 6.16576V6.99613L14.4953 7.27293L13.9418 6.71932V5.05859H11.7275V6.71932L11.1739 7.27293L10.6203 6.99613V6.16576H8.40601V8.93361H17.2632V6.16576H15.0489Z" fill="#FFDA44"/>
</g>
<defs>
<clipPath id="clip0_548_5852">
<rect width="25.4644" height="25.4644" fill="white" transform="translate(0.102539 0.0761719)"/>
</clipPath>
</defs>
</svg>
