<svg width="27" height="26" viewBox="0 0 27 26" fill="none" xmlns="http://www.w3.org/2000/svg">
<g clip-path="url(#clip0_548_5866)">
<path d="M19.6673 1.62477C17.8584 0.637823 15.7837 0.0766602 13.578 0.0766602C11.3722 0.0766602 9.29755 0.637823 7.48863 1.62477L6.38147 12.8089L7.48863 23.993C9.29755 24.9799 11.3722 25.5411 13.578 25.5411C15.7837 25.5411 17.8584 24.9799 19.6673 23.993L20.7744 12.8089L19.6673 1.62477Z" fill="#FFDA44"/>
<path d="M7.48883 23.9932V1.625C3.5311 3.7845 0.845947 7.9831 0.845947 12.8092C0.845947 17.6352 3.5311 21.8338 7.48883 23.9932Z" fill="#338AF3"/>
<path d="M26.3102 12.8087C26.3102 7.98261 23.6251 3.78401 19.6674 1.62451V23.9927C23.6251 21.8333 26.3102 17.6347 26.3102 12.8087V12.8087Z" fill="#6DA544"/>
<path d="M10.8102 16.1302L8.59583 12.8088L10.8101 9.4873L13.0245 12.8088L10.8102 16.1302Z" fill="#6DA544"/>
<path d="M16.3458 16.1302L14.1315 12.8088L16.3458 9.4873L18.5601 12.8088L16.3458 16.1302Z" fill="#6DA544"/>
<path d="M13.5782 20.5584L11.3639 17.2369L13.5782 13.9155L15.7925 17.2369L13.5782 20.5584Z" fill="#6DA544"/>
</g>
<defs>
<clipPath id="clip0_548_5866">
<rect width="25.4644" height="25.4644" fill="white" transform="translate(0.845703 0.0761719)"/>
</clipPath>
</defs>
</svg>
