<svg width="27" height="26" viewBox="0 0 27 26" fill="none" xmlns="http://www.w3.org/2000/svg">
<g clip-path="url(#clip0_548_5874)">
<path d="M1.9809 7.40159C1.17151 9.07548 0.717529 10.9533 0.717529 12.9373C0.717529 14.9213 1.17151 16.7992 1.9809 18.473L13.4497 19.5802L24.9186 18.473C25.728 16.7992 26.182 14.9213 26.182 12.9373C26.182 10.9533 25.728 9.07548 24.9186 7.40159L13.4497 6.29443L1.9809 7.40159Z" fill="#F0F0F0"/>
<path d="M1.9812 18.4727C4.04054 22.7315 8.40177 25.6691 13.4496 25.6691C18.4974 25.6691 22.8587 22.7315 24.918 18.4727H1.9812Z" fill="black"/>
<path d="M1.9812 7.40108H24.918C22.8587 3.1422 18.4974 0.20459 13.4496 0.20459C8.40177 0.20459 4.04054 3.1422 1.9812 7.40108Z" fill="#D80027"/>
<path d="M4.4467 3.93408C-0.525528 8.90631 -0.525528 16.9679 4.4467 21.9402C6.50141 19.8855 8.47754 17.9094 13.4498 12.9372L4.4467 3.93408Z" fill="#496E2D"/>
</g>
<defs>
<clipPath id="clip0_548_5874">
<rect width="25.4644" height="25.4644" fill="white" transform="translate(0.717773 0.20459)"/>
</clipPath>
</defs>
</svg>
