<svg width="27" height="26" viewBox="0 0 27 26" fill="none" xmlns="http://www.w3.org/2000/svg">
<g clip-path="url(#clip0_548_5879)">
<path d="M13.3212 25.669C20.353 25.669 26.0534 19.9686 26.0534 12.9368C26.0534 5.905 20.353 0.20459 13.3212 0.20459C6.2894 0.20459 0.588989 5.905 0.588989 12.9368C0.588989 19.9686 6.2894 25.669 13.3212 25.669Z" fill="#F0F0F0"/>
<path d="M25.2616 8.50879H1.381C0.86927 9.88815 0.589111 11.38 0.589111 12.9374C0.589111 14.4948 0.86927 15.9867 1.381 17.3659H25.2616C25.7734 15.9867 26.0535 14.4948 26.0535 12.9374C26.0535 11.38 25.7734 9.88815 25.2616 8.50879Z" fill="#A2001D"/>
<path d="M13.3581 25.6695C17.719 25.6695 21.5673 23.4766 23.862 20.1338H2.85425C5.14893 23.4766 8.99714 25.6695 13.3581 25.6695Z" fill="#6DA544"/>
<path d="M13.3582 0.205078C17.7191 0.205078 21.5674 2.398 23.8621 5.74081H2.85437C5.14905 2.398 8.99727 0.205078 13.3582 0.205078V0.205078Z" fill="#6DA544"/>
<path d="M13.3217 8.50879L14.4209 11.8918H17.9782L15.1003 13.9828L16.1996 17.3659L13.3217 15.2751L10.4437 17.3659L11.5431 13.9828L8.66516 11.8918H12.2225L13.3217 8.50879Z" fill="#FFDA44"/>
</g>
<defs>
<clipPath id="clip0_548_5879">
<rect width="25.4644" height="25.4644" fill="white" transform="translate(0.589355 0.20459)"/>
</clipPath>
</defs>
</svg>
