<svg width="26" height="26" viewBox="0 0 26 26" fill="none" xmlns="http://www.w3.org/2000/svg">
<g clip-path="url(#clip0_548_5886)">
<path d="M24.6621 18.4722C25.4715 16.7984 25.9255 14.9204 25.9255 12.9365C25.9255 10.9526 25.4715 9.07461 24.6621 7.40077L13.1933 6.84717L1.72443 7.40072C0.915043 9.07461 0.46106 10.9526 0.46106 12.9365C0.46106 14.9204 0.915043 16.7984 1.72443 18.4722L13.1933 19.0258L24.6621 18.4722Z" fill="#FFDA44"/>
<path d="M13.1933 0.20459C8.1455 0.20459 3.78392 3.1422 1.72449 7.40108H24.6621C22.6027 3.1422 18.2411 0.20459 13.1933 0.20459V0.20459Z" fill="black"/>
<path d="M13.1933 25.6691C8.1455 25.6691 3.78392 22.7315 1.72449 18.4727H24.6621C22.6027 22.7315 18.2411 25.6691 13.1933 25.6691V25.6691Z" fill="#0052B4"/>
<path d="M25.3242 9.06201H1.06231C0.672285 10.284 0.46106 11.5858 0.46106 12.937C0.46106 14.2883 0.672285 15.5901 1.06231 16.8121H25.3242C25.7143 15.5901 25.9255 14.2883 25.9255 12.937C25.9255 11.5858 25.7143 10.284 25.3242 9.06201Z" fill="#A2001D"/>
<path d="M4.88953 12.3828H21.4968V13.49H4.88953V12.3828Z" fill="#FFDA44"/>
<path d="M7.10352 10.1685H19.2822V11.2756H7.10352V10.1685Z" fill="#FFDA44"/>
<path d="M19.3618 12.9372C19.3618 12.9372 16.5148 16.2587 13.1934 16.2587C9.872 16.2587 9.87195 12.9372 9.87195 12.9372C9.87195 12.9372 9.87195 9.61572 13.1934 9.61572C16.5149 9.61572 19.3618 12.9372 19.3618 12.9372Z" fill="#F0F0F0"/>
<path d="M13.1932 16.2587C9.87172 16.2587 7.02478 12.9372 7.02478 12.9372C7.02478 12.9372 9.87172 9.61572 13.1932 9.61572" fill="black"/>
<path d="M10.979 11.8301H12.0862V14.0444H10.979V11.8301Z" fill="#F0F0F0"/>
<path d="M14.3004 11.8301H15.4076V14.0444H14.3004V11.8301Z" fill="black"/>
<path d="M4.88963 14.0444C5.50109 14.0444 5.99678 13.5487 5.99678 12.9372C5.99678 12.3258 5.50109 11.8301 4.88963 11.8301C4.27816 11.8301 3.78247 12.3258 3.78247 12.9372C3.78247 13.5487 4.27816 14.0444 4.88963 14.0444Z" fill="#0052B4"/>
<path d="M21.4973 14.0444C22.1088 14.0444 22.6044 13.5487 22.6044 12.9372C22.6044 12.3258 22.1088 11.8301 21.4973 11.8301C20.8858 11.8301 20.3901 12.3258 20.3901 12.9372C20.3901 13.5487 20.8858 14.0444 21.4973 14.0444Z" fill="#0052B4"/>
</g>
<defs>
<clipPath id="clip0_548_5886">
<rect width="25.4644" height="25.4644" fill="white" transform="translate(0.461426 0.20459)"/>
</clipPath>
</defs>
</svg>
