<svg width="27" height="26" viewBox="0 0 27 26" fill="none" xmlns="http://www.w3.org/2000/svg">
<g clip-path="url(#clip0_548_5901)">
<path d="M13.4497 25.7979C20.4816 25.7979 26.182 20.0975 26.182 13.0657C26.182 6.0339 20.4816 0.333496 13.4497 0.333496C6.41794 0.333496 0.717529 6.0339 0.717529 13.0657C0.717529 20.0975 6.41794 25.7979 13.4497 25.7979Z" fill="#FFDA44"/>
<path d="M10.6819 11.404H26.0742C25.2604 5.15694 19.9187 0.33252 13.4497 0.33252C12.4991 0.33252 11.5731 0.43761 10.6819 0.635158V11.404H10.6819Z" fill="#0052B4"/>
<path d="M7.3603 11.4037V1.88037C3.86422 3.78792 1.36149 7.28684 0.825195 11.4038H7.3603V11.4037Z" fill="#0052B4"/>
<path d="M7.36025 14.7256H0.825195C1.36149 18.8425 3.86422 22.3414 7.3603 24.2489L7.36025 14.7256Z" fill="#0052B4"/>
<path d="M10.6819 14.7256V25.4945C11.5731 25.692 12.4991 25.7971 13.4497 25.7971C19.9187 25.7971 25.2604 20.9727 26.0742 14.7256H10.6819V14.7256Z" fill="#0052B4"/>
</g>
<defs>
<clipPath id="clip0_548_5901">
<rect width="25.4644" height="25.4644" fill="white" transform="translate(0.717773 0.333008)"/>
</clipPath>
</defs>
</svg>
