<svg width="26" height="26" viewBox="0 0 26 26" fill="none" xmlns="http://www.w3.org/2000/svg">
<g clip-path="url(#clip0_548_5911)">
<path d="M13.1933 25.5411C20.2251 25.5411 25.9255 19.8407 25.9255 12.8089C25.9255 5.77707 20.2251 0.0766602 13.1933 0.0766602C6.16147 0.0766602 0.46106 5.77707 0.46106 12.8089C0.46106 19.8407 6.16147 25.5411 13.1933 25.5411Z" fill="#F0F0F0"/>
<path d="M13.1936 0.0766602C7.71917 0.0766602 3.05227 3.53187 1.2533 8.3803H25.1339C23.3349 3.53187 18.668 0.0766602 13.1936 0.0766602V0.0766602Z" fill="#D80027"/>
<path d="M13.1936 25.5409C18.668 25.5409 23.3349 22.0857 25.1339 17.2373H1.2533C3.05227 22.0857 7.71917 25.5409 13.1936 25.5409Z" fill="black"/>
<path d="M8.069 9.76465L8.75599 11.879H10.9793L9.18063 13.1859L9.86767 15.3004L8.069 13.9936L6.27032 15.3004L6.95737 13.1859L5.15869 11.879H7.38201L8.069 9.76465Z" fill="#6DA544"/>
<path d="M18.3184 9.76465L19.0054 11.879H21.2287L19.43 13.1859L20.1171 15.3004L18.3184 13.9936L16.5197 15.3004L17.2068 13.1859L15.4081 11.879H17.6314L18.3184 9.76465Z" fill="#6DA544"/>
</g>
<defs>
<clipPath id="clip0_548_5911">
<rect width="25.4644" height="25.4644" fill="white" transform="translate(0.461426 0.0761719)"/>
</clipPath>
</defs>
</svg>
