<svg width="26" height="26" viewBox="0 0 26 26" fill="none" xmlns="http://www.w3.org/2000/svg">
<g clip-path="url(#clip0_548_5918)">
<path d="M25.6948 12.8089C25.6948 19.8406 19.9943 25.5411 12.9626 25.5411C5.9308 25.5411 0.230347 19.8406 0.230347 12.8089C4.60357 8.43566 8.31252 4.72671 12.9626 0.0766602C19.9943 0.0766602 25.6948 5.77711 25.6948 12.8089Z" fill="#D80027"/>
<path d="M12.9626 12.8089C12.9626 5.77711 12.9626 4.94813 12.9626 0.0766602C5.9308 0.0766602 0.230347 5.77711 0.230347 12.8089H12.9626Z" fill="#0052B4"/>
<path d="M11.3019 7.52774L9.74693 8.25925L10.5749 9.76518L8.88646 9.4421L8.67245 11.1479L7.49641 9.89335L6.32027 11.1479L6.10636 9.4421L4.41785 9.76508L5.24584 8.25915L3.69092 7.52774L5.24589 6.79639L4.41785 5.2904L6.10631 5.61343L6.32032 3.90771L7.49641 5.16224L8.6725 3.90771L8.88646 5.61343L10.575 5.2904L9.74693 6.79644L11.3019 7.52774Z" fill="#F0F0F0"/>
<path d="M7.49674 9.89729C8.80567 9.89729 9.86677 8.83619 9.86677 7.52726C9.86677 6.21833 8.80567 5.15723 7.49674 5.15723C6.18781 5.15723 5.12671 6.21833 5.12671 7.52726C5.12671 8.83619 6.18781 9.89729 7.49674 9.89729Z" fill="#0052B4"/>
<path d="M7.49659 8.79089C6.80025 8.79089 6.23376 8.22436 6.23376 7.52801C6.23376 6.83167 6.8003 6.26514 7.49659 6.26514C8.19293 6.26514 8.75947 6.83167 8.75947 7.52801C8.75942 8.22436 8.19283 8.79089 7.49659 8.79089Z" fill="#F0F0F0"/>
</g>
<defs>
<clipPath id="clip0_548_5918">
<rect width="25.4644" height="25.4644" fill="white" transform="translate(0.230469 0.0761719)"/>
</clipPath>
</defs>
</svg>
