<svg width="27" height="26" viewBox="0 0 27 26" fill="none" xmlns="http://www.w3.org/2000/svg">
<g clip-path="url(#clip0_548_5924)">
<path d="M2.23737 7.27268C1.42798 8.94657 0.973999 10.8245 0.973999 12.8084C0.973999 14.7923 1.42798 16.6703 2.23737 18.3441L13.7062 19.4513L25.1751 18.3441C25.9845 16.6703 26.4384 14.7923 26.4384 12.8084C26.4384 10.8245 25.9845 8.94657 25.1751 7.27268L13.7062 6.16553L2.23737 7.27268Z" fill="#F0F0F0"/>
<path d="M2.23792 18.3447C4.2973 22.6036 8.65853 25.5412 13.7063 25.5412C18.7541 25.5412 23.1154 22.6036 25.1747 18.3447H2.23792Z" fill="#6DA544"/>
<path d="M2.23792 7.27315H25.1747C23.1154 3.01432 18.7541 0.0766602 13.7063 0.0766602C8.65853 0.0766602 4.2973 3.01432 2.23792 7.27315Z" fill="#D80027"/>
<path d="M11.4921 16.1297H15.9207V14.2476L15.035 14.6904L13.7064 13.3618L12.3778 14.6904L11.4921 14.2476V16.1297Z" fill="#FFDA44"/>
<path d="M8.95831 13.9155L9.16446 14.5499H9.83141L9.29178 14.9419L9.49793 15.5762L8.95831 15.1842L8.41868 15.5762L8.62483 14.9419L8.08521 14.5499H8.75215L8.95831 13.9155Z" fill="#FFDA44"/>
<path d="M9.59734 11.7012L9.8035 12.3355H10.4704L9.93082 12.7276L10.1369 13.3619L9.59734 12.9699L9.05772 13.3619L9.26387 12.7276L8.72424 12.3355H9.39119L9.59734 11.7012Z" fill="#FFDA44"/>
<path d="M11.424 10.0405L11.6302 10.6749H12.2971L11.7575 11.0669L11.9636 11.7012L11.424 11.3092L10.8844 11.7012L11.0905 11.0669L10.5509 10.6749H11.2179L11.424 10.0405Z" fill="#FFDA44"/>
<path d="M18.4545 13.9155L18.2484 14.5499H17.5814L18.121 14.9419L17.9149 15.5762L18.4545 15.1842L18.9941 15.5762L18.788 14.9419L19.3276 14.5499H18.6607L18.4545 13.9155Z" fill="#FFDA44"/>
<path d="M17.8152 11.7012L17.6091 12.3355H16.9421L17.4818 12.7276L17.2756 13.3619L17.8152 12.9699L18.3549 13.3619L18.1487 12.7276L18.6883 12.3355H18.0214L17.8152 11.7012Z" fill="#FFDA44"/>
<path d="M15.9885 10.0405L15.7824 10.6749H15.1155L15.655 11.0669L15.4489 11.7012L15.9885 11.3092L16.5281 11.7012L16.322 11.0669L16.8616 10.6749H16.1946L15.9885 10.0405Z" fill="#FFDA44"/>
<path d="M13.7062 9.20996L13.9124 9.84428H14.5793L14.0397 10.2363L14.2459 10.8707L13.7062 10.4787L13.1666 10.8707L13.3728 10.2363L12.8331 9.84428H13.5001L13.7062 9.20996Z" fill="#FFDA44"/>
</g>
<defs>
<clipPath id="clip0_548_5924">
<rect width="25.4644" height="25.4644" fill="white" transform="translate(0.973633 0.0761719)"/>
</clipPath>
</defs>
</svg>
