<svg width="26" height="27" viewBox="0 0 26 27" fill="none" xmlns="http://www.w3.org/2000/svg">
<g clip-path="url(#clip0_548_5937)">
<path d="M12.9626 26.4127C19.9944 26.4127 25.6948 20.7123 25.6948 13.6805C25.6948 6.64865 19.9944 0.948242 12.9626 0.948242C5.93075 0.948242 0.230347 6.64865 0.230347 13.6805C0.230347 20.7123 5.93075 26.4127 12.9626 26.4127Z" fill="#FFDA44"/>
<path d="M3.95972 22.6834C4.49382 23.2175 5.06369 23.6938 5.66146 24.1132L23.3955 6.37904C22.9763 5.78127 22.4999 5.2114 21.9658 4.6773C21.4317 4.14319 20.8618 3.66693 20.2641 3.24756L2.53003 20.9817C2.9493 21.5793 3.42566 22.1492 3.95972 22.6834V22.6834Z" fill="black"/>
<path d="M3.95961 4.67781C-0.0571041 8.69463 -0.828249 14.7271 1.64474 19.5187L18.8005 2.36299C14.0089 -0.109998 7.97638 0.661196 3.95961 4.67781V4.67781Z" fill="#6DA544"/>
<path d="M21.9657 22.6837C25.9824 18.667 26.7535 12.6344 24.2806 7.84277L7.12488 24.9985C11.9164 27.4715 17.949 26.7004 21.9657 22.6837Z" fill="#338AF3"/>
</g>
<defs>
<clipPath id="clip0_548_5937">
<rect width="25.4644" height="25.4644" fill="white" transform="translate(0.230469 0.948242)"/>
</clipPath>
</defs>
</svg>
