<svg width="26" height="27" viewBox="0 0 26 27" fill="none" xmlns="http://www.w3.org/2000/svg">
<g clip-path="url(#clip0_548_5942)">
<path d="M12.8343 26.4127C19.8661 26.4127 25.5665 20.7123 25.5665 13.6805C25.5665 6.64865 19.8661 0.948242 12.8343 0.948242C5.80246 0.948242 0.102051 6.64865 0.102051 13.6805C0.102051 20.7123 5.80246 26.4127 12.8343 26.4127Z" fill="#F0F0F0"/>
<path d="M24.7748 9.25195H0.894229C0.382404 10.6313 0.102295 12.1231 0.102295 13.6805C0.102295 15.2379 0.382404 16.7298 0.894229 18.1091H24.7748C25.2866 16.7298 25.5667 15.2379 25.5667 13.6805C25.5667 12.1231 25.2866 10.6313 24.7748 9.25195Z" fill="#0052B4"/>
<path d="M12.8343 0.948242C8.97528 0.948242 5.51754 2.6653 3.18262 5.37682H22.4859C20.151 2.6653 16.6933 0.948242 12.8343 0.948242V0.948242Z" fill="#D80027"/>
<path d="M22.486 21.9844H3.18262C5.51754 24.6959 8.97528 26.4129 12.8343 26.4129C16.6933 26.4129 20.151 24.6959 22.486 21.9844Z" fill="#D80027"/>
</g>
<defs>
<clipPath id="clip0_548_5942">
<rect width="25.4644" height="25.4644" fill="white" transform="translate(0.102539 0.948242)"/>
</clipPath>
</defs>
</svg>
