<svg width="27" height="27" viewBox="0 0 27 27" fill="none" xmlns="http://www.w3.org/2000/svg">
<g clip-path="url(#clip0_548_5948)">
<path d="M13.7062 26.4127C20.738 26.4127 26.4384 20.7123 26.4384 13.6805C26.4384 6.64865 20.738 0.948242 13.7062 0.948242C6.67441 0.948242 0.973999 6.64865 0.973999 13.6805C0.973999 20.7123 6.67441 26.4127 13.7062 26.4127Z" fill="#F0F0F0"/>
<path d="M6.53003 3.16255C8.5734 1.76569 11.0441 0.948242 13.7062 0.948242C16.3682 0.948242 18.8389 1.76569 20.8823 3.16255L13.7062 3.71611L6.53003 3.16255Z" fill="#FFDA44"/>
<path d="M4.70384 22.6829L10.5747 16.8121L13.7062 11.4662L16.8374 16.8118L22.7086 22.6829C25.0128 20.3789 26.4384 17.1964 26.4384 13.6805C26.4384 9.31072 24.2367 5.45554 20.8824 3.1626H6.53007C3.17573 5.45554 0.973999 9.31072 0.973999 13.6805C0.973999 17.1964 2.39961 20.3789 4.70384 22.6829V22.6829Z" fill="#D80027"/>
<path d="M25.4712 18.5551L16.1622 14.6978L16.8369 16.8107L22.7086 22.6823C23.8809 21.5101 24.8258 20.1105 25.4712 18.5551Z" fill="#0052B4"/>
<path d="M26.4385 13.6803C26.4385 11.9532 26.0943 10.3067 25.4713 8.80518L13.7063 13.6803H26.4385Z" fill="#0052B4"/>
<path d="M22.7087 4.67764C22.1491 4.11812 21.5379 3.61017 20.8824 3.16211H18.0647L13.7063 13.68L22.7087 4.67764Z" fill="#0052B4"/>
<path d="M13.7062 3.16211H9.3479L13.7062 13.68V3.16211Z" fill="#0052B4"/>
<path d="M4.70395 4.67773C3.53159 5.84999 2.58677 7.24959 1.94141 8.80496L13.7063 13.6801L4.70395 4.67773Z" fill="#0052B4"/>
<path d="M0.974365 13.6802C0.974365 15.4072 1.31858 17.0537 1.94162 18.5553L13.7066 13.6802H0.974365Z" fill="#0052B4"/>
<path d="M6.53027 24.1982C8.5736 25.5951 11.0444 26.4126 13.7064 26.4126C16.3684 26.4126 18.8392 25.5951 20.8826 24.1982H6.53027Z" fill="#FFDA44"/>
<path d="M13.7065 13.6805L16.838 16.812C17.6395 16.0106 18.1352 14.9035 18.1352 13.6805C18.1352 11.2346 16.1524 9.25195 13.7066 9.25195C11.2607 9.25195 9.27795 11.2346 9.27795 13.6805C9.27795 14.9034 9.77362 16.0106 10.5751 16.812L13.7065 13.6805Z" fill="#FFDA44"/>
<path d="M15.644 20.0464C15.644 21.1165 14.7765 21.4304 13.7065 21.4304C12.6365 21.4304 11.7689 21.1165 11.7689 20.0464C11.7689 18.9764 12.6365 18.1089 13.7065 18.1089C14.7765 18.1089 15.644 18.9764 15.644 20.0464Z" fill="#FFDA44"/>
<path d="M15.6437 20.0464C15.6437 21.1164 14.7762 21.9839 13.7062 21.9839C12.6362 21.9839 11.7687 21.1164 11.7687 20.0464" fill="#0052B4"/>
</g>
<defs>
<clipPath id="clip0_548_5948">
<rect width="25.4644" height="25.4644" fill="white" transform="translate(0.973633 0.948242)"/>
</clipPath>
</defs>
</svg>
