<svg width="27" height="27" viewBox="0 0 27 27" fill="none" xmlns="http://www.w3.org/2000/svg">
<g clip-path="url(#clip0_548_5964)">
<path d="M13.5782 26.4127C20.61 26.4127 26.3104 20.7123 26.3104 13.6805C26.3104 6.64865 20.61 0.948242 13.5782 0.948242C6.54636 0.948242 0.845947 6.64865 0.845947 13.6805C0.845947 20.7123 6.54636 26.4127 13.5782 26.4127Z" fill="#FFDA44"/>
<path d="M13.5776 0.948242C13.5684 0.948342 13.024 6.04113 13.024 6.04113H23.764C21.4411 2.94874 17.743 0.948242 13.5776 0.948242Z" fill="#496E2D"/>
<path d="M13.5777 26.4132C17.7431 26.4132 21.4412 24.4127 23.764 21.3203H3.39136C5.71419 24.4127 9.41225 26.4132 13.5777 26.4132Z" fill="#496E2D"/>
<path d="M26.0549 11.1343H13.024L13.5776 16.2272H26.0549C26.222 15.4044 26.3098 14.5528 26.3098 13.6807C26.3098 12.8086 26.2219 11.957 26.0549 11.1343V11.1343Z" fill="#496E2D"/>
<path d="M13.5782 16.2269C13.5782 13.5698 13.5782 3.93753 13.5782 0.948242C6.5464 0.948242 0.845947 6.64869 0.845947 13.6805C0.845947 14.5526 0.933879 15.4041 1.10089 16.2269H13.5782Z" fill="#D80027"/>
<path d="M7.87134 7.0376L8.69575 9.57484H11.3638L9.20543 11.1431L10.0297 13.6805L7.87134 12.1123L5.71293 13.6805L6.53739 11.1431L4.37903 9.57484H7.04697L7.87134 7.0376Z" fill="#F0F0F0"/>
</g>
<defs>
<clipPath id="clip0_548_5964">
<rect width="25.4644" height="25.4644" fill="white" transform="translate(0.845703 0.948242)"/>
</clipPath>
</defs>
</svg>
