<svg width="27" height="27" viewBox="0 0 27 27" fill="none" xmlns="http://www.w3.org/2000/svg">
<g clip-path="url(#clip0_548_5972)">
<path d="M13.4497 26.4127C20.4816 26.4127 26.182 20.7123 26.182 13.6805C26.182 6.64865 20.4816 0.948242 13.4497 0.948242C6.41794 0.948242 0.717529 6.64865 0.717529 13.6805C0.717529 20.7123 6.41794 26.4127 13.4497 26.4127Z" fill="#FFDA44"/>
<path d="M21.1998 7.03757C21.0856 7.5864 21.0337 8.17094 21.0337 8.75364C21.0337 12.1125 23.036 15.0195 25.9055 16.3282C26.0862 15.474 26.182 14.5884 26.182 13.6805C26.182 6.6487 20.4815 0.948242 13.4497 0.948242C6.41798 0.948242 0.717529 6.6487 0.717529 13.6805C0.717529 20.7122 6.41798 26.4127 13.4497 26.4127C17.8106 26.4127 21.6589 24.2198 23.9536 20.877H7.91402V19.2162H24.9186C25.0926 18.8564 25.2498 18.4869 25.3901 18.1091H7.91402L21.1998 7.03757Z" fill="#0052B4"/>
<path d="M10.0711 7.59131L10.346 8.43711H11.2352L10.5158 8.95987L10.7907 9.80562L10.0711 9.28295L9.35171 9.80562L9.6265 8.95987L8.90698 8.43711H9.7963L10.0711 7.59131Z" fill="#F0F0F0"/>
<path d="M6.45852 13.6802L6.80209 14.7375H7.91367L7.01431 15.3908L7.35788 16.448L6.45852 15.7946L5.55921 16.448L5.90273 15.3908L5.00342 14.7375H6.115L6.45852 13.6802Z" fill="#F0F0F0"/>
<path d="M6.45852 4.82324L6.80209 5.88056H7.91367L7.01431 6.53384L7.35788 7.59111L6.45852 6.93769L5.55921 7.59111L5.90273 6.53384L5.00342 5.88056H6.115L6.45852 4.82324Z" fill="#F0F0F0"/>
<path d="M3.6907 9.80518L4.03427 10.8625H5.1458L4.24649 11.5158L4.59006 12.573L3.6907 11.9196L2.79139 12.573L3.13491 11.5158L2.2356 10.8625H3.34713L3.6907 9.80518Z" fill="#F0F0F0"/>
</g>
<defs>
<clipPath id="clip0_548_5972">
<rect width="25.4644" height="25.4644" fill="white" transform="translate(0.717773 0.948242)"/>
</clipPath>
</defs>
</svg>
