<svg width="27" height="26" viewBox="0 0 27 26" fill="none" xmlns="http://www.w3.org/2000/svg">
<g clip-path="url(#clip0_548_5980)">
<path d="M13.4497 25.5411C20.4816 25.5411 26.182 19.8407 26.182 12.8089C26.182 5.77707 20.4816 0.0766602 13.4497 0.0766602C6.41794 0.0766602 0.717529 5.77707 0.717529 12.8089C0.717529 19.8407 6.41794 25.5411 13.4497 25.5411Z" fill="#F0F0F0"/>
<path d="M9.02142 6.71833V5.05762H7.36066V6.71833H5.69995V8.37908H7.36066V10.0398H9.02142V8.37908H10.6821V6.71833H9.02142Z" fill="#D80027"/>
<path d="M13.4501 0.0756836V12.8079C6.41835 12.808 3.62368 12.8079 0.717896 12.808C0.717896 19.8397 6.41835 25.5401 13.4501 25.5401C20.4819 25.5401 26.1823 19.8397 26.1823 12.8079C26.1823 5.77614 20.4819 0.0756836 13.4501 0.0756836Z" fill="#D80027"/>
</g>
<defs>
<clipPath id="clip0_548_5980">
<rect width="25.4644" height="25.4644" fill="white" transform="translate(0.717773 0.0761719)"/>
</clipPath>
</defs>
</svg>
