<svg width="27" height="27" viewBox="0 0 27 27" fill="none" xmlns="http://www.w3.org/2000/svg">
<g clip-path="url(#clip0_548_5985)">
<path d="M25.6152 10.359C24.1541 4.93805 19.2042 0.948242 13.3216 0.948242C7.43892 0.948242 2.48898 4.93805 1.02795 10.359L13.3216 10.9126L25.6152 10.359Z" fill="#A2001D"/>
<path d="M1.02808 17.0023C2.4891 22.4232 7.43905 26.4131 13.3217 26.4131C19.2043 26.4131 24.1543 22.4233 25.6153 17.0023L13.3217 16.4487L1.02808 17.0023Z" fill="#A2001D"/>
<path d="M25.6149 10.3589H1.02773C0.742296 11.4179 0.589111 12.5311 0.589111 13.6804C0.589111 14.8296 0.742296 15.9428 1.02773 17.0018H25.615C25.9004 15.9428 26.0535 14.8296 26.0535 13.6804C26.0535 12.5311 25.9004 11.4179 25.6149 10.3589V10.3589Z" fill="#6DA544"/>
</g>
<defs>
<clipPath id="clip0_548_5985">
<rect width="25.4644" height="25.4644" fill="white" transform="translate(0.589355 0.948242)"/>
</clipPath>
</defs>
</svg>
