<svg width="26" height="27" viewBox="0 0 26 27" fill="none" xmlns="http://www.w3.org/2000/svg">
<g clip-path="url(#clip0_548_5990)">
<path d="M7.35515 2.36182C6.21532 2.95013 5.14537 3.72128 4.18985 4.67679C3.23429 5.63235 2.46315 6.70231 1.87488 7.84214L10.0616 16.8118L19.0313 24.9986C20.1712 24.4103 21.2412 23.6391 22.1967 22.6837C23.1523 21.7281 23.9233 20.6582 24.5117 19.5183L16.3249 10.5486L7.35515 2.36182Z" fill="#F0F0F0"/>
<path d="M22.1968 22.6842C22.7309 22.1501 23.2072 21.5802 23.6266 20.9824L5.89176 3.24756C5.29399 3.66688 4.72408 4.14324 4.18997 4.67735C3.65586 5.21145 3.1795 5.78137 2.76013 6.37919L20.495 24.114C21.0927 23.6947 21.6627 23.2183 22.1968 22.6842Z" fill="black"/>
<path d="M4.19005 22.6843C8.20701 26.7013 14.2397 27.4724 19.0315 24.9992L1.87512 7.84277C-0.597961 12.6346 0.173283 18.6673 4.19005 22.6843V22.6843Z" fill="#D80027"/>
<path d="M22.197 4.67705C18.18 0.660136 12.1473 -0.110959 7.35547 2.36203L24.5119 19.5186C26.985 14.7268 26.2139 8.69397 22.197 4.67705V4.67705Z" fill="#D80027"/>
</g>
<defs>
<clipPath id="clip0_548_5990">
<rect width="25.4644" height="25.4644" fill="white" transform="translate(0.461426 0.948242)"/>
</clipPath>
</defs>
</svg>
