<svg width="27" height="27" viewBox="0 0 27 27" fill="none" xmlns="http://www.w3.org/2000/svg">
<g clip-path="url(#clip0_548_5996)">
<path d="M13.5782 26.2847C20.61 26.2847 26.3104 20.5843 26.3104 13.5525C26.3104 6.52072 20.61 0.820312 13.5782 0.820312C6.54636 0.820312 0.845947 6.52072 0.845947 13.5525C0.845947 20.5843 6.54636 26.2847 13.5782 26.2847Z" fill="#D80027"/>
<path d="M13.578 19.6416C16.941 19.6416 19.6673 16.9153 19.6673 13.5522C19.6673 10.1892 16.941 7.46289 13.578 7.46289C10.2149 7.46289 7.48865 10.1892 7.48865 13.5522C7.48865 16.9153 10.2149 19.6416 13.578 19.6416Z" fill="#F0F0F0"/>
<path d="M14.328 11.2241L15.3726 12.6637L17.0645 12.1151L16.0182 13.5535L17.0627 14.993L15.3714 14.4423L14.3252 15.8807L14.3263 14.1021L12.635 13.5514L14.3269 13.0029L14.328 11.2241Z" fill="#D80027"/>
<path d="M14.9618 17.1509C12.9746 17.1509 11.3636 15.5399 11.3636 13.5526C11.3636 11.5654 12.9746 9.9544 14.9618 9.9544C15.5814 9.9544 16.1644 10.1111 16.6734 10.3869C15.8749 9.60601 14.783 9.12402 13.5779 9.12402C11.1321 9.12402 9.14929 11.1068 9.14929 13.5526C9.14929 15.9984 11.1321 17.9812 13.5779 17.9812C14.783 17.9812 15.875 17.4992 16.6734 16.7183C16.1644 16.9942 15.5814 17.1509 14.9618 17.1509Z" fill="#D80027"/>
</g>
<defs>
<clipPath id="clip0_548_5996">
<rect width="25.4644" height="25.4644" fill="white" transform="translate(0.845703 0.819336)"/>
</clipPath>
</defs>
</svg>
