<svg width="26" height="27" viewBox="0 0 26 27" fill="none" xmlns="http://www.w3.org/2000/svg">
<g clip-path="url(#clip0_548_6002)">
<path d="M13.091 26.4127C20.1228 26.4127 25.8232 20.7123 25.8232 13.6805C25.8232 6.64865 20.1228 0.948242 13.091 0.948242C6.05917 0.948242 0.358765 6.64865 0.358765 13.6805C0.358765 20.7123 6.05917 26.4127 13.091 26.4127Z" fill="#D80027"/>
<path d="M12.5696 11.3525L13.6143 12.7921L15.3061 12.2435L14.2598 13.6819L15.3043 15.1214L13.6131 14.5708L12.5668 16.0091L12.5679 14.2305L10.8766 13.6798L12.5685 13.1313L12.5696 11.3525Z" fill="#F0F0F0"/>
<path d="M9.71863 17.2788C7.73141 17.2788 6.12039 15.6678 6.12039 13.6806C6.12039 11.6934 7.73141 10.0823 9.71863 10.0823C10.3382 10.0823 10.9212 10.239 11.4302 10.5148C10.6317 9.73389 9.53969 9.25195 8.3347 9.25195C5.88882 9.25195 3.90613 11.2347 3.90613 13.6805C3.90613 16.1264 5.88887 18.1091 8.3347 18.1091C9.53979 18.1091 10.6318 17.6271 11.4302 16.8462C10.9212 17.1221 10.3382 17.2788 9.71863 17.2788V17.2788Z" fill="#F0F0F0"/>
</g>
<defs>
<clipPath id="clip0_548_6002">
<rect width="25.4644" height="25.4644" fill="white" transform="translate(0.358398 0.948242)"/>
</clipPath>
</defs>
</svg>
