<svg width="26" height="27" viewBox="0 0 26 27" fill="none" xmlns="http://www.w3.org/2000/svg">
<g clip-path="url(#clip0_548_6035)">
<path d="M25.5667 13.4241C25.5667 20.4559 19.8663 26.1563 12.8345 26.1563C5.80275 26.1563 0.102295 20.4559 0.102295 13.4241C0.102295 13.4271 12.8345 0.693287 12.8345 0.691895C19.8663 0.691895 25.5667 6.39235 25.5667 13.4241Z" fill="#0052B4"/>
<path d="M12.8004 13.4252H12.8359C12.8359 13.4132 12.8359 13.4016 12.8359 13.3896C12.8241 13.4015 12.8123 13.4133 12.8004 13.4252Z" fill="#F0F0F0"/>
<path d="M12.8343 7.33429C12.8343 5.09397 12.8343 3.62603 12.8343 0.691406H12.8321C5.80126 0.6926 0.102051 6.39251 0.102051 13.4236H6.74494V9.68299L10.4856 13.4236H12.8002C12.8116 13.4123 12.8229 13.4009 12.8343 13.3896C12.8343 12.5318 12.8343 11.7664 12.8343 11.075L9.09358 7.33429H12.8343Z" fill="#F0F0F0"/>
<path d="M6.54344 2.35352C4.5521 3.48743 2.89656 5.14292 1.7627 7.13426V13.425H5.08416V5.67508V5.67498H12.8342C12.8342 4.62741 12.8342 3.62942 12.8342 2.35352H6.54344Z" fill="#D80027"/>
<path d="M12.8341 11.859L8.31042 7.33545H6.74475V7.33555L12.834 13.4247H12.8341C12.8341 13.4247 12.8341 12.3451 12.8341 11.859V11.859Z" fill="#D80027"/>
<path d="M14.4952 7.33447V13.4238C14.4952 16.39 18.3703 17.2988 18.3703 17.2988C18.3703 17.2988 22.2453 16.39 22.2453 13.4238V7.33447H14.4952Z" fill="#FFDA44"/>
<path d="M17.8166 9.54954C17.8166 10.161 17.3209 11.7638 16.7095 11.7638C16.098 11.7638 15.6023 10.161 15.6023 9.54954C15.6023 8.93804 16.7095 8.44238 16.7095 8.44238C16.7095 8.44238 17.8166 8.93804 17.8166 9.54954Z" fill="#FF9811"/>
<path d="M20.7547 10.7554C20.9333 10.3194 21.0723 9.68223 21.0723 9.36502C21.0723 8.85543 20.4079 8.44238 20.4079 8.44238C20.4079 8.44238 19.7436 8.85548 19.7436 9.36502C19.7436 9.68223 19.8826 10.3194 20.0612 10.7554L19.6777 11.6213C19.9031 11.7129 20.1495 11.7638 20.4079 11.7638C20.6663 11.7638 20.9127 11.7129 21.1381 11.6213L20.7547 10.7554Z" fill="#A2001D"/>
<path d="M17.5398 13.4242C17.5398 13.4242 16.9862 14.5313 16.9862 15.6385H19.7541C19.754 14.5313 19.2005 13.4242 19.2005 13.4242L18.3701 12.8706L17.5398 13.4242Z" fill="#6DA544"/>
<path d="M19.2006 13.4241V13.1473C19.2006 12.6887 18.8288 12.3169 18.3702 12.3169C17.9116 12.3169 17.5398 12.6887 17.5398 13.1473V13.4241H19.2006Z" fill="#D80027"/>
</g>
<defs>
<clipPath id="clip0_548_6035">
<rect width="25.4644" height="25.4644" fill="white" transform="translate(0.102539 0.691406)"/>
</clipPath>
</defs>
</svg>
