<svg width="27" height="27" viewBox="0 0 27 27" fill="none" xmlns="http://www.w3.org/2000/svg">
<g clip-path="url(#clip0_548_6007)">
<path d="M13.4491 0.820312C12.4984 0.820312 11.5724 0.925403 10.6812 1.12295L10.1277 13.5525L10.6812 25.9821C11.5724 26.1796 12.4985 26.2847 13.4491 26.2847C20.4809 26.2847 26.1813 20.5843 26.1813 13.5525C26.1812 6.52072 20.4809 0.820313 13.4491 0.820313V0.820312Z" fill="#496E2D"/>
<path d="M4.03858 4.97656C1.97536 7.23932 0.717163 10.2488 0.717163 13.5523C0.717163 16.8558 1.97541 19.8653 4.03863 22.1282L4.59218 13.5523L4.03858 4.97656Z" fill="#496E2D"/>
<path d="M19.3395 10.4237C19.966 8.67771 19.2622 6.77877 17.7519 5.83301C18.0236 5.86837 18.2955 5.93233 18.5639 6.02857C20.5783 6.75132 21.6254 8.97011 20.9027 10.9845C20.1799 12.999 17.9611 14.046 15.9467 13.3233C15.6783 13.227 15.4277 13.1034 15.1956 12.958C16.9626 13.1882 18.7131 12.1697 19.3395 10.4237V10.4237Z" fill="#F0F0F0"/>
<path d="M15.8653 5.35449L15.3209 6.05785L14.4839 5.7575L14.9846 6.49248L14.4403 7.19574L15.294 6.94677L15.7947 7.68165L15.8216 6.79279L16.6754 6.54376L15.8384 6.24351L15.8653 5.35449Z" fill="#F0F0F0"/>
<path d="M17.3349 7.646L16.7906 8.3493L15.9535 8.04895L16.4542 8.78394L15.9099 9.48719L16.7636 9.23812L17.2644 9.97316L17.2913 9.08424L18.145 8.83517L17.308 8.53486L17.3349 7.646Z" fill="#F0F0F0"/>
<path d="M13.2735 6.18945L12.7291 6.89271L11.8921 6.59246L12.3928 7.3274L11.8485 8.0307L12.7022 7.78168L13.2029 8.51661L13.2299 7.62775L14.0836 7.37872L13.2466 7.07837L13.2735 6.18945Z" fill="#F0F0F0"/>
<path d="M13.2141 8.81445L12.6698 9.51776L11.8327 9.21746L12.3335 9.95244L11.7891 10.6557L12.6429 10.4067L13.1436 11.1416L13.1705 10.2527L14.0242 10.0037L13.1871 9.70337L13.2141 8.81445Z" fill="#F0F0F0"/>
<path d="M15.7121 9.71094L15.1678 10.4142L14.3308 10.1139L14.8315 10.8489L14.2871 11.5521L15.1409 11.3031L15.6416 12.0381L15.6685 11.1491L16.5223 10.9002L15.6852 10.5999L15.7121 9.71094Z" fill="#F0F0F0"/>
<path d="M4.03918 4.97683V22.1284C5.77395 24.0309 8.07818 25.4049 10.6821 25.9821V1.12305C8.07813 1.70027 5.774 3.07421 4.03918 4.97683V4.97683Z" fill="#D80027"/>
<path d="M6.57368 7.52385L5.46155 6.69536V5.52375L6.57368 4.69531H8.14655L9.25868 5.52375V6.69536L8.14655 7.52385H6.57368Z" fill="#F0F0F0"/>
<path d="M7.36038 4.69482H6.57392L5.46179 5.52326V6.09606H7.36038V4.69482Z" fill="#FF9811"/>
<path d="M7.36047 7.52333H8.14689L9.25902 6.69484V6.09717H7.36047V7.52333Z" fill="#FF9811"/>
<path d="M6.57368 22.4096L5.46155 21.5811V20.4095L6.57368 19.5811H8.14655L9.25868 20.4095V21.5811L8.14655 22.4096H6.57368Z" fill="#F0F0F0"/>
<path d="M7.36038 19.5806H6.57392L5.46179 20.4091V20.9819H7.36038V19.5806Z" fill="#FF9811"/>
<path d="M7.36047 22.409H8.14689L9.25902 21.5805V20.9829H7.36047V22.409Z" fill="#FF9811"/>
<path d="M6.57356 14.9653L5.46143 14.1368V12.9652L6.57356 12.1367H8.14643L9.25856 12.9652V14.1368L8.14643 14.9653H6.57356Z" fill="#496E2D"/>
<path d="M9.29758 16.7889H8.81316V16.3045H7.96194L7.36004 15.7026L6.7582 16.3045H5.90698V16.7889H5.42261V17.7576H5.90698V18.242H6.75815L7.36009 18.844L7.96194 18.242H8.81316V17.7576H9.29758V16.7889Z" fill="#496E2D"/>
<path d="M9.2977 9.34608H8.81328V8.86166H7.96206L7.36017 8.25977L6.75832 8.86166H5.9071V9.34608H5.42273V10.3148H5.9071V10.7992H6.75827L7.36021 11.4012L7.96206 10.7992H8.81328V10.3148H9.2977V9.34608Z" fill="#496E2D"/>
<path d="M6.80676 12.9995H7.91392V14.1067H6.80676V12.9995Z" fill="#D80027"/>
<path d="M7.36032 10.3849C7.66603 10.3849 7.91387 10.1371 7.91387 9.83139C7.91387 9.52567 7.66603 9.27783 7.36032 9.27783C7.0546 9.27783 6.80676 9.52567 6.80676 9.83139C6.80676 10.1371 7.0546 10.3849 7.36032 10.3849Z" fill="#D80027"/>
<path d="M7.36032 17.8278C7.66603 17.8278 7.91387 17.58 7.91387 17.2743C7.91387 16.9685 7.66603 16.7207 7.36032 16.7207C7.0546 16.7207 6.80676 16.9685 6.80676 17.2743C6.80676 17.58 7.0546 17.8278 7.36032 17.8278Z" fill="#D80027"/>
</g>
<defs>
<clipPath id="clip0_548_6007">
<rect width="25.4644" height="25.4644" fill="white" transform="translate(0.717773 0.819336)"/>
</clipPath>
</defs>
</svg>
