<svg width="27" height="27" viewBox="0 0 27 27" fill="none" xmlns="http://www.w3.org/2000/svg">
<g clip-path="url(#clip0_548_6049)">
<path d="M26.0535 13.5525C26.0535 20.5843 20.3531 26.2847 13.3214 26.2847C6.28957 26.2847 0.589111 20.5843 0.589111 13.5525C0.589111 13.5556 13.3214 0.821705 13.3214 0.820312C20.3531 0.820312 26.0535 6.52077 26.0535 13.5525Z" fill="#338AF3"/>
<path d="M6.67859 13.5531H10.9728L7.23214 9.12451L6.67859 10.7852V13.5531Z" fill="#0052B4"/>
<path d="M13.3214 11.2044L8.89282 6.91016H13.3214L13.3214 11.2044Z" fill="#0052B4"/>
<path d="M13.288 13.5541H13.3235C13.3235 13.5421 13.3235 13.5305 13.3235 13.5186C13.3117 13.5304 13.2998 13.5422 13.288 13.5541Z" fill="#F0F0F0"/>
<path d="M13.3219 7.4632C13.3219 5.22288 13.3219 3.75489 13.3219 0.820312H13.3197C6.28886 0.821506 0.5896 6.52141 0.5896 13.5525H7.23253V9.81189L10.9732 13.5525H13.2878C13.2992 13.5412 13.3105 13.5299 13.3219 13.5185C13.3219 12.6607 13.3219 11.8953 13.3219 11.2039L9.58113 7.4632H13.3219Z" fill="#F0F0F0"/>
<path d="M7.03038 2.48047C5.03903 3.61438 3.38355 5.26987 2.24963 7.26122V13.552H5.5711V5.80204V5.80194H13.3211C13.3211 4.75436 13.3211 3.75638 13.3211 2.48047H7.03038Z" fill="#D80027"/>
<path d="M13.321 11.986L8.79735 7.4624H7.23169V7.4625L13.3209 13.5517H13.321C13.321 13.5517 13.321 12.4721 13.321 11.986V11.986Z" fill="#D80027"/>
<path d="M14.4854 21.8564L14.7602 22.7022H15.6495L14.9301 23.225L15.205 24.0707L14.4854 23.548L13.766 24.0707L14.0408 23.225L13.3213 22.7022H14.2106L14.4854 21.8564Z" fill="#FFDA44"/>
<path d="M21.568 16.3203L21.8427 17.1661H22.7321L22.0126 17.6889L22.2875 18.5346L21.568 18.012L20.8485 18.5346L21.1234 17.6889L20.4038 17.1661H21.2931L21.568 16.3203Z" fill="#FFDA44"/>
<path d="M23.3424 8.0166L23.6173 8.8624H24.5066L23.7872 9.38512L24.062 10.2309L23.3424 9.7082L22.623 10.2309L22.8979 9.38512L22.1783 8.8624H23.0677L23.3424 8.0166Z" fill="#FFDA44"/>
<path d="M23.7826 14.106L24.0573 14.9518H24.9467L24.2272 15.4745L24.5021 16.3203L23.7826 15.7976L23.0631 16.3203L23.338 15.4745L22.6184 14.9518H23.5077L23.7826 14.106Z" fill="#FFDA44"/>
<path d="M15.7606 19.8671L16.5532 20.2709L17.182 19.6421L17.0429 20.5204L17.8353 20.9241L16.9568 21.0633L16.8177 21.9416L16.4141 21.1492L15.5356 21.2884L16.1644 20.6596L15.7606 19.8671Z" fill="#FFDA44"/>
<path d="M15.7606 16.5454L16.5532 16.9491L17.182 16.3203L17.0429 17.1986L17.8353 17.6023L16.9568 17.7415L16.8177 18.6199L16.4141 17.8275L15.5356 17.9666L16.1644 17.3378L15.7606 16.5454Z" fill="#FFDA44"/>
<path d="M18.5283 18.6747L19.3209 19.0785L19.9497 18.4497L19.8106 19.328L20.603 19.7317L19.7245 19.8709L19.5854 20.7493L19.1818 19.9568L18.3033 20.096L18.9321 19.4672L18.5283 18.6747Z" fill="#FFDA44"/>
<path d="M18.5283 11.5629L19.3209 11.9667L19.9497 11.3379L19.8106 12.2162L20.603 12.6199L19.7245 12.7591L19.5854 13.6374L19.1818 12.8451L18.3033 12.9842L18.9321 12.3554L18.5283 11.5629Z" fill="#FFDA44"/>
<path d="M21.2111 11.4775L22.0036 11.8812L22.6324 11.2524L22.4933 12.1308L23.2857 12.5345L22.4073 12.6736L22.2682 13.552L21.8645 12.7596L20.9861 12.8988L21.6149 12.27L21.2111 11.4775Z" fill="#FFDA44"/>
</g>
<defs>
<clipPath id="clip0_548_6049">
<rect width="25.4644" height="25.4644" fill="white" transform="translate(0.589355 0.819336)"/>
</clipPath>
</defs>
</svg>
