<svg width="27" height="27" viewBox="0 0 27 27" fill="none" xmlns="http://www.w3.org/2000/svg">
<g clip-path="url(#clip0_548_6071)">
<path d="M23.1954 21.912C25.2118 19.6594 26.4384 16.6852 26.4384 13.4239C26.4384 10.1627 25.2117 7.18838 23.1953 4.93577L13.7062 4.01318L4.21713 4.93577C2.20072 7.18838 0.973999 10.1627 0.973999 13.4239C0.973999 16.6852 2.20067 19.6594 4.21708 21.912L13.7062 22.8347L23.1954 21.912Z" fill="#FFDA44"/>
<path d="M4.21716 4.93595H23.1954C20.864 2.33147 17.4768 0.691895 13.7062 0.691895C9.93567 0.691895 6.54845 2.33147 4.21716 4.93595Z" fill="black"/>
<path d="M0.973999 13.4243L13.7062 14.5314L26.4384 13.4243C26.4384 11.936 26.1822 10.5077 25.7129 9.18018H1.69954C1.23019 10.5077 0.973999 11.936 0.973999 13.4243H0.973999Z" fill="#D80027"/>
<path d="M1.69954 17.6684H25.713C26.1823 16.3408 26.4384 14.9126 26.4384 13.4243H0.973999C0.973999 14.9126 1.23019 16.3408 1.69954 17.6684V17.6684Z" fill="black"/>
<path d="M23.1954 21.9126H4.21716C6.54845 24.5171 9.93567 26.1567 13.7063 26.1567C17.4769 26.1567 20.8641 24.5171 23.1954 21.9126Z" fill="#D80027"/>
<path d="M17.9551 13.424C17.9551 15.7706 16.0531 17.6727 13.7064 17.6727C11.3598 17.6727 9.45776 15.7706 9.45776 13.424C9.45776 11.0773 11.3598 9.17529 13.7064 9.17529C16.0531 9.17529 17.9551 11.0773 17.9551 13.424Z" fill="#F0F0F0"/>
<path d="M15.2627 13.641L13.7062 12.9665C13.7062 12.9665 14.0704 11.7578 14.0898 11.6751C14.104 11.6147 14.1115 11.5517 14.1115 11.4869C14.1115 11.2576 14.0186 11.05 13.8683 10.8998L14.2597 10.5084C14.0093 10.258 13.6633 10.103 13.2811 10.103C12.8989 10.103 12.5529 10.2579 12.3025 10.5084L12.6939 10.8998C12.5436 11.05 12.4507 11.2576 12.4507 11.4869C12.4507 11.5708 12.4634 11.6516 12.4865 11.7279L11.8972 12.3172H12.9683C12.9683 12.3172 12.5255 12.9823 12.2837 13.5286C12.0419 14.0748 12.287 14.7416 12.8458 14.99L13.1688 15.1335L13.7062 15.6387V16.1922L13.1527 16.7458H14.2598V15.6386L14.765 15.1334H15.8098C15.8149 15.1231 15.8201 15.1129 15.8249 15.1023C16.0731 14.5436 15.8215 13.8893 15.2627 13.641Z" fill="black"/>
</g>
<defs>
<clipPath id="clip0_548_6071">
<rect width="25.4644" height="25.4644" fill="white" transform="translate(0.973633 0.691406)"/>
</clipPath>
</defs>
</svg>
