<svg width="26" height="27" viewBox="0 0 26 27" fill="none" xmlns="http://www.w3.org/2000/svg">
<g clip-path="url(#clip0_548_6082)">
<path d="M13.1933 26.2847C20.2251 26.2847 25.9255 20.5843 25.9255 13.5525C25.9255 6.52072 20.2251 0.820312 13.1933 0.820312C6.16147 0.820312 0.46106 6.52072 0.46106 13.5525C0.46106 20.5843 6.16147 26.2847 13.1933 26.2847Z" fill="#F0F0F0"/>
<path d="M7.65771 17.981L8.76487 25.4928C10.1441 26.0046 11.636 26.2846 13.1934 26.2846C18.6678 26.2846 23.3348 22.8294 25.1337 17.981H7.65771Z" fill="black"/>
<path d="M7.65771 9.12396L8.76487 1.61215C10.1441 1.10032 11.636 0.820312 13.1934 0.820312C18.6678 0.820312 23.3348 4.27552 25.1337 9.12396H7.65771Z" fill="#6DA544"/>
<path d="M0.46106 13.5521C0.46106 19.0265 3.91631 23.6934 8.7647 25.4924V1.61182C3.91631 3.41079 0.46106 8.07769 0.46106 13.5521Z" fill="#A2001D"/>
</g>
<defs>
<clipPath id="clip0_548_6082">
<rect width="25.4644" height="25.4644" fill="white" transform="translate(0.461426 0.819336)"/>
</clipPath>
</defs>
</svg>
