<svg width="26" height="27" viewBox="0 0 26 27" fill="none" xmlns="http://www.w3.org/2000/svg">
<g clip-path="url(#clip0_548_6109)">
<path d="M13.091 26.1563C20.1228 26.1563 25.8232 20.4559 25.8232 13.4241C25.8232 6.3923 20.1228 0.691895 13.091 0.691895C6.05917 0.691895 0.358765 6.3923 0.358765 13.4241C0.358765 20.4559 6.05917 26.1563 13.091 26.1563Z" fill="#F0F0F0"/>
<path d="M12.5372 13.4245H25.823C25.823 12.2753 25.6698 11.162 25.3844 10.103H12.5372V13.4245Z" fill="#D80027"/>
<path d="M12.5372 6.78143H23.9543C23.1749 5.5096 22.1783 4.38543 21.0164 3.45996H12.5372V6.78143Z" fill="#D80027"/>
<path d="M13.0908 26.1565C16.0873 26.1565 18.8415 25.1209 21.0164 23.3887H5.16516C7.34008 25.1209 10.0943 26.1565 13.0908 26.1565Z" fill="#D80027"/>
<path d="M2.22726 20.0676H23.9542C24.5799 19.0465 25.0652 17.9305 25.3843 16.7461H0.797119C1.11627 17.9305 1.60154 19.0465 2.22726 20.0676V20.0676Z" fill="#D80027"/>
<path d="M6.25657 2.68021H7.41684L6.33759 3.46429L6.74984 4.73298L5.67064 3.94891L4.59143 4.73298L4.94754 3.63697C3.99729 4.4285 3.16443 5.35587 2.47808 6.38916H2.84985L2.16286 6.88826C2.05583 7.06681 1.95318 7.24819 1.8548 7.43226L2.18285 8.44194L1.57081 7.99725C1.41867 8.31959 1.27951 8.64918 1.15443 8.98564L1.51585 10.0981H2.84985L1.7706 10.8822L2.18285 12.1509L1.10365 11.3668L0.457191 11.8365C0.392485 12.3566 0.358765 12.8864 0.358765 13.4241H13.091C13.091 6.39235 13.091 5.56336 13.091 0.691895C10.5758 0.691895 8.23111 1.42151 6.25657 2.68021V2.68021ZM6.74984 12.1509L5.67064 11.3668L4.59143 12.1509L5.00369 10.8822L3.92443 10.0981H5.25843L5.67064 8.82942L6.08284 10.0981H7.41684L6.33759 10.8822L6.74984 12.1509ZM6.33759 7.17324L6.74984 8.44194L5.67064 7.65786L4.59143 8.44194L5.00369 7.17324L3.92443 6.38916H5.25843L5.67064 5.12047L6.08284 6.38916H7.41684L6.33759 7.17324ZM11.3168 12.1509L10.2376 11.3668L9.15842 12.1509L9.57067 10.8822L8.49142 10.0981H9.82542L10.2376 8.82942L10.6498 10.0981H11.9838L10.9046 10.8822L11.3168 12.1509ZM10.9046 7.17324L11.3168 8.44194L10.2376 7.65786L9.15842 8.44194L9.57067 7.17324L8.49142 6.38916H9.82542L10.2376 5.12047L10.6498 6.38916H11.9838L10.9046 7.17324ZM10.9046 3.46429L11.3168 4.73298L10.2376 3.94891L9.15842 4.73298L9.57067 3.46429L8.49142 2.68021H9.82542L10.2376 1.41151L10.6498 2.68021H11.9838L10.9046 3.46429Z" fill="#0052B4"/>
</g>
<defs>
<clipPath id="clip0_548_6109">
<rect width="25.4644" height="25.4644" fill="white" transform="translate(0.358398 0.691406)"/>
</clipPath>
</defs>
</svg>
