<svg width="27" height="27" viewBox="0 0 27 27" fill="none" xmlns="http://www.w3.org/2000/svg">
<g clip-path="url(#clip0_548_6087)">
<path d="M13.3215 26.1563C20.3533 26.1563 26.0537 20.4559 26.0537 13.4241C26.0537 6.3923 20.3533 0.691895 13.3215 0.691895C6.28964 0.691895 0.589233 6.3923 0.589233 13.4241C0.589233 20.4559 6.28964 26.1563 13.3215 26.1563Z" fill="#F0F0F0"/>
<path d="M3.22084 5.67236C2.22071 6.97359 1.46658 8.47335 1.02747 10.1026H7.6511L3.22084 5.67236Z" fill="#0052B4"/>
<path d="M25.6149 10.1026C25.1758 8.47335 24.4216 6.97359 23.4215 5.67236L18.9913 10.1026H25.6149Z" fill="#0052B4"/>
<path d="M1.02747 16.7456C1.46663 18.3748 2.22076 19.8746 3.22084 21.1758L7.65096 16.7456H1.02747Z" fill="#0052B4"/>
<path d="M21.073 3.32379C19.7718 2.32367 18.2721 1.56953 16.6428 1.13037V7.75396L21.073 3.32379Z" fill="#0052B4"/>
<path d="M5.56946 23.5239C6.87068 24.524 8.37045 25.2781 9.99967 25.7173V19.0938L5.56946 23.5239Z" fill="#0052B4"/>
<path d="M9.99962 1.13037C8.3704 1.56953 6.87063 2.32367 5.56946 3.32374L9.99962 7.75391V1.13037Z" fill="#0052B4"/>
<path d="M16.6428 25.7173C18.272 25.2781 19.7718 24.524 21.073 23.5239L16.6428 19.0938V25.7173Z" fill="#0052B4"/>
<path d="M18.9913 16.7456L23.4215 21.1758C24.4216 19.8746 25.1758 18.3748 25.6149 16.7456H18.9913Z" fill="#0052B4"/>
<path d="M25.946 11.7629H14.9824H14.9823V0.799182C14.4387 0.728409 13.8844 0.691406 13.3216 0.691406C12.7586 0.691406 12.2045 0.728409 11.6609 0.799182V11.7628V11.7629H0.697132C0.626358 12.3065 0.589355 12.8608 0.589355 13.4236C0.589355 13.9866 0.626358 14.5407 0.697132 15.0843H11.6608H11.6608V26.0481C12.2045 26.1188 12.7586 26.1558 13.3216 26.1558C13.8844 26.1558 14.4387 26.1189 14.9823 26.0481V15.0844V15.0844H25.946C26.0168 14.5407 26.0538 13.9866 26.0538 13.4236C26.0538 12.8608 26.0168 12.3065 25.946 11.7629V11.7629Z" fill="#D80027"/>
<path d="M16.6432 16.7452L22.3247 22.4267C22.5861 22.1655 22.8353 21.8924 23.0732 21.6093L18.209 16.7451H16.6432V16.7452Z" fill="#D80027"/>
<path d="M10.0003 16.7451H10.0002L4.31873 22.4266C4.57994 22.6879 4.85303 22.9372 5.13612 23.175L10.0003 18.3107V16.7451Z" fill="#D80027"/>
<path d="M10.0002 10.1021V10.102L4.31861 4.42041C4.0573 4.68162 3.80802 4.95472 3.57019 5.23781L8.43444 10.1021H10.0002V10.1021Z" fill="#D80027"/>
<path d="M16.6432 10.1024L22.3248 4.42073C22.0636 4.15942 21.7905 3.91015 21.5074 3.67236L16.6432 8.53662V10.1024Z" fill="#D80027"/>
</g>
<defs>
<clipPath id="clip0_548_6087">
<rect width="25.4644" height="25.4644" fill="white" transform="translate(0.589355 0.691406)"/>
</clipPath>
</defs>
</svg>
