<svg width="26" height="27" viewBox="0 0 26 27" fill="none" xmlns="http://www.w3.org/2000/svg">
<g clip-path="url(#clip0_548_6104)">
<path d="M13.1933 26.1563C20.2251 26.1563 25.9255 20.4559 25.9255 13.4241C25.9255 6.3923 20.2251 0.691895 13.1933 0.691895C6.16147 0.691895 0.46106 6.3923 0.46106 13.4241C0.46106 20.4559 6.16147 26.1563 13.1933 26.1563Z" fill="#338AF3"/>
<path d="M13.1566 8.99561C10.7107 8.99561 8.72803 10.9784 8.72803 13.4242C8.72803 15.87 10.7107 17.8528 13.1566 17.8528C15.6024 17.8528 17.5852 15.87 17.5852 13.4242C17.5852 10.9784 15.6023 8.99561 13.1566 8.99561ZM12.0494 13.4242C12.0494 12.8127 12.5451 12.317 13.1566 12.317C13.768 12.317 14.2638 12.8127 14.2638 13.4242C14.2638 14.0357 13.768 14.5313 13.1566 14.5313C12.5451 14.5313 12.0494 14.0357 12.0494 13.4242V13.4242ZM14.3045 11.5303C14.1327 11.4259 13.9454 11.3448 13.747 11.2901V10.1561C14.2464 10.2458 14.7068 10.4466 15.102 10.7328L14.3045 11.5303ZM12.6399 11.2711C12.4322 11.3208 12.2359 11.3998 12.0556 11.5034L11.2543 10.7021C11.6594 10.4185 12.1303 10.2226 12.6399 10.1429V11.2711ZM12.0555 15.345C12.2359 15.4486 12.4321 15.5275 12.6399 15.5772V16.7054C12.1302 16.6257 11.6594 16.4297 11.2543 16.1461L12.0555 15.345ZM13.7471 15.5583C13.9454 15.5035 14.1328 15.4225 14.3045 15.3181L15.102 16.1156C14.7068 16.4017 14.2464 16.6027 13.747 16.6923V15.5583H13.7471V15.5583ZM15.0774 14.5253C15.1749 14.3556 15.2512 14.1719 15.3011 13.9778H16.4312C16.3481 14.4732 16.1554 14.9313 15.8787 15.3265L15.0774 14.5253ZM15.3011 12.8706C15.2512 12.6764 15.1749 12.4929 15.0774 12.3231L15.8786 11.5219C16.1553 11.9172 16.3481 12.3751 16.4312 12.8706H15.3011V12.8706H15.3011ZM10.4652 11.4788L11.2627 12.2763C11.1518 12.4588 11.0666 12.6586 11.012 12.8706H9.88193C9.96813 12.3571 10.172 11.8837 10.4652 11.4788ZM9.88193 13.9777H11.012C11.0666 14.1898 11.1518 14.3895 11.2627 14.5721L10.4652 15.3696C10.172 14.9647 9.96813 14.4913 9.88193 13.9777Z" fill="#F0F0F0"/>
<path d="M20.3531 13.4246C20.3531 11.4561 19.5624 9.67252 18.2817 8.37324L17.1074 9.54754C18.0876 10.5462 18.6924 11.9147 18.6924 13.4246C18.6924 16.4819 16.2139 18.9603 13.1566 18.9603C10.0993 18.9603 7.62091 16.4819 7.62091 13.4246C7.62091 11.8959 8.24047 10.512 9.24228 9.51024L8.06798 8.33594C6.76567 9.63825 5.96021 11.4374 5.96021 13.4246C5.96021 16.7178 8.17228 19.4944 11.1917 20.3495C10.8606 20.9783 10.911 21.7701 11.3839 22.3602C12.005 21.8624 12.6481 21.3471 13.1935 20.91C13.739 21.3471 14.3821 21.8624 15.0032 22.3602C15.4807 21.7642 15.5277 20.9624 15.1857 20.3305C18.172 19.4544 20.3531 16.6944 20.3531 13.4246V13.4246Z" fill="#F0F0F0"/>
</g>
<defs>
<clipPath id="clip0_548_6104">
<rect width="25.4644" height="25.4644" fill="white" transform="translate(0.461426 0.691406)"/>
</clipPath>
</defs>
</svg>
