<svg width="26" height="27" viewBox="0 0 26 27" fill="none" xmlns="http://www.w3.org/2000/svg">
<g clip-path="url(#clip0_548_6117)">
<path d="M12.9626 26.1563C19.9944 26.1563 25.6948 20.4559 25.6948 13.4241C25.6948 6.3923 19.9944 0.691895 12.9626 0.691895C5.93075 0.691895 0.230347 6.3923 0.230347 13.4241C0.230347 20.4559 5.93075 26.1563 12.9626 26.1563Z" fill="#F0F0F0"/>
<path d="M12.9626 10.1022H25.2562C24.937 8.91783 24.4518 7.80173 23.8261 6.78076H12.9626V10.1022Z" fill="#338AF3"/>
<path d="M5.03705 23.3884H20.8883C22.0503 22.4629 23.0468 21.3388 23.8261 20.0669H2.09924C2.87864 21.3387 3.87514 22.4629 5.03705 23.3884V23.3884Z" fill="#338AF3"/>
<path d="M12.9626 0.691895V3.45976H20.8883C18.7134 1.72758 15.9591 0.691895 12.9626 0.691895V0.691895Z" fill="#338AF3"/>
<path d="M12.9628 10.1017H25.2564C24.9371 8.91735 24.4519 7.80124 23.8262 6.78027H12.9628V10.1017Z" fill="#338AF3"/>
<path d="M0.230347 13.4243C0.230347 14.5735 0.383531 15.6867 0.668962 16.7458H25.2562C25.5416 15.6867 25.6948 14.5735 25.6948 13.4243H0.230347Z" fill="#338AF3"/>
<path d="M11.3019 8.14347L9.74688 8.87492L10.5749 10.3809L8.88641 10.0579L8.67245 11.7636L7.49641 10.5091L6.32027 11.7636L6.10636 10.0579L4.41785 10.3808L5.24584 8.87487L3.69092 8.14347L5.24589 7.41211L4.41785 5.90613L6.10631 6.22911L6.32032 4.52344L7.49641 5.77796L8.6725 4.52344L8.88641 6.22911L10.575 5.90613L9.74693 7.41216L11.3019 8.14347Z" fill="#FFDA44"/>
</g>
<defs>
<clipPath id="clip0_548_6117">
<rect width="25.4644" height="25.4644" fill="white" transform="translate(0.230469 0.691406)"/>
</clipPath>
</defs>
</svg>
