<svg width="26" height="27" viewBox="0 0 26 27" fill="none" xmlns="http://www.w3.org/2000/svg">
<g clip-path="url(#clip0_548_6127)">
<path d="M0.831546 9.42128C0.441522 10.6432 0.230297 11.9449 0.230347 13.2962C0.230297 14.6475 0.441572 15.9493 0.831596 17.1712L12.9626 17.7248L25.0935 17.1713C25.4835 15.9493 25.6948 14.6475 25.6948 13.2962C25.6948 11.9449 25.4836 10.6432 25.0935 9.42123L12.9626 8.86768L0.831546 9.42128Z" fill="#F0F0F0"/>
<path d="M25.0936 9.42074L12.9626 8.86719L0.831592 9.42074C0.716007 9.78301 0.616487 10.1524 0.533081 10.5279H25.3919C25.3086 10.1523 25.2092 9.78291 25.0936 9.42074Z" fill="#D80027"/>
<path d="M0.533325 16.0635C0.616632 16.439 0.716152 16.8083 0.831737 17.1706L0.83293 17.1706L12.9627 17.7242L25.0936 17.1706C25.2092 16.8084 25.3087 16.439 25.3921 16.0635H0.533325Z" fill="#D80027"/>
<path d="M12.9628 26.0281C18.6434 26.0281 23.4543 22.3078 25.0938 17.1709H0.831909C2.47143 22.3077 7.28242 26.0281 12.9628 26.0281V26.0281Z" fill="#6DA544"/>
<path d="M12.9629 0.563477C7.28242 0.563526 2.47153 4.28387 0.831909 9.42067L25.0938 9.42072C23.4544 4.28382 18.6434 0.563427 12.9629 0.563477V0.563477Z" fill="#338AF3"/>
<path d="M6.04894 5.82356C6.04894 4.63106 6.88703 3.63486 8.00622 3.39046C7.83424 3.35286 7.65574 3.33252 7.47241 3.33252C6.09664 3.33252 4.98132 4.44778 4.98132 5.82361C4.98132 7.19943 6.09654 8.3147 7.47241 8.3147C7.65574 8.3147 7.83419 8.2943 8.00622 8.25675C6.88708 8.01226 6.04894 7.01606 6.04894 5.82356V5.82356Z" fill="#F0F0F0"/>
<path d="M9.47843 6.95557L9.64704 7.47455H10.1927L9.75128 7.79535L9.91989 8.31433L9.47843 7.99359L9.03689 8.31433L9.20554 7.79535L8.76404 7.47455H9.30973L9.47843 6.95557Z" fill="#F0F0F0"/>
<path d="M11.2203 6.95557L11.3889 7.47455H11.9346L11.4931 7.79535L11.6618 8.31433L11.2203 7.99359L10.7788 8.31433L10.9474 7.79535L10.506 7.47455H11.0516L11.2203 6.95557Z" fill="#F0F0F0"/>
<path d="M12.9618 6.95557L13.1304 7.47455H13.6762L13.2347 7.79535L13.4033 8.31433L12.9618 7.99359L12.5203 8.31433L12.689 7.79535L12.2474 7.47455H12.7932L12.9618 6.95557Z" fill="#F0F0F0"/>
<path d="M14.7038 6.95557L14.8724 7.47455H15.4181L14.9766 7.79535L15.1453 8.31433L14.7038 7.99359L14.2622 8.31433L14.4309 7.79535L13.9894 7.47455H14.5351L14.7038 6.95557Z" fill="#F0F0F0"/>
<path d="M16.4455 6.95557L16.6142 7.47455H17.1598L16.7184 7.79535L16.887 8.31433L16.4455 7.99359L16.004 8.31433L16.1727 7.79535L15.7312 7.47455H16.2768L16.4455 6.95557Z" fill="#F0F0F0"/>
<path d="M11.2203 5.14404L11.3889 5.66298H11.9346L11.4931 5.98382L11.6618 6.50276L11.2203 6.18202L10.7788 6.50276L10.9474 5.98382L10.506 5.66298H11.0516L11.2203 5.14404Z" fill="#F0F0F0"/>
<path d="M12.9618 5.14404L13.1304 5.66298H13.6762L13.2347 5.98382L13.4033 6.50276L12.9618 6.18202L12.5203 6.50276L12.689 5.98382L12.2474 5.66298H12.7932L12.9618 5.14404Z" fill="#F0F0F0"/>
<path d="M14.7038 5.14404L14.8724 5.66298H15.4181L14.9766 5.98382L15.1453 6.50276L14.7038 6.18202L14.2622 6.50276L14.4309 5.98382L13.9894 5.66298H14.5351L14.7038 5.14404Z" fill="#F0F0F0"/>
<path d="M16.4455 5.14404L16.6142 5.66298H17.1598L16.7184 5.98382L16.887 6.50276L16.4455 6.18202L16.004 6.50276L16.1727 5.98382L15.7312 5.66298H16.2768L16.4455 5.14404Z" fill="#F0F0F0"/>
<path d="M12.9618 3.33203L13.1304 3.85107H13.6762L13.2347 4.17181L13.4033 4.69085L12.9618 4.3701L12.5203 4.69085L12.689 4.17181L12.2474 3.85107H12.7932L12.9618 3.33203Z" fill="#F0F0F0"/>
<path d="M14.7038 3.33203L14.8724 3.85107H15.4181L14.9766 4.17181L15.1453 4.69085L14.7038 4.3701L14.2622 4.69085L14.4309 4.17181L13.9894 3.85107H14.5351L14.7038 3.33203Z" fill="#F0F0F0"/>
<path d="M16.4455 3.33203L16.6142 3.85107H17.1598L16.7184 4.17181L16.887 4.69085L16.4455 4.3701L16.004 4.69085L16.1727 4.17181L15.7312 3.85107H16.2768L16.4455 3.33203Z" fill="#F0F0F0"/>
</g>
<defs>
<clipPath id="clip0_548_6127">
<rect width="25.4644" height="25.4644" fill="white" transform="translate(0.230469 0.563477)"/>
</clipPath>
</defs>
</svg>
