<svg width="26" height="27" viewBox="0 0 26 27" fill="none" xmlns="http://www.w3.org/2000/svg">
<g clip-path="url(#clip0_548_6148)">
<path d="M25.5668 13.2956C25.5668 12.7327 25.5298 12.1784 25.459 11.6348H11.1737C8.57248 9.03379 3.83127 4.29288 3.83147 4.29248C-1.14076 9.26471 -1.14076 17.3263 3.83147 22.2986L11.1738 14.9563H25.459C25.5298 14.4127 25.5668 13.8584 25.5668 13.2956V13.2956Z" fill="black"/>
<path d="M25.5632 13.5854C25.5627 13.6101 25.5621 13.6349 25.5614 13.6596C25.562 13.6348 25.5626 13.6101 25.5632 13.5854Z" fill="#F0F0F0"/>
<path d="M25.5509 13.9331C25.5497 13.9575 25.5481 13.9818 25.5468 14.0062C25.5481 13.9819 25.5496 13.9575 25.5509 13.9331Z" fill="#F0F0F0"/>
<path d="M25.5339 14.2109C25.5314 14.2468 25.5289 14.2828 25.526 14.3186C25.5289 14.2828 25.5313 14.2468 25.5339 14.2109Z" fill="#F0F0F0"/>
<path d="M25.4913 11.9082C25.496 11.951 25.5007 11.9937 25.505 12.0365C25.5007 11.9936 25.496 11.951 25.4913 11.9082Z" fill="#F0F0F0"/>
<path d="M25.5468 12.5859C25.5481 12.6103 25.5497 12.6346 25.5509 12.6591C25.5497 12.6346 25.5481 12.6103 25.5468 12.5859Z" fill="#F0F0F0"/>
<path d="M25.5614 12.9326C25.5621 12.9573 25.5626 12.9821 25.5632 13.0067C25.5626 12.982 25.5621 12.9573 25.5614 12.9326Z" fill="#F0F0F0"/>
<path d="M25.526 12.2734C25.5289 12.3092 25.5314 12.3452 25.5339 12.3811C25.5313 12.3452 25.5289 12.3092 25.526 12.2734Z" fill="#F0F0F0"/>
<path d="M25.4587 11.6349C25.4644 11.6786 25.4695 11.7224 25.4747 11.7661C24.719 5.45563 19.3483 0.563477 12.8342 0.563477C9.31824 0.563477 6.13514 1.98864 3.83105 4.29282L11.1732 11.635H25.4587V11.6349Z" fill="#D80027"/>
<path d="M25.4587 14.9564H11.1732L3.83105 22.2986C6.13514 24.6027 9.31824 26.0279 12.8342 26.0279C19.3483 26.0279 24.7191 21.1358 25.4747 14.8252C25.4695 14.8689 25.4643 14.9128 25.4587 14.9564V14.9564Z" fill="#6DA544"/>
<path d="M25.505 14.5557C25.5007 14.5985 25.496 14.6412 25.4913 14.684C25.496 14.6412 25.5008 14.5986 25.505 14.5557Z" fill="#F0F0F0"/>
<path d="M25.5338 12.3809C25.5387 12.4492 25.5431 12.5177 25.5468 12.5864C25.543 12.5177 25.5387 12.4492 25.5338 12.3809V12.3809Z" fill="black"/>
<path d="M25.4749 11.7661C25.4806 11.8135 25.486 11.861 25.4911 11.9085C25.4859 11.861 25.4805 11.8136 25.4749 11.7661Z" fill="black"/>
<path d="M25.5048 12.0356C25.5126 12.115 25.5196 12.1946 25.5259 12.2744C25.5196 12.1946 25.5126 12.115 25.5048 12.0356Z" fill="black"/>
<path d="M25.5667 13.2964C25.5667 13.3933 25.5652 13.4897 25.5631 13.586C25.5652 13.4897 25.5667 13.3932 25.5667 13.2964Z" fill="black"/>
<path d="M25.5468 14.0063C25.543 14.075 25.5386 14.1435 25.5338 14.2119C25.5386 14.1435 25.543 14.075 25.5468 14.0063Z" fill="black"/>
<path d="M25.5259 14.3179C25.5196 14.3976 25.5126 14.4772 25.5048 14.5565C25.5126 14.4772 25.5196 14.3976 25.5259 14.3179Z" fill="black"/>
<path d="M25.4911 14.6836C25.486 14.7311 25.4806 14.7786 25.4749 14.826C25.4805 14.7786 25.4859 14.7311 25.4911 14.6836Z" fill="black"/>
<path d="M25.5631 13.0063C25.5652 13.1027 25.5667 13.1992 25.5667 13.296C25.5667 13.1992 25.5652 13.1027 25.5631 13.0063Z" fill="black"/>
<path d="M25.5509 12.6582C25.5554 12.7494 25.5588 12.8409 25.5614 12.9325C25.5588 12.8408 25.5554 12.7494 25.5509 12.6582Z" fill="black"/>
<path d="M25.561 13.6592C25.5584 13.7508 25.555 13.8423 25.5505 13.9335C25.5551 13.8423 25.5584 13.7508 25.561 13.6592Z" fill="black"/>
<path d="M25.5544 12.7384H10.7057L3.07846 5.1123C2.83193 5.37232 2.5647 5.73539 2.39943 5.99396L9.69355 13.2919L2.39331 20.5923C2.53784 20.8494 2.85271 21.23 3.07379 21.4776L10.7059 13.8456H25.5562C25.5641 13.6619 25.5666 13.4775 25.5666 13.292C25.5665 13.0434 25.5597 12.8602 25.5544 12.7384Z" fill="#FFDA44"/>
<path d="M3.19489 16.0107V14.9442C4.25913 14.9442 5.12487 14.0784 5.12487 13.0143C5.12487 12.2613 4.51228 11.6488 3.75939 11.6488C3.24647 11.6488 2.82914 12.0661 2.82914 12.5791C2.82914 12.9071 3.09597 13.174 3.42402 13.174C3.60944 13.174 3.76028 13.023 3.76028 12.8376H4.82671C4.82671 13.6111 4.19746 14.2404 3.42407 14.2404C2.508 14.2404 1.76282 13.4951 1.76282 12.5792C1.76282 11.4782 2.65855 10.5825 3.75944 10.5825C5.1004 10.5825 6.19139 11.6735 6.19139 13.0144C6.19134 14.6665 4.84715 16.0107 3.19489 16.0107V16.0107Z" fill="#FFDA44"/>
</g>
<defs>
<clipPath id="clip0_548_6148">
<rect width="25.4645" height="25.4645" fill="white" transform="translate(0.102539 0.563477)"/>
</clipPath>
</defs>
</svg>
