<svg width="27" height="27" viewBox="0 0 27 27" fill="none" xmlns="http://www.w3.org/2000/svg">
<g clip-path="url(#clip0_548_6174)">
<path d="M13.7061 0.563477C20.7379 0.563477 26.4383 6.26393 26.4383 13.2957C26.4383 20.3275 20.7379 26.0279 13.7061 26.0279C13.7061 25.4744 12.0454 13.2957 12.0454 13.2957L13.7061 0.563477Z" fill="#F0F0F0"/>
<path d="M13.7062 26.0279C6.67445 26.0279 0.973999 20.3275 0.973999 13.2957C0.973999 6.26393 6.67445 0.563477 13.7062 0.563477" fill="#FFDA44"/>
<path d="M18.5817 11.643L20.9746 14.8085C20.5976 15.3793 20.5996 16.1484 21.0356 16.7252C21.5886 17.4569 22.6301 17.6017 23.3618 17.0486C24.0935 16.4955 24.2383 15.454 23.6852 14.7224C23.2492 14.1456 22.5098 13.9339 21.8578 14.1409L18.1286 9.20752L17.2454 9.87516L15.9204 10.8765L17.2557 12.6429L18.5817 11.643ZM22.0266 15.2821C22.2705 15.0977 22.6177 15.1461 22.802 15.3899C22.9863 15.6338 22.9381 15.981 22.6942 16.1654C22.4504 16.3496 22.1032 16.3015 21.9189 16.0576C21.7344 15.8136 21.7827 15.4664 22.0266 15.2821V15.2821Z" fill="#ACABB1"/>
<path d="M22.6858 12.6425L24.0211 10.8761L22.6963 9.87468L21.8131 9.20703L18.0839 14.1404C17.432 13.9334 16.6924 14.1451 16.2565 14.7219C15.7033 15.4536 15.8481 16.495 16.5798 17.0481C17.3115 17.6011 18.3529 17.4564 18.906 16.7247C19.342 16.1479 19.344 15.3788 18.967 14.808L21.3598 11.6425L22.6858 12.6425ZM18.0228 16.0572C17.8385 16.3011 17.4913 16.3493 17.2474 16.165C17.0035 15.9806 16.9553 15.6334 17.1397 15.3895C17.324 15.1457 17.6712 15.0973 17.9151 15.2817C18.159 15.4661 18.2072 15.8133 18.0228 16.0572V16.0572Z" fill="#FFDA44"/>
</g>
<defs>
<clipPath id="clip0_548_6174">
<rect width="25.4644" height="25.4644" fill="white" transform="translate(0.974609 0.563477)"/>
</clipPath>
</defs>
</svg>
