<svg width="27" height="27" viewBox="0 0 27 27" fill="none" xmlns="http://www.w3.org/2000/svg">
<g clip-path="url(#clip0_548_6179)">
<path d="M25.047 18.8314C25.8565 17.1576 26.3104 15.2797 26.3104 13.2957C26.3104 11.3117 25.8565 9.43388 25.047 7.75999L13.5782 6.65283L2.10932 7.75999C1.29988 9.43388 0.845947 11.3117 0.845947 13.2957C0.845947 15.2797 1.29988 17.1576 2.10932 18.8314L13.5782 19.9386L25.047 18.8314Z" fill="#0052B4"/>
<path d="M13.5781 26.0275C18.6259 26.0275 22.9875 23.0899 25.0469 18.8311H2.10925C4.16869 23.0899 8.53027 26.0275 13.5781 26.0275Z" fill="#D80027"/>
<path d="M22.8968 15.7947L22.2243 16.3202L22.5161 17.1219L21.8086 16.6448L21.136 17.1702L21.3712 16.3498L20.6637 15.8726L21.5166 15.8428L21.752 15.0225L22.0439 15.8244L22.8968 15.7947Z" fill="#F0F0F0"/>
<path d="M21.1748 12.8122L20.7226 13.536L21.2713 14.1896L20.4431 13.9834L19.9908 14.707L19.9312 13.8557L19.1031 13.6491L19.8945 13.3294L19.8351 12.478L20.3836 13.1319L21.1748 12.8122Z" fill="#F0F0F0"/>
<path d="M18.5366 10.5977L18.3592 11.4325L19.0983 11.8592L18.2495 11.9487L18.0721 12.7832L17.7249 12.0037L16.8761 12.0927L17.5104 11.5217L17.1633 10.7421L17.9024 11.1688L18.5366 10.5977Z" fill="#F0F0F0"/>
<path d="M15.3002 9.42041L15.4191 10.2656L16.2595 10.4137L15.4925 10.788L15.6113 11.6331L15.0184 11.0191L14.2512 11.3933L14.652 10.6396L14.0591 10.0258L14.8996 10.1739L15.3002 9.42041Z" fill="#F0F0F0"/>
<path d="M11.856 9.42041L12.2567 10.1739L13.097 10.0257L12.5043 10.6398L12.9048 11.3934L12.1378 11.0191L11.5449 11.6329L11.6638 10.788L10.8967 10.4139L11.7372 10.2656L11.856 9.42041Z" fill="#F0F0F0"/>
<path d="M8.61967 10.5977L9.25399 11.1688L9.99291 10.7421L9.6459 11.522L10.2801 12.0929L9.43134 12.0037L9.08409 12.7832L8.90689 11.9485L8.05811 11.8594L8.79717 11.4326L8.61967 10.5977Z" fill="#F0F0F0"/>
<path d="M5.98137 12.812L6.77281 13.1317L7.32119 12.478L7.26185 13.3295L8.05304 13.6493L7.225 13.8556L7.16537 14.7069L6.71327 13.9833L5.88513 14.1896L6.43371 13.5358L5.98137 12.812Z" fill="#F0F0F0"/>
<path d="M4.25952 15.7946L5.11258 15.8243L5.40433 15.0225L5.63982 15.8429L6.49263 15.8727L5.7851 16.3499L6.02025 17.1703L5.34783 16.6449L4.64024 17.122L4.93214 16.3201L4.25952 15.7946Z" fill="#F0F0F0"/>
<path d="M25.0469 7.75996C22.9875 3.50109 18.6259 0.563477 13.5781 0.563477C8.53027 0.563477 4.16869 3.50109 2.10925 7.75996H25.0469Z" fill="#FFDA44"/>
</g>
<defs>
<clipPath id="clip0_548_6179">
<rect width="25.4644" height="25.4644" fill="white" transform="translate(0.845703 0.563477)"/>
</clipPath>
</defs>
</svg>
