<svg width="27" height="27" viewBox="0 0 27 27" fill="none" xmlns="http://www.w3.org/2000/svg">
<g clip-path="url(#clip0_548_6195)">
<path d="M13.45 26.1558C20.4818 26.1558 26.1822 20.4554 26.1822 13.4236C26.1822 6.39181 20.4818 0.691406 13.45 0.691406C6.41818 0.691406 0.717773 6.39181 0.717773 13.4236C0.717773 20.4554 6.41818 26.1558 13.45 26.1558Z" fill="#FCFCFC"/>
<path d="M15.6124 9.58719C15.6124 8.39295 14.6442 7.4248 13.4499 7.4248C12.2556 7.4248 11.2875 8.39295 11.2875 9.58719H6.53027C6.53027 10.763 7.55452 11.7163 8.73031 11.7163H8.65949C8.65949 12.8921 9.61261 13.8455 10.7886 13.8455C10.7886 14.8866 11.5363 15.7517 12.5238 15.9366L12.5183 15.949H14.3816L14.3761 15.9366C15.3636 15.7516 16.1113 14.8865 16.1113 13.8455C17.2873 13.8455 18.2404 12.8921 18.2404 11.7163H18.1695C19.3453 11.7163 20.3696 10.763 20.3696 9.58719H15.6124Z" fill="#FFDA44"/>
<path d="M12.4993 15.728L11.1586 18.7551C11.866 19.0426 12.6392 19.2025 13.45 19.2025C14.2607 19.2025 15.0339 19.0427 15.7413 18.7551L14.4006 15.728H12.4993Z" fill="#FFDA44"/>
<path d="M10.6819 10.6504V14.3751C10.6819 16.4937 13.4497 17.143 13.4497 17.143C13.4497 17.143 16.2176 16.4937 16.2176 14.3751V10.6504H10.6819Z" fill="#F0F0F0"/>
<path d="M3.80521 13.5142L5.30219 17.7011L6.78361 13.5142H7.91419L5.75439 19.0499H4.84995L2.67468 13.5142H3.80521Z" fill="#338AF3"/>
<path d="M21.2001 19.0499V13.5142H22.276V19.0499H21.2001Z" fill="#338AF3"/>
<path d="M11.7891 11.8525V16.3662C12.1696 16.6463 12.579 16.8389 12.8962 16.9622V11.8525H11.7891Z" fill="#D80027"/>
<path d="M15.1105 11.8525V16.3662C14.7299 16.6463 14.3205 16.8389 14.0033 16.9622V11.8525H15.1105Z" fill="#D80027"/>
<path d="M10.6819 10.6499H16.2176V12.4064H10.6819V10.6499Z" fill="#0052B4"/>
</g>
<defs>
<clipPath id="clip0_548_6195">
<rect width="25.4644" height="25.4644" fill="white" transform="translate(0.717773 0.691406)"/>
</clipPath>
</defs>
</svg>
