<svg width="27" height="27" viewBox="0 0 27 27" fill="none" xmlns="http://www.w3.org/2000/svg">
<g clip-path="url(#clip0_548_6208)">
<path d="M13.3213 26.0279C20.3531 26.0279 26.0535 20.3275 26.0535 13.2957C26.0535 6.26388 20.3531 0.563477 13.3213 0.563477C6.28952 0.563477 0.589111 6.26388 0.589111 13.2957C0.589111 20.3275 6.28952 26.0279 13.3213 26.0279Z" fill="#F0F0F0"/>
<path d="M26.0535 13.2954C26.0535 20.3272 20.3531 26.0276 13.3213 26.0276C6.28956 26.0276 0.589111 20.3272 0.589111 13.2954" fill="#496E2D"/>
<path d="M22.6228 9.42359C22.1674 8.13232 20.9371 7.20654 19.4901 7.20654H16.6431C14.8087 7.20654 13.3216 8.69363 13.3216 10.528C13.3216 11.1273 13.4811 11.7033 13.7588 12.1887C12.7016 12.1801 11.7231 12.196 11.1073 12.1887C11.1073 10.9077 11.1073 9.27593 11.1073 8.93449L11.2381 8.80369C11.8253 8.21652 11.6294 7.23793 11.6294 7.23793C11.6294 7.23793 10.651 7.04222 10.0638 7.62939L9.37948 8.3137H8.61619C6.93464 8.3137 5.57155 9.67684 5.57155 11.3583H7.78586V13.8494C7.78586 14.2138 7.85932 14.5609 7.99206 14.877L7.23226 15.5101H6.1251V14.403H5.01794V16.6173H10.0001V18.8316H8.89296V19.9388H11.1073V17.7245L12.1221 16.5066H14.521L15.5359 17.7245V18.8316H14.4287V19.9388H18.8573V13.8494C18.8573 12.9322 19.6008 12.1887 20.518 12.1887C20.5416 12.1887 20.5649 12.1895 20.5883 12.1905C20.5424 12.013 20.518 11.8269 20.518 11.6351C20.5181 10.449 21.4508 9.48074 22.6228 9.42359V9.42359ZM16.6431 18.8316V16.5065H16.7353L17.7502 17.7244V18.8316H16.6431Z" fill="#D80027"/>
</g>
<defs>
<clipPath id="clip0_548_6208">
<rect width="25.4644" height="25.4644" fill="white" transform="translate(0.589355 0.563477)"/>
</clipPath>
</defs>
</svg>
