<svg width="26" height="27" viewBox="0 0 26 27" fill="none" xmlns="http://www.w3.org/2000/svg">
<g clip-path="url(#clip0_548_6212)">
<path d="M13.1933 26.0279C20.2251 26.0279 25.9255 20.3275 25.9255 13.2957C25.9255 6.26388 20.2251 0.563477 13.1933 0.563477C6.16147 0.563477 0.46106 6.26388 0.46106 13.2957C0.46106 20.3275 6.16147 26.0279 13.1933 26.0279Z" fill="#F0F0F0"/>
<path d="M13.1936 26.0283C18.668 26.0283 23.3349 22.573 25.1339 17.7246H1.2533C3.05227 22.573 7.71917 26.0283 13.1936 26.0283Z" fill="black"/>
<path d="M13.1936 0.563477C7.71917 0.563477 3.05227 4.01868 1.2533 8.86712H25.1339C23.3349 4.01868 18.668 0.563477 13.1936 0.563477V0.563477Z" fill="#D80027"/>
</g>
<defs>
<clipPath id="clip0_548_6212">
<rect width="25.4644" height="25.4644" fill="white" transform="translate(0.461426 0.563477)"/>
</clipPath>
</defs>
</svg>
