<svg width="27" height="27" viewBox="0 0 27 27" fill="none" xmlns="http://www.w3.org/2000/svg">
<g clip-path="url(#clip0_548_6216)">
<path d="M13.5782 26.1822C20.61 26.1822 26.3104 20.4818 26.3104 13.45C26.3104 6.41818 20.61 0.717773 13.5782 0.717773C6.54636 0.717773 0.845947 6.41818 0.845947 13.45C0.845947 20.4818 6.54636 26.1822 13.5782 26.1822Z" fill="#496E2D"/>
<path d="M18.5603 13.45H13.5781V26.1822C15.0664 26.1822 16.4946 25.926 17.8222 25.4567L18.5603 13.45Z" fill="#D80027"/>
<path d="M22.066 22.9391C24.6705 20.6078 26.3101 17.2205 26.3101 13.45H21.3279L22.066 22.9391Z" fill="#FF9811"/>
<path d="M17.8223 13.45V25.4567C19.4037 24.8977 20.8417 24.0353 22.0664 22.9391V13.45H17.8223Z" fill="black"/>
<path d="M24.3728 9.02122H21.0513C21.0513 8.40977 20.5556 7.91406 19.9441 7.91406C19.3327 7.91406 18.837 8.40977 18.837 9.02122H15.5155C15.5155 9.63271 16.0481 10.1284 16.6595 10.1284H16.6227C16.6227 10.7399 17.1183 11.2355 17.7298 11.2355C17.7298 11.847 18.2254 12.3427 18.837 12.3427H21.0513C21.6627 12.3427 22.1584 11.847 22.1584 11.2355C22.7699 11.2355 23.2656 10.7399 23.2656 10.1284H23.2287C23.8402 10.1283 24.3728 9.63266 24.3728 9.02122V9.02122Z" fill="#FF9811"/>
</g>
<defs>
<clipPath id="clip0_548_6216">
<rect width="25.4644" height="25.4644" fill="white" transform="translate(0.845703 0.717773)"/>
</clipPath>
</defs>
</svg>
