<svg width="27" height="27" viewBox="0 0 27 27" fill="none" xmlns="http://www.w3.org/2000/svg">
<g clip-path="url(#clip0_548_6222)">
<path d="M13.476 26.3104C20.5078 26.3104 26.2082 20.61 26.2082 13.5782C26.2082 6.54636 20.5078 0.845947 13.476 0.845947C6.44418 0.845947 0.743774 6.54636 0.743774 13.5782C0.743774 20.61 6.44418 26.3104 13.476 26.3104Z" fill="#F0F0F0"/>
<path d="M24.9891 8.13748C24.3422 6.77106 23.4594 5.53847 22.393 4.49179L13.4755 3.61401L4.55798 4.49184C4.52954 4.51974 4.50178 4.54829 4.47363 4.57649L8.03467 8.13753L13.4755 8.3037L24.9891 8.13748Z" fill="#FFDA44"/>
<path d="M4.47339 22.5804C4.52024 22.6272 4.56699 22.6741 4.61454 22.7203L13.4754 23.5427L22.3362 22.7203C23.4135 21.6759 24.3072 20.4432 24.9631 19.0746L8.49319 18.5605C7.07608 19.9777 5.44158 21.6121 4.47339 22.5804V22.5804Z" fill="#FFDA44"/>
<path d="M26.0811 11.7829L11.2612 11.3638L13.4755 13.5781C12.8197 14.2339 11.8406 15.213 11.2612 15.7924L26.0734 15.4286C26.1614 14.8244 26.2078 14.2067 26.2078 13.5781C26.2078 12.9686 26.164 12.3695 26.0811 11.7829V11.7829Z" fill="black"/>
<path d="M13.4756 0.846191C10.0027 0.846191 6.85518 2.23729 4.55811 4.49188H22.3932C20.0961 2.23729 16.9485 0.846191 13.4756 0.846191Z" fill="#6DA544"/>
<path d="M11.6805 11.7829H26.0813C25.8996 10.4958 25.5258 9.27062 24.9892 8.13721H8.03479L11.6805 11.7829Z" fill="#D80027"/>
<path d="M7.97949 19.0744H24.9635C25.5063 17.9418 25.8861 16.7165 26.0736 15.4287H11.6252C10.2133 16.8405 9.01682 18.0371 7.97949 19.0744Z" fill="#D80027"/>
<path d="M13.4756 26.3103C16.9201 26.3103 20.0444 24.942 22.3364 22.72H4.61487C6.90687 24.942 10.0312 26.3103 13.4756 26.3103Z" fill="#6DA544"/>
<path d="M5.29005 3.8269C5.00701 4.06474 4.73392 4.31406 4.47266 4.57522L13.4757 13.5783L4.47266 22.5814C4.73387 22.8426 5.00701 23.0918 5.29005 23.3297L15.0414 13.5783L5.29005 3.8269Z" fill="black"/>
<path d="M5.86243 10.2566L6.68679 12.7939H9.35483L7.19642 14.3621L8.02083 16.8995L5.86243 15.3313L3.70397 16.8995L4.52848 14.3621L2.37012 12.7939H5.03801L5.86243 10.2566Z" fill="#D80027"/>
<path d="M8.13013 13.7858L5.98166 13.0246C5.98166 13.0246 5.82291 11.5354 5.81331 11.4849C5.7404 11.1008 5.40285 10.8103 4.9975 10.8103C4.53895 10.8103 4.16712 11.1821 4.16712 11.6407C4.16712 11.7167 4.17822 11.79 4.19736 11.86L3.59497 12.4664H4.66607C4.66607 13.5782 3.83648 13.5782 3.83648 14.6853L4.29669 15.7925H7.06455L7.52589 14.6853H7.52569C7.5719 14.5791 7.59995 14.4695 7.61154 14.3601C8.00922 14.1992 8.13013 13.7858 8.13013 13.7858V13.7858Z" fill="#FFDA44"/>
</g>
<defs>
<clipPath id="clip0_548_6222">
<rect width="25.4644" height="25.4644" fill="white" transform="translate(0.743164 0.846191)"/>
</clipPath>
</defs>
</svg>
